<?xml version="1.0" encoding="UTF-8"?>
<svg xmlns="http://www.w3.org/2000/svg" xmlns:xlink="http://www.w3.org/1999/xlink" width="84px" height="84px" viewBox="0 0 84 84" version="1.1">
  <title>Group 4</title>
  <g id="Page-1" stroke="none" stroke-width="1" fill="none" fill-rule="evenodd">
    <g id="Liwa_news-video" transform="translate(-1129.000000, -653.000000)">
      <g id="Group-4" transform="translate(1129.000000, 653.000000)">
        <circle id="Oval-Copy-2" fill="#0C3458" cx="42" cy="42" r="42"></circle>
        <path d="M35.208832,60 C51.058456,60 59.725912,46.1511884 59.725912,34.14227 C59.725912,33.7489184 59.718352,33.3571615 59.701384,32.9675308 C61.383736,31.6847084 62.846176,30.0841926 64,28.2618407 C62.45608,28.9852887 60.794392,29.4727258 59.05156,29.6926128 C60.830512,28.5676627 62.19652,26.7873037 62.840632,24.6653312 C61.175248,25.7062955 59.331952,26.4635859 57.369208,26.8712896 C55.796728,25.1049282 53.557288,24 51.079288,24 C46.320184,24 42.461056,28.070126 42.461056,33.0873081 C42.461056,33.8006566 42.536824,34.4941603 42.684664,35.1594915 C35.523328,34.7799603 29.17276,31.1632517 24.923368,25.6644797 C24.182656,27.0070136 23.756272,28.5676627 23.756272,30.2321424 C23.756272,33.3851568 25.27768,36.1685624 27.590872,37.7968963 C26.177488,37.7510053 24.849448,37.3413526 23.688064,36.6600747 C23.686216,36.6979924 23.686216,36.7360873 23.686216,36.775954 C23.686216,41.1777711 26.656792,44.8524193 30.599416,45.6857223 C29.875672,45.8933836 29.114128,46.0053648 28.327888,46.0053648 C27.772648,46.0053648 27.232696,45.947248 26.708032,45.8414683 C27.804904,49.4519754 30.985816,52.0794578 34.75792,52.1535213 C31.808008,54.5912382 28.092856,56.0438042 24.055648,56.0438042 C23.360296,56.0438042 22.67452,56.0019884 22,55.9180025 C25.813768,58.4955187 30.341704,60 35.208832,60" id="twitter-copy" fill="#FFFFFF"></path>
      </g>
    </g>
  </g>
</svg>
