<?xml version="1.0" encoding="UTF-8"?>
<svg xmlns="http://www.w3.org/2000/svg" id="Layer_1" data-name="Layer 1" viewBox="0 0 1902.22 510.79">
  <defs>
    <style>.cls-1{opacity:0.1;}.cls-2{fill:none;stroke:#fff;stroke-miterlimit:10;}</style>
  </defs>
  <g class="cls-1">
    <polygon class="cls-2" points="68.5 157.39 68.5 235.79 136.4 275 204.3 235.79 204.3 157.39 136.4 118.19 68.5 157.39"></polygon>
    <line class="cls-2" x1="136.4" y1="196.59" x2="136.4" y2="118.18"></line>
    <polyline class="cls-2" points="68.5 235.79 136.4 196.59 204.3 235.79"></polyline>
    <polygon class="cls-2" points="204.3 157.39 204.3 235.79 272.2 275 340.11 235.79 340.11 157.39 272.2 118.19 204.3 157.39"></polygon>
    <line class="cls-2" x1="272.2" y1="196.59" x2="272.2" y2="118.18"></line>
    <polyline class="cls-2" points="204.3 235.79 272.2 196.59 340.11 235.79"></polyline>
    <polygon class="cls-2" points="340.11 157.39 340.11 235.79 408.01 275 475.91 235.79 475.91 157.39 408.01 118.19 340.11 157.39"></polygon>
    <line class="cls-2" x1="408.01" y1="196.59" x2="408.01" y2="118.18"></line>
    <polyline class="cls-2" points="340.11 235.79 408.01 196.59 475.91 235.79"></polyline>
    <polygon class="cls-2" points="475.91 157.39 475.91 235.79 543.81 275 611.71 235.79 611.71 157.39 543.81 118.19 475.91 157.39"></polygon>
    <line class="cls-2" x1="543.81" y1="196.59" x2="543.81" y2="118.18"></line>
    <polyline class="cls-2" points="475.91 235.79 543.81 196.59 611.71 235.79"></polyline>
    <polygon class="cls-2" points="611.71 157.39 611.71 235.79 679.61 275 747.51 235.79 747.51 157.39 679.61 118.19 611.71 157.39"></polygon>
    <line class="cls-2" x1="679.61" y1="196.59" x2="679.61" y2="118.18"></line>
    <polyline class="cls-2" points="611.71 235.79 679.61 196.59 747.51 235.79"></polyline>
    <polygon class="cls-2" points="747.51 157.39 747.51 235.79 815.41 275 883.31 235.79 883.31 157.39 815.41 118.19 747.51 157.39"></polygon>
    <line class="cls-2" x1="815.41" y1="196.59" x2="815.41" y2="118.18"></line>
    <polyline class="cls-2" points="747.51 235.79 815.41 196.59 883.31 235.79"></polyline>
    <polygon class="cls-2" points="883.31 157.39 883.31 235.79 951.21 275 1019.11 235.79 1019.11 157.39 951.21 118.19 883.31 157.39"></polygon>
    <line class="cls-2" x1="951.21" y1="196.59" x2="951.21" y2="118.18"></line>
    <polyline class="cls-2" points="883.31 235.79 951.21 196.59 1019.11 235.79"></polyline>
    <polygon class="cls-2" points="1019.11 157.39 1019.11 235.79 1087.01 275 1154.91 235.79 1154.91 157.39 1087.01 118.19 1019.11 157.39"></polygon>
    <line class="cls-2" x1="1087.01" y1="196.59" x2="1087.01" y2="118.18"></line>
    <polyline class="cls-2" points="1019.11 235.79 1087.01 196.59 1154.91 235.79"></polyline>
    <polygon class="cls-2" points="1154.91 157.39 1154.91 235.79 1222.81 275 1290.71 235.79 1290.71 157.39 1222.81 118.19 1154.91 157.39"></polygon>
    <line class="cls-2" x1="1222.81" y1="196.59" x2="1222.81" y2="118.18"></line>
    <polyline class="cls-2" points="1154.91 235.79 1222.81 196.59 1290.71 235.79"></polyline>
    <polygon class="cls-2" points="1290.71 157.39 1290.71 235.79 1358.62 275 1426.52 235.79 1426.52 157.39 1358.62 118.19 1290.71 157.39"></polygon>
    <line class="cls-2" x1="1358.62" y1="196.59" x2="1358.62" y2="118.18"></line>
    <polyline class="cls-2" points="1290.71 235.79 1358.62 196.59 1426.52 235.79"></polyline>
    <polygon class="cls-2" points="1426.52 157.39 1426.52 235.79 1494.42 275 1562.32 235.79 1562.32 157.39 1494.42 118.19 1426.52 157.39"></polygon>
    <line class="cls-2" x1="1494.42" y1="196.59" x2="1494.42" y2="118.18"></line>
    <polyline class="cls-2" points="1426.52 235.79 1494.42 196.59 1562.32 235.79"></polyline>
    <polygon class="cls-2" points="1562.32 157.39 1562.32 235.79 1630.22 275 1698.12 235.79 1698.12 157.39 1630.22 118.19 1562.32 157.39"></polygon>
    <line class="cls-2" x1="1630.22" y1="196.59" x2="1630.22" y2="118.18"></line>
    <polyline class="cls-2" points="1562.32 235.79 1630.22 196.59 1698.12 235.79"></polyline>
    <polygon class="cls-2" points="1698.12 157.39 1698.12 235.79 1766.02 275 1833.92 235.79 1833.92 157.39 1766.02 118.19 1698.12 157.39"></polygon>
    <line class="cls-2" x1="1766.02" y1="196.59" x2="1766.02" y2="118.18"></line>
    <polyline class="cls-2" points="1698.12 235.79 1766.02 196.59 1833.92 235.79"></polyline>
    <polygon class="cls-2" points="0.5 275 0.5 353.4 68.4 392.6 136.3 353.4 136.3 275 68.4 235.79 0.5 275"></polygon>
    <line class="cls-2" x1="68.4" y1="314.2" x2="68.4" y2="235.79"></line>
    <polyline class="cls-2" points="0.5 353.4 68.4 314.2 136.3 353.4"></polyline>
    <polygon class="cls-2" points="136.3 275 136.3 353.4 204.2 392.6 272.1 353.4 272.1 275 204.2 235.79 136.3 275"></polygon>
    <line class="cls-2" x1="204.2" y1="314.2" x2="204.2" y2="235.79"></line>
    <polyline class="cls-2" points="136.3 353.4 204.2 314.2 272.1 353.4"></polyline>
    <polygon class="cls-2" points="272.1 275 272.1 353.4 340 392.6 407.9 353.4 407.9 275 340 235.79 272.1 275"></polygon>
    <line class="cls-2" x1="340" y1="314.2" x2="340" y2="235.79"></line>
    <polyline class="cls-2" points="272.1 353.4 340 314.2 407.9 353.4"></polyline>
    <polygon class="cls-2" points="407.9 275 407.9 353.4 475.81 392.6 543.71 353.4 543.71 275 475.81 235.79 407.9 275"></polygon>
    <line class="cls-2" x1="475.8" y1="314.2" x2="475.8" y2="235.79"></line>
    <polyline class="cls-2" points="407.9 353.4 475.81 314.2 543.71 353.4"></polyline>
    <polygon class="cls-2" points="543.71 275 543.71 353.4 611.61 392.6 679.51 353.4 679.51 275 611.61 235.79 543.71 275"></polygon>
    <line class="cls-2" x1="611.61" y1="314.2" x2="611.61" y2="235.79"></line>
    <polyline class="cls-2" points="543.71 353.4 611.61 314.2 679.51 353.4"></polyline>
    <polygon class="cls-2" points="679.51 275 679.51 353.4 747.41 392.6 815.31 353.4 815.31 275 747.41 235.79 679.51 275"></polygon>
    <line class="cls-2" x1="747.41" y1="314.2" x2="747.41" y2="235.79"></line>
    <polyline class="cls-2" points="679.51 353.4 747.41 314.2 815.31 353.4"></polyline>
    <polygon class="cls-2" points="815.31 275 815.31 353.4 883.21 392.6 951.11 353.4 951.11 275 883.21 235.79 815.31 275"></polygon>
    <line class="cls-2" x1="883.21" y1="314.2" x2="883.21" y2="235.79"></line>
    <polyline class="cls-2" points="815.31 353.4 883.21 314.2 951.11 353.4"></polyline>
    <polygon class="cls-2" points="951.11 275 951.11 353.4 1019.01 392.6 1086.91 353.4 1086.91 275 1019.01 235.79 951.11 275"></polygon>
    <line class="cls-2" x1="1019.01" y1="314.2" x2="1019.01" y2="235.79"></line>
    <polyline class="cls-2" points="951.11 353.4 1019.01 314.2 1086.91 353.4"></polyline>
    <polygon class="cls-2" points="1086.91 275 1086.91 353.4 1154.81 392.6 1222.71 353.4 1222.71 275 1154.81 235.79 1086.91 275"></polygon>
    <line class="cls-2" x1="1154.81" y1="314.2" x2="1154.81" y2="235.79"></line>
    <polyline class="cls-2" points="1086.91 353.4 1154.81 314.2 1222.71 353.4"></polyline>
    <polygon class="cls-2" points="1222.71 275 1222.71 353.4 1290.61 392.6 1358.51 353.4 1358.51 275 1290.61 235.79 1222.71 275"></polygon>
    <line class="cls-2" x1="1290.61" y1="314.2" x2="1290.61" y2="235.79"></line>
    <polyline class="cls-2" points="1222.71 353.4 1290.61 314.2 1358.51 353.4"></polyline>
    <polygon class="cls-2" points="1358.51 275 1358.51 353.4 1426.41 392.6 1494.32 353.4 1494.32 275 1426.41 235.79 1358.51 275"></polygon>
    <line class="cls-2" x1="1426.41" y1="314.2" x2="1426.41" y2="235.79"></line>
    <polyline class="cls-2" points="1358.51 353.4 1426.41 314.2 1494.32 353.4"></polyline>
    <polygon class="cls-2" points="1494.32 275 1494.32 353.4 1562.22 392.6 1630.12 353.4 1630.12 275 1562.22 235.79 1494.32 275"></polygon>
    <line class="cls-2" x1="1562.22" y1="314.2" x2="1562.22" y2="235.79"></line>
    <polyline class="cls-2" points="1494.32 353.4 1562.22 314.2 1630.12 353.4"></polyline>
    <polygon class="cls-2" points="1630.12 275 1630.12 353.4 1698.02 392.6 1765.92 353.4 1765.92 275 1698.02 235.79 1630.12 275"></polygon>
    <line class="cls-2" x1="1698.02" y1="314.2" x2="1698.02" y2="235.79"></line>
    <polyline class="cls-2" points="1630.12 353.4 1698.02 314.2 1765.92 353.4"></polyline>
    <polygon class="cls-2" points="1765.92 275 1765.92 353.4 1833.82 392.6 1901.72 353.4 1901.72 275 1833.82 235.79 1765.92 275"></polygon>
    <line class="cls-2" x1="1833.82" y1="314.2" x2="1833.82" y2="235.79"></line>
    <polyline class="cls-2" points="1765.92 353.4 1833.82 314.2 1901.72 353.4"></polyline>
    <polygon class="cls-2" points="0.5 39.78 0.5 118.19 68.4 157.39 136.3 118.19 136.3 39.78 68.4 0.58 0.5 39.78"></polygon>
    <line class="cls-2" x1="68.4" y1="78.98" x2="68.4" y2="0.58"></line>
    <polyline class="cls-2" points="0.5 118.19 68.4 78.98 136.3 118.19"></polyline>
    <polygon class="cls-2" points="136.3 39.78 136.3 118.19 204.2 157.39 272.1 118.19 272.1 39.78 204.2 0.58 136.3 39.78"></polygon>
    <line class="cls-2" x1="204.2" y1="78.98" x2="204.2" y2="0.58"></line>
    <polyline class="cls-2" points="136.3 118.19 204.2 78.98 272.1 118.19"></polyline>
    <polygon class="cls-2" points="272.1 39.78 272.1 118.19 340 157.39 407.9 118.19 407.9 39.78 340 0.58 272.1 39.78"></polygon>
    <line class="cls-2" x1="340" y1="78.98" x2="340" y2="0.58"></line>
    <polyline class="cls-2" points="272.1 118.19 340 78.98 407.9 118.19"></polyline>
    <polygon class="cls-2" points="407.9 39.78 407.9 118.19 475.81 157.39 543.71 118.19 543.71 39.78 475.81 0.58 407.9 39.78"></polygon>
    <line class="cls-2" x1="475.8" y1="78.98" x2="475.8" y2="0.58"></line>
    <polyline class="cls-2" points="407.9 118.19 475.81 78.98 543.71 118.19"></polyline>
    <polygon class="cls-2" points="543.71 39.78 543.71 118.19 611.61 157.39 679.51 118.19 679.51 39.78 611.61 0.58 543.71 39.78"></polygon>
    <line class="cls-2" x1="611.61" y1="78.98" x2="611.61" y2="0.58"></line>
    <polyline class="cls-2" points="543.71 118.19 611.61 78.98 679.51 118.19"></polyline>
    <polygon class="cls-2" points="679.51 39.78 679.51 118.19 747.41 157.39 815.31 118.19 815.31 39.78 747.41 0.58 679.51 39.78"></polygon>
    <line class="cls-2" x1="747.41" y1="78.98" x2="747.41" y2="0.58"></line>
    <polyline class="cls-2" points="679.51 118.19 747.41 78.98 815.31 118.19"></polyline>
    <polygon class="cls-2" points="815.31 39.78 815.31 118.19 883.21 157.39 951.11 118.19 951.11 39.78 883.21 0.58 815.31 39.78"></polygon>
    <line class="cls-2" x1="883.21" y1="78.98" x2="883.21" y2="0.58"></line>
    <polyline class="cls-2" points="815.31 118.19 883.21 78.98 951.11 118.19"></polyline>
    <polygon class="cls-2" points="951.11 39.78 951.11 118.19 1019.01 157.39 1086.91 118.19 1086.91 39.78 1019.01 0.58 951.11 39.78"></polygon>
    <line class="cls-2" x1="1019.01" y1="78.98" x2="1019.01" y2="0.58"></line>
    <polyline class="cls-2" points="951.11 118.19 1019.01 78.98 1086.91 118.19"></polyline>
    <polygon class="cls-2" points="1086.91 39.78 1086.91 118.19 1154.81 157.39 1222.71 118.19 1222.71 39.78 1154.81 0.58 1086.91 39.78"></polygon>
    <line class="cls-2" x1="1154.81" y1="78.98" x2="1154.81" y2="0.58"></line>
    <polyline class="cls-2" points="1086.91 118.19 1154.81 78.98 1222.71 118.19"></polyline>
    <polygon class="cls-2" points="1222.71 39.78 1222.71 118.19 1290.61 157.39 1358.51 118.19 1358.51 39.78 1290.61 0.58 1222.71 39.78"></polygon>
    <line class="cls-2" x1="1290.61" y1="78.98" x2="1290.61" y2="0.58"></line>
    <polyline class="cls-2" points="1222.71 118.19 1290.61 78.98 1358.51 118.19"></polyline>
    <polygon class="cls-2" points="1358.51 39.78 1358.51 118.19 1426.41 157.39 1494.32 118.19 1494.32 39.78 1426.41 0.58 1358.51 39.78"></polygon>
    <line class="cls-2" x1="1426.41" y1="78.98" x2="1426.41" y2="0.58"></line>
    <polyline class="cls-2" points="1358.51 118.19 1426.41 78.98 1494.32 118.19"></polyline>
    <polygon class="cls-2" points="1494.32 39.78 1494.32 118.19 1562.22 157.39 1630.12 118.19 1630.12 39.78 1562.22 0.58 1494.32 39.78"></polygon>
    <line class="cls-2" x1="1562.22" y1="78.98" x2="1562.22" y2="0.58"></line>
    <polyline class="cls-2" points="1494.32 118.19 1562.22 78.98 1630.12 118.19"></polyline>
    <polygon class="cls-2" points="1630.12 39.78 1630.12 118.19 1698.02 157.39 1765.92 118.19 1765.92 39.78 1698.02 0.58 1630.12 39.78"></polygon>
    <line class="cls-2" x1="1698.02" y1="78.98" x2="1698.02" y2="0.58"></line>
    <polyline class="cls-2" points="1630.12 118.19 1698.02 78.98 1765.92 118.19"></polyline>
    <polygon class="cls-2" points="1765.92 39.78 1765.92 118.19 1833.82 157.39 1901.72 118.19 1901.72 39.78 1833.82 0.58 1765.92 39.78"></polygon>
    <line class="cls-2" x1="1833.82" y1="78.98" x2="1833.82" y2="0.58"></line>
    <polyline class="cls-2" points="1765.92 118.19 1833.82 78.98 1901.72 118.19"></polyline>
    <polygon class="cls-2" points="68.5 392.6 68.5 471.01 136.4 510.21 204.3 471.01 204.3 392.6 136.4 353.4 68.5 392.6"></polygon>
    <line class="cls-2" x1="136.4" y1="431.81" x2="136.4" y2="353.4"></line>
    <polyline class="cls-2" points="68.5 471.01 136.4 431.81 204.3 471.01"></polyline>
    <polygon class="cls-2" points="204.3 392.6 204.3 471.01 272.2 510.21 340.11 471.01 340.11 392.6 272.2 353.4 204.3 392.6"></polygon>
    <line class="cls-2" x1="272.2" y1="431.81" x2="272.2" y2="353.4"></line>
    <polyline class="cls-2" points="204.3 471.01 272.2 431.81 340.11 471.01"></polyline>
    <polygon class="cls-2" points="340.11 392.6 340.11 471.01 408.01 510.21 475.91 471.01 475.91 392.6 408.01 353.4 340.11 392.6"></polygon>
    <line class="cls-2" x1="408.01" y1="431.81" x2="408.01" y2="353.4"></line>
    <polyline class="cls-2" points="340.11 471.01 408.01 431.81 475.91 471.01"></polyline>
    <polygon class="cls-2" points="475.91 392.6 475.91 471.01 543.81 510.21 611.71 471.01 611.71 392.6 543.81 353.4 475.91 392.6"></polygon>
    <line class="cls-2" x1="543.81" y1="431.81" x2="543.81" y2="353.4"></line>
    <polyline class="cls-2" points="475.91 471.01 543.81 431.81 611.71 471.01"></polyline>
    <polygon class="cls-2" points="611.71 392.6 611.71 471.01 679.61 510.21 747.51 471.01 747.51 392.6 679.61 353.4 611.71 392.6"></polygon>
    <line class="cls-2" x1="679.61" y1="431.81" x2="679.61" y2="353.4"></line>
    <polyline class="cls-2" points="611.71 471.01 679.61 431.81 747.51 471.01"></polyline>
    <polygon class="cls-2" points="747.51 392.6 747.51 471.01 815.41 510.21 883.31 471.01 883.31 392.6 815.41 353.4 747.51 392.6"></polygon>
    <line class="cls-2" x1="815.41" y1="431.81" x2="815.41" y2="353.4"></line>
    <polyline class="cls-2" points="747.51 471.01 815.41 431.81 883.31 471.01"></polyline>
    <polygon class="cls-2" points="883.31 392.6 883.31 471.01 951.21 510.21 1019.11 471.01 1019.11 392.6 951.21 353.4 883.31 392.6"></polygon>
    <line class="cls-2" x1="951.21" y1="431.81" x2="951.21" y2="353.4"></line>
    <polyline class="cls-2" points="883.31 471.01 951.21 431.81 1019.11 471.01"></polyline>
    <polygon class="cls-2" points="1019.11 392.6 1019.11 471.01 1087.01 510.21 1154.91 471.01 1154.91 392.6 1087.01 353.4 1019.11 392.6"></polygon>
    <line class="cls-2" x1="1087.01" y1="431.81" x2="1087.01" y2="353.4"></line>
    <polyline class="cls-2" points="1019.11 471.01 1087.01 431.81 1154.91 471.01"></polyline>
    <polygon class="cls-2" points="1154.91 392.6 1154.91 471.01 1222.81 510.21 1290.71 471.01 1290.71 392.6 1222.81 353.4 1154.91 392.6"></polygon>
    <line class="cls-2" x1="1222.81" y1="431.81" x2="1222.81" y2="353.4"></line>
    <polyline class="cls-2" points="1154.91 471.01 1222.81 431.81 1290.71 471.01"></polyline>
    <polygon class="cls-2" points="1290.71 392.6 1290.71 471.01 1358.62 510.21 1426.52 471.01 1426.52 392.6 1358.62 353.4 1290.71 392.6"></polygon>
    <line class="cls-2" x1="1358.62" y1="431.81" x2="1358.62" y2="353.4"></line>
    <polyline class="cls-2" points="1290.71 471.01 1358.62 431.81 1426.52 471.01"></polyline>
    <polygon class="cls-2" points="1426.52 392.6 1426.52 471.01 1494.42 510.21 1562.32 471.01 1562.32 392.6 1494.42 353.4 1426.52 392.6"></polygon>
    <line class="cls-2" x1="1494.42" y1="431.81" x2="1494.42" y2="353.4"></line>
    <polyline class="cls-2" points="1426.52 471.01 1494.42 431.81 1562.32 471.01"></polyline>
    <polygon class="cls-2" points="1562.32 392.6 1562.32 471.01 1630.22 510.21 1698.12 471.01 1698.12 392.6 1630.22 353.4 1562.32 392.6"></polygon>
    <line class="cls-2" x1="1630.22" y1="431.81" x2="1630.22" y2="353.4"></line>
    <polyline class="cls-2" points="1562.32 471.01 1630.22 431.81 1698.12 471.01"></polyline>
    <polygon class="cls-2" points="1698.12 392.6 1698.12 471.01 1766.02 510.21 1833.92 471.01 1833.92 392.6 1766.02 353.4 1698.12 392.6"></polygon>
    <line class="cls-2" x1="1766.02" y1="431.81" x2="1766.02" y2="353.4"></line>
    <polyline class="cls-2" points="1698.12 471.01 1766.02 431.81 1833.92 471.01"></polyline>
  </g>
</svg>
