<?xml version="1.0" encoding="UTF-8"?>
<svg xmlns="http://www.w3.org/2000/svg" xmlns:xlink="http://www.w3.org/1999/xlink" width="84px" height="84px" viewBox="0 0 84 84" version="1.1">
  <title>Group 3</title>
  <g id="Page-1" stroke="none" stroke-width="1" fill="none" fill-rule="evenodd">
    <g id="Liwa_news-video" transform="translate(-1020.000000, -653.000000)">
      <g id="Group-3" transform="translate(1020.000000, 653.000000)">
        <circle id="Oval" fill="#0C3458" cx="42" cy="42" r="42"></circle>
        <path d="M54.7272727,53.5151515 L49.6095619,53.5151515 L49.6095619,44.3176663 C49.6095619,42.1796446 48.8685989,40.7202502 47.0165235,40.7202502 C45.602521,40.7202502 44.7611111,41.7046278 44.390519,42.6546614 C44.2559996,42.9938636 44.2219272,43.4691034 44.2219272,43.9445662 L44.2219272,53.5151515 L39.1042164,53.5151515 L39.1042164,42.2133195 C39.1042164,40.1433167 39.0369567,38.4125159 38.969697,36.9190006 L43.4139258,36.9190006 L43.6499985,39.2269579 L43.7508881,39.2269579 C44.4241488,38.1406636 46.0742239,36.5454545 48.8351903,36.5454545 C52.202379,36.5454545 54.7272727,38.8197369 54.7272727,43.7068348 L54.7272727,53.5151515 Z M32.2463822,34.1212121 C30.4398268,34.1212121 29.2727273,32.7650366 29.2727273,31.0907781 C29.2727273,29.3764317 30.47718,28.0606061 32.3215832,28.0606061 C34.1662338,28.0606061 35.2957328,29.3764317 35.3333333,31.0907781 C35.3333333,32.7650366 34.1662338,34.1212121 32.2463822,34.1212121 L32.2463822,34.1212121 Z M29.2727273,53.5151515 L35.3333333,53.5151515 L35.3333333,36.5454545 L29.2727273,36.5454545 L29.2727273,53.5151515 Z M57.9673132,22 L26.0326868,22 C23.8051008,22 22,23.790204 22,25.9988734 L22,58.0013566 C22,60.209796 23.8051008,62 26.0326868,62 L57.9673132,62 C60.1948992,62 62,60.209796 62,58.0013566 L62,25.9988734 C62,23.790204 60.1948992,22 57.9673132,22 L57.9673132,22 Z" id="Fill-1" fill="#FFFFFF"></path>
      </g>
    </g>
  </g>
</svg>
