<?xml version="1.0" encoding="UTF-8"?>
<svg xmlns="http://www.w3.org/2000/svg" xmlns:xlink="http://www.w3.org/1999/xlink" width="33px" height="33px" viewBox="0 0 33 33" version="1.1">
  <title>Group 3 Copy</title>
  <g id="Page-1" stroke="none" stroke-width="1" fill="none" fill-rule="evenodd">
    <g id="Liwa_team" transform="translate(-1058.000000, -2027.000000)" fill="#FFFFFF">
      <g id="Group-Copy-6" transform="translate(0.000000, 1917.000000)">
        <g id="Group-3-Copy" transform="translate(1058.000000, 110.000000)">
          <path d="M16.4079474,9.09494702e-13 C11.9518401,9.09494702e-13 11.3930112,0.0188881579 9.64299079,0.0987394737 C7.8964875,0.178395395 6.70379803,0.455790789 5.66006447,0.861430263 C4.58115987,1.28068224 3.66606118,1.84172566 2.75389342,2.75389342 C1.84172566,3.66612632 1.28068224,4.58115987 0.861365132,5.66012961 C0.455725658,6.70379803 0.178395395,7.89655263 0.0986743421,9.64299079 C0.0188230263,11.3930763 0,11.951775 0,16.4079474 C0,20.8641197 0.0188230263,21.4228836 0.0986743421,23.1729691 C0.178395395,24.9194072 0.455725658,26.1121618 0.861365132,27.1558303 C1.28068224,28.2347349 1.84172566,29.1498336 2.75389342,30.0620664 C3.66606118,30.9742342 4.58115987,31.5352125 5.66006447,31.9545947 C6.70379803,32.3601691 7.8964875,32.6375645 9.64299079,32.7172855 C11.3930112,32.7970717 11.9518401,32.8159599 16.4079474,32.8159599 C20.8641197,32.8159599 21.4228184,32.7970717 23.1729039,32.7172855 C24.9194072,32.6375645 26.1120967,32.3601691 27.1558303,31.9545947 C28.2348,31.5352125 29.1498336,30.9742342 30.0620013,30.0620664 C30.9742342,29.1498336 31.5352125,28.2348 31.9545296,27.1558303 C32.3601691,26.1121618 32.6375645,24.9194072 32.7171553,23.1729691 C32.7970717,21.4228836 32.8159599,20.8641197 32.8159599,16.4079474 C32.8159599,11.9518401 32.7970717,11.3930763 32.7171553,9.64299079 C32.6375645,7.89655263 32.3601691,6.70379803 31.9545296,5.66012961 C31.5352125,4.58115987 30.9742342,3.66612632 30.0620013,2.75389342 C29.1498336,1.84172566 28.2348,1.28068224 27.1558303,0.861430263 C26.1120967,0.455790789 24.9194072,0.178395395 23.1729039,0.0987394737 C21.4228184,0.0188881579 20.8641197,9.09494702e-13 16.4079474,9.09494702e-13 M16.4079474,2.9563875 C20.7890882,2.9563875 21.3079914,2.97306118 23.0381467,3.05200066 C24.6379086,3.12501316 25.5066987,3.39231316 26.0848717,3.61701711 C26.8507539,3.91466842 27.3974033,4.27022171 27.9715382,4.84435658 C28.545673,5.41855658 28.9012263,5.96514079 29.1989428,6.73102303 C29.4235816,7.30919605 29.6908816,8.17805132 29.7638941,9.77774803 C29.8427684,11.5079033 29.8595072,12.0268717 29.8595072,16.4079474 C29.8595072,20.7890882 29.8427684,21.3080566 29.7638941,23.0381467 C29.6908816,24.6379737 29.4235816,25.5067638 29.1989428,26.0849368 C28.9012263,26.8507539 28.545673,27.3974033 27.9715382,27.9715382 C27.3974033,28.5457382 26.8507539,28.9012914 26.0848717,29.1989428 C25.5066987,29.4235816 24.6379086,29.6909467 23.0381467,29.7638941 C21.308252,29.8428336 20.7894138,29.8595724 16.4079474,29.8595724 C12.0264809,29.8595724 11.5076428,29.8428336 9.77774803,29.7638941 C8.17798618,29.6909467 7.30913092,29.4235816 6.73095789,29.1989428 C5.96514079,28.9012914 5.41849145,28.5457382 4.84442171,27.9715382 C4.27022171,27.3974033 3.91460329,26.8507539 3.61695197,26.0849368 C3.39231316,25.5067638 3.12501316,24.6379737 3.05200066,23.0382118 C2.97306118,21.3080566 2.9563875,20.7890882 2.9563875,16.4079474 C2.9563875,12.0268717 2.97306118,11.5079033 3.05200066,9.77774803 C3.12501316,8.17805132 3.39231316,7.30919605 3.61695197,6.73102303 C3.91460329,5.96514079 4.27022171,5.41855658 4.84435658,4.84442171 C5.41849145,4.27022171 5.96514079,3.91466842 6.73095789,3.61701711 C7.30913092,3.39231316 8.17798618,3.12501316 9.77768289,3.05200066 C11.5079033,2.97306118 12.0268066,2.9563875 16.4079474,2.9563875" id="Fill-1"></path>
          <path d="M15.7818817,22.3611517 C12.8398342,22.3611517 10.4547691,19.9760866 10.4547691,17.034039 C10.4547691,14.0919915 12.8398342,11.7069899 15.7818817,11.7069899 C18.7239293,11.7069899 21.1089944,14.0919915 21.1089944,17.034039 C21.1089944,19.9760866 18.7239293,22.3611517 15.7818817,22.3611517 M15.7818817,8.82749182 C11.2495159,8.82749182 7.57527108,12.5016732 7.57527108,17.034039 C7.57527108,21.5664683 11.2495159,25.2406497 15.7818817,25.2406497 C20.3142476,25.2406497 23.988429,21.5664683 23.988429,17.034039 C23.988429,12.5016732 20.3142476,8.82749182 15.7818817,8.82749182" id="Fill-4"></path>
          <path d="M26.5135302,8.19624784 C26.5135302,9.24218877 25.6656765,10.0900424 24.6197356,10.0900424 C23.5737947,10.0900424 22.7258784,9.24218877 22.7258784,8.19624784 C22.7258784,7.1503069 23.5737947,6.3023906 24.6197356,6.3023906 C25.6656765,6.3023906 26.5135302,7.1503069 26.5135302,8.19624784" id="Fill-6"></path>
        </g>
      </g>
    </g>
  </g>
</svg>
