<?xml version="1.0" encoding="UTF-8"?>
<svg xmlns="http://www.w3.org/2000/svg" xmlns:xlink="http://www.w3.org/1999/xlink" width="84px" height="84px" viewBox="0 0 84 84" version="1.1">
  <title>Group 3</title>
  <g id="Page-1" stroke="none" stroke-width="1" fill="none" fill-rule="evenodd">
    <g id="Liwa_news-video" transform="translate(-1074.000000, -653.000000)">
      <g id="Group-3" transform="translate(1074.000000, 653.000000)">
        <circle id="Oval-Copy" fill="#0C3458" cx="42" cy="42" r="42"></circle>
        <g id="Group-3-Copy" transform="translate(22.000000, 22.000000)" fill="#FFFFFF">
          <path d="M19.8884211,1.13686838e-12 C14.4870789,1.13686838e-12 13.8097105,0.0228947368 11.6884737,0.119684211 C9.5715,0.216236842 8.12581579,0.552473684 6.86068421,1.04415789 C5.55292105,1.55234211 4.44371053,2.23239474 3.33805263,3.33805263 C2.23239474,4.44378947 1.55234211,5.55292105 1.04407895,6.86076316 C0.552394737,8.12581579 0.216236842,9.57157895 0.119605263,11.6884737 C0.0228157895,13.8097895 0,14.487 0,19.8884211 C0,25.2898421 0.0228157895,25.9671316 0.119605263,28.0884474 C0.216236842,30.2053421 0.552394737,31.6511053 1.04407895,32.9161579 C1.55234211,34.2239211 2.23239474,35.3331316 3.33805263,36.4388684 C4.44371053,37.5445263 5.55292105,38.2245 6.86068421,38.7328421 C8.12581579,39.2244474 9.5715,39.5606842 11.6884737,39.6573158 C13.8097105,39.7540263 14.4870789,39.7769211 19.8884211,39.7769211 C25.2898421,39.7769211 25.9670526,39.7540263 28.0883684,39.6573158 C30.2053421,39.5606842 31.6510263,39.2244474 32.9161579,38.7328421 C34.224,38.2245 35.3331316,37.5445263 36.4387895,36.4388684 C37.5445263,35.3331316 38.2245,34.224 38.7327632,32.9161579 C39.2244474,31.6511053 39.5606842,30.2053421 39.6571579,28.0884474 C39.7540263,25.9671316 39.7769211,25.2898421 39.7769211,19.8884211 C39.7769211,14.4870789 39.7540263,13.8097895 39.6571579,11.6884737 C39.5606842,9.57157895 39.2244474,8.12581579 38.7327632,6.86076316 C38.2245,5.55292105 37.5445263,4.44378947 36.4387895,3.33805263 C35.3331316,2.23239474 34.224,1.55234211 32.9161579,1.04415789 C31.6510263,0.552473684 30.2053421,0.216236842 28.0883684,0.119684211 C25.9670526,0.0228947368 25.2898421,1.13686838e-12 19.8884211,1.13686838e-12 M19.8884211,3.5835 C25.1988947,3.5835 25.8278684,3.60371053 27.9250263,3.69939474 C29.8641316,3.78789474 30.9172105,4.11189474 31.6180263,4.38426316 C32.5463684,4.74505263 33.2089737,5.17602632 33.9048947,5.87194737 C34.6008158,6.56794737 35.0317895,7.23047368 35.3926579,8.15881579 C35.6649474,8.85963158 35.9889474,9.91278947 36.0774474,11.8518158 C36.1730526,13.9489737 36.1933421,14.5780263 36.1933421,19.8884211 C36.1933421,25.1988947 36.1730526,25.8279474 36.0774474,27.9250263 C35.9889474,29.8642105 35.6649474,30.9172895 35.3926579,31.6181053 C35.0317895,32.5463684 34.6008158,33.2089737 33.9048947,33.9048947 C33.2089737,34.6008947 32.5463684,35.0318684 31.6180263,35.3926579 C30.9172105,35.6649474 29.8641316,35.9890263 27.9250263,36.0774474 C25.8281842,36.1731316 25.1992895,36.1934211 19.8884211,36.1934211 C14.5775526,36.1934211 13.9486579,36.1731316 11.8518158,36.0774474 C9.91271053,35.9890263 8.85955263,35.6649474 8.15873684,35.3926579 C7.23047368,35.0318684 6.56786842,34.6008947 5.87202632,33.9048947 C5.17602632,33.2089737 4.74497368,32.5463684 4.38418421,31.6181053 C4.11189474,30.9172895 3.78789474,29.8642105 3.69939474,27.9251053 C3.60371053,25.8279474 3.5835,25.1988947 3.5835,19.8884211 C3.5835,14.5780263 3.60371053,13.9489737 3.69939474,11.8518158 C3.78789474,9.91278947 4.11189474,8.85963158 4.38418421,8.15881579 C4.74497368,7.23047368 5.17602632,6.56794737 5.87194737,5.87202632 C6.56786842,5.17602632 7.23047368,4.74505263 8.15873684,4.38426316 C8.85955263,4.11189474 9.91271053,3.78789474 11.8517368,3.69939474 C13.9489737,3.60371053 14.5779474,3.5835 19.8884211,3.5835" id="Fill-1"></path>
          <path d="M19.1295536,27.1044263 C15.5634354,27.1044263 12.6724474,24.2134383 12.6724474,20.6473201 C12.6724474,17.0812018 15.5634354,14.1902907 19.1295536,14.1902907 C22.6956719,14.1902907 25.5866598,17.0812018 25.5866598,20.6473201 C25.5866598,24.2134383 22.6956719,27.1044263 19.1295536,27.1044263 M19.1295536,10.6999901 C13.6357769,10.6999901 9.18214676,15.1535433 9.18214676,20.6473201 C9.18214676,26.1411737 13.6357769,30.5947269 19.1295536,30.5947269 C24.6233304,30.5947269 29.0768836,26.1411737 29.0768836,20.6473201 C29.0768836,15.1535433 24.6233304,10.6999901 19.1295536,10.6999901" id="Fill-4"></path>
          <path d="M32.1376123,9.93484586 C32.1376123,11.2026531 31.1099109,12.2303545 29.8421038,12.2303545 C28.5742966,12.2303545 27.5465192,11.2026531 27.5465192,9.93484586 C27.5465192,8.66703867 28.5742966,7.63926134 29.8421038,7.63926134 C31.1099109,7.63926134 32.1376123,8.66703867 32.1376123,9.93484586" id="Fill-6"></path>
        </g>
      </g>
    </g>
  </g>
</svg>
