<?xml version="1.0" encoding="UTF-8"?>
<svg xmlns="http://www.w3.org/2000/svg" xmlns:xlink="http://www.w3.org/1999/xlink" width="66px" height="66px" viewBox="0 0 66 66" version="1.1">
  <title>Fill 1</title>
  <g id="Page-1" stroke="none" stroke-width="1" fill="none" fill-rule="evenodd">
    <g id="Liwa_team" transform="translate(-1005.000000, -2027.000000)" fill="#FFFFFF">
      <path d="M1059,2079 L1050.55578,2079 L1050.55578,2063.82415 C1050.55578,2060.29641 1049.33319,2057.88841 1046.27726,2057.88841 C1043.94416,2057.88841 1042.55583,2059.51264 1041.94436,2061.08019 C1041.7224,2061.63987 1041.66618,2062.42402 1041.66618,2063.20853 L1041.66618,2079 L1033.22196,2079 L1033.22196,2060.35198 C1033.22196,2056.93647 1033.11098,2054.08065 1033,2051.61635 L1040.33298,2051.61635 L1040.7225,2055.42448 L1040.88897,2055.42448 C1041.99985,2053.63209 1044.72247,2051 1049.27806,2051 C1054.83393,2051 1059,2054.75257 1059,2062.81628 L1059,2079 Z M1021.90653,2047 C1018.92571,2047 1017,2044.76231 1017,2041.99978 C1017,2039.17111 1018.98735,2037 1022.03061,2037 C1025.07429,2037 1026.93796,2039.17111 1027,2041.99978 C1027,2044.76231 1025.07429,2047 1021.90653,2047 L1021.90653,2047 Z M1017,2079 L1027,2079 L1027,2051 L1017,2051 L1017,2079 Z M1064.34607,2027 L1011.65393,2027 C1007.97842,2027 1005,2029.95384 1005,2033.59814 L1005,2086.40224 C1005,2090.04616 1007.97842,2093 1011.65393,2093 L1064.34607,2093 C1068.02158,2093 1071,2090.04616 1071,2086.40224 L1071,2033.59814 C1071,2029.95384 1068.02158,2027 1064.34607,2027 L1064.34607,2027 Z" id="Fill-1"></path>
    </g>
  </g>
</svg>
