<?xml version="1.0" standalone="no"?>
<!DOCTYPE svg PUBLIC "-//W3C//DTD SVG 1.1//EN" "http://www.w3.org/Graphics/SVG/1.1/DTD/svg11.dtd" >
<svg xmlns="http://www.w3.org/2000/svg" xmlns:xlink="http://www.w3.org/1999/xlink" version="1.1">
<metadata>
Created by FontForge 20170731 at Tue Nov  3 05:39:39 2020
 By Aleksey,,,
Copyright (c) (c) The Foundry, London, 2005. All rights reserved.
</metadata>
<defs>
<font id="FoundryContext-Demi" horiz-adv-x="1247" >
  <font-face 
    font-family="Foundry Context Demi"
    font-weight="600"
    font-stretch="normal"
    units-per-em="2048"
    panose-1="2 0 0 0 0 0 0 0 0 0"
    ascent="1638"
    descent="-410"
    x-height="979"
    cap-height="1389"
    bbox="-358 -446 2497 1888"
    underline-thickness="116"
    underline-position="-679"
    unicode-range="U+0020-FB04"
  />
<missing-glyph horiz-adv-x="1351" 
d="M123 -381h1106v1770h-1106v-1770zM383 -170v1348h586v-1348h-586z" />
    <glyph glyph-name="ff" unicode="ff" horiz-adv-x="1566" 
d="M459 979h452v41q0 92 22.5 164.5t82.5 132.5q104 104 297 104q66 0 129 -17.5t88.5 -30.5t36.5 -21q-19 -41 -76 -170q-1 1 -11.5 5.5t-18 8t-22.5 9t-29 8.5t-33.5 5.5t-39.5 2.5q-70 0 -114 -35q-66 -49 -66 -172v-35h342v-199h-342v-780h-246v780h-452v-780h-246v780
h-213v199h213v41q0 92 21.5 164t80.5 131q106 106 297 106q131 0 234 -59l-76 -172q-62 31 -131 31q-78 0 -123 -39q-57 -51 -57 -168v-35z" />
    <glyph glyph-name="fi" unicode="fi" horiz-adv-x="1275" 
d="M846 1362l-76 -172q-62 31 -131 31q-78 0 -123 -39q-57 -51 -57 -168v-35h342v-199h-342v-780h-246v780h-213v199h213v41q0 92 21.5 164t80.5 131q106 106 297 106q131 0 234 -59zM1178 1266q0 -59 -41 -99.5t-103 -40.5q-61 0 -102 40.5t-41 99.5t41 99t102 40
q62 0 103 -40t41 -99zM1157 0h-246v979h246v-979z" />
    <glyph glyph-name="fl" unicode="fl" horiz-adv-x="1280" 
d="M1157 0h-246v1389h246v-1389zM846 1362l-76 -172q-62 31 -131 31q-78 0 -123 -39q-57 -51 -57 -168v-35h342v-199h-342v-780h-246v780h-213v199h213v41q0 92 21.5 164t80.5 131q106 106 297 106q131 0 234 -59z" />
    <glyph glyph-name="ffi" unicode="ffi" horiz-adv-x="1974" 
d="M459 780v-780h-246v780h-213v199h213v41q0 92 21.5 164t80.5 131q106 106 297 106q131 0 234 -59l-76 -172q-62 31 -131 31q-78 0 -123 -39q-57 -51 -57 -168v-35h452v41q0 91 22 163.5t81 131.5q106 106 297 106q130 0 233 -59l-76 -172q-62 31 -131 31q-78 0 -123 -39
q-57 -51 -57 -168v-35h342v-199h-342v-780h-246v780h-452zM1876 1266q0 -59 -40.5 -99.5t-102.5 -40.5q-61 0 -102.5 40.5t-41.5 99.5t41.5 99t102.5 40q62 0 102.5 -40t40.5 -99zM1855 0h-245v979h245v-979z" />
    <glyph glyph-name="ffl" unicode="ffl" horiz-adv-x="1978" 
d="M1855 0h-245v1389h245v-1389zM459 780v-780h-246v780h-213v199h213v41q0 92 21.5 164t80.5 131q106 106 297 106q131 0 234 -59l-76 -172q-62 31 -131 31q-78 0 -123 -39q-57 -51 -57 -168v-35h452v41q0 91 22 163.5t81 131.5q106 106 297 106q130 0 233 -59l-76 -172
q-62 31 -131 31q-78 0 -123 -39q-57 -51 -57 -168v-35h342v-199h-342v-780h-246v780h-452z" />
    <glyph glyph-name="fj" unicode="fj" horiz-adv-x="1275" 
d="M846 1362l-76 -172q-62 31 -131 31q-78 0 -123 -39q-57 -51 -57 -168v-35h342v-199h-342v-780h-246v780h-213v199h213v41q0 92 21.5 164t80.5 131q106 106 297 106q131 0 234 -59zM1178 1266q0 -59 -41 -99.5t-103 -40.5t-102.5 40.5t-40.5 99.5t40.5 99t102.5 40
q61 0 102.5 -40t41.5 -99zM1157 68q0 -85 -4 -135.5t-27 -115t-67 -110.5q-117 -117 -305 -117q-86 0 -152 20.5t-100 47.5l92 172q63 -35 139 -35q97 0 139 66q23 33 31 77.5t8 116.5v924h246v-911z" />
    <glyph glyph-name=".notdef" horiz-adv-x="1351" 
d="M123 -381h1106v1770h-1106v-1770zM383 -170v1348h586v-1348h-586z" />
    <glyph glyph-name=".notdef" horiz-adv-x="1351" 
d="M123 -381h1106v1770h-1106v-1770zM383 -170v1348h586v-1348h-586z" />
    <glyph glyph-name=".null" horiz-adv-x="0" 
 />
    <glyph glyph-name="nonmarkingreturn" horiz-adv-x="682" 
 />
    <glyph glyph-name="space" unicode=" " horiz-adv-x="520" 
 />
    <glyph glyph-name="exclam" unicode="!" horiz-adv-x="577" 
d="M418 1389l-6 -992h-246l-6 992h258zM442 129q0 -64 -44 -108t-109 -44t-109.5 44.5t-44.5 107.5q0 65 44 108.5t110 43.5t109.5 -43.5t43.5 -108.5z" />
    <glyph glyph-name="quotedbl" unicode="&#x22;" horiz-adv-x="909" 
d="M397 1389l-57 -592h-160l-57 592h274zM786 1389l-57 -592h-160l-57 592h274z" />
    <glyph glyph-name="numbersign" unicode="#" 
d="M1165 942h-209l-53 -219h170v-178h-211l-67 -273h-193l68 273h-228l-67 -273h-193l68 273h-168v178h211l53 219h-172v176h211l68 271h192l-67 -271h227l67 271h193l-68 -271h168v-176zM766 942h-229l-54 -219h230z" />
    <glyph glyph-name="dollar" unicode="$" 
d="M1149 387q0 -168 -119.5 -279t-310.5 -135v-186h-205v186q-73 9 -137.5 30t-109.5 47.5t-80 52t-57.5 52.5t-32.5 40t-15 22l158 145q12 -16 25.5 -30.5t48.5 -46.5t87.5 -57.5t112.5 -37.5v396q-43 11 -75.5 21t-76.5 28.5t-76 39.5t-66 53.5t-55.5 71t-35.5 92
t-14 116.5q0 163 112 275t287 134v185h205v-185q81 -9 152.5 -35t115.5 -55t78.5 -61t48 -50t16.5 -26l-151 -141q-109 128 -260 155v-407q49 -12 83 -21.5t83 -28t82 -38t70.5 -51.5t59.5 -69t37 -89t15 -113zM514 836v366q-67 -18 -113.5 -65t-46.5 -129q0 -36 13 -65.5
t28.5 -46t43 -30.5t40 -18.5t35.5 -11.5zM907 377q0 126 -188 174v-365q33 5 63.5 17t60 33.5t47 57.5t17.5 83z" />
    <glyph glyph-name="percent" unicode="%" horiz-adv-x="1802" 
d="M1378 1350l-823 -1424l-141 82l823 1422zM385 631q-147 0 -227 108t-80 281t80.5 281t228.5 108t228.5 -108t80.5 -281q0 -172 -81.5 -280.5t-229.5 -108.5zM387 1276q-42 0 -71.5 -24.5t-43 -65.5t-19 -80t-5.5 -84q0 -254 137 -254q43 0 72.5 24.5t43.5 65.5t19.5 80
t5.5 84q0 254 -139 254zM1413 -16q-147 0 -227 108t-80 281t80.5 281t228.5 108t228.5 -108t80.5 -281q0 -172 -81.5 -280.5t-229.5 -108.5zM1415 629q-42 0 -71.5 -24.5t-43 -65.5t-19 -80t-5.5 -84q0 -254 137 -254q43 0 72.5 24.5t43.5 65.5t19.5 80t5.5 84
q0 254 -139 254z" />
    <glyph glyph-name="ampersand" unicode="&#x26;" horiz-adv-x="1347" 
d="M1360 0h-281l-123 139q-170 -170 -419 -170q-99 0 -184.5 25t-151 73t-103 125t-37.5 175q0 78 24.5 143.5t71.5 117t98.5 89t123.5 76.5q-51 59 -77 93t-49.5 91t-23.5 117q0 146 111 236.5t283 90.5q97 0 178 -33.5t133.5 -103.5t52.5 -166q0 -66 -22 -123t-64 -103.5
t-84.5 -80t-101.5 -70.5l235 -264q18 33 33.5 105t15.5 106h224q-3 -103 -39.5 -215t-81.5 -176zM768 1106q0 60 -41 94.5t-104 34.5q-68 0 -114 -33.5t-46 -93.5q0 -29 8 -56t25.5 -53t28 -40t34.5 -38.5t27 -27.5q1 1 36.5 22.5t44 27.5t35.5 28.5t36.5 38.5t19.5 42
t10 54zM817 297l-303 342q-41 -25 -63 -40t-52.5 -41.5t-46 -49.5t-27.5 -57.5t-12 -73.5q0 -90 65.5 -146.5t166.5 -56.5q155 0 272 123z" />
    <glyph glyph-name="quotesingle" unicode="'" horiz-adv-x="520" 
d="M397 1389l-57 -592h-160l-57 592h274z" />
    <glyph glyph-name="parenleft" unicode="(" horiz-adv-x="743" 
d="M731 -252l-160 -160q-101 73 -185.5 166t-153 207.5t-107.5 254t-39 288.5q0 145 38.5 284t106.5 255t154 211.5t186 168.5l160 -157q-82 -69 -150.5 -148t-125 -174t-88 -207.5t-31.5 -230.5q0 -119 31.5 -231t88.5 -207t124.5 -173t150.5 -147z" />
    <glyph glyph-name="parenright" unicode=")" horiz-adv-x="743" 
d="M12 -252l160 -160q101 73 185.5 166t153 207.5t107.5 254t39 288.5q0 145 -38.5 284t-106.5 255t-154 211.5t-186 168.5l-160 -157q83 -69 151 -148t124.5 -174t88.5 -207.5t32 -230.5q0 -119 -31.5 -231t-88.5 -207t-125 -173t-151 -147z" />
    <glyph glyph-name="asterisk" unicode="*" horiz-adv-x="876" 
d="M811 1065l-236 -80l148 -197l-150 -106l-139 209l-139 -209l-154 106l148 197l-240 80l66 168l229 -86l-2 242h180l-2 -242l230 86z" />
    <glyph glyph-name="plus" unicode="+" 
d="M1165 410h-432v-424h-217v424h-434v215h434v422h217v-422h432v-215z" />
    <glyph glyph-name="comma" unicode="," horiz-adv-x="528" 
d="M455 260l-222 -524h-159l92 524h289z" />
    <glyph glyph-name="hyphen" unicode="-" horiz-adv-x="940" 
d="M805 410h-670v215h670v-215z" />
    <glyph glyph-name="period" unicode="." horiz-adv-x="544" 
d="M426 129q0 -63 -44 -107.5t-110 -44.5q-65 0 -109 44t-44 108q0 65 43.5 108.5t109.5 43.5t110 -43.5t44 -108.5z" />
    <glyph glyph-name="slash" unicode="/" horiz-adv-x="868" 
d="M-12 -381l207 -65l587 1835l-207 65z" />
    <glyph glyph-name="zero" unicode="0" 
d="M1169 694q0 -214 -61.5 -376t-186 -255.5t-298.5 -93.5t-298.5 93.5t-185.5 255.5t-61 376q0 215 61.5 377.5t186.5 256t299 93.5t298 -93.5t185 -256t61 -377.5zM907 694q0 514 -282 514q-52 0 -94.5 -18.5t-71.5 -48t-51 -73t-34.5 -87.5t-20.5 -97.5t-10.5 -97.5
t-2.5 -92q0 -57 4 -108t13.5 -112.5t30 -110.5t50.5 -91t77.5 -65t107.5 -23q72 0 125.5 34.5t83 86t47.5 124t23 134t5 131.5z" />
    <glyph glyph-name="one" unicode="1" 
d="M1169 0h-976v213h362v917l-311 -194l-119 178l440 275h244v-1176h360v-213z" />
    <glyph glyph-name="two" unicode="2" 
d="M1100 997q0 -94 -37 -172t-96 -131t-131 -98.5t-145 -85.5t-134 -80.5t-101.5 -94.5t-45.5 -118h684v-217h-949q0 65 2 98q3 129 35 223t121 183q56 56 138 109.5t149.5 90.5t130 79t98 95t35.5 119q0 98 -68 155.5t-170 57.5q-195 0 -342 -174l-151 142q12 16 19.5 25.5
t35 37.5t53.5 48t69.5 47t88.5 43.5t107 29t127 12.5q210 0 343.5 -114t133.5 -310z" />
    <glyph glyph-name="three" unicode="3" 
d="M1100 381q0 -186 -143 -299t-371 -113q-88 0 -168 19t-132 44t-98 59.5t-66.5 56t-37.5 42.5l152 144q12 -15 32.5 -34t62.5 -49.5t104.5 -50.5t131.5 -20q129 0 204 54t75 159q0 85 -55 137q-35 32 -90 49t-97.5 20t-105.5 3h-86v215h67q46 0 77.5 1.5t74.5 7.5t71.5 19
t55 34t40 55.5t13.5 79.5q0 79 -56.5 137.5t-166.5 58.5q-183 0 -320 -151l-149 143q18 22 33.5 38.5t62 53.5t94.5 61.5t125.5 45t161.5 20.5q199 0 331 -108t132 -279q0 -60 -17 -112t-41 -86t-56 -61t-57 -40.5t-48 -21.5q24 -6 52.5 -18t67 -39t68.5 -62t51 -91t21 -122
z" />
    <glyph glyph-name="four" unicode="4" 
d="M1180 297h-211v-297h-248v297h-651v203l637 889h262v-887h211v-205zM721 502v567l-410 -567h410z" />
    <glyph glyph-name="five" unicode="5" 
d="M1120 459q0 -223 -146.5 -356.5t-398.5 -133.5q-85 0 -162.5 18.5t-124 40t-91 55t-56 45t-26.5 28.5l141 157q144 -133 313 -133q135 0 216 70.5t81 204.5q0 121 -73 182t-181 61q-52 0 -96.5 -13.5t-71.5 -30.5t-49 -39.5t-29 -34t-12 -21.5l-196 78l80 752h794v-209
h-608l-41 -373q108 94 291 94q194 0 320 -118t126 -324z" />
    <glyph glyph-name="six" unicode="6" 
d="M1161 465q0 -214 -141 -355t-371 -141q-123 0 -220 42t-157 109.5t-99.5 160.5t-55 188t-15.5 199q0 67 6.5 133.5t24 142.5t45 142.5t73 129t103.5 107t141.5 71.5t182.5 27q67 0 128 -11.5t103.5 -26t83 -40t61.5 -41.5t44.5 -42t27 -31t13.5 -19l-154 -139
q-14 18 -32.5 35.5t-55.5 44.5t-90.5 44t-114.5 17q-78 0 -140 -30t-100.5 -77t-63.5 -109.5t-35 -121t-11 -118.5v-23q14 21 40 46.5t71 58t114 54t146 21.5q198 0 323 -122t125 -326zM387 434q0 -117 71.5 -189.5t192.5 -72.5q117 0 187.5 75t70.5 193q0 117 -68 189.5
t-184 72.5q-122 0 -196 -75t-74 -193z" />
    <glyph glyph-name="seven" unicode="7" 
d="M1133 1184q-286 -594 -574 -1184h-283l586 1174h-747v215h1018v-205z" />
    <glyph glyph-name="eight" unicode="8" 
d="M1155 379q0 -128 -72 -223t-191 -142t-267 -47q-150 0 -269 46.5t-191.5 141t-72.5 222.5q0 62 20.5 116.5t50 90.5t66.5 64.5t67 43t54 19.5q-30 11 -61.5 31.5t-69.5 57.5t-62 96.5t-24 131.5q0 184 139 288.5t351 104.5q138 0 248 -43.5t176.5 -133.5t66.5 -214
q0 -71 -23.5 -130.5t-61 -96.5t-70 -58.5t-62.5 -31.5q23 -6 52.5 -19.5t66.5 -41.5t67 -63.5t51 -91t21 -118.5zM623 1225q-105 0 -177.5 -53.5t-72.5 -157.5q0 -102 72.5 -155.5t177.5 -53.5q107 0 179 53t72 156t-72.5 157t-178.5 54zM899 383q0 111 -81 171t-195 60
q-113 0 -195 -60t-82 -169q0 -104 81.5 -162.5t195.5 -58.5t195 57.5t81 161.5z" />
    <glyph glyph-name="nine" unicode="9" 
d="M86 926q0 214 141 354.5t371 140.5q123 0 220 -41.5t157 -109t99.5 -160.5t55 -188t15.5 -199q0 -67 -6.5 -133.5t-24 -143t-45 -143t-73 -129t-103.5 -107t-141.5 -71.5t-182.5 -27q-92 0 -172.5 21.5t-126 45.5t-88 62.5t-51 50t-22.5 31.5l153 139q14 -18 32.5 -35.5
t55.5 -44.5t90.5 -44t114.5 -17q78 0 140 30t100.5 77.5t63.5 110t35 121t11 118.5v22q-14 -21 -40 -46.5t-71 -58t-113.5 -54t-145.5 -21.5q-198 0 -323.5 122.5t-125.5 326.5zM860 956q0 117 -71.5 190t-192.5 73q-117 0 -187.5 -75t-70.5 -194q0 -117 68 -189.5
t184 -72.5q122 0 196 75t74 193z" />
    <glyph glyph-name="colon" unicode=":" horiz-adv-x="544" 
d="M426 129q0 -63 -44 -107.5t-110 -44.5q-65 0 -109 44t-44 108q0 65 43.5 108.5t109.5 43.5t110 -43.5t44 -108.5zM426 850q0 -64 -44 -108t-110 -44q-65 0 -109 44t-44 108q0 65 43.5 108t109.5 43t110 -43t44 -108z" />
    <glyph glyph-name="semicolon" unicode=";" horiz-adv-x="573" 
d="M461 850q0 -65 -44.5 -108.5t-111.5 -43.5t-112.5 43.5t-45.5 108.5q0 63 45.5 107t112.5 44t111.5 -43.5t44.5 -107.5zM459 260l-221 -524h-160l92 524h289z" />
    <glyph glyph-name="less" unicode="&#x3c;" 
d="M1165 -8l-1083 411v226l1083 413v-231l-811 -295l811 -293v-231z" />
    <glyph glyph-name="equal" unicode="=" 
d="M1165 614h-1083v215h1083v-215zM1165 205h-1083v215h1083v-215z" />
    <glyph glyph-name="greater" unicode="&#x3e;" 
d="M82 -8l1083 411v226l-1083 413v-231l811 -295l-811 -293v-231z" />
    <glyph glyph-name="question" unicode="?" horiz-adv-x="1064" 
d="M1001 1032q0 -92 -46.5 -164t-131.5 -143q-28 -23 -66.5 -52t-54.5 -42t-36 -32.5t-27 -35.5t-12.5 -39.5t-5.5 -54.5v-72h-246v64q0 92 19.5 148t63.5 102t142 118q46 34 71.5 57.5t47.5 63.5t22 86q0 77 -54 122.5t-157 45.5q-56 0 -106.5 -17.5t-90.5 -49t-61 -52
t-45 -49.5l-164 138q187 247 482 247q200 0 328 -104.5t128 -284.5zM651 129q0 -64 -44 -108t-109 -44q-66 0 -110 44.5t-44 107.5q0 65 44 108.5t110 43.5t109.5 -43.5t43.5 -108.5z" />
    <glyph glyph-name="at" unicode="@" horiz-adv-x="1972" 
d="M1862 766q0 -264 -146 -447q-60 -75 -145.5 -121t-186.5 -46q-86 0 -143.5 43.5t-64.5 115.5q-28 -34 -65.5 -65.5t-110 -61.5t-152.5 -30q-63 0 -119.5 20t-102 59t-72 103t-26.5 145q0 136 59.5 255.5t174.5 196.5t260 77q131 0 217 -105l21 74h196l-106 -479
q-17 -77 -17 -94q0 -74 66 -74q70 0 135 65q129 129 129 357q0 149 -76.5 260.5t-209.5 169t-304 57.5q-167 0 -309.5 -54.5t-240 -149.5t-152 -225.5t-54.5 -279.5q0 -177 81.5 -317.5t237 -222.5t359.5 -82q354 0 602 205l123 -127q-286 -258 -729 -258q-194 0 -359 60.5
t-279 166.5t-178 255.5t-64 322.5q0 184 69 346.5t190.5 282t299 188.5t385.5 69q170 0 317 -44.5t256 -126.5t171.5 -207t62.5 -277zM1176 668q0 82 -44.5 125t-107.5 43q-82 0 -148.5 -54.5t-100.5 -131.5t-34 -154q0 -80 39.5 -121t106.5 -41q83 0 151 50.5t103 126.5
t35 157z" />
    <glyph glyph-name="A" unicode="A" horiz-adv-x="1445" 
d="M1434 0h-279l-125 301h-622l-125 -301h-271l572 1389h278zM954 516l-235 600l-234 -600h469z" />
    <glyph glyph-name="B" unicode="B" horiz-adv-x="1384" 
d="M1298 403q0 -160 -90 -260q-41 -47 -99.5 -77t-135 -43.5t-144 -18t-163.5 -4.5h-519v1389h525q75 0 113 -1t101.5 -6.5t102.5 -16.5t83 -33t77 -54q94 -94 94 -229q0 -68 -20 -125.5t-45 -90t-60.5 -59.5t-53.5 -35t-38 -16q47 -11 91 -33.5t86.5 -59.5t68.5 -96
t26 -131zM983 995q0 37 -10 65.5t-24 47t-39 31.5t-46.5 20t-55.5 10.5t-56 4t-58 0.5h-288v-365h284q55 0 92 2.5t78.5 13.5t66 30t40.5 54.5t16 85.5zM1032 414q0 38 -10.5 67t-25.5 48t-43 32.5t-51.5 20.5t-63 11t-66 4.5t-70.5 0.5h-296v-381h280h56t54 2t54 5.5t48 10
t45 16t35.5 24.5t29.5 34.5t17 46t7 58.5z" />
    <glyph glyph-name="C" unicode="C" horiz-adv-x="1433" 
d="M1374 209q-143 -163 -369 -218q-98 -24 -204 -24q-171 0 -308 56.5t-225 155t-135 230.5t-47 285q0 151 47.5 282t136 230.5t226 157t307.5 57.5q102 0 192.5 -21.5t147.5 -50t106 -66.5t69.5 -61t35.5 -44q-55 -53 -160 -150q-11 13 -21.5 24t-48.5 41.5t-77.5 51
t-103.5 38t-132 17.5q-91 0 -167 -27t-129 -74t-90 -111.5t-54 -138t-17 -153.5q0 -140 52 -253.5t157 -183t246 -69.5q239 0 414 175z" />
    <glyph glyph-name="D" unicode="D" horiz-adv-x="1497" 
d="M1411 700q0 -159 -53.5 -293t-155.5 -227q-56 -52 -125.5 -88t-125.5 -53.5t-133 -27t-117.5 -10.5t-110.5 -1h-443v1389h443q80 0 133.5 -2t127.5 -11t128.5 -25.5t114 -47.5t108.5 -76q103 -94 156 -229.5t53 -297.5zM1143 702q0 235 -131 369q-65 65 -148.5 82.5
t-222.5 17.5h-233v-952h196q70 0 108.5 2t97.5 11.5t106.5 33.5t89.5 64q137 128 137 372z" />
    <glyph glyph-name="E" unicode="E" horiz-adv-x="1269" 
d="M1184 0h-1037v1389h1010v-220h-749v-358h698v-215h-698v-375h776v-221z" />
    <glyph glyph-name="F" unicode="F" horiz-adv-x="1169" 
d="M1133 1169h-725v-372h671v-215h-671v-582h-261v1389h986v-220z" />
    <glyph glyph-name="G" unicode="G" horiz-adv-x="1542" 
d="M1419 0h-202l-5 158q-8 -12 -23 -28t-54.5 -47t-87.5 -55t-124.5 -42.5t-162.5 -18.5q-159 0 -288 56t-212.5 154.5t-128.5 230.5t-45 286q0 151 48 282.5t137.5 230.5t227.5 156.5t308 57.5q104 0 198 -23t151 -52t107.5 -69t67.5 -59.5t31 -37.5l-160 -150
q-13 14 -25.5 27t-50 42t-78 48.5t-104 36t-131.5 16.5q-112 0 -201.5 -41.5t-144.5 -112t-84 -160t-29 -190.5q0 -105 28 -196t82 -161t141.5 -110.5t197.5 -40.5q83 0 151 23t112.5 59.5t75 83.5t43.5 93.5t13 91.5v18h-403v209h624v-766z" />
    <glyph glyph-name="H" unicode="H" horiz-adv-x="1486" 
d="M1339 0h-260v596h-671v-596h-261v1389h261v-574h671v574h260v-1389z" />
    <glyph glyph-name="I" unicode="I" horiz-adv-x="555" 
d="M408 0h-261v1389h261v-1389z" />
    <glyph glyph-name="J" unicode="J" horiz-adv-x="1075" 
d="M940 504q0 -65 -3 -108t-14 -99.5t-37 -104t-67 -88.5q-64 -64 -163 -100.5t-218 -36.5q-79 0 -149.5 19t-116 44.5t-84.5 60t-56.5 56t-29.5 41.5l168 148q15 -20 23 -29.5t35.5 -36.5t53 -42t67 -28.5t85.5 -13.5q115 0 180 62q31 27 46.5 76t17.5 84t2 98v883h260
v-885z" />
    <glyph glyph-name="K" unicode="K" horiz-adv-x="1349" 
d="M1350 0h-332l-610 629v-629h-261v1389h261v-601l608 601h313l-684 -672z" />
    <glyph glyph-name="L" unicode="L" horiz-adv-x="1136" 
d="M1124 0h-977v1389h261v-1168h716v-221z" />
    <glyph glyph-name="M" unicode="M" horiz-adv-x="1806" 
d="M1659 0h-240v1100l-401 -1100h-232l-401 1100v-1100h-238v1389h365l393 -1072l393 1072h361v-1389z" />
    <glyph glyph-name="N" unicode="N" horiz-adv-x="1486" 
d="M1339 0h-256l-688 981v-981h-248v1389h263l682 -973v973h247v-1389z" />
    <glyph glyph-name="O" unicode="O" horiz-adv-x="1609" 
d="M1524 694q0 -109 -27.5 -212.5t-86.5 -197t-142 -164t-202.5 -112t-260.5 -41.5t-260.5 41.5t-202.5 112t-142 164t-86.5 197t-27.5 212.5t27.5 212.5t86.5 197t142 164t202.5 112t260.5 41.5t260.5 -41.5t202.5 -112t142 -164t86.5 -197t27.5 -212.5zM1255 694
q0 80 -17 154.5t-53.5 139.5t-89 113t-127 75.5t-163.5 27.5q-110 0 -197.5 -42t-142 -114t-83 -162.5t-28.5 -191.5t28.5 -191t83 -161.5t142 -113.5t197.5 -42q111 0 198.5 42t141.5 113.5t82 161.5t28 191z" />
    <glyph glyph-name="P" unicode="P" horiz-adv-x="1290" 
d="M1253 963q0 -179 -98 -285q-140 -160 -469 -160h-278v-518h-261v1389h474q185 0 294 -19t191 -88q147 -122 147 -319zM993 958q0 87 -49 142q-46 49 -122.5 63.5t-196.5 14.5h-217v-449h268q194 0 270 84q47 50 47 145z" />
    <glyph glyph-name="Q" unicode="Q" horiz-adv-x="1609" 
d="M1524 694q0 -91 -19.5 -177.5t-51.5 -152t-63 -112t-63 -78.5l186 -176l-151 -152q-137 131 -207 199q-148 -78 -350 -78q-141 0 -260.5 41.5t-202.5 112t-142 164t-86.5 197t-27.5 212.5t27.5 212.5t86.5 197t142 164t202.5 112t260.5 41.5t260.5 -41.5t202.5 -112
t142 -164t86.5 -197t27.5 -212.5zM1255 694q0 80 -17 154.5t-53.5 139.5t-89 113t-127 75.5t-163.5 27.5q-110 0 -197.5 -42t-142 -114t-83 -162.5t-28.5 -191.5t28.5 -191t83 -161.5t142 -113.5t197.5 -42q97 0 174 31l-193 182l150 152l213 -203q40 48 73 136.5t33 209.5z
" />
    <glyph glyph-name="R" unicode="R" horiz-adv-x="1376" 
d="M1339 0h-301l-387 543h-243v-543h-261v1389h533q79 0 130 -3t117 -14.5t119.5 -39t96.5 -70.5q117 -120 117 -289q0 -186 -142 -307q-79 -62 -192 -95zM999 969q0 88 -51 139q-25 25 -57.5 40.5t-76 21t-73 7t-82.5 1.5h-251v-424h229q52 0 87.5 2t82 8t77 20.5t59 37.5
t42.5 60t14 87z" />
    <glyph glyph-name="S" unicode="S" horiz-adv-x="1345" 
d="M1235 395q0 -199 -161 -313.5t-423 -114.5q-78 0 -151 11.5t-125 26.5t-103.5 40.5t-80 43t-61.5 46t-40.5 36t-24.5 26.5l-4 4l154 168l13.5 -13.5t23 -21.5t29.5 -25.5t39 -29t46.5 -28t57 -26.5t65 -21t76 -15t84.5 -5q150 0 236 51t86 150q0 49 -29.5 84t-80 56
t-115.5 36.5t-137.5 30t-144.5 32.5t-137 49t-115.5 73.5t-80 111.5t-29.5 158q0 173 147.5 289t395.5 116q82 0 157 -11.5t128.5 -28t102.5 -42t77.5 -44.5t56.5 -45.5t36 -35.5t18 -22l-156 -158q-12 14 -24 26t-52.5 42t-84 50.5t-113.5 38t-146 17.5q-132 0 -206 -47.5
t-74 -134.5q0 -50 30 -85t80 -54.5t115.5 -34t137.5 -28t144 -30.5t137.5 -47.5t115.5 -73.5t80 -114t30 -164z" />
    <glyph glyph-name="T" unicode="T" horiz-adv-x="1214" 
d="M1202 1169h-465v-1169h-260v1169h-465v220h1190v-220z" />
    <glyph glyph-name="U" unicode="U" horiz-adv-x="1470" 
d="M1335 584q0 -147 -30 -252.5t-119 -194.5q-85 -84 -202 -126t-249 -42q-280 0 -452 172q-62 62 -96.5 142.5t-43 147.5t-8.5 155v803h260v-768q0 -58 1.5 -90.5t9.5 -82t27.5 -88.5t51.5 -71q44 -46 110.5 -71t141.5 -25q159 0 248 92q56 56 73 131.5t17 189.5v783h260
v-805z" />
    <glyph glyph-name="V" unicode="V" horiz-adv-x="1398" 
d="M1386 1389l-552 -1389h-269l-553 1389h285l408 -1082l409 1082h272z" />
    <glyph glyph-name="W" unicode="W" horiz-adv-x="2068" 
d="M2044 1389l-422 -1389h-264l-322 1040l-321 -1040h-264l-426 1389h272l305 -1027l313 1027h242l322 -1027l299 1027h266z" />
    <glyph glyph-name="X" unicode="X" horiz-adv-x="1316" 
d="M1292 0h-303l-334 512l-340 -512h-290l489 725l-448 664h299l301 -461l305 461h278l-444 -662z" />
    <glyph glyph-name="Y" unicode="Y" horiz-adv-x="1294" 
d="M1282 1389l-506 -805v-584h-260v584l-504 805h297l342 -572l346 572h285z" />
    <glyph glyph-name="Z" unicode="Z" horiz-adv-x="1318" 
d="M1233 0h-1147v213l791 956h-762v220h1091v-211l-790 -957h817v-221z" />
    <glyph glyph-name="bracketleft" unicode="[" horiz-adv-x="669" 
d="M633 -381h-510v1770h510v-211h-250v-1348h250v-211z" />
    <glyph glyph-name="backslash" unicode="\" horiz-adv-x="819" 
d="M807 -381l-207 -65l-588 1835l207 65z" />
    <glyph glyph-name="bracketright" unicode="]" horiz-adv-x="669" 
d="M547 -381h-510v211h250v1348h-250v211h510v-1770z" />
    <glyph glyph-name="asciicircum" unicode="^" 
d="M1165 344h-237l-305 778l-304 -778h-237l428 1045h227z" />
    <glyph glyph-name="underscore" unicode="_" horiz-adv-x="1175" 
d="M1176 -381h-1176v215h1176v-215z" />
    <glyph glyph-name="grave" unicode="`" horiz-adv-x="708" 
d="M549 1116h-199l-250 273h262z" />
    <glyph glyph-name="a" unicode="a" horiz-adv-x="1081" 
d="M971 0h-221l-7 111q-118 -136 -323 -136q-146 0 -246 80t-100 232q0 125 80 205q120 120 350 120h229v13q0 194 -215 194q-153 0 -278 -125l-131 140q9 11 20.5 23.5t51 43.5t83.5 53.5t116.5 41t151.5 18.5q219 0 332 -113q69 -69 88 -154.5t19 -232.5v-514zM733 444
h-143q-32 0 -51 -0.5t-52 -3.5t-53.5 -8.5t-46 -16.5t-40 -26.5t-24.5 -40t-10 -55.5q0 -66 45.5 -100.5t116.5 -34.5q121 0 191 67q60 55 67 154v65z" />
    <glyph glyph-name="b" unicode="b" horiz-adv-x="1251" 
d="M1178 489q0 -99 -32.5 -191t-92.5 -165.5t-155 -117.5t-210 -44q-63 0 -119.5 14.5t-91 32.5t-64.5 42t-40 36t-17 21l-6 -117h-227v1389h246v-531q8 11 19 23t43.5 38t69 45t95.5 34.5t123 15.5t126 -17t123 -57.5t107 -99t74.5 -149.5t28.5 -202zM924 487
q0 151 -76 236.5t-201 85.5q-122 0 -202 -87.5t-80 -234.5q0 -144 79 -229.5t201 -85.5q123 0 201 87.5t78 227.5z" />
    <glyph glyph-name="c" unicode="c" horiz-adv-x="1091" 
d="M1038 176q-6 -10 -19.5 -27.5t-51 -51t-84 -60.5t-121.5 -47.5t-160 -20.5q-126 0 -227.5 41t-166.5 113t-99.5 166t-34.5 203q0 103 33.5 195t97.5 166t168.5 117.5t234.5 43.5q82 0 155 -19.5t118 -44.5t82.5 -57t50.5 -48.5t20 -27.5l-149 -131l-11 11t-21.5 20
t-29 24t-39 25.5t-47 22t-57 16.5t-64.5 6q-138 0 -213 -94t-75 -228t73.5 -225.5t210.5 -91.5q58 0 110 16t87 41.5t52 41.5t30 32q98 -86 147 -127z" />
    <glyph glyph-name="d" unicode="d" horiz-adv-x="1251" 
d="M1128 0h-227l-6 129q-10 -13 -20 -24t-43.5 -38.5t-70.5 -46t-97.5 -34t-128.5 -15.5q-63 0 -124.5 16t-123.5 55.5t-108.5 97.5t-75.5 150t-29 206q0 97 31.5 188.5t90 165.5t153.5 119t212 45q59 0 112 -13.5t86 -30t63 -40.5t40.5 -35.5t20.5 -24.5v519h245v-1389z
M887 496q0 145 -79 231t-202 86q-124 0 -201 -88.5t-77 -228.5q0 -153 75.5 -237.5t200.5 -84.5q121 0 202 86.5t81 235.5z" />
    <glyph glyph-name="e" unicode="e" horiz-adv-x="1136" 
d="M1063 414h-737q0 -43 16 -85.5t47.5 -80t86 -61t124.5 -23.5q176 0 297 129l137 -127q-171 -197 -442 -197q-128 0 -229 42t-163 114t-94 164t-32 198q0 104 33 197.5t95 167.5t162 118t224 44q202 0 327 -125q89 -89 118.5 -203.5t29.5 -271.5zM821 590q0 23 -6.5 51.5
t-24 62t-43 60.5t-69 45t-96.5 18q-68 0 -120.5 -28.5t-79 -69.5t-39.5 -77t-13 -62h491z" />
    <glyph glyph-name="f" unicode="f" horiz-adv-x="868" 
d="M868 1352q-6 -12 -75 -170q-1 1 -11.5 5.5t-18 8t-22.5 9t-29 8.5t-33.5 5.5t-39.5 2.5q-71 0 -115 -35q-65 -48 -65 -172v-35h342v-199h-342v-780h-246v780h-213v199h213v41q0 93 22 165t82 132q104 104 297 104q66 0 129 -17.5t88.5 -30.5t36.5 -21z" />
    <glyph glyph-name="g" unicode="g" horiz-adv-x="1230" 
d="M1108 125q0 -137 -21.5 -227.5t-95.5 -167.5q-137 -140 -411 -140q-89 0 -168 18.5t-126 40t-89 53.5t-54 45t-24 28l139 147q8 -9 18 -19.5t39.5 -32.5t61.5 -37.5t83 -28.5t105 -13q178 0 250 103q29 36 38 80.5t9 105.5v76q-7 -9 -17.5 -20t-42.5 -36.5t-68.5 -44
t-94 -34t-119.5 -15.5q-60 0 -119.5 15.5t-119.5 53.5t-105 94t-73.5 144t-28.5 197q0 91 29 178.5t85 161.5t148.5 119t208.5 45q69 0 129 -19.5t100.5 -49.5t62 -51.5t35.5 -41.5l5 127h231v-854zM866 510q0 144 -75.5 225.5t-190.5 81.5q-132 0 -202 -90t-70 -221
q0 -143 70.5 -224t189.5 -81q53 0 102 19.5t88.5 57t63 97.5t24.5 135z" />
    <glyph glyph-name="h" unicode="h" horiz-adv-x="1161" 
d="M1051 0h-246v551q0 76 -12 125t-48 78q-50 47 -143 47q-98 0 -164 -66q-32 -32 -48 -84t-18.5 -93t-2.5 -118v-440h-246v1389h246v-519q123 144 317 144q163 0 268 -105q57 -59 77 -138t20 -179v-592z" />
    <glyph glyph-name="i" unicode="i" horiz-adv-x="483" 
d="M385 1266q0 -59 -40.5 -99.5t-102.5 -40.5q-61 0 -102.5 40.5t-41.5 99.5t41.5 99t102.5 40q62 0 102.5 -40t40.5 -99zM365 0h-246v979h246v-979z" />
    <glyph glyph-name="j" unicode="j" horiz-adv-x="520" 
d="M422 1266q0 -59 -40.5 -99.5t-102.5 -40.5t-103 40.5t-41 99.5t41 99t103 40q61 0 102 -40t41 -99zM401 68q0 -85 -4 -135.5t-27 -115t-67 -110.5q-117 -117 -305 -117q-86 0 -152 20.5t-100 47.5l92 172q63 -35 139 -35q98 0 140 66q23 33 31 77.5t8 116.5v924h245v-911
z" />
    <glyph glyph-name="k" unicode="k" horiz-adv-x="1089" 
d="M1090 0h-310l-411 457v-457h-246v1389h246v-826q343 347 411 416h299q-316 -308 -471 -463z" />
    <glyph glyph-name="l" unicode="l" horiz-adv-x="491" 
d="M369 0h-246v1389h246v-1389z" />
    <glyph glyph-name="m" unicode="m" horiz-adv-x="1701" 
d="M1591 0h-245v553q0 78 -10 128.5t-42 78.5q-44 41 -118 41q-82 0 -136 -51q-26 -25 -40 -63.5t-16.5 -65t-2.5 -66.5v-555h-246v545q0 87 -9.5 136.5t-43.5 78.5q-41 41 -119 41q-81 0 -135 -51q-26 -25 -40 -63.5t-16.5 -65t-2.5 -66.5v-555h-246v979h233l4 -115l18 24
t36.5 37t57.5 42.5t77.5 32t99.5 14.5q58 0 107.5 -15.5t79 -35.5t53.5 -46.5t32 -40t13 -24.5q5 9 15.5 22.5t38.5 40t62 47t88.5 36.5t114.5 16q149 0 242 -96q60 -63 78 -146t18 -199v-573z" />
    <glyph glyph-name="n" unicode="n" horiz-adv-x="1161" 
d="M1051 0h-246v551q0 76 -12 125t-48 78q-50 47 -143 47q-98 0 -164 -66q-32 -32 -48 -84t-18.5 -93t-2.5 -118v-440h-246v979h233l4 -123q39 47 73 73q110 85 255 85q161 0 266 -105q57 -59 77 -138t20 -179v-592z" />
    <glyph glyph-name="o" unicode="o" horiz-adv-x="1222" 
d="M1149 492q0 -77 -19.5 -150.5t-62.5 -141.5t-104.5 -119t-152 -81.5t-198.5 -30.5q-109 0 -199.5 30.5t-152 81.5t-104.5 119t-62.5 141.5t-19.5 150.5t19.5 150.5t62.5 141t104.5 118.5t152 81.5t199.5 30.5q134 0 240 -46t169 -122t95.5 -166.5t32.5 -187.5zM895 492
q0 157 -88 245q-74 74 -195 74q-123 0 -194 -74q-90 -93 -90 -245q0 -153 90 -246q71 -74 194 -74q121 0 195 74q88 91 88 246z" />
    <glyph glyph-name="p" unicode="p" horiz-adv-x="1251" 
d="M924 485q0 153 -76 239.5t-201 86.5q-121 0 -201.5 -89t-80.5 -235q0 -144 79 -229.5t201 -85.5q124 0 201.5 87.5t77.5 225.5zM1178 487q0 -98 -32.5 -190t-92.5 -165.5t-155 -118t-210 -44.5q-73 0 -134 16t-98 41.5t-56.5 43.5t-30.5 34v-485h-246v1360h233l4 -129
q8 11 18.5 23.5t43 40t70 47.5t98 36.5t127.5 16.5q64 0 126.5 -17t124 -57.5t107.5 -99.5t74.5 -150t28.5 -203z" />
    <glyph glyph-name="q" unicode="q" horiz-adv-x="1251" 
d="M1128 -381h-245v494q-11 -13 -19 -21.5t-41.5 -34.5t-68.5 -42.5t-94.5 -31t-124.5 -14.5q-67 0 -131 18t-124 59t-105.5 100.5t-73 148.5t-27.5 197q0 97 31.5 189t90 167t153.5 120.5t212 45.5q75 0 138 -19.5t103 -50t59 -50t32 -38.5l4 123h231v-1360zM887 494
q0 144 -79.5 230.5t-201.5 86.5q-124 0 -201 -88.5t-77 -228.5q0 -151 75.5 -236.5t200.5 -85.5q122 0 202.5 87.5t80.5 234.5z" />
    <glyph glyph-name="r" unicode="r" horiz-adv-x="749" 
d="M750 768q-32 4 -68 4q-138 0 -215 -72q-60 -55 -79 -123.5t-19 -156.5v-420h-246v979h231l4 -170q53 89 152 147t201 58q27 0 39 -2v-244z" />
    <glyph glyph-name="s" unicode="s" horiz-adv-x="1019" 
d="M946 289q0 -147 -123.5 -233.5t-326.5 -86.5q-84 0 -160.5 16.5t-124 37.5t-87 47t-53.5 39.5t-20 21.5l119 150q6 -6 17 -15.5t42.5 -30t67 -36.5t90 -28.5t111.5 -12.5q99 0 151.5 32.5t52.5 81.5q0 36 -27 60t-71 35t-100.5 21.5t-115.5 19t-115.5 29.5t-100.5 51
t-71 84.5t-27 129.5q0 136 116.5 224t305.5 88q293 0 430 -168l-127 -133q-112 112 -293 112q-85 0 -137 -30t-52 -84q0 -31 21.5 -52t58 -32.5t83.5 -19.5t99.5 -16t104.5 -19t99 -32t83.5 -51.5t58 -81.5t21.5 -118z" />
    <glyph glyph-name="t" unicode="t" horiz-adv-x="876" 
d="M840 25q-112 -56 -252 -56q-187 0 -283 86q-58 53 -81 120.5t-23 176.5v428h-213v199h213v305h245v-305h347v-199h-347v-366q0 -44 1.5 -70t12.5 -60.5t32 -56.5q49 -49 145 -49q71 0 139 27z" />
    <glyph glyph-name="u" unicode="u" horiz-adv-x="1157" 
d="M1034 0h-227l-6 127q-5 -8 -15 -20.5t-38 -38t-62.5 -46t-90 -36t-116.5 -15.5q-166 0 -264 95q-63 63 -83.5 142.5t-20.5 197.5v573h245v-555q0 -69 10 -112t42 -74q54 -54 149 -54q98 0 162 64q37 37 50.5 85.5t16.5 123.5q2 37 2 112v410h246v-979z" />
    <glyph glyph-name="v" unicode="v" horiz-adv-x="1083" 
d="M1083 979l-421 -979h-238l-424 979h268l281 -684l276 684h258z" />
    <glyph glyph-name="w" unicode="w" horiz-adv-x="1624" 
d="M1612 979l-330 -979h-246l-223 651l-225 -651h-244l-332 979h256l211 -670l232 670h207l235 -670l213 670h246z" />
    <glyph glyph-name="x" unicode="x" horiz-adv-x="1093" 
d="M1069 0h-283l-247 334l-248 -334h-266l383 496l-369 483h278l234 -317l242 317h262l-371 -477z" />
    <glyph glyph-name="y" unicode="y" horiz-adv-x="1077" 
d="M1077 979l-465 -1106q-18 -45 -37 -80.5t-51.5 -75t-70.5 -66t-94 -44t-123 -17.5q-112 0 -187 48l70 178q47 -21 94 -21q62 0 98.5 28t65.5 85q7 14 43 98l-420 973h262l281 -696l280 696h254z" />
    <glyph glyph-name="z" unicode="z" horiz-adv-x="1009" 
d="M948 0h-887v195l560 585h-539v199h846v-193l-553 -581h573v-205z" />
    <glyph glyph-name="braceleft" unicode="{" horiz-adv-x="661" 
d="M625 -381h-123q-58 0 -94.5 3t-85 17.5t-84.5 43.5q-46 37 -66 85.5t-27 112.5q-2 23 -2 70v309q0 23 -1.5 37t-8.5 33.5t-22 34.5q-43 43 -123 43v219q77 0 123 43q32 32 32 108v281q0 44 2 67q15 136 93 199q51 39 113 51.5t151 12.5h123v-211h-58q-38 0 -56.5 -1
t-41 -8t-37.5 -22q-17 -17 -23 -50.5t-6 -101.5v-198q0 -92 -6 -135q-20 -125 -172 -144q152 -19 172 -143q6 -39 6 -121v-289q0 -73 31 -104q15 -15 38.5 -22t42.5 -8t58 -1h52v-211z" />
    <glyph glyph-name="bar" unicode="|" horiz-adv-x="555" 
d="M408 -381h-261v2019h261v-2019z" />
    <glyph glyph-name="braceright" unicode="}" horiz-adv-x="661" 
d="M37 -381h123q58 0 94.5 3t85 17.5t84.5 43.5q45 36 65 84.5t27 113.5q2 23 2 70v309q0 70 33 105q43 43 123 43v219q-77 0 -123 43q-33 33 -33 108v281q0 44 -2 67q-7 65 -27 114t-65 85q-51 39 -113 51.5t-151 12.5h-123v-211h57q38 0 56.5 -1t41 -8t37.5 -22
q17 -17 23 -50.5t6 -101.5v-198q0 -92 6 -135q20 -125 172 -144q-152 -19 -172 -143q-6 -39 -6 -121v-289q0 -73 -31 -104q-15 -15 -38.5 -22t-42.5 -8t-58 -1h-51v-211z" />
    <glyph glyph-name="asciitilde" unicode="~" 
d="M1159 567q-130 -207 -328 -207q-58 0 -115 14t-95.5 30.5t-86.5 30.5t-90 14q-99 0 -184 -113l-170 127q132 209 322 209q77 0 145.5 -22t126.5 -44t109 -22q60 0 104 26t90 84z" />
    <glyph glyph-name="exclamdown" unicode="&#xa1;" horiz-adv-x="577" 
d="M418 -381l-6 991h-246l-6 -991h258zM442 879q0 63 -44 107t-109 44q-66 0 -110 -44t-44 -107q0 -65 44 -108.5t110 -43.5t109.5 43.5t43.5 108.5z" />
    <glyph glyph-name="cent" unicode="&#xa2;" 
d="M977 307l158 -129q-8 -12 -16 -23t-43 -45.5t-74 -60t-104.5 -50.5t-137.5 -32v-180h-189v182q-147 16 -253.5 94.5t-156.5 191t-50 245.5q0 98 30 186t86 159t144.5 119t199.5 62v180h189v-178q67 -6 129.5 -28t102.5 -48t73 -55.5t46.5 -46.5t18.5 -25
q-51 -43 -157 -129q-46 53 -95 82q-54 31 -118 43v-645q46 7 87 25.5t68.5 42.5t40 37t21.5 26zM571 182v633q-97 -26 -151.5 -113t-54.5 -204q0 -120 52.5 -203.5t153.5 -112.5z" />
    <glyph glyph-name="sterling" unicode="&#xa3;" 
d="M1167 1192l-157 -131q-16 19 -34.5 37.5t-56 47.5t-89.5 46.5t-109 17.5q-110 0 -169.5 -66.5t-59.5 -158.5q0 -80 32 -192h373v-199h-330q8 -40 8 -72q0 -105 -36.5 -183t-87.5 -126h690v-213h-1016v195q205 90 205 305q0 17 -11 94h-194v199h147q-34 100 -34 200
q0 184 131 306t331 122q86 0 164 -22t127 -50t91.5 -65.5t58 -56.5t26.5 -35z" />
    <glyph glyph-name="currency" unicode="&#xa4;" horiz-adv-x="1269" 
d="M1200 1155l-184 -182q50 -74 71 -136t21 -135q0 -146 -90 -274l176 -182l-104 -105l-181 181q-148 -93 -282 -93q-140 0 -271 93l-182 -183l-104 107l180 182q-49 73 -68.5 133.5t-19.5 136.5q0 144 92 275l-182 182l104 105l184 -183q73 52 135.5 73t139.5 21t139.5 -21
t136.5 -73l183 185zM942 705q0 129 -90.5 218t-222.5 89q-123 0 -213 -91.5t-90 -218.5q0 -129 90.5 -220t218.5 -91q129 0 218 91.5t89 222.5z" />
    <glyph glyph-name="yen" unicode="&#xa5;" 
d="M1204 1389l-338 -596h277v-199h-395v-133h382v-199h-382v-262h-246v262h-379v199h379v133h-393v199h272l-336 596h277l309 -596l305 596h268z" />
    <glyph glyph-name="brokenbar" unicode="&#xa6;" horiz-adv-x="555" 
d="M408 903h-261v735h261v-735zM408 -381h-261v733h261v-733z" />
    <glyph glyph-name="section" unicode="&#xa7;" horiz-adv-x="1208" 
d="M1112 -2q0 -126 -70 -219.5t-189.5 -141t-270.5 -47.5q-76 0 -146 13t-119.5 31.5t-95 46t-72 48.5t-50.5 47t-30 34.5t-12 17.5l156 143q12 -15 22.5 -27t47 -42.5t74.5 -51t100 -38t129 -17.5q57 0 107 11t91.5 33t65.5 60t24 87q0 42 -26.5 71t-71 46.5t-102.5 30
t-122 25t-128 28.5t-122 43.5t-102.5 66.5t-71 101.5t-26.5 144.5q0 81 32 142t75 97q-109 81 -109 248q0 171 133.5 281t352.5 110q74 0 141.5 -12.5t116 -31t92 -43.5t70.5 -46.5t49.5 -45t30 -34.5t12.5 -18l-154 -139q-139 163 -358 163q-104 0 -177 -45.5t-73 -128.5
q0 -43 26.5 -73.5t71 -48t102.5 -30t122 -25t128 -27.5t122 -42.5t102.5 -65.5t71 -100.5t26.5 -144.5q0 -73 -26 -136t-72 -103q102 -83 102 -246zM877 463v-2q0 48 -30.5 81.5t-86.5 54t-113 33.5t-132.5 29t-121.5 31q-57 -50 -57 -129q0 -47 27 -79.5t81 -52.5t108 -32
t136 -29t137 -34q52 46 52 129z" />
    <glyph glyph-name="dieresis" unicode="&#xa8;" horiz-adv-x="765" 
d="M315 1266q0 -54 -37.5 -90.5t-91.5 -36.5t-91.5 36.5t-37.5 90.5t37.5 90.5t91.5 36.5t91.5 -36.5t37.5 -90.5zM711 1266q0 -54 -37.5 -90.5t-91.5 -36.5t-91.5 36.5t-37.5 90.5t37.5 90.5t91.5 36.5t91.5 -36.5t37.5 -90.5z" />
    <glyph glyph-name="copyright" unicode="&#xa9;" horiz-adv-x="1671" 
d="M1561 694q0 -197 -97 -364.5t-264 -265t-364 -97.5t-364 97.5t-264 265t-97 364.5t97 364.5t264 265t364 97.5t364 -97.5t264 -265t97 -364.5zM1391 694q0 113 -44 217t-118 179t-177 120t-216 45q-112 0 -215 -45t-177.5 -120t-118.5 -179t-44 -217t44 -217t118 -179
t177 -120t216 -45q112 0 215 45t177.5 120t118.5 179t44 217zM1196 467v2q-125 -188 -350 -188q-80 0 -146.5 23.5t-112 63.5t-76.5 93.5t-45.5 112t-14.5 120.5q0 78 24 150t70.5 132t125 96t177.5 36q213 0 342 -182l-123 -97l-17 21q-17 20 -30.5 33t-30.5 24
q-62 41 -141 41q-107 0 -162 -72.5t-55 -181.5t55 -181.5t160 -72.5q112 0 190 78q8 8 20.5 23.5t16.5 19.5z" />
    <glyph glyph-name="ordfeminine" unicode="&#xaa;" horiz-adv-x="696" 
d="M608 850h-139l-2 49q-61 -61 -162 -61q-82 0 -139 43t-57 125q0 67 45 112q65 60 217 60h90v12q-3 76 -105 76q-85 0 -147 -62l-84 86q10 11 24 23t43.5 31.5t75 32t97.5 12.5q117 0 182 -62q39 -39 50 -85.5t11 -121.5v-270zM461 1065v12h-80q-123 0 -123 -69
q0 -31 22 -45.5t52 -14.5q59 0 94 31q35 30 35 86z" />
    <glyph glyph-name="guillemotleft" unicode="&#xab;" horiz-adv-x="976" 
d="M512 188l-135 -92l-316 426l316 426l135 -92l-217 -334zM866 188l-135 -92l-315 426l315 426l135 -92l-217 -334z" />
    <glyph glyph-name="logicalnot" unicode="&#xac;" 
d="M1165 195h-213v419h-870v215h1083v-634z" />
    <glyph glyph-name="registered" unicode="&#xae;" horiz-adv-x="962" 
d="M901 1001q0 -173 -123.5 -296t-296.5 -123t-296.5 123t-123.5 296t123.5 296.5t296.5 123.5t296.5 -123.5t123.5 -296.5zM481 1309q-128 0 -218.5 -90.5t-90.5 -217.5q0 -129 90 -220t219 -91q128 0 219 91t91 218q0 129 -91 219.5t-219 90.5zM680 805h-113l-90 158h-47
v-158h-100v414h162q76 0 110 -25q51 -42 51 -104q0 -37 -22.5 -69.5t-57.5 -41.5zM557 1087q0 30 -18 41q-16 9 -68 9h-41v-97h39q20 0 33.5 1.5t27 6t20.5 14.5t7 25z" />
    <glyph glyph-name="macron" unicode="&#xaf;" horiz-adv-x="708" 
d="M662 1178h-613v165h613v-165z" />
    <glyph glyph-name="degree" unicode="&#xb0;" horiz-adv-x="757" 
d="M709 1092q0 -136 -96.5 -233t-233.5 -97t-233.5 97t-96.5 233t96.5 232.5t233.5 96.5t233.5 -96.5t96.5 -232.5zM551 1092q0 72 -50 123t-122 51t-122 -51t-50 -123t50 -123t122 -51t122 51t50 123z" />
    <glyph glyph-name="plusminus" unicode="&#xb1;" 
d="M1165 676h-432v-369h-217v369h-434v215h434v366h217v-366h432v-215zM1165 0h-1083v215h1083v-215z" />
    <glyph glyph-name="twosuperior" unicode="&#xb2;" horiz-adv-x="794" 
d="M655 1176q0 -45 -15 -83t-44.5 -67.5t-56 -49t-66.5 -42.5q-13 -8 -45.5 -24.5t-49 -26.5t-38 -26t-33.5 -33t-16 -36h360v-141h-532v47q0 79 16.5 133t69.5 105q19 19 45.5 38t45 30.5t53 31t48.5 27.5q49 29 73 56t24 63q0 43 -31 70.5t-80 27.5q-56 0 -98 -26t-84 -74
l-103 90q62 70 128.5 106.5t158.5 36.5q116 0 193 -63t77 -170z" />
    <glyph glyph-name="threesuperior" unicode="&#xb3;" horiz-adv-x="788" 
d="M666 868q0 -110 -81.5 -173.5t-209.5 -63.5q-194 0 -289 133l104 92q43 -43 64 -55q52 -35 113 -35q63 0 98 26.5t35 71.5q0 33 -15.5 54.5t-44.5 29.5t-50.5 10.5t-53.5 2.5h-62v131h52q28 0 43.5 0.5t40.5 5.5t38.5 14t24 27.5t10.5 44.5q0 35 -26.5 62.5t-79.5 27.5
q-50 0 -89.5 -22t-80.5 -64l-101 90q49 56 84 78q79 53 191 53q111 0 186.5 -59.5t75.5 -155.5q0 -65 -32 -109.5t-70 -54.5q26 -8 51.5 -24t49.5 -53t24 -85z" />
    <glyph glyph-name="acute" unicode="&#xb4;" horiz-adv-x="765" 
d="M668 1389l-250 -273h-199l184 273h265z" />
    <glyph glyph-name="mu" unicode="&#xb5;" horiz-adv-x="1169" 
d="M801 979h246v-979h-230l-6 129q-8 -16 -28 -39t-55 -51t-91 -47t-119 -19q-109 0 -158 37v-391h-237v1360h246v-555q0 -70 9.5 -112.5t41.5 -73.5q54 -54 149 -54q98 0 162 64q37 37 51 86t17 123q2 37 2 112v410z" />
    <glyph glyph-name="paragraph" unicode="&#xb6;" horiz-adv-x="1308" 
d="M1161 -238h-221v1412h-149v-1412h-224v756q-268 7 -399 154q-107 118 -107 291q0 195 146 319q44 37 96.5 60t119.5 32.5t117 12t136 2.5h485v-1627z" />
    <glyph glyph-name="periodcentered" unicode="&#xb7;" horiz-adv-x="544" 
d="M426 526q0 -63 -44 -107t-110 -44t-109.5 43.5t-43.5 107.5q0 65 43.5 108.5t109.5 43.5t110 -43.5t44 -108.5z" />
    <glyph glyph-name="cedilla" unicode="&#xb8;" horiz-adv-x="696" 
d="M565 -250q0 -79 -64 -129.5t-163 -50.5q-123 0 -195 72l72 90q53 -45 115 -45q42 0 63 18.5t21 46.5q0 30 -18.5 48t-55.5 18q-43 0 -74 -31l-98 61l92 148l133 -6q-13 -19 -53 -78q12 4 29 4q94 0 145 -46t51 -120z" />
    <glyph glyph-name="onesuperior" unicode="&#xb9;" horiz-adv-x="808" 
d="M156 643v137h194v432l-155 -94l-80 119l252 152h147v-609h193v-137h-551z" />
    <glyph glyph-name="ordmasculine" unicode="&#xba;" horiz-adv-x="688" 
d="M639 1110q0 -52 -18.5 -101t-54 -90t-93 -65.5t-129.5 -24.5q-140 0 -217.5 84t-77.5 195q0 52 18.5 101t54 90t93 65.5t129.5 24.5q140 0 217.5 -84t77.5 -195zM344 1262q-66 0 -102.5 -42t-36.5 -110q0 -69 36.5 -111.5t102.5 -42.5t102.5 42t36.5 110
q0 69 -36.5 111.5t-102.5 42.5z" />
    <glyph glyph-name="guillemotright" unicode="&#xbb;" horiz-adv-x="976" 
d="M465 188l135 -92l315 426l-315 426l-135 -92l217 -334zM111 188l135 -92l315 426l-315 426l-135 -92l217 -334z" />
    <glyph glyph-name="onequarter" unicode="&#xbc;" horiz-adv-x="1853" 
d="M707 643h-551v137h194v432l-155 -96l-80 119l252 154h147v-609h193v-137zM1755 154h-115v-154h-153v154h-342v116l338 475h157v-462h115v-129zM1487 283v254l-182 -254h182zM1501 1350l-823 -1424l-141 82l823 1422z" />
    <glyph glyph-name="onehalf" unicode="&#xbd;" horiz-adv-x="1865" 
d="M707 643h-551v137h194v432l-155 -96l-80 119l252 154h147v-609h193v-137zM1726 528q0 -45 -15 -83t-44.5 -67.5t-56 -48.5t-66.5 -42q-13 -8 -45.5 -24.5t-49 -26.5t-38 -26t-33.5 -33t-16 -36h360v-141h-532v47q0 79 16.5 133t69.5 105q19 19 45.5 38t45 30.5t53 31
t48.5 27.5q49 29 73 55.5t24 62.5q0 43 -31 71t-80 28q-55 0 -97.5 -26t-84.5 -75l-103 90q62 70 128.5 107t158.5 37q116 0 193 -63.5t77 -170.5zM1434 1350l-824 -1424l-141 82l823 1422z" />
    <glyph glyph-name="threequarters" unicode="&#xbe;" horiz-adv-x="1763" 
d="M1665 154h-115v-154h-153v154h-342v116l338 475h157v-462h115v-129zM1397 283v254l-183 -254h183zM666 868q0 -110 -81.5 -173.5t-209.5 -63.5q-194 0 -289 133l104 92q43 -43 64 -55q52 -35 113 -35q63 0 98 26.5t35 71.5q0 33 -15.5 54.5t-44.5 29.5t-50.5 10.5
t-53.5 2.5h-62v131h52q28 0 43.5 0.5t40.5 5.5t38.5 14t24 27.5t10.5 44.5q0 35 -26.5 62.5t-79.5 27.5q-50 0 -89.5 -22t-80.5 -64l-101 90q49 56 84 78q79 53 191 53q111 0 186.5 -59.5t75.5 -155.5q0 -65 -32 -109.5t-70 -54.5q26 -8 51.5 -24t49.5 -53t24 -85z
M1399 1350l-824 -1424l-141 82l823 1422z" />
    <glyph glyph-name="questiondown" unicode="&#xbf;" horiz-adv-x="1064" 
d="M63 -27q0 92 47 164.5t132 143.5q28 23 66.5 52t54.5 42t36 32.5t27 35.5t12.5 39.5t5.5 54.5v71h246v-63q0 -70 -8.5 -114.5t-36 -87t-67 -78t-113.5 -89.5q-46 -34 -71.5 -57.5t-47.5 -63.5t-22 -86q0 -77 54 -122.5t157 -45.5q56 0 106.5 17.5t90.5 49t61 52t45 49.5
l163 -137q-188 -248 -481 -248q-200 0 -328.5 104.5t-128.5 284.5zM414 877q0 63 44 107t109 44q66 0 110 -44t44 -107q0 -65 -44 -108.5t-110 -43.5t-109.5 43.5t-43.5 108.5z" />
    <glyph glyph-name="Agrave" unicode="&#xc0;" horiz-adv-x="1445" 
d="M1434 0h-279l-125 301h-622l-125 -301h-271l572 1389h278zM954 516l-235 600l-234 -600h469zM899 1530h-199l-250 273h262z" />
    <glyph glyph-name="Aacute" unicode="&#xc1;" horiz-adv-x="1445" 
d="M1434 0h-279l-125 301h-622l-125 -301h-271l572 1389h278zM954 516l-235 600l-234 -600h469zM994 1803l-250 -273h-199l184 273h265z" />
    <glyph glyph-name="Acircumflex" unicode="&#xc2;" horiz-adv-x="1445" 
d="M1434 0h-279l-125 301h-622l-125 -301h-271l572 1389h278zM954 516l-235 600l-234 -600h469zM1051 1530h-195l-133 150l-135 -150h-194l186 273h287z" />
    <glyph glyph-name="Atilde" unicode="&#xc3;" horiz-adv-x="1445" 
d="M1434 0h-279l-125 301h-622l-125 -301h-271l572 1389h278zM954 516l-235 600l-234 -600h469zM1047 1788q0 -33 -4 -49q-7 -96 -59 -147.5t-140 -51.5q-49 0 -126.5 39t-108.5 39q-32 0 -49 -20t-17 -51h-145q0 111 51.5 179t155.5 68q53 0 129.5 -37.5t105.5 -37.5
q33 0 49.5 20t16.5 49h141z" />
    <glyph glyph-name="Adieresis" unicode="&#xc4;" horiz-adv-x="1445" 
d="M1434 0h-279l-125 301h-622l-125 -301h-271l572 1389h278zM954 516l-235 600l-234 -600h469zM653 1669q0 -54 -37.5 -90.5t-91.5 -36.5t-91.5 36.5t-37.5 90.5t37.5 90.5t91.5 36.5t91.5 -36.5t37.5 -90.5zM1049 1669q0 -54 -37.5 -90.5t-91.5 -36.5t-91.5 36.5
t-37.5 90.5t37.5 90.5t91.5 36.5t91.5 -36.5t37.5 -90.5z" />
    <glyph glyph-name="Aring" unicode="&#xc5;" horiz-adv-x="1445" 
d="M1434 0h-279l-125 301h-622l-125 -301h-271l572 1389h278zM954 516l-235 600l-234 -600h469zM938 1671q0 -90 -64 -152.5t-155 -62.5t-154 62t-63 153t63 154t154 63t155 -63t64 -154zM814 1671q0 40 -27.5 68t-67.5 28q-38 0 -65 -28t-27 -68q0 -38 27 -66t65 -28
q40 0 67.5 28t27.5 66z" />
    <glyph glyph-name="AE" unicode="&#xc6;" horiz-adv-x="2068" 
d="M1982 0h-962v324h-524l-205 -324h-303l891 1389h1079v-220h-682v-358h635v-215h-635v-375h706v-221zM1020 539v651l-399 -651h399z" />
    <glyph glyph-name="Ccedilla" unicode="&#xc7;" horiz-adv-x="1433" 
d="M592 -152l82 129q-261 30 -424.5 223t-163.5 494q0 151 47.5 282t136 230.5t226 157t307.5 57.5q102 0 192.5 -21.5t147.5 -50t106 -66.5t69.5 -61t35.5 -44q-55 -53 -160 -150q-11 13 -21.5 24t-48.5 41.5t-77.5 51t-103.5 38t-132 17.5q-91 0 -167 -27t-129 -74
t-90 -111.5t-54 -138t-17 -153.5q0 -140 52 -253.5t157 -183t246 -69.5q239 0 414 175l151 -156q-17 -19 -30 -33t-69 -57.5t-114.5 -72.5t-155.5 -54t-202 -25l-39 -55q12 4 29 4q94 0 145 -46t51 -120q0 -79 -64 -129.5t-163 -50.5q-123 0 -195 72l72 90q53 -45 115 -45
q42 0 63 18.5t21 46.5q0 30 -18.5 48t-55.5 18q-43 0 -74 -31z" />
    <glyph glyph-name="Egrave" unicode="&#xc8;" horiz-adv-x="1269" 
d="M1184 0h-1037v1389h1010v-220h-749v-358h698v-215h-698v-375h776v-221zM846 1530h-199l-250 273h262z" />
    <glyph glyph-name="Eacute" unicode="&#xc9;" horiz-adv-x="1269" 
d="M1184 0h-1037v1389h1010v-220h-749v-358h698v-215h-698v-375h776v-221zM940 1803l-250 -273h-199l184 273h265z" />
    <glyph glyph-name="Ecircumflex" unicode="&#xca;" horiz-adv-x="1269" 
d="M1184 0h-1037v1389h1010v-220h-749v-358h698v-215h-698v-375h776v-221zM993 1530h-195l-133 150l-135 -150h-194l186 273h287z" />
    <glyph glyph-name="Edieresis" unicode="&#xcb;" horiz-adv-x="1269" 
d="M1184 0h-1037v1389h1010v-220h-749v-358h698v-215h-698v-375h776v-221zM600 1669q0 -54 -37.5 -90.5t-91.5 -36.5t-91.5 36.5t-37.5 90.5t37.5 90.5t91.5 36.5t91.5 -36.5t37.5 -90.5zM996 1669q0 -54 -37.5 -90.5t-91.5 -36.5t-91.5 36.5t-37.5 90.5t37.5 90.5
t91.5 36.5t91.5 -36.5t37.5 -90.5z" />
    <glyph glyph-name="Igrave" unicode="&#xcc;" horiz-adv-x="555" 
d="M408 0h-261v1389h261v-1389zM438 1530h-199l-250 273h262z" />
    <glyph glyph-name="Iacute" unicode="&#xcd;" horiz-adv-x="555" 
d="M408 0h-261v1389h261v-1389zM566 1803l-250 -273h-199l184 273h265z" />
    <glyph glyph-name="Icircumflex" unicode="&#xce;" horiz-adv-x="555" 
d="M408 0h-261v1389h261v-1389zM606 1530h-195l-133 150l-135 -150h-194l186 273h287z" />
    <glyph glyph-name="Idieresis" unicode="&#xcf;" horiz-adv-x="555" 
d="M408 0h-261v1389h261v-1389zM209 1669q0 -54 -37.5 -90.5t-91.5 -36.5t-91.5 36.5t-37.5 90.5t37.5 90.5t91.5 36.5t91.5 -36.5t37.5 -90.5zM605 1669q0 -54 -37.5 -90.5t-91.5 -36.5t-91.5 36.5t-37.5 90.5t37.5 90.5t91.5 36.5t91.5 -36.5t37.5 -90.5z" />
    <glyph glyph-name="Eth" unicode="&#xd0;" horiz-adv-x="1574" 
d="M1489 700q0 -159 -53.5 -293t-155.5 -227q-56 -52 -125.5 -88t-125.5 -53.5t-133 -27t-117.5 -10.5t-110.5 -1h-443v598h-213v211h213v580h443q80 0 133.5 -2t127.5 -11t128.5 -25.5t114 -47.5t108.5 -76q103 -94 156 -229.5t53 -297.5zM1221 702q0 235 -131 369
q-35 35 -75.5 56t-93 30t-93 11.5t-107.5 2.5h-236v-362h373v-211h-373v-379h197q70 0 108 2t97 11.5t106.5 33.5t89.5 64q69 64 103.5 161t34.5 211z" />
    <glyph glyph-name="Ntilde" unicode="&#xd1;" horiz-adv-x="1486" 
d="M1339 0h-256l-688 981v-981h-248v1389h263l682 -973v973h247v-1389zM1071 1790q0 -33 -4 -49q-7 -96 -59 -147.5t-140 -51.5q-49 0 -126.5 39t-108.5 39q-32 0 -49 -20t-17 -51h-145q0 111 51.5 179t155.5 68q53 0 129.5 -37.5t105.5 -37.5q33 0 49.5 20t16.5 49h141z
" />
    <glyph glyph-name="Ograve" unicode="&#xd2;" horiz-adv-x="1609" 
d="M1524 694q0 -109 -27.5 -212.5t-86.5 -197t-142 -164t-202.5 -112t-260.5 -41.5t-260.5 41.5t-202.5 112t-142 164t-86.5 197t-27.5 212.5t27.5 212.5t86.5 197t142 164t202.5 112t260.5 41.5t260.5 -41.5t202.5 -112t142 -164t86.5 -197t27.5 -212.5zM1255 694
q0 80 -17 154.5t-53.5 139.5t-89 113t-127 75.5t-163.5 27.5q-110 0 -197.5 -42t-142 -114t-83 -162.5t-28.5 -191.5t28.5 -191t83 -161.5t142 -113.5t197.5 -42q111 0 198.5 42t141.5 113.5t82 161.5t28 191zM987 1530h-199l-250 273h262z" />
    <glyph glyph-name="Oacute" unicode="&#xd3;" horiz-adv-x="1609" 
d="M1524 694q0 -109 -27.5 -212.5t-86.5 -197t-142 -164t-202.5 -112t-260.5 -41.5t-260.5 41.5t-202.5 112t-142 164t-86.5 197t-27.5 212.5t27.5 212.5t86.5 197t142 164t202.5 112t260.5 41.5t260.5 -41.5t202.5 -112t142 -164t86.5 -197t27.5 -212.5zM1255 694
q0 80 -17 154.5t-53.5 139.5t-89 113t-127 75.5t-163.5 27.5q-110 0 -197.5 -42t-142 -114t-83 -162.5t-28.5 -191.5t28.5 -191t83 -161.5t142 -113.5t197.5 -42q111 0 198.5 42t141.5 113.5t82 161.5t28 191zM1074 1803l-250 -273h-199l184 273h265z" />
    <glyph glyph-name="Ocircumflex" unicode="&#xd4;" horiz-adv-x="1609" 
d="M1524 694q0 -109 -27.5 -212.5t-86.5 -197t-142 -164t-202.5 -112t-260.5 -41.5t-260.5 41.5t-202.5 112t-142 164t-86.5 197t-27.5 212.5t27.5 212.5t86.5 197t142 164t202.5 112t260.5 41.5t260.5 -41.5t202.5 -112t142 -164t86.5 -197t27.5 -212.5zM1255 694
q0 80 -17 154.5t-53.5 139.5t-89 113t-127 75.5t-163.5 27.5q-110 0 -197.5 -42t-142 -114t-83 -162.5t-28.5 -191.5t28.5 -191t83 -161.5t142 -113.5t197.5 -42q111 0 198.5 42t141.5 113.5t82 161.5t28 191zM1133 1530h-195l-133 150l-135 -150h-194l186 273h287z" />
    <glyph glyph-name="Otilde" unicode="&#xd5;" horiz-adv-x="1609" 
d="M1524 694q0 -109 -27.5 -212.5t-86.5 -197t-142 -164t-202.5 -112t-260.5 -41.5t-260.5 41.5t-202.5 112t-142 164t-86.5 197t-27.5 212.5t27.5 212.5t86.5 197t142 164t202.5 112t260.5 41.5t260.5 -41.5t202.5 -112t142 -164t86.5 -197t27.5 -212.5zM1255 694
q0 80 -17 154.5t-53.5 139.5t-89 113t-127 75.5t-163.5 27.5q-110 0 -197.5 -42t-142 -114t-83 -162.5t-28.5 -191.5t28.5 -191t83 -161.5t142 -113.5t197.5 -42q111 0 198.5 42t141.5 113.5t82 161.5t28 191zM1129 1788q0 -33 -4 -49q-7 -96 -59 -147.5t-140 -51.5
q-49 0 -126.5 39t-108.5 39q-32 0 -49 -20t-17 -51h-145q0 111 51.5 179t155.5 68q53 0 129.5 -37.5t105.5 -37.5q33 0 49.5 20t16.5 49h141z" />
    <glyph glyph-name="Odieresis" unicode="&#xd6;" horiz-adv-x="1609" 
d="M1524 694q0 -109 -27.5 -212.5t-86.5 -197t-142 -164t-202.5 -112t-260.5 -41.5t-260.5 41.5t-202.5 112t-142 164t-86.5 197t-27.5 212.5t27.5 212.5t86.5 197t142 164t202.5 112t260.5 41.5t260.5 -41.5t202.5 -112t142 -164t86.5 -197t27.5 -212.5zM1255 694
q0 80 -17 154.5t-53.5 139.5t-89 113t-127 75.5t-163.5 27.5q-110 0 -197.5 -42t-142 -114t-83 -162.5t-28.5 -191.5t28.5 -191t83 -161.5t142 -113.5t197.5 -42q111 0 198.5 42t141.5 113.5t82 161.5t28 191zM735 1669q0 -54 -37.5 -90.5t-91.5 -36.5t-91.5 36.5
t-37.5 90.5t37.5 90.5t91.5 36.5t91.5 -36.5t37.5 -90.5zM1131 1669q0 -54 -37.5 -90.5t-91.5 -36.5t-91.5 36.5t-37.5 90.5t37.5 90.5t91.5 36.5t91.5 -36.5t37.5 -90.5z" />
    <glyph glyph-name="multiply" unicode="&#xd7;" 
d="M1124 170l-153 -154l-348 346l-347 -346l-153 152l346 346l-346 348l153 154l349 -348l348 348l151 -154l-346 -346z" />
    <glyph glyph-name="Oslash" unicode="&#xd8;" horiz-adv-x="1619" 
d="M1524 694q0 -109 -27.5 -212.5t-86.5 -197t-142 -164t-202.5 -112t-260.5 -41.5q-257 0 -428 129l-137 -141l-154 147l141 142q-141 192 -141 450q0 109 27.5 212.5t86.5 197t142 164t202.5 112t260.5 41.5q245 0 438 -131l141 142l150 -144l-145 -151q135 -189 135 -443
zM412 430l663 686q-103 88 -270 88q-110 0 -197.5 -42t-142 -114t-83 -162.5t-28.5 -191.5q0 -148 58 -264zM1255 694q0 150 -53 254l-659 -678q102 -84 262 -84q111 0 198.5 42t141.5 113.5t82 161.5t28 191z" />
    <glyph glyph-name="Ugrave" unicode="&#xd9;" horiz-adv-x="1470" 
d="M1335 584q0 -147 -30 -252.5t-119 -194.5q-85 -84 -202 -126t-249 -42q-280 0 -452 172q-62 62 -96.5 142.5t-43 147.5t-8.5 155v803h260v-768q0 -58 1.5 -90.5t9.5 -82t27.5 -88.5t51.5 -71q44 -46 110.5 -71t141.5 -25q159 0 248 92q56 56 73 131.5t17 189.5v783h260
v-805zM916 1530h-199l-250 273h262z" />
    <glyph glyph-name="Uacute" unicode="&#xda;" horiz-adv-x="1470" 
d="M1335 584q0 -147 -30 -252.5t-119 -194.5q-85 -84 -202 -126t-249 -42q-280 0 -452 172q-62 62 -96.5 142.5t-43 147.5t-8.5 155v803h260v-768q0 -58 1.5 -90.5t9.5 -82t27.5 -88.5t51.5 -71q44 -46 110.5 -71t141.5 -25q159 0 248 92q56 56 73 131.5t17 189.5v783h260
v-805zM1004 1803l-250 -273h-199l184 273h265z" />
    <glyph glyph-name="Ucircumflex" unicode="&#xdb;" horiz-adv-x="1470" 
d="M1335 584q0 -147 -30 -252.5t-119 -194.5q-85 -84 -202 -126t-249 -42q-280 0 -452 172q-62 62 -96.5 142.5t-43 147.5t-8.5 155v803h260v-768q0 -58 1.5 -90.5t9.5 -82t27.5 -88.5t51.5 -71q44 -46 110.5 -71t141.5 -25q159 0 248 92q56 56 73 131.5t17 189.5v783h260
v-805zM1065 1530h-195l-133 150l-135 -150h-194l186 273h287z" />
    <glyph glyph-name="Udieresis" unicode="&#xdc;" horiz-adv-x="1470" 
d="M1335 584q0 -147 -30 -252.5t-119 -194.5q-85 -84 -202 -126t-249 -42q-280 0 -452 172q-62 62 -96.5 142.5t-43 147.5t-8.5 155v803h260v-768q0 -58 1.5 -90.5t9.5 -82t27.5 -88.5t51.5 -71q44 -46 110.5 -71t141.5 -25q159 0 248 92q56 56 73 131.5t17 189.5v783h260
v-805zM665 1669q0 -54 -37.5 -90.5t-91.5 -36.5t-91.5 36.5t-37.5 90.5t37.5 90.5t91.5 36.5t91.5 -36.5t37.5 -90.5zM1061 1669q0 -54 -37.5 -90.5t-91.5 -36.5t-91.5 36.5t-37.5 90.5t37.5 90.5t91.5 36.5t91.5 -36.5t37.5 -90.5z" />
    <glyph glyph-name="Yacute" unicode="&#xdd;" horiz-adv-x="1294" 
d="M1282 1389l-506 -805v-584h-260v584l-504 805h297l342 -572l346 572h285zM916 1803l-250 -273h-199l184 273h265z" />
    <glyph glyph-name="Thorn" unicode="&#xde;" horiz-adv-x="1290" 
d="M1253 725q0 -179 -98 -285q-139 -159 -469 -159h-278v-281h-261v1389h261v-238h213q185 0 294 -19t191 -88q147 -122 147 -319zM993 721q0 86 -49 141q-46 49 -122.5 63.5t-196.5 14.5h-217v-448h268q195 0 270 83q47 50 47 146z" />
    <glyph glyph-name="germandbls" unicode="&#xdf;" horiz-adv-x="1181" 
d="M1128 393q0 -86 -26.5 -156.5t-71.5 -118t-105.5 -80t-126 -47t-136.5 -14.5q-132 0 -218 43l62 185q54 -27 131 -27q103 0 174.5 57t71.5 166q0 90 -58 148q-25 24 -59 39t-76 21t-69.5 7.5t-71.5 1.5h-62v201h54q167 0 231 72q47 50 47 133q0 88 -64 143.5t-165 55.5
q-111 0 -172 -64q-38 -40 -50 -91.5t-12 -139.5v-928h-245v926q0 130 26.5 222t95.5 157q125 116 351 116q215 0 344 -99.5t129 -272.5q0 -71 -24.5 -130.5t-61 -95t-70.5 -55.5t-61 -25q24 -3 56 -14t74.5 -37.5t76.5 -64t57.5 -99t23.5 -135.5z" />
    <glyph glyph-name="agrave" unicode="&#xe0;" horiz-adv-x="1081" 
d="M971 0h-221l-7 111q-118 -136 -323 -136q-146 0 -246 80t-100 232q0 125 80 205q120 120 350 120h229v13q0 194 -215 194q-153 0 -278 -125l-131 140q9 11 20.5 23.5t51 43.5t83.5 53.5t116.5 41t151.5 18.5q219 0 332 -113q69 -69 88 -154.5t19 -232.5v-514zM733 444
h-143q-32 0 -51 -0.5t-52 -3.5t-53.5 -8.5t-46 -16.5t-40 -26.5t-24.5 -40t-10 -55.5q0 -66 45.5 -100.5t116.5 -34.5q121 0 191 67q60 55 67 154v65zM723 1116h-199l-250 273h262z" />
    <glyph glyph-name="aacute" unicode="&#xe1;" horiz-adv-x="1081" 
d="M971 0h-221l-7 111q-118 -136 -323 -136q-146 0 -246 80t-100 232q0 125 80 205q120 120 350 120h229v13q0 194 -215 194q-153 0 -278 -125l-131 140q9 11 20.5 23.5t51 43.5t83.5 53.5t116.5 41t151.5 18.5q219 0 332 -113q69 -69 88 -154.5t19 -232.5v-514zM733 444
h-143q-32 0 -51 -0.5t-52 -3.5t-53.5 -8.5t-46 -16.5t-40 -26.5t-24.5 -40t-10 -55.5q0 -66 45.5 -100.5t116.5 -34.5q121 0 191 67q60 55 67 154v65zM813 1389l-250 -273h-199l184 273h265z" />
    <glyph glyph-name="acircumflex" unicode="&#xe2;" horiz-adv-x="1081" 
d="M971 0h-221l-7 111q-118 -136 -323 -136q-146 0 -246 80t-100 232q0 125 80 205q120 120 350 120h229v13q0 194 -215 194q-153 0 -278 -125l-131 140q9 11 20.5 23.5t51 43.5t83.5 53.5t116.5 41t151.5 18.5q219 0 332 -113q69 -69 88 -154.5t19 -232.5v-514zM733 444
h-143q-32 0 -51 -0.5t-52 -3.5t-53.5 -8.5t-46 -16.5t-40 -26.5t-24.5 -40t-10 -55.5q0 -66 45.5 -100.5t116.5 -34.5q121 0 191 67q60 55 67 154v65zM868 1116h-195l-133 150l-135 -150h-194l186 273h287z" />
    <glyph glyph-name="atilde" unicode="&#xe3;" horiz-adv-x="1081" 
d="M971 0h-221l-7 111q-118 -136 -323 -136q-146 0 -246 80t-100 232q0 125 80 205q120 120 350 120h229v13q0 194 -215 194q-153 0 -278 -125l-131 140q9 11 20.5 23.5t51 43.5t83.5 53.5t116.5 41t151.5 18.5q219 0 332 -113q69 -69 88 -154.5t19 -232.5v-514zM733 444
h-143q-32 0 -51 -0.5t-52 -3.5t-53.5 -8.5t-46 -16.5t-40 -26.5t-24.5 -40t-10 -55.5q0 -66 45.5 -100.5t116.5 -34.5q121 0 191 67q60 55 67 154v65zM864 1374q0 -33 -4 -49q-7 -96 -59 -147.5t-140 -51.5q-49 0 -126.5 39t-108.5 39q-32 0 -49 -20t-17 -51h-145
q0 111 51.5 179t155.5 68q53 0 129.5 -37.5t105.5 -37.5q33 0 49.5 20t16.5 49h141z" />
    <glyph glyph-name="adieresis" unicode="&#xe4;" horiz-adv-x="1081" 
d="M971 0h-221l-7 111q-118 -136 -323 -136q-146 0 -246 80t-100 232q0 125 80 205q120 120 350 120h229v13q0 194 -215 194q-153 0 -278 -125l-131 140q9 11 20.5 23.5t51 43.5t83.5 53.5t116.5 41t151.5 18.5q219 0 332 -113q69 -69 88 -154.5t19 -232.5v-514zM733 444
h-143q-32 0 -51 -0.5t-52 -3.5t-53.5 -8.5t-46 -16.5t-40 -26.5t-24.5 -40t-10 -55.5q0 -66 45.5 -100.5t116.5 -34.5q121 0 191 67q60 55 67 154v65zM471 1254q0 -54 -37.5 -90.5t-91.5 -36.5t-91.5 36.5t-37.5 90.5t37.5 90.5t91.5 36.5t91.5 -36.5t37.5 -90.5zM867 1254
q0 -54 -37.5 -90.5t-91.5 -36.5t-91.5 36.5t-37.5 90.5t37.5 90.5t91.5 36.5t91.5 -36.5t37.5 -90.5z" />
    <glyph glyph-name="aring" unicode="&#xe5;" horiz-adv-x="1081" 
d="M971 0h-221l-7 111q-118 -136 -323 -136q-146 0 -246 80t-100 232q0 125 80 205q120 120 350 120h229v13q0 194 -215 194q-153 0 -278 -125l-131 140q9 11 20.5 23.5t51 43.5t83.5 53.5t116.5 41t151.5 18.5q219 0 332 -113q69 -69 88 -154.5t19 -232.5v-514zM733 444
h-143q-32 0 -51 -0.5t-52 -3.5t-53.5 -8.5t-46 -16.5t-40 -26.5t-24.5 -40t-10 -55.5q0 -66 45.5 -100.5t116.5 -34.5q121 0 191 67q60 55 67 154v65zM757 1282q0 -90 -64 -152.5t-155 -62.5t-154 62t-63 153t63 154t154 63t155 -63t64 -154zM633 1282q0 40 -27.5 68
t-67.5 28q-38 0 -65 -28t-27 -68q0 -38 27 -66t65 -28q40 0 67.5 28t27.5 66z" />
    <glyph glyph-name="ae" unicode="&#xe6;" horiz-adv-x="1779" 
d="M1466 598q0 23 -6.5 50t-24 59.5t-43.5 58.5t-69.5 43.5t-97.5 17.5q-68 0 -120.5 -27t-79 -66.5t-39.5 -75t-13 -60.5h493zM733 438h-174q-246 0 -246 -147q0 -66 45 -99.5t117 -33.5q121 0 191 67q62 56 65 148q2 20 2 65zM870 870q137 144 361 144q205 0 328 -125
q88 -87 117.5 -199t29.5 -266h-735q0 -47 15.5 -91t46 -83t85 -62.5t125.5 -23.5q172 0 293 125l4 4l137 -127q-171 -197 -440 -197q-262 0 -399 185q-144 -185 -404 -185q-75 0 -139 19.5t-114 57.5t-78.5 99.5t-28.5 139.5q0 125 82 204q124 117 383 117h194v19
q0 194 -215 194q-153 0 -278 -125l-131 140q9 11 20.5 23.5t51 43.5t83.5 53.5t116.5 41t151.5 18.5q245 0 338 -144z" />
    <glyph glyph-name="ccedilla" unicode="&#xe7;" horiz-adv-x="1091" 
d="M434 -152l80 127q-195 22 -317.5 162t-122.5 355q0 103 33.5 195t97.5 166t168.5 117.5t234.5 43.5q82 0 155 -19.5t118 -44.5t82.5 -57t50.5 -48.5t20 -27.5l-149 -131l-11 11t-21.5 20t-29 24t-39 25.5t-47 22t-57 16.5t-64.5 6q-138 0 -213 -94t-75 -228t73.5 -225.5
t210.5 -91.5q58 0 110 16t87 41.5t52 41.5t30 32q98 -86 147 -127q-5 -9 -17.5 -25.5t-46.5 -47.5t-75.5 -57t-109 -48.5t-142.5 -26.5l-41 -59q12 4 29 4q94 0 145 -46t51 -120q0 -79 -64 -129.5t-163 -50.5q-122 0 -194 72l71 90q53 -45 115 -45q42 0 63 18.5t21 46.5
q0 30 -18.5 48t-55.5 18q-43 0 -74 -31z" />
    <glyph glyph-name="egrave" unicode="&#xe8;" horiz-adv-x="1136" 
d="M1063 414h-737q0 -43 16 -85.5t47.5 -80t86 -61t124.5 -23.5q176 0 297 129l137 -127q-171 -197 -442 -197q-128 0 -229 42t-163 114t-94 164t-32 198q0 104 33 197.5t95 167.5t162 118t224 44q202 0 327 -125q89 -89 118.5 -203.5t29.5 -271.5zM821 590q0 23 -6.5 51.5
t-24 62t-43 60.5t-69 45t-96.5 18q-68 0 -120.5 -28.5t-79 -69.5t-39.5 -77t-13 -62h491zM770 1116h-199l-250 273h262z" />
    <glyph glyph-name="eacute" unicode="&#xe9;" horiz-adv-x="1136" 
d="M1063 414h-737q0 -43 16 -85.5t47.5 -80t86 -61t124.5 -23.5q176 0 297 129l137 -127q-171 -197 -442 -197q-128 0 -229 42t-163 114t-94 164t-32 198q0 104 33 197.5t95 167.5t162 118t224 44q202 0 327 -125q89 -89 118.5 -203.5t29.5 -271.5zM821 590q0 23 -6.5 51.5
t-24 62t-43 60.5t-69 45t-96.5 18q-68 0 -120.5 -28.5t-79 -69.5t-39.5 -77t-13 -62h491zM818 1389l-250 -273h-199l184 273h265z" />
    <glyph glyph-name="ecircumflex" unicode="&#xea;" horiz-adv-x="1136" 
d="M1063 414h-737q0 -43 16 -85.5t47.5 -80t86 -61t124.5 -23.5q176 0 297 129l137 -127q-171 -197 -442 -197q-128 0 -229 42t-163 114t-94 164t-32 198q0 104 33 197.5t95 167.5t162 118t224 44q202 0 327 -125q89 -89 118.5 -203.5t29.5 -271.5zM821 590q0 23 -6.5 51.5
t-24 62t-43 60.5t-69 45t-96.5 18q-68 0 -120.5 -28.5t-79 -69.5t-39.5 -77t-13 -62h491zM897 1116h-195l-133 150l-135 -150h-194l186 273h287z" />
    <glyph glyph-name="edieresis" unicode="&#xeb;" horiz-adv-x="1136" 
d="M1063 414h-737q0 -43 16 -85.5t47.5 -80t86 -61t124.5 -23.5q176 0 297 129l137 -127q-171 -197 -442 -197q-128 0 -229 42t-163 114t-94 164t-32 198q0 104 33 197.5t95 167.5t162 118t224 44q202 0 327 -125q89 -89 118.5 -203.5t29.5 -271.5zM821 590q0 23 -6.5 51.5
t-24 62t-43 60.5t-69 45t-96.5 18q-68 0 -120.5 -28.5t-79 -69.5t-39.5 -77t-13 -62h491zM503 1254q0 -54 -37.5 -90.5t-91.5 -36.5t-91.5 36.5t-37.5 90.5t37.5 90.5t91.5 36.5t91.5 -36.5t37.5 -90.5zM899 1254q0 -54 -37.5 -90.5t-91.5 -36.5t-91.5 36.5t-37.5 90.5
t37.5 90.5t91.5 36.5t91.5 -36.5t37.5 -90.5z" />
    <glyph glyph-name="igrave" unicode="&#xec;" horiz-adv-x="483" 
d="M365 0h-246v979h246v-979zM467 1116h-199l-250 273h263z" />
    <glyph glyph-name="iacute" unicode="&#xed;" horiz-adv-x="483" 
d="M365 0h-246v979h246v-979zM510 1389l-250 -273h-199l185 273h264z" />
    <glyph glyph-name="icircumflex" unicode="&#xee;" horiz-adv-x="483" 
d="M365 0h-246v979h246v-979zM569 1116h-194l-133 150l-136 -150h-194l186 273h287z" />
    <glyph glyph-name="idieresis" unicode="&#xef;" horiz-adv-x="483" 
d="M365 0h-246v979h246v-979zM174 1253q0 -54 -37.5 -90.5t-91.5 -36.5t-91.5 36.5t-37.5 90.5t37.5 90.5t91.5 36.5t91.5 -36.5t37.5 -90.5zM569 1253q0 -54 -37.5 -90.5t-91.5 -36.5t-91.5 36.5t-37.5 90.5t37.5 90.5t91.5 36.5t91.5 -36.5t37.5 -90.5z" />
    <glyph glyph-name="eth" unicode="&#xf0;" horiz-adv-x="1150" 
d="M1077 502q0 -84 -18.5 -161.5t-59 -145.5t-98.5 -118t-142.5 -79t-185.5 -29q-158 0 -273 63.5t-170.5 169.5t-55.5 242q0 109 40 198.5t107 146.5t151 87.5t175 30.5q87 0 164 -43q-82 107 -217 221l-138 -131l-131 117l133 129l-155 129l155 152q114 -84 164 -125
l129 125l129 -117l-123 -123q67 -60 117 -111t111 -127t99.5 -148t65.5 -165t27 -188zM825 440q0 115 -65.5 192t-181.5 77q-119 0 -184.5 -71t-65.5 -192q0 -125 64.5 -199.5t180.5 -74.5q117 0 184.5 77.5t67.5 190.5z" />
    <glyph glyph-name="ntilde" unicode="&#xf1;" horiz-adv-x="1161" 
d="M1051 0h-246v551q0 76 -12 125t-48 78q-50 47 -143 47q-98 0 -164 -66q-32 -32 -48 -84t-18.5 -93t-2.5 -118v-440h-246v979h233l4 -123q39 47 73 73q110 85 255 85q161 0 266 -105q57 -59 77 -138t20 -179v-592zM905 1374q0 -33 -4 -49q-7 -96 -59 -147.5t-140 -51.5
q-49 0 -126.5 39t-108.5 39q-32 0 -49 -20t-17 -51h-145q0 111 51.5 179t155.5 68q53 0 129.5 -37.5t105.5 -37.5q33 0 49.5 20t16.5 49h141z" />
    <glyph glyph-name="ograve" unicode="&#xf2;" horiz-adv-x="1222" 
d="M1149 492q0 -77 -19.5 -150.5t-62.5 -141.5t-104.5 -119t-152 -81.5t-198.5 -30.5q-109 0 -199.5 30.5t-152 81.5t-104.5 119t-62.5 141.5t-19.5 150.5t19.5 150.5t62.5 141t104.5 118.5t152 81.5t199.5 30.5q134 0 240 -46t169 -122t95.5 -166.5t32.5 -187.5zM895 492
q0 157 -88 245q-74 74 -195 74q-123 0 -194 -74q-90 -93 -90 -245q0 -153 90 -246q71 -74 194 -74q121 0 195 74q88 91 88 246zM813 1116h-199l-250 273h262z" />
    <glyph glyph-name="oacute" unicode="&#xf3;" horiz-adv-x="1222" 
d="M1149 492q0 -77 -19.5 -150.5t-62.5 -141.5t-104.5 -119t-152 -81.5t-198.5 -30.5q-109 0 -199.5 30.5t-152 81.5t-104.5 119t-62.5 141.5t-19.5 150.5t19.5 150.5t62.5 141t104.5 118.5t152 81.5t199.5 30.5q134 0 240 -46t169 -122t95.5 -166.5t32.5 -187.5zM895 492
q0 157 -88 245q-74 74 -195 74q-123 0 -194 -74q-90 -93 -90 -245q0 -153 90 -246q71 -74 194 -74q121 0 195 74q88 91 88 246zM861 1389l-250 -273h-199l184 273h265z" />
    <glyph glyph-name="ocircumflex" unicode="&#xf4;" horiz-adv-x="1222" 
d="M1149 492q0 -77 -19.5 -150.5t-62.5 -141.5t-104.5 -119t-152 -81.5t-198.5 -30.5q-109 0 -199.5 30.5t-152 81.5t-104.5 119t-62.5 141.5t-19.5 150.5t19.5 150.5t62.5 141t104.5 118.5t152 81.5t199.5 30.5q134 0 240 -46t169 -122t95.5 -166.5t32.5 -187.5zM895 492
q0 157 -88 245q-74 74 -195 74q-123 0 -194 -74q-90 -93 -90 -245q0 -153 90 -246q71 -74 194 -74q121 0 195 74q88 91 88 246zM940 1116h-195l-133 150l-135 -150h-194l186 273h287z" />
    <glyph glyph-name="otilde" unicode="&#xf5;" horiz-adv-x="1222" 
d="M1149 492q0 -77 -19.5 -150.5t-62.5 -141.5t-104.5 -119t-152 -81.5t-198.5 -30.5q-109 0 -199.5 30.5t-152 81.5t-104.5 119t-62.5 141.5t-19.5 150.5t19.5 150.5t62.5 141t104.5 118.5t152 81.5t199.5 30.5q134 0 240 -46t169 -122t95.5 -166.5t32.5 -187.5zM895 492
q0 157 -88 245q-74 74 -195 74q-123 0 -194 -74q-90 -93 -90 -245q0 -153 90 -246q71 -74 194 -74q121 0 195 74q88 91 88 246zM936 1374q0 -33 -4 -49q-7 -96 -59 -147.5t-140 -51.5q-49 0 -126.5 39t-108.5 39q-32 0 -49 -20t-17 -51h-145q0 111 51.5 179t155.5 68
q53 0 129.5 -37.5t105.5 -37.5q33 0 49.5 20t16.5 49h141z" />
    <glyph glyph-name="odieresis" unicode="&#xf6;" horiz-adv-x="1222" 
d="M1149 492q0 -77 -19.5 -150.5t-62.5 -141.5t-104.5 -119t-152 -81.5t-198.5 -30.5q-109 0 -199.5 30.5t-152 81.5t-104.5 119t-62.5 141.5t-19.5 150.5t19.5 150.5t62.5 141t104.5 118.5t152 81.5t199.5 30.5q134 0 240 -46t169 -122t95.5 -166.5t32.5 -187.5zM895 492
q0 157 -88 245q-74 74 -195 74q-123 0 -194 -74q-90 -93 -90 -245q0 -153 90 -246q71 -74 194 -74q121 0 195 74q88 91 88 246zM542 1254q0 -54 -37.5 -90.5t-91.5 -36.5t-91.5 36.5t-37.5 90.5t37.5 90.5t91.5 36.5t91.5 -36.5t37.5 -90.5zM938 1254q0 -54 -37.5 -90.5
t-91.5 -36.5t-91.5 36.5t-37.5 90.5t37.5 90.5t91.5 36.5t91.5 -36.5t37.5 -90.5z" />
    <glyph glyph-name="divide" unicode="&#xf7;" 
d="M1165 410h-1083v215h1083v-215zM791 113q0 -63 -44.5 -107.5t-109.5 -44.5t-109.5 44.5t-44.5 107.5q0 65 44 108t110 43t110 -43t44 -108zM791 915q0 -63 -44 -107t-110 -44t-110 44t-44 107q0 65 44 108.5t110 43.5t110 -43.5t44 -108.5z" />
    <glyph glyph-name="oslash" unicode="&#xf8;" horiz-adv-x="1236" 
d="M1030 1022l133 -127l-100 -96q92 -140 92 -307q0 -77 -19.5 -150.5t-62.5 -141.5t-104.5 -119t-152 -81.5t-198.5 -30.5q-194 0 -319 90l-96 -96l-129 125l100 94q-94 134 -94 310q0 97 32 187.5t95 166.5t169 122t240 46q188 0 318 -88zM774 768q-67 43 -156 43
q-126 0 -198 -78q-86 -92 -86 -241q0 -68 22 -132zM901 492q0 86 -20 131l-420 -408q60 -43 155 -43q129 0 199 76q86 89 86 244z" />
    <glyph glyph-name="ugrave" unicode="&#xf9;" horiz-adv-x="1157" 
d="M1034 0h-227l-6 127q-5 -8 -15 -20.5t-38 -38t-62.5 -46t-90 -36t-116.5 -15.5q-166 0 -264 95q-63 63 -83.5 142.5t-20.5 197.5v573h245v-555q0 -69 10 -112t42 -74q54 -54 149 -54q98 0 162 64q37 37 50.5 85.5t16.5 123.5q2 37 2 112v410h246v-979zM776 1116h-199
l-250 273h262z" />
    <glyph glyph-name="uacute" unicode="&#xfa;" horiz-adv-x="1157" 
d="M1034 0h-227l-6 127q-5 -8 -15 -20.5t-38 -38t-62.5 -46t-90 -36t-116.5 -15.5q-166 0 -264 95q-63 63 -83.5 142.5t-20.5 197.5v573h245v-555q0 -69 10 -112t42 -74q54 -54 149 -54q98 0 162 64q37 37 50.5 85.5t16.5 123.5q2 37 2 112v410h246v-979zM824 1389
l-250 -273h-199l184 273h265z" />
    <glyph glyph-name="ucircumflex" unicode="&#xfb;" horiz-adv-x="1157" 
d="M1034 0h-227l-6 127q-5 -8 -15 -20.5t-38 -38t-62.5 -46t-90 -36t-116.5 -15.5q-166 0 -264 95q-63 63 -83.5 142.5t-20.5 197.5v573h245v-555q0 -69 10 -112t42 -74q54 -54 149 -54q98 0 162 64q37 37 50.5 85.5t16.5 123.5q2 37 2 112v410h246v-979zM903 1116h-195
l-133 150l-135 -150h-194l186 273h287z" />
    <glyph glyph-name="udieresis" unicode="&#xfc;" horiz-adv-x="1157" 
d="M1034 0h-227l-6 127q-5 -8 -15 -20.5t-38 -38t-62.5 -46t-90 -36t-116.5 -15.5q-166 0 -264 95q-63 63 -83.5 142.5t-20.5 197.5v573h245v-555q0 -69 10 -112t42 -74q54 -54 149 -54q98 0 162 64q37 37 50.5 85.5t16.5 123.5q2 37 2 112v410h246v-979zM505 1254
q0 -54 -37.5 -90.5t-91.5 -36.5t-91.5 36.5t-37.5 90.5t37.5 90.5t91.5 36.5t91.5 -36.5t37.5 -90.5zM901 1254q0 -54 -37.5 -90.5t-91.5 -36.5t-91.5 36.5t-37.5 90.5t37.5 90.5t91.5 36.5t91.5 -36.5t37.5 -90.5z" />
    <glyph glyph-name="yacute" unicode="&#xfd;" horiz-adv-x="1077" 
d="M1077 979l-465 -1106q-18 -45 -37 -80.5t-51.5 -75t-70.5 -66t-94 -44t-123 -17.5q-112 0 -187 48l70 178q47 -21 94 -21q62 0 98.5 28t65.5 85q7 14 43 98l-420 973h262l281 -696l280 696h254zM838 1389l-250 -273h-199l184 273h265z" />
    <glyph glyph-name="thorn" unicode="&#xfe;" horiz-adv-x="1251" 
d="M924 485q0 153 -76 239.5t-201 86.5q-121 0 -201.5 -89t-80.5 -235q0 -144 79 -229.5t201 -85.5q124 0 201.5 87.5t77.5 225.5zM1178 487q0 -98 -32.5 -190t-92.5 -165.5t-155 -118t-210 -44.5q-73 0 -134 16t-98 41.5t-56.5 43.5t-30.5 34v-485h-246v1770h246v-529
q6 9 17.5 22t43 38t68.5 44.5t96 34.5t123 15t126.5 -17t124 -57.5t107.5 -99.5t74.5 -150t28.5 -203z" />
    <glyph glyph-name="ydieresis" unicode="&#xff;" horiz-adv-x="1077" 
d="M1077 979l-465 -1106q-18 -45 -37 -80.5t-51.5 -75t-70.5 -66t-94 -44t-123 -17.5q-112 0 -187 48l70 178q47 -21 94 -21q62 0 98.5 28t65.5 85q7 14 43 98l-420 973h262l281 -696l280 696h254zM471 1254q0 -54 -37.5 -90.5t-91.5 -36.5t-91.5 36.5t-37.5 90.5t37.5 90.5
t91.5 36.5t91.5 -36.5t37.5 -90.5zM867 1254q0 -54 -37.5 -90.5t-91.5 -36.5t-91.5 36.5t-37.5 90.5t37.5 90.5t91.5 36.5t91.5 -36.5t37.5 -90.5z" />
    <glyph glyph-name="dotlessi" unicode="&#x131;" horiz-adv-x="491" 
d="M369 0h-246v979h246v-979z" />
    <glyph glyph-name="Lslash" unicode="&#x141;" horiz-adv-x="1218" 
d="M1206 0h-977v473l-96 -92l-145 147l241 222v639h260v-433l177 166l145 -151l-322 -301v-449h717v-221z" />
    <glyph glyph-name="lslash" unicode="&#x142;" horiz-adv-x="714" 
d="M727 887l-246 -230v-657h-245v473l-101 -96l-145 147l246 226v639h245v-449l103 98z" />
    <glyph glyph-name="OE" unicode="&#x152;" horiz-adv-x="2322" 
d="M2236 0h-962v170q-165 -203 -475 -203q-140 0 -258.5 41.5t-201 112t-140.5 164t-85.5 197t-27.5 212.5t27.5 212.5t85.5 197t140.5 164t201 112t258.5 41.5q172 0 289 -58.5t186 -143.5v170h938v-220h-696v-358h649v-215h-649v-375h720v-221zM1255 694q0 80 -17 154.5
t-53.5 139.5t-89 113t-127 75.5t-163.5 27.5q-110 0 -197.5 -42t-142 -114t-83 -162.5t-28.5 -191.5t28.5 -191t83 -161.5t142 -113.5t197.5 -42q111 0 198.5 42t141.5 113.5t82 161.5t28 191z" />
    <glyph glyph-name="oe" unicode="&#x153;" horiz-adv-x="1925" 
d="M1610 590q0 30 -12 67t-37 77t-75 66.5t-116 26.5q-68 0 -120.5 -28.5t-79 -69.5t-39.5 -77t-13 -62h492zM866 492q0 134 -69.5 226.5t-198.5 92.5q-131 0 -200.5 -92t-69.5 -227q0 -138 70.5 -229t201.5 -91q87 0 149 45.5t89.5 116t27.5 158.5zM1380 -31
q-259 0 -393 170q-139 -170 -389 -170q-106 0 -195 30.5t-148.5 81.5t-101 119t-60.5 141.5t-19 150.5q0 97 31.5 187.5t93 166.5t165.5 122t236 46q244 0 387 -174q63 82 162.5 128t226.5 46q203 0 328 -125q89 -89 118 -203t29 -272h-737q0 -43 16 -85.5t47.5 -80
t86.5 -61t125 -23.5q176 0 297 129l137 -127q-171 -197 -443 -197z" />
    <glyph glyph-name="Scaron" unicode="&#x160;" horiz-adv-x="1345" 
d="M1235 395q0 -199 -161 -313.5t-423 -114.5q-78 0 -151 11.5t-125 26.5t-103.5 40.5t-80 43t-61.5 46t-40.5 36t-24.5 26.5l-4 4l154 168l13.5 -13.5t23 -21.5t29.5 -25.5t39 -29t46.5 -28t57 -26.5t65 -21t76 -15t84.5 -5q150 0 236 51t86 150q0 49 -29.5 84t-80 56
t-115.5 36.5t-137.5 30t-144.5 32.5t-137 49t-115.5 73.5t-80 111.5t-29.5 158q0 173 147.5 289t395.5 116q82 0 157 -11.5t128.5 -28t102.5 -42t77.5 -44.5t56.5 -45.5t36 -35.5t18 -22l-156 -158q-12 14 -24 26t-52.5 42t-84 50.5t-113.5 38t-146 17.5q-132 0 -206 -47.5
t-74 -134.5q0 -50 30 -85t80 -54.5t115.5 -34t137.5 -28t144 -30.5t137.5 -47.5t115.5 -73.5t80 -114t30 -164zM981 1803h-195l-133 -150l-135 150h-194l186 -273h287z" />
    <glyph glyph-name="scaron" unicode="&#x161;" horiz-adv-x="1019" 
d="M946 289q0 -147 -123.5 -233.5t-326.5 -86.5q-84 0 -160.5 16.5t-124 37.5t-87 47t-53.5 39.5t-20 21.5l119 150q6 -6 17 -15.5t42.5 -30t67 -36.5t90 -28.5t111.5 -12.5q99 0 151.5 32.5t52.5 81.5q0 36 -27 60t-71 35t-100.5 21.5t-115.5 19t-115.5 29.5t-100.5 51
t-71 84.5t-27 129.5q0 136 116.5 224t305.5 88q293 0 430 -168l-127 -133q-112 112 -293 112q-85 0 -137 -30t-52 -84q0 -31 21.5 -52t58 -32.5t83.5 -19.5t99.5 -16t104.5 -19t99 -32t83.5 -51.5t58 -81.5t21.5 -118zM834 1389h-195l-133 -150l-135 150h-194l186 -273h287z
" />
    <glyph glyph-name="Ydieresis" unicode="&#x178;" horiz-adv-x="1294" 
d="M1282 1389l-506 -805v-584h-260v584l-504 805h297l342 -572l346 572h285zM581 1669q0 -54 -37.5 -90.5t-91.5 -36.5t-91.5 36.5t-37.5 90.5t37.5 90.5t91.5 36.5t91.5 -36.5t37.5 -90.5zM977 1669q0 -54 -37.5 -90.5t-91.5 -36.5t-91.5 36.5t-37.5 90.5t37.5 90.5
t91.5 36.5t91.5 -36.5t37.5 -90.5z" />
    <glyph glyph-name="Zcaron" unicode="&#x17d;" horiz-adv-x="1318" 
d="M1233 0h-1147v213l791 956h-762v220h1091v-211l-790 -957h817v-221zM987 1803h-195l-133 -150l-135 150h-194l186 -273h287z" />
    <glyph glyph-name="zcaron" unicode="&#x17e;" horiz-adv-x="1009" 
d="M948 0h-887v195l560 585h-539v199h846v-193l-553 -581h573v-205zM834 1389h-195l-133 -150l-135 150h-194l186 -273h287z" />
    <glyph glyph-name="florin" unicode="&#x192;" 
d="M1237 1372l-68 -186q-70 26 -131 26q-54 0 -98 -30q-31 -23 -48 -60.5t-30 -101.5l-20 -90h297v-199h-338l-168 -790q-44 -203 -160 -281q-98 -70 -246 -70q-123 0 -219 45l68 187q78 -27 131 -27q60 0 102 31q33 23 49.5 60.5t30.5 101.5l158 743h-197v199h238l30 137
q44 203 158 281q103 73 242 73q115 0 219 -49z" />
    <glyph glyph-name="circumflex" unicode="&#x2c6;" horiz-adv-x="708" 
d="M684 1116h-195l-133 150l-135 -150h-194l186 273h287z" />
    <glyph glyph-name="caron" unicode="&#x2c7;" horiz-adv-x="708" 
d="M682 1389h-195l-133 -150l-135 150h-194l186 -273h287z" />
    <glyph glyph-name="breve" unicode="&#x2d8;" horiz-adv-x="708" 
d="M672 1389q0 -132 -86 -206.5t-232 -74.5q-144 0 -229.5 74.5t-85.5 206.5h162q3 -58 43.5 -96t109.5 -38t110 37.5t44 96.5h164z" />
    <glyph glyph-name="dotaccent" unicode="&#x2d9;" horiz-adv-x="708" 
d="M483 1266q0 -54 -36.5 -90.5t-90.5 -36.5t-92.5 36.5t-38.5 90.5t37.5 90.5t91.5 36.5t91.5 -36.5t37.5 -90.5z" />
    <glyph glyph-name="ring" unicode="&#x2da;" horiz-adv-x="708" 
d="M573 1282q0 -90 -64 -152.5t-155 -62.5t-154 62t-63 153t63 154t154 63t155 -63t64 -154zM449 1282q0 40 -27.5 68t-67.5 28q-38 0 -65 -28t-27 -68q0 -38 27 -66t65 -28q40 0 67.5 28t27.5 66z" />
    <glyph glyph-name="ogonek" unicode="&#x2db;" horiz-adv-x="733" 
d="M580 -336q-83 -74 -201 -74q-93 0 -159 48t-66 147q0 124 133 219h282q-18 -7 -32.5 -13.5t-54.5 -28t-67 -43t-50 -54.5t-23 -66q0 -31 20 -50t50 -19q47 0 88 32z" />
    <glyph glyph-name="tilde" unicode="&#x2dc;" horiz-adv-x="708" 
d="M680 1374q0 -33 -4 -49q-7 -96 -59 -147.5t-140 -51.5q-49 0 -126.5 39t-108.5 39q-32 0 -49 -20t-17 -51h-145q0 111 51.5 179t155.5 68q53 0 129.5 -37.5t105.5 -37.5q33 0 49.5 20t16.5 49h141z" />
    <glyph glyph-name="hungarumlaut" unicode="&#x2dd;" horiz-adv-x="708" 
d="M754 1389l-250 -273h-191l187 273h254zM397 1389l-250 -273h-190l186 273h254z" />
    <glyph glyph-name="Omega" unicode="&#x3a9;" horiz-adv-x="1617" 
d="M1534 0h-602v209q38 12 78 34t85 64t79.5 95.5t57.5 133t23 171.5q0 102 -27.5 190.5t-81 157t-140.5 108t-197 39.5t-197 -39.5t-140.5 -108t-81.5 -157t-28 -190.5q0 -92 23 -171.5t57 -133t79 -95.5t85 -64t78 -34v-209h-600v221h248q-238 197 -238 506
q0 108 27.5 208.5t85.5 189t140.5 154.5t201 104t258.5 38t258 -38.5t201.5 -104.5t142.5 -154.5t87 -189t28 -207.5q0 -307 -240 -506h250v-221z" />
    <glyph glyph-name="pi" unicode="&#x3c0;" horiz-adv-x="1239" 
d="M1178 979v-199h-150v-440q0 -43 5 -67.5t24 -43.5q30 -26 117 -26v-203h-62q-88 0 -148.5 14.5t-107.5 61.5q-46 46 -59 100.5t-13 130.5v473h-321v-780h-246v780h-156v199h1117z" />
    <glyph glyph-name="endash" unicode="&#x2013;" horiz-adv-x="1230" 
d="M1145 410h-1059v215h1059v-215z" />
    <glyph glyph-name="emdash" unicode="&#x2014;" horiz-adv-x="1949" 
d="M1815 410h-1680v215h1680v-215z" />
    <glyph glyph-name="quoteleft" unicode="&#x2018;" horiz-adv-x="552" 
d="M86 864l221 525h160l-92 -525h-289z" />
    <glyph glyph-name="quoteright" unicode="&#x2019;" horiz-adv-x="552" 
d="M467 1389l-221 -525h-160l92 525h289z" />
    <glyph glyph-name="quotesinglbase" unicode="&#x201a;" horiz-adv-x="528" 
d="M455 260l-222 -524h-159l92 524h289z" />
    <glyph glyph-name="quotedblleft" unicode="&#x201c;" horiz-adv-x="907" 
d="M61 864l222 525h159l-92 -525h-289zM465 864l221 525h160l-92 -525h-289z" />
    <glyph glyph-name="quotedblright" unicode="&#x201d;" horiz-adv-x="907" 
d="M846 1389l-221 -525h-160l92 525h289zM442 1389l-221 -525h-160l93 525h288z" />
    <glyph glyph-name="quotedblbase" unicode="&#x201e;" horiz-adv-x="931" 
d="M455 260l-222 -524h-159l92 524h289zM858 260l-221 -524h-160l92 524h289z" />
    <glyph glyph-name="dagger" unicode="&#x2020;" 
d="M1165 764h-417v-1002h-246v1002h-420v215h420v410h246v-410h417v-215z" />
    <glyph glyph-name="daggerdbl" unicode="&#x2021;" 
d="M1165 279h-417v-517h-246v517h-420v215h420v270h-420v215h420v410h246v-410h417v-215h-417v-270h417v-215z" />
    <glyph glyph-name="bullet" unicode="&#x2022;" horiz-adv-x="745" 
d="M598 520q0 -94 -65.5 -159.5t-159.5 -65.5t-160 65.5t-66 159.5t66 159.5t160 65.5t159.5 -65.5t65.5 -159.5z" />
    <glyph glyph-name="ellipsis" unicode="&#x2026;" horiz-adv-x="1871" 
d="M426 129q0 -63 -44 -107.5t-110 -44.5q-65 0 -109 44t-44 108q0 65 43.5 108.5t109.5 43.5t110 -43.5t44 -108.5zM1753 129q0 -63 -44.5 -107.5t-109.5 -44.5t-109 44t-44 108q0 65 43.5 108.5t109.5 43.5t110 -43.5t44 -108.5zM1090 129q0 -63 -44 -107.5t-110 -44.5
t-110 44.5t-44 107.5q0 65 44 108.5t110 43.5t110 -43.5t44 -108.5z" />
    <glyph glyph-name="perthousand" unicode="&#x2030;" horiz-adv-x="2574" 
d="M1378 1350l-823 -1424l-141 82l823 1422zM385 631q-147 0 -227 108t-80 281t80.5 281t228.5 108t228.5 -108t80.5 -281q0 -172 -81.5 -280.5t-229.5 -108.5zM387 1276q-42 0 -71.5 -24.5t-43 -65.5t-19 -80t-5.5 -84q0 -254 137 -254q43 0 72.5 24.5t43.5 65.5t19.5 80
t5.5 84q0 254 -139 254zM2185 -16q-147 0 -227 108t-80 281t80.5 281t228.5 108t229 -108t81 -281q0 -172 -82 -280.5t-230 -108.5zM2187 629q-42 0 -71.5 -24.5t-43 -65.5t-19 -80t-5.5 -84q0 -254 137 -254q43 0 73 24.5t44 65.5t19.5 80.5t5.5 83.5q0 45 -5.5 84
t-19 80.5t-43 65.5t-72.5 24zM1413 -16q-147 0 -227 108t-80 281t80.5 281t228.5 108t228.5 -108t80.5 -281q0 -172 -81.5 -280.5t-229.5 -108.5zM1415 629q-42 0 -71.5 -24.5t-43 -65.5t-19 -80t-5.5 -84q0 -254 137 -254q43 0 72.5 24.5t43.5 65.5t19.5 80t5.5 84
q0 254 -139 254z" />
    <glyph glyph-name="guilsinglleft" unicode="&#x2039;" horiz-adv-x="622" 
d="M512 188l-135 -92l-316 426l316 426l135 -92l-217 -334z" />
    <glyph glyph-name="guilsinglright" unicode="&#x203a;" horiz-adv-x="622" 
d="M111 188l135 -92l315 426l-315 426l-135 -92l217 -334z" />
    <glyph glyph-name="fraction" unicode="&#x2044;" horiz-adv-x="247" 
d="M606 1350l-823 -1424l-141 82l823 1422z" />
    <glyph glyph-name="zerosuperior" unicode="&#x2070;" horiz-adv-x="774" 
d="M385 631q-147 0 -227 108t-80 281t80.5 281t228.5 108t228.5 -108t80.5 -281q0 -172 -81.5 -280.5t-229.5 -108.5zM387 1276q-42 0 -71.5 -24.5t-43 -65.5t-19 -80t-5.5 -84q0 -254 137 -254q43 0 72.5 24.5t43.5 65.5t19.5 80t5.5 84q0 254 -139 254z" />
    <glyph glyph-name="foursuperior" unicode="&#x2074;" horiz-adv-x="786" 
d="M688 797h-115v-154h-153v154h-342v116l338 476h157v-463h115v-129zM420 926v254l-182 -254h182z" />
    <glyph glyph-name="fivesuperior" unicode="&#x2075;" horiz-adv-x="770" 
d="M344 627q-168 0 -266 112l92 101q81 -78 172 -78q66 0 102.5 33t36.5 96q0 59 -33 88t-86 29q-84 0 -133 -80l-127 49l48 412h452v-136h-328l-18 -155q47 41 139 41q110 0 181 -64.5t71 -177.5q0 -122 -82.5 -196t-220.5 -74z" />
    <glyph glyph-name="sixsuperior" unicode="&#x2076;" horiz-adv-x="751" 
d="M387 631q-69 0 -124 23t-89 60.5t-56 88t-31 101t-9 104.5q0 51 7.5 100.5t29 106t56 98t94 69t136.5 27.5q95 0 163.5 -33.5t101.5 -87.5l-99 -88q-36 40 -72.5 59t-86.5 19q-59 0 -99.5 -36t-56.5 -84t-16 -101q18 36 65 63t121 27q110 0 181 -66.5t71 -179.5
q0 -116 -80 -193t-207 -77zM389 1014q-59 0 -95 -36t-36 -91q0 -57 34 -91t95 -34q55 0 90 35.5t35 91.5t-33.5 90.5t-89.5 34.5z" />
    <glyph glyph-name="sevensuperior" unicode="&#x2077;" horiz-adv-x="811" 
d="M377 643h-182l315 606h-395v140h573v-123z" />
    <glyph glyph-name="eightsuperior" unicode="&#x2078;" horiz-adv-x="751" 
d="M377 631q-126 0 -212.5 60.5t-86.5 166.5q0 66 39.5 113t85.5 59q-41 13 -72 57.5t-31 104.5q0 103 79 160t198 57q117 0 196.5 -57t79.5 -160q0 -60 -31 -104.5t-71 -55.5q47 -14 85 -61t38 -113q0 -106 -85.5 -166.5t-211.5 -60.5zM377 1286q-53 0 -87 -27t-34 -75
q0 -46 34 -71.5t87 -25.5t87 25.5t34 71.5q0 48 -34 75t-87 27zM375 969q-56 0 -94.5 -29t-38.5 -80q0 -46 38.5 -75t94.5 -29q58 0 96.5 28t38.5 76q0 51 -38.5 80t-96.5 29z" />
    <glyph glyph-name="ninesuperior" unicode="&#x2079;" horiz-adv-x="751" 
d="M365 1409q69 0 124 -23t89 -60.5t56 -88t31 -101t9 -104.5q0 -51 -7.5 -100.5t-29.5 -106t-56 -98t-94 -69t-137 -27.5q-95 0 -163 33.5t-101 87.5l98 88q36 -39 73 -58.5t87 -19.5q59 0 99.5 36t56.5 84t16 101q-18 -36 -65 -63t-121 -27q-110 0 -181 66.5t-71 179.5
q0 116 80 193t207 77zM362 1026q59 0 95.5 36t36.5 91q0 57 -34 91t-95 34q-55 0 -90 -35.5t-35 -91.5t33 -90.5t89 -34.5z" />
    <glyph glyph-name="parenleftsuperior" unicode="&#x207d;" horiz-adv-x="481" 
d="M389 465q-147 96 -235 238t-88 315t92.5 323.5t234.5 233.5l88 -105q-112 -89 -178.5 -204t-66.5 -246t66.5 -245.5t178.5 -203.5z" />
    <glyph glyph-name="parenrightsuperior" unicode="&#x207e;" horiz-adv-x="481" 
d="M92 465q147 96 235.5 238.5t88.5 314.5q0 173 -93 323.5t-235 233.5l-88 -105q112 -89 179 -204t67 -246t-67 -245t-179 -204z" />
    <glyph glyph-name="zeroinferior" unicode="&#x2080;" horiz-adv-x="774" 
d="M385 -16q-147 0 -227 108t-80 281t80.5 281t228.5 108t228.5 -108t80.5 -281q0 -172 -81.5 -280.5t-229.5 -108.5zM387 629q-42 0 -71.5 -24.5t-43 -65.5t-19 -80t-5.5 -84q0 -254 137 -254q43 0 72.5 24.5t43.5 65.5t19.5 80t5.5 84q0 254 -139 254z" />
    <glyph glyph-name="oneinferior" unicode="&#x2081;" horiz-adv-x="808" 
d="M156 0v137h194v432l-155 -94l-80 119l252 151h147v-608h193v-137h-551z" />
    <glyph glyph-name="twoinferior" unicode="&#x2082;" horiz-adv-x="794" 
d="M655 528q0 -45 -15 -83t-44.5 -67.5t-56 -48.5t-66.5 -42q-13 -8 -45.5 -24.5t-49 -26.5t-38 -26t-33.5 -33t-16 -36h360v-141h-532v47q0 79 16.5 133t69.5 105q19 19 45.5 38t45 30.5t53 31t48.5 27.5q49 29 73 55.5t24 62.5q0 43 -31 71t-80 28q-55 0 -97.5 -26
t-84.5 -75l-103 90q62 70 128.5 107t158.5 37q116 0 193 -63.5t77 -170.5z" />
    <glyph glyph-name="threeinferior" unicode="&#x2083;" horiz-adv-x="788" 
d="M666 221q0 -110 -81.5 -173.5t-209.5 -63.5q-194 0 -289 133l104 92q43 -43 64 -55q52 -35 113 -35q63 0 98 26.5t35 71.5q0 33 -15.5 54t-44.5 29.5t-50.5 10.5t-53.5 2h-62v131h52q27 0 43 0.5t40.5 5.5t38.5 14.5t24.5 28t10.5 44.5q0 35 -26.5 62.5t-79.5 27.5
q-50 0 -89.5 -22t-80.5 -64l-101 90q49 56 84 78q79 53 191 53q111 0 186.5 -59.5t75.5 -155.5q0 -65 -32 -109.5t-70 -54.5q26 -8 51.5 -24t49.5 -53t24 -85z" />
    <glyph glyph-name="fourinferior" unicode="&#x2084;" horiz-adv-x="786" 
d="M688 154h-115v-154h-153v154h-342v116l338 475h157v-462h115v-129zM420 283v254l-182 -254h182z" />
    <glyph glyph-name="fiveinferior" unicode="&#x2085;" horiz-adv-x="770" 
d="M344 -16q-168 0 -266 112l92 101q81 -78 172 -78q66 0 102.5 33t36.5 96q0 59 -33 88t-86 29q-84 0 -133 -80l-127 49l48 411h452v-135h-328l-18 -155q47 41 139 41q110 0 181 -64.5t71 -177.5q0 -122 -82.5 -196t-220.5 -74z" />
    <glyph glyph-name="sixinferior" unicode="&#x2086;" horiz-adv-x="751" 
d="M387 -16q-69 0 -124 23t-89 60t-56 87.5t-31 101t-9 104.5q0 42 5.5 83t18 88.5t37 87t58.5 72.5t86.5 52t117.5 19q95 0 163.5 -33.5t101.5 -87.5l-99 -88q-36 40 -72.5 59t-86.5 19q-59 0 -99.5 -36t-56.5 -84t-16 -101q18 36 65 63t121 27q110 0 181 -66.5t71 -179.5
q0 -116 -80 -193t-207 -77zM389 367q-59 0 -95 -36t-36 -91q0 -56 34 -90.5t95 -34.5q55 0 90 35.5t35 91.5t-33.5 90.5t-89.5 34.5z" />
    <glyph glyph-name="seveninferior" unicode="&#x2087;" horiz-adv-x="806" 
d="M373 0h-183l316 606h-395v139h573v-122z" />
    <glyph glyph-name="eightinferior" unicode="&#x2088;" horiz-adv-x="751" 
d="M377 -16q-126 0 -212.5 60.5t-86.5 166.5q0 66 39.5 113t85.5 59q-41 13 -72 57.5t-31 104.5q0 103 79 160t198 57q117 0 196.5 -57t79.5 -160q0 -60 -31 -104.5t-71 -55.5q47 -14 85 -61t38 -113q0 -106 -85.5 -166.5t-211.5 -60.5zM377 639q-53 0 -87 -27t-34 -75
q0 -46 34 -71.5t87 -25.5t87 25.5t34 71.5q0 48 -34 75t-87 27zM375 322q-56 0 -94.5 -29t-38.5 -80q0 -46 38.5 -75t94.5 -29q58 0 96.5 28t38.5 76q0 51 -38.5 80t-96.5 29z" />
    <glyph glyph-name="nineinferior" unicode="&#x2089;" horiz-adv-x="751" 
d="M365 762q69 0 124 -23t89 -60.5t56 -88t31 -101t9 -104.5q0 -51 -7.5 -100.5t-29.5 -106t-56 -98t-94 -69t-137 -27.5q-95 0 -163 33t-101 87l98 89q36 -39 73 -58.5t87 -19.5q59 0 99.5 36t56.5 84t16 101q-18 -36 -65 -63t-121 -27q-110 0 -181 66.5t-71 179.5
q0 116 80 193t207 77zM362 379q59 0 95.5 36t36.5 91q0 56 -34 90.5t-95 34.5q-55 0 -90 -35.5t-35 -91.5t33 -90.5t89 -34.5z" />
    <glyph glyph-name="Euro" unicode="&#x20ac;" 
d="M1202 195q-29 -41 -66.5 -77t-93.5 -72t-134 -57.5t-167 -21.5q-77 0 -146 17.5t-120 46.5t-95 68.5t-74 81t-53.5 86.5t-36 82t-19.5 71h-179v198h158q-4 32 -4 70q0 34 4 70h-158v198h181q12 65 37 127.5t69.5 124.5t103 108.5t143 75.5t183.5 29q294 0 455 -227
l-162 -125q-23 27 -39.5 43.5t-52.5 44t-84.5 41.5t-106.5 14q-57 0 -105 -19.5t-79 -47.5t-54.5 -65t-35.5 -66.5t-18 -57.5h419v-198h-442q-4 -36 -4 -70q0 -38 4 -70h442v-198h-421q6 -23 18 -51t37 -63t57.5 -63t82 -47.5t106.5 -19.5q172 0 288 146z" />
    <glyph glyph-name="trademark" unicode="&#x2122;" horiz-adv-x="1665" 
d="M1554 610h-157v539l-183 -539h-139l-180 543v-543h-162v779h221l191 -560l190 560h219v-779zM639 1239h-227v-629h-172v629h-228v150h627v-150z" />
    <glyph glyph-name="onethird" unicode="&#x2153;" horiz-adv-x="1855" 
d="M1733 221q0 -110 -81.5 -173.5t-209.5 -63.5q-194 0 -289 133l104 92q43 -43 64 -55q52 -35 113 -35q63 0 98 26.5t35 71.5q0 33 -15.5 54t-44.5 29.5t-50.5 10.5t-53.5 2h-62v131h52q27 0 43 0.5t40.5 5.5t38.5 14.5t24.5 28t10.5 44.5q0 35 -26.5 62.5t-79.5 27.5
q-50 0 -89.5 -22t-80.5 -64l-100 90q51 57 83 78q79 53 191 53q111 0 186.5 -59.5t75.5 -155.5q0 -65 -32 -109.5t-70 -54.5q26 -8 51.5 -24t49.5 -53t24 -85zM1434 1350l-824 -1424l-141 82l823 1422zM707 643h-551v137h194v432l-155 -96l-80 119l252 154h147v-609h193
v-137z" />
    <glyph glyph-name="twothirds" unicode="&#x2154;" horiz-adv-x="1824" 
d="M1702 221q0 -110 -81.5 -173.5t-209.5 -63.5q-194 0 -289 133l105 92q2 -2 11 -11.5t14.5 -15t16 -14t21.5 -14.5q52 -35 113 -35q63 0 98 26.5t35 71.5q0 33 -15.5 54t-44.5 29.5t-50.5 10.5t-53.5 2h-61v131h51q27 0 43 0.5t41 5.5t39 14.5t24.5 28t10.5 44.5
q0 35 -27 62.5t-80 27.5q-50 0 -89.5 -22t-80.5 -64l-100 90q49 56 84 78q79 53 190 53t186.5 -59.5t75.5 -155.5q0 -65 -32 -109.5t-70 -54.5q26 -8 51.5 -24t49.5 -53t24 -85zM1403 1350l-823 -1424l-142 82l824 1422zM655 1176q0 -45 -15 -83t-44.5 -67.5t-56 -49
t-66.5 -42.5q-13 -8 -45.5 -24.5t-49 -26.5t-38 -26t-33.5 -33t-16 -36h360v-141h-532v47q0 79 16.5 133t69.5 105q19 19 45.5 38t45 30.5t53 31t48.5 27.5q49 29 73 56t24 63q0 43 -31 70.5t-80 27.5q-56 0 -98 -26t-84 -74l-103 90q62 70 128.5 106.5t158.5 36.5
q116 0 193 -63t77 -170z" />
    <glyph glyph-name="oneeighth" unicode="&#x215b;" horiz-adv-x="1826" 
d="M1452 -16q-126 0 -212.5 60.5t-86.5 166.5q0 66 39.5 113t85.5 59q-40 13 -71 57t-31 105q0 103 79 160t197 57q117 0 197 -57t80 -160q0 -59 -31.5 -104t-71.5 -56q47 -14 85 -61t38 -113q0 -106 -85.5 -166.5t-211.5 -60.5zM1452 639q-53 0 -87 -27t-34 -75
q0 -46 34 -71.5t87 -25.5t87 25.5t34 71.5q0 48 -34 75t-87 27zM1450 322q-56 0 -94.5 -29t-38.5 -80q0 -46 38.5 -75t94.5 -29q58 0 96.5 28t38.5 76q0 51 -38.5 80t-96.5 29zM1452 1350l-823 -1424l-142 82l824 1422zM707 643h-551v137h194v432l-155 -96l-80 119l252 154
h147v-609h193v-137z" />
    <glyph glyph-name="threeeighths" unicode="&#x215c;" horiz-adv-x="1742" 
d="M666 868q0 -110 -81.5 -173.5t-209.5 -63.5q-194 0 -289 133l104 92q43 -43 64 -55q52 -35 113 -35q63 0 98 26.5t35 71.5q0 33 -15.5 54.5t-44.5 29.5t-50.5 10.5t-53.5 2.5h-62v131h52q28 0 43.5 0.5t40.5 5.5t38.5 14t24 27.5t10.5 44.5q0 35 -26.5 62.5t-79.5 27.5
q-50 0 -89.5 -22t-80.5 -64l-101 90q49 56 84 78q79 53 191 53q111 0 186.5 -59.5t75.5 -155.5q0 -65 -32 -109.5t-70 -54.5q26 -8 51.5 -24t49.5 -53t24 -85zM1368 -16q-126 0 -212.5 60.5t-86.5 166.5q0 66 39.5 113t85.5 59q-40 13 -71 57t-31 105q0 103 79 160t197 57
q117 0 197 -57t80 -160q0 -59 -31.5 -104t-71.5 -56q47 -14 85 -61t38 -113q0 -106 -85.5 -166.5t-211.5 -60.5zM1368 639q-53 0 -87 -27t-34 -75q0 -46 34 -71.5t87 -25.5t87 25.5t34 71.5q0 48 -34 75t-87 27zM1366 322q-56 0 -94.5 -29t-38.5 -80q0 -46 38.5 -75
t94.5 -29q58 0 96.5 28t38.5 76q0 51 -38.5 80t-96.5 29zM1368 1350l-823 -1424l-142 82l824 1422z" />
    <glyph glyph-name="fiveeighths" unicode="&#x215d;" horiz-adv-x="1716" 
d="M1341 -16q-126 0 -212.5 60.5t-86.5 166.5q0 66 39.5 113t85.5 59q-40 13 -71 57t-31 105q0 103 79 160t197 57q117 0 197 -57t80 -160q0 -60 -31 -104.5t-71 -55.5q47 -14 84.5 -60.5t37.5 -113.5q0 -106 -85.5 -166.5t-211.5 -60.5zM1341 639q-53 0 -86.5 -27
t-33.5 -75q0 -46 33.5 -71.5t86.5 -25.5t87 25.5t34 71.5q0 48 -34 75t-87 27zM1339 322q-56 0 -94.5 -29t-38.5 -80q0 -46 38.5 -75t94.5 -29q58 0 97 28t39 76q0 51 -39 80t-97 29zM1341 1350l-823 -1424l-141 82l823 1422zM344 627q-168 0 -266 112l92 101
q81 -78 172 -78q66 0 102.5 33t36.5 96q0 59 -33 88t-86 29q-84 0 -133 -80l-127 49l48 412h452v-136h-328l-18 -155q47 41 139 41q110 0 181 -64.5t71 -177.5q0 -122 -82.5 -196t-220.5 -74z" />
    <glyph glyph-name="seveneighths" unicode="&#x215e;" horiz-adv-x="1654" 
d="M1280 -16q-126 0 -212.5 60.5t-86.5 166.5q0 66 39.5 113t85.5 59q-40 13 -71 57t-31 105q0 103 79 160t197 57q117 0 196.5 -57t79.5 -160q0 -60 -31 -104.5t-71 -55.5q47 -14 85 -61t38 -113q0 -106 -85.5 -166.5t-211.5 -60.5zM1280 639q-53 0 -87 -27t-34 -75
q0 -46 34 -71.5t87 -25.5t87 25.5t34 71.5q0 48 -34 75t-87 27zM1278 322q-56 0 -94.5 -29t-38.5 -80q0 -46 38.5 -75t94.5 -29q58 0 96.5 28t38.5 76q0 51 -38.5 80t-96.5 29zM1280 1350l-823 -1424l-142 82l824 1422zM377 643h-182l315 606h-395v140h573v-123z" />
    <glyph glyph-name="partialdiff" unicode="&#x2202;" horiz-adv-x="1239" 
d="M102 465q0 -214 141 -355t371 -141q123 0 220 42t157 109.5t99.5 160.5t55 188t15.5 199q0 67 -6.5 133.5t-24 142.5t-45 142.5t-72.5 129t-103 107t-141.5 71.5t-182.5 27q-67 0 -128 -11.5t-103.5 -26t-83 -40t-61.5 -41.5t-44.5 -42t-27 -31t-13.5 -19l154 -139
q14 18 32.5 35.5t55 44.5t90 44t114.5 17q78 0 140.5 -30t100.5 -77t63.5 -109.5t35.5 -121t11 -118.5v-23q-14 21 -40 46.5t-71 58t-114 54t-146 21.5q-198 0 -323.5 -122t-125.5 -326zM877 434q0 -117 -71.5 -189.5t-193.5 -72.5q-117 0 -187.5 75t-70.5 193
q0 117 68 189.5t184 72.5q122 0 196.5 -75t74.5 -193z" />
    <glyph glyph-name="Delta" unicode="&#x2206;" horiz-adv-x="1277" 
d="M1290 0h-1302l530 1389h234zM956 221l-321 860l-318 -860h639z" />
    <glyph glyph-name="product" unicode="&#x220f;" horiz-adv-x="1433" 
d="M1397 1169h-154v-1169h-260v1169h-530v-1169h-260v1169h-156v220h1360v-220z" />
    <glyph glyph-name="summation" unicode="&#x2211;" horiz-adv-x="1267" 
d="M1206 0h-1132v221l495 494l-465 454v220h1076v-220h-740l467 -454l-497 -494h796v-221z" />
    <glyph glyph-name="minus" unicode="&#x2212;" 
d="M1165 410h-1083v215h1083v-215z" />
    <glyph glyph-name="radical" unicode="&#x221a;" horiz-adv-x="1222" 
d="M1186 1352l-426 -1352h-225l-248 614h-205v215h346l209 -546l342 1138z" />
    <glyph glyph-name="infinity" unicode="&#x221e;" horiz-adv-x="1490" 
d="M1380 698q0 -67 -21 -129.5t-60 -113.5t-101.5 -82t-138.5 -31q-177 0 -303 205q-122 -205 -312 -205q-153 0 -243 102.5t-90 249.5q0 144 89.5 248.5t239.5 104.5q90 0 166 -50q74 -46 144 -143q18 28 32.5 48t44 50t59.5 49t74.5 33.5t94.5 14.5q99 0 175 -51t113 -130
t37 -170zM1208 700q0 79 -43.5 130t-122.5 51q-71 0 -133 -72q-48 -60 -69 -107q0 -1 14 -25.5t24.5 -41t31 -43.5t39 -43.5t44.5 -29.5t51 -13q79 0 121.5 56.5t42.5 137.5zM664 707q-10 25 -78 96q-75 82 -150 82q-73 0 -111 -59t-38 -138q0 -76 41.5 -130t115.5 -54
q79 0 154 98q24 31 66 105z" />
    <glyph glyph-name="integral" unicode="&#x222b;" 
d="M1116 1384l-63 -188q-57 23 -123 23q-94 0 -139 -48q-28 -29 -35.5 -71.5t-7.5 -112.5v-971q0 -118 -30.5 -201t-101.5 -141q-105 -84 -278 -84q-124 0 -207 37l64 189q57 -23 122 -23q90 0 138 45q31 29 39 73.5t8 123.5v960q0 120 29 202t100 140q105 84 278 84
q124 0 207 -37z" />
    <glyph glyph-name="approxequal" unicode="&#x2248;" 
d="M1159 772q-130 -207 -328 -207q-73 0 -143 22t-131 44t-113 22q-99 0 -184 -112l-170 127q132 209 322 209q77 0 145.5 -22.5t126.5 -44.5t109 -22q59 0 103.5 26.5t90.5 84.5zM1159 365q-130 -207 -328 -207q-73 0 -143 22t-131 44t-113 22q-99 0 -184 -113l-170 127
q132 209 322 209q77 0 145.5 -22t126.5 -44t109 -22q59 0 103.5 26.5t90.5 84.5z" />
    <glyph glyph-name="notequal" unicode="&#x2260;" 
d="M1165 205h-635l-178 -256l-162 110l103 146h-211v215h358l135 194h-493v215h641l180 258l160 -110l-102 -148h204v-215h-350l-137 -194h487v-215z" />
    <glyph glyph-name="lessequal" unicode="&#x2264;" 
d="M1165 0h-1083v215h1083v-215zM1165 293l-1083 412v225l1083 413v-231l-811 -295l811 -293v-231z" />
    <glyph glyph-name="greaterequal" unicode="&#x2265;" 
d="M82 0h1083v215h-1083v-215zM82 293l1083 412v225l-1083 413v-231l811 -295l-811 -293v-231z" />
    <glyph glyph-name="lozenge" unicode="&#x25ca;" 
d="M1214 696l-466 -696h-246l-469 696l469 693h246zM963 696l-338 494l-338 -494l338 -497z" />
    <glyph glyph-name="Lslashsmall" unicode="&#xf6f9;" horiz-adv-x="1064" 
d="M1065 0h-870v399l-78 -73l-144 147l222 201v567h254v-373l137 131l143 -143l-280 -264v-377h616v-215z" />
    <glyph glyph-name="OEsmall" unicode="&#xf6fa;" horiz-adv-x="2056" 
d="M1982 0h-866v125q-154 -154 -403 -154q-125 0 -231 37t-180 100.5t-126.5 147t-77 176t-24.5 189.5t24.5 189.5t77 176t126.5 146.5t180 100t231 37q249 0 403 -154v125h842v-213h-604v-295h561v-211h-561v-307h628v-215zM1106 621q0 88 -24.5 166t-71 140.5t-122 99
t-169.5 36.5t-169 -36.5t-121.5 -99t-70.5 -140.5t-24 -166t24 -166t70.5 -140t121.5 -98.5t169 -36.5t169.5 36.5t122 98.5t71 140t24.5 166z" />
    <glyph glyph-name="Scaronsmall" unicode="&#xf6fd;" horiz-adv-x="1189" 
d="M1092 360q0 -182 -145 -285.5t-376 -103.5q-156 0 -280 46.5t-201 121.5q-25 25 -41 45l146 160q159 -162 374 -162q126 0 194 45t68 123q0 40 -25.5 68.5t-69 45.5t-100 30t-119 26.5t-124.5 29.5t-118.5 44t-100 66t-69 100t-25.5 141q0 159 132.5 264t352.5 105
q137 0 261.5 -39t211.5 -123q13 -13 41 -45l-149 -154q-43 45 -103 84q-119 72 -262 72q-110 0 -169.5 -40.5t-59.5 -109.5q0 -42 26 -71t69.5 -45.5t100.5 -29t119.5 -24.5t125 -27.5t119.5 -43t100.5 -66.5t69.5 -102t26 -146zM901 1651h-194l-134 -150l-135 150h-194
l186 -273h287z" />
    <glyph glyph-name="Zcaronsmall" unicode="&#xf6ff;" horiz-adv-x="1171" 
d="M1096 0h-1022v201l678 827h-654v213h975v-199l-678 -827h701v-215zM911 1655h-194l-133 -150l-135 150h-195l186 -273h287z" />
    <glyph glyph-name="ampersandsmall" unicode="&#xf726;" horiz-adv-x="1216" 
d="M1217 0h-269l-104 119q-66 -69 -161.5 -108.5t-205.5 -39.5q-88 0 -164.5 22.5t-136 66t-93.5 114t-34 160.5q0 69 21 127t61.5 104t86.5 80.5t108 67.5q-28 30 -38 41.5t-32.5 41.5t-32 51t-18 54t-8.5 68q0 135 100 218t256 83q135 0 232.5 -74t97.5 -205
q0 -61 -20 -113t-57.5 -92.5t-75.5 -69t-89 -57.5l199 -223q45 88 53 193h199q-3 -102 -35.5 -197.5t-77.5 -157.5zM672 983q0 46 -31.5 76.5t-89.5 30.5q-59 0 -95 -27t-36 -78q0 -36 16.5 -71.5t33.5 -56.5t52 -58q33 20 53.5 34.5t46 38t38 51.5t12.5 60zM711 268
l-260 297q-43 -27 -65.5 -43.5t-51 -44.5t-41 -61t-12.5 -74q0 -75 57 -123.5t147 -48.5q135 0 226 98z" />
    <glyph glyph-name="zerooldstyle" unicode="&#xf730;" horiz-adv-x="1118" 
d="M1053 621q0 -189 -56 -334.5t-169 -230.5t-269 -85t-268.5 85t-168.5 230.5t-56 334.5t56.5 334.5t169.5 230t269 84.5t268.5 -84.5t168 -230t55.5 -334.5zM797 621q0 49 -3.5 93t-11.5 97t-25.5 95t-42 78.5t-64 56.5t-89.5 20t-89.5 -20t-64.5 -56t-43 -78.5
t-26.5 -95.5t-12 -97.5t-3.5 -92.5q0 -41 2 -79t8.5 -83.5t17.5 -83.5t29 -75t42.5 -63t59.5 -41.5t78 -15.5q59 0 104 30t69.5 75t40 107.5t20 116t4.5 112.5z" />
    <glyph glyph-name="oneoldstyle" unicode="&#xf731;" horiz-adv-x="1118" 
d="M1042 0h-876v207h313v770l-258 -166l-119 180l398 250h229v-1034h313v-207z" />
    <glyph glyph-name="twooldstyle" unicode="&#xf732;" horiz-adv-x="1118" 
d="M987 887q0 -63 -18.5 -119t-46 -95.5t-71.5 -78.5t-82.5 -64t-92.5 -55q-16 -9 -59 -33t-63 -35.5t-48 -31.5t-47 -39q-58 -54 -66 -125h588v-211h-848v74q2 128 29.5 216.5t109.5 172.5q32 32 74 64t74 51.5t85 50.5t79 47q82 50 123 98t41 115q0 80 -54.5 127
t-138.5 47q-90 0 -159.5 -41t-139.5 -117l-145 137q168 228 448 228q187 0 307.5 -103t120.5 -280z" />
    <glyph glyph-name="threeoldstyle" unicode="&#xf733;" horiz-adv-x="1118" 
d="M999 360q0 -180 -128 -284.5t-332 -104.5q-297 0 -453 213l150 138q61 -70 127.5 -107t160.5 -37q108 0 169 46.5t61 133.5q0 73 -43 113q-38 37 -96.5 48t-139.5 11h-96v203h76q44 0 74.5 2t71 11.5t65 26.5t42 49.5t17.5 78.5q0 64 -46 114t-136 50q-156 0 -281 -139
l-143 139q69 79 127 117q137 88 303 88q177 0 296.5 -97.5t119.5 -254.5q0 -77 -34.5 -143.5t-74.5 -99.5t-72 -40q20 -4 45 -15t56 -33.5t55.5 -52.5t41.5 -75.5t17 -98.5z" />
    <glyph glyph-name="fouroldstyle" unicode="&#xf734;" horiz-adv-x="1118" 
d="M1051 260h-185v-260h-243v260h-570v189l565 792h248v-780h185v-201zM623 461v444l-320 -444h320z" />
    <glyph glyph-name="fiveoldstyle" unicode="&#xf735;" horiz-adv-x="1118" 
d="M1010 418q0 -201 -131.5 -324t-354.5 -123q-119 0 -216 38.5t-163 101.5q-11 9 -24 24t-15 17l138 151q123 -123 276 -123q112 0 178 58.5t66 169.5q0 104 -58.5 155t-148.5 51q-79 0 -130.5 -32t-88.5 -97l-191 78l72 678h715v-205h-533l-32 -297q39 37 106 56.5
t135 19.5q174 0 287 -105.5t113 -291.5z" />
    <glyph glyph-name="sixoldstyle" unicode="&#xf736;" horiz-adv-x="1118" 
d="M1042 420q0 -192 -125.5 -320.5t-328.5 -128.5q-110 0 -197 38t-140.5 99.5t-89 145.5t-49.5 168.5t-14 175.5q0 59 5.5 117t21 126t40 127.5t64.5 116t92 96.5t126 64.5t163 24.5q148 0 255 -54.5t161 -138.5l-145 -133q-104 123 -260 123q-76 0 -134 -36t-90 -95
t-48 -123t-17 -131q43 65 126.5 104t182.5 39q177 0 289 -110t112 -295zM799 399q0 99 -55.5 159t-151.5 60q-100 0 -159.5 -62.5t-59.5 -162.5t57 -159.5t158 -59.5q95 0 153 63t58 162z" />
    <glyph glyph-name="sevenoldstyle" unicode="&#xf737;" horiz-adv-x="1118" 
d="M1014 1051l-502 -1051h-272l510 1032h-646v209h910v-190z" />
    <glyph glyph-name="eightoldstyle" unicode="&#xf738;" horiz-adv-x="1118" 
d="M1034 346q0 -117 -65.5 -203.5t-172 -129t-237.5 -42.5t-237 42.5t-171 129t-65 203.5q0 62 21.5 115t55 88t67 56.5t65.5 31.5q-63 21 -118.5 94.5t-55.5 181.5q0 113 60 195t158 122t220 40t220.5 -40t159 -122t60.5 -195q0 -107 -56 -181.5t-120 -92.5
q79 -24 145 -102t66 -191zM768 901q0 87 -59.5 132.5t-149.5 45.5q-89 0 -148 -46t-59 -132q0 -85 59 -129.5t148 -44.5t149 44.5t60 129.5zM786 350q0 91 -65.5 142t-161.5 51q-95 0 -161 -50.5t-66 -142.5q0 -87 66 -136.5t161 -49.5q96 0 161.5 49t65.5 137z" />
    <glyph glyph-name="nineoldstyle" unicode="&#xf739;" horiz-adv-x="1118" 
d="M76 821q0 192 125.5 320.5t328.5 128.5q110 0 197 -38t140.5 -99.5t89 -145.5t49.5 -168.5t14 -175.5q0 -59 -5.5 -117t-21 -126t-40 -127.5t-64.5 -116t-92 -96.5t-126 -64.5t-163 -24.5q-148 0 -255 54.5t-161 138.5l146 133q104 -123 260 -123q61 0 111 24.5t82 63
t54 90.5t31 103t10 104q-43 -65 -126.5 -104t-182.5 -39q-177 0 -289 110t-112 295zM319 842q0 -99 55.5 -159t151.5 -60q100 0 159.5 62.5t59.5 162.5t-57 159.5t-158 59.5q-95 0 -153 -63t-58 -162z" />
    <glyph glyph-name="Asmall" unicode="&#xf761;" horiz-adv-x="1282" 
d="M1282 0h-268l-109 258h-534l-109 -258h-262l512 1241h258zM829 473l-192 483l-188 -483h380z" />
    <glyph glyph-name="Bsmall" unicode="&#xf762;" horiz-adv-x="1234" 
d="M1161 367q0 -145 -82 -236q-37 -43 -89.5 -71t-121 -40t-126.5 -16t-142 -4h-465v1241h469q82 0 125 -2t107 -10.5t110 -30t82 -57.5q86 -89 86 -211q0 -108 -52 -184.5t-124 -96.5q106 -23 164.5 -101t58.5 -181zM858 885q0 27 -5.5 49t-18 37.5t-24.5 26.5t-34 17.5
t-37 10.5t-43 5.5t-42.5 2t-43.5 0.5h-223v-303h227q46 0 79 3t66 12.5t53.5 26t33 45t12.5 67.5zM901 375q0 36 -10 62.5t-31 42.5t-43 26.5t-58 15t-63 5.5t-69 1h-240v-317h264q101 0 148 16q102 31 102 148z" />
    <glyph glyph-name="Csmall" unicode="&#xf763;" horiz-adv-x="1277" 
d="M1085 346l144 -149q-15 -23 -49 -54q-82 -75 -203 -123.5t-266 -48.5q-152 0 -274.5 50.5t-201 139t-120 206t-41.5 254.5q0 135 42.5 252t121.5 206t201.5 140t273.5 51q278 0 448 -170q20 -20 51 -60l-153 -143l-31 33q-126 129 -309 129q-95 0 -169.5 -34.5
t-120.5 -95t-69.5 -138.5t-23.5 -168q0 -188 103 -313.5t280 -125.5q178 0 325 125q32 28 41 37z" />
    <glyph glyph-name="Dsmall" unicode="&#xf764;" horiz-adv-x="1335" 
d="M1262 627q0 -141 -47.5 -261.5t-137.5 -203.5q-86 -79 -188 -114.5t-225 -43.5q-90 -4 -132 -4h-397v1241h397q90 0 148.5 -3.5t136 -16.5t142 -44t118.5 -81q91 -84 138 -205t47 -264zM999 629q0 205 -112 317q-30 30 -68 49t-84 27t-81 10t-87 2h-178v-821h150
q59 0 94 2t84.5 10t89.5 28.5t74 53.5q58 54 88 138.5t30 183.5z" />
    <glyph glyph-name="Esmall" unicode="&#xf765;" horiz-adv-x="1134" 
d="M1061 0h-926v1241h903v-213h-649v-295h604v-211h-604v-307h672v-215z" />
    <glyph glyph-name="Fsmall" unicode="&#xf766;" horiz-adv-x="1038" 
d="M1014 1028h-625v-307h580v-211h-580v-510h-254v1241h879v-213z" />
    <glyph glyph-name="Gsmall" unicode="&#xf767;" horiz-adv-x="1366" 
d="M1255 0h-198l-4 127q-45 -68 -151 -112t-228 -44q-142 0 -256.5 50.5t-189 139t-114.5 206t-40 254.5q0 134 43 251.5t122.5 206.5t203 140t274.5 51q93 0 175.5 -20.5t134.5 -47t97.5 -63t62.5 -56t32 -39.5l-154 -145q-141 160 -344 160q-94 0 -169 -36t-121.5 -97.5
t-70.5 -139t-24 -165.5q0 -193 98.5 -315t278.5 -122q81 0 144 24.5t100 65t56 87.5t21 98v30h-340v205h561v-694z" />
    <glyph glyph-name="Hsmall" unicode="&#xf768;" horiz-adv-x="1333" 
d="M1198 0h-254v522h-555v-522h-254v1241h254v-504h555v504h254v-1241z" />
    <glyph glyph-name="Ismall" unicode="&#xf769;" horiz-adv-x="524" 
d="M389 0h-254v1241h254v-1241z" />
    <glyph glyph-name="Jsmall" unicode="&#xf76a;" horiz-adv-x="952" 
d="M829 453q0 -118 -20 -202.5t-88 -154.5q-58 -58 -146 -91.5t-192 -33.5q-247 0 -393 205l160 139q27 -39 69 -75q69 -58 162 -58q112 0 162 84q21 33 26.5 76.5t5.5 112.5v786h254v-788z" />
    <glyph glyph-name="Ksmall" unicode="&#xf76b;" horiz-adv-x="1214" 
d="M1227 0h-318l-520 559v-559h-254v1241h254v-534l520 534h299l-585 -596z" />
    <glyph glyph-name="Lsmall" unicode="&#xf76c;" horiz-adv-x="1005" 
d="M1006 0h-871v1241h254v-1026h617v-215z" />
    <glyph glyph-name="Msmall" unicode="&#xf76d;" horiz-adv-x="1619" 
d="M1485 0h-234v926l-336 -926h-213l-337 926v-926h-230v1241h344l332 -913l336 913h338v-1241z" />
    <glyph glyph-name="Nsmall" unicode="&#xf76e;" horiz-adv-x="1333" 
d="M1198 0h-244l-573 823v-823h-246v1241h248l569 -817v817h246v-1241z" />
    <glyph glyph-name="Osmall" unicode="&#xf76f;" horiz-adv-x="1431" 
d="M1358 621q0 -97 -24.5 -189.5t-77 -176t-126.5 -147t-180.5 -100.5t-232.5 -37t-233 37t-181.5 100.5t-127 147t-77 176t-24.5 189.5q0 122 40.5 235.5t117.5 207t202.5 150t282.5 56.5q156 0 281.5 -56.5t202 -150t117 -207t40.5 -235.5zM1096 621q0 69 -14.5 132.5
t-45.5 119.5t-75 97t-106.5 65t-137.5 24q-93 0 -167 -36t-120 -98t-70 -139.5t-24 -164.5q0 -116 40.5 -213t129 -160.5t211.5 -63.5q93 0 167 36.5t119 98t69 139t24 163.5z" />
    <glyph glyph-name="Psmall" unicode="&#xf770;" horiz-adv-x="1146" 
d="M1122 854q0 -157 -88 -258q-126 -143 -418 -143h-227v-453h-254v1241h424q161 0 258.5 -17t171.5 -79q133 -114 133 -291zM868 850q0 81 -47 125q-38 38 -101 50.5t-159 12.5h-172v-381h195q49 0 86.5 4t76.5 16.5t64 33t41 56t16 83.5z" />
    <glyph glyph-name="Qsmall" unicode="&#xf771;" horiz-adv-x="1431" 
d="M1358 621q0 -81 -16.5 -156.5t-44.5 -133t-54 -97.5t-55 -72l160 -152l-144 -143l-182 172q-134 -68 -305 -68q-126 0 -233 37t-181.5 100.5t-127 147t-77 176t-24.5 189.5q0 122 40.5 235.5t117.5 207t202.5 150t282.5 56.5q156 0 281.5 -56.5t202 -150t117 -207
t40.5 -235.5zM1096 621q0 69 -14.5 132.5t-45.5 119.5t-75 97t-106.5 65t-137.5 24q-93 0 -167 -36t-120 -98t-70 -139.5t-24 -164.5t24 -164.5t70 -139t120 -97.5t167 -36q77 0 135 23l-170 158l145 145l187 -176q32 44 57 117.5t25 169.5z" />
    <glyph glyph-name="Rsmall" unicode="&#xf772;" horiz-adv-x="1236" 
d="M1212 0h-290l-336 475h-197v-475h-254v1241h475q68 0 113.5 -3t104 -13.5t106.5 -35.5t88 -65q108 -108 108 -260q0 -135 -77 -227.5t-205 -130.5zM879 860q0 74 -43 117q-38 38 -96.5 49.5t-143.5 11.5h-207v-358h189q52 0 88 2.5t79.5 12.5t70 28.5t45 53.5t18.5 83z
" />
    <glyph glyph-name="Ssmall" unicode="&#xf773;" horiz-adv-x="1189" 
d="M1092 360q0 -182 -145 -285.5t-376 -103.5q-156 0 -280 46.5t-201 121.5q-25 25 -41 45l146 160q159 -162 374 -162q126 0 194 45t68 123q0 40 -25.5 68.5t-69 45.5t-100 30t-119 26.5t-124.5 29.5t-118.5 44t-100 66t-69 100t-25.5 141q0 159 132.5 264t352.5 105
q137 0 261.5 -39t211.5 -123q13 -13 41 -45l-149 -154q-43 45 -103 84q-119 72 -262 72q-110 0 -169.5 -40.5t-59.5 -109.5q0 -42 26 -71t69.5 -45.5t100.5 -29t119.5 -24.5t125 -27.5t119.5 -43t100.5 -66.5t69.5 -102t26 -146z" />
    <glyph glyph-name="Tsmall" unicode="&#xf774;" horiz-adv-x="1060" 
d="M1061 1028h-404v-1028h-254v1028h-403v213h1061v-213z" />
    <glyph glyph-name="Usmall" unicode="&#xf775;" horiz-adv-x="1316" 
d="M1194 522q0 -130 -27 -225t-108 -174q-152 -152 -402 -152q-249 0 -403 154q-80 80 -105.5 177t-25.5 222v717h254v-711q0 -61 3 -97t19.5 -84.5t49.5 -82.5q80 -80 210 -80q138 0 211 82q36 43 50 88q20 64 20 176v709h254v-719z" />
    <glyph glyph-name="Vsmall" unicode="&#xf776;" horiz-adv-x="1241" 
d="M1241 1241l-493 -1241h-252l-496 1241h279l348 -928l350 928h264z" />
    <glyph glyph-name="Wsmall" unicode="&#xf777;" horiz-adv-x="1835" 
d="M1823 1241l-379 -1241h-256l-268 877l-269 -877h-258l-381 1241h267l258 -866l268 866h233l271 -866l256 866h258z" />
    <glyph glyph-name="Xsmall" unicode="&#xf778;" horiz-adv-x="1148" 
d="M1149 0h-289l-287 442l-292 -442h-281l436 647l-399 594h287l258 -397l260 397h270l-395 -592z" />
    <glyph glyph-name="Ysmall" unicode="&#xf779;" horiz-adv-x="1155" 
d="M1155 1241l-450 -721v-520h-254v520l-451 721h289l293 -489l297 489h276z" />
    <glyph glyph-name="Zsmall" unicode="&#xf77a;" horiz-adv-x="1171" 
d="M1096 0h-1022v201l678 827h-654v213h975v-199l-678 -827h701v-215z" />
    <glyph glyph-name="Agravesmall" unicode="&#xf7e0;" horiz-adv-x="1282" 
d="M1282 0h-268l-109 258h-534l-109 -258h-262l512 1241h258zM829 473l-192 483l-188 -483h380zM817 1382h-199l-249 273h262z" />
    <glyph glyph-name="Aacutesmall" unicode="&#xf7e1;" horiz-adv-x="1282" 
d="M1282 0h-268l-109 258h-534l-109 -258h-262l512 1241h258zM829 473l-192 483l-188 -483h380zM913 1655l-249 -273h-199l184 273h264z" />
    <glyph glyph-name="Acircumflexsmall" unicode="&#xf7e2;" horiz-adv-x="1282" 
d="M1282 0h-268l-109 258h-534l-109 -258h-262l512 1241h258zM829 473l-192 483l-188 -483h380zM967 1382h-195l-133 150l-135 -150h-195l187 273h286z" />
    <glyph glyph-name="Atildesmall" unicode="&#xf7e3;" horiz-adv-x="1282" 
d="M1282 0h-268l-109 258h-534l-109 -258h-262l512 1241h258zM829 473l-192 483l-188 -483h380zM965 1640q0 -33 -4 -49q-7 -96 -59 -147t-140 -51q-49 0 -127 38.5t-109 38.5q-32 0 -48.5 -20t-16.5 -51h-146q0 111 51.5 179.5t155.5 68.5q53 0 130 -38t106 -38q33 0 49 20
t16 49h142z" />
    <glyph glyph-name="Adieresissmall" unicode="&#xf7e4;" horiz-adv-x="1282" 
d="M1282 0h-268l-109 258h-534l-109 -258h-262l512 1241h258zM829 473l-192 483l-188 -483h380zM571 1522q0 -54 -37.5 -90.5t-91.5 -36.5t-91.5 36.5t-37.5 90.5t37.5 90.5t91.5 36.5t91.5 -36.5t37.5 -90.5zM967 1522q0 -54 -37.5 -90.5t-91.5 -36.5t-91.5 36.5
t-37.5 90.5t37.5 90.5t91.5 36.5t91.5 -36.5t37.5 -90.5z" />
    <glyph glyph-name="Aringsmall" unicode="&#xf7e5;" horiz-adv-x="1282" 
d="M1282 0h-268l-109 258h-534l-109 -258h-262l512 1241h258zM829 473l-192 483l-188 -483h380zM856 1554q0 -90 -64 -152.5t-155 -62.5t-154 62t-63 153t63 154.5t154 63.5t155 -63.5t64 -154.5zM731 1554q0 40 -27.5 68.5t-66.5 28.5q-38 0 -65 -28.5t-27 -68.5
q0 -38 27 -66t65 -28q39 0 66.5 27.5t27.5 66.5z" />
    <glyph glyph-name="AEsmall" unicode="&#xf7e6;" horiz-adv-x="1945" 
d="M1872 0h-877v287h-448l-178 -287h-287l792 1241h975v-213h-600v-295h559v-211h-559v-307h623v-215zM995 498v542l-327 -542h327z" />
    <glyph glyph-name="Ccedillasmall" unicode="&#xf7e7;" horiz-adv-x="1277" 
d="M520 -152l82 132q-235 27 -381.5 199t-146.5 442q0 135 42.5 252t121.5 206t201.5 140t273.5 51q278 0 448 -170q20 -20 51 -60l-153 -143l-31 33q-126 129 -309 129q-95 0 -169.5 -34.5t-120.5 -95t-69.5 -138.5t-23.5 -168q0 -188 103 -313.5t280 -125.5q178 0 325 125
q32 28 41 37l144 -149q-15 -23 -49 -54q-80 -74 -195.5 -121t-251.5 -51l-41 -59q12 4 29 4q94 0 145.5 -46t51.5 -120q0 -79 -64.5 -129.5t-163.5 -50.5q-122 0 -194 72l71 90q53 -45 115 -45q42 0 63 18.5t21 46.5q0 30 -18.5 48t-55.5 18q-43 0 -74 -31z" />
    <glyph glyph-name="Egravesmall" unicode="&#xf7e8;" horiz-adv-x="1134" 
d="M1061 0h-926v1241h903v-213h-649v-295h604v-211h-604v-307h672v-215zM776 1382h-198l-250 273h262z" />
    <glyph glyph-name="Eacutesmall" unicode="&#xf7e9;" horiz-adv-x="1134" 
d="M1061 0h-926v1241h903v-213h-649v-295h604v-211h-604v-307h672v-215zM870 1655l-249 -273h-199l184 273h264z" />
    <glyph glyph-name="Ecircumflexsmall" unicode="&#xf7ea;" horiz-adv-x="1134" 
d="M1061 0h-926v1241h903v-213h-649v-295h604v-211h-604v-307h672v-215zM924 1382h-195l-133 150l-135 -150h-195l187 273h286z" />
    <glyph glyph-name="Edieresissmall" unicode="&#xf7eb;" horiz-adv-x="1134" 
d="M1061 0h-926v1241h903v-213h-649v-295h604v-211h-604v-307h672v-215zM528 1522q0 -54 -37.5 -90.5t-91.5 -36.5t-91.5 36.5t-37.5 90.5t37.5 90.5t91.5 36.5t91.5 -36.5t37.5 -90.5zM924 1522q0 -54 -37.5 -90.5t-91.5 -36.5t-91.5 36.5t-37.5 90.5t37.5 90.5t91.5 36.5
t91.5 -36.5t37.5 -90.5z" />
    <glyph glyph-name="Igravesmall" unicode="&#xf7ec;" horiz-adv-x="524" 
d="M389 0h-254v1241h254v-1241zM424 1382h-199l-250 273h263z" />
    <glyph glyph-name="Iacutesmall" unicode="&#xf7ed;" horiz-adv-x="524" 
d="M389 0h-254v1241h254v-1241zM549 1655l-250 -273h-199l185 273h264z" />
    <glyph glyph-name="Icircumflexsmall" unicode="&#xf7ee;" horiz-adv-x="524" 
d="M389 0h-254v1241h254v-1241zM590 1382h-195l-133 150l-135 -150h-195l187 273h287z" />
    <glyph glyph-name="Idieresissmall" unicode="&#xf7ef;" horiz-adv-x="524" 
d="M389 0h-254v1241h254v-1241zM193 1522q0 -54 -38 -90.5t-92 -36.5t-91.5 36.5t-37.5 90.5t37.5 90.5t91.5 36.5t92 -36.5t38 -90.5zM588 1522q0 -54 -37.5 -90.5t-91.5 -36.5t-91.5 36.5t-37.5 90.5t37.5 90.5t91.5 36.5t91.5 -36.5t37.5 -90.5z" />
    <glyph glyph-name="Ethsmall" unicode="&#xf7f0;" horiz-adv-x="1376" 
d="M176 731v510h397q90 0 148.5 -3.5t136 -16.5t142 -44t118.5 -81q91 -84 138 -205t47 -264q0 -141 -47.5 -261.5t-137.5 -203.5q-86 -79 -188 -114.5t-225 -43.5q-90 -4 -132 -4h-397v526h-186v205h186zM430 526v-313h150q59 0 94 2t84.5 10t89.5 28.5t74 53.5
q58 54 88 138.5t30 183.5q0 205 -112 317q-30 30 -68 49t-84 27t-81 10t-87 2h-178v-303h313v-205h-313z" />
    <glyph glyph-name="Ntildesmall" unicode="&#xf7f1;" horiz-adv-x="1333" 
d="M1198 0h-244l-573 823v-823h-246v1241h248l569 -817v817h246v-1241zM993 1640q0 -33 -4 -49q-7 -96 -58.5 -147t-139.5 -51q-49 0 -127 38.5t-109 38.5q-32 0 -49 -20t-17 -51h-145q0 111 51.5 179.5t155.5 68.5q53 0 129.5 -38t105.5 -38q33 0 49.5 20t16.5 49h141z" />
    <glyph glyph-name="Ogravesmall" unicode="&#xf7f2;" horiz-adv-x="1431" 
d="M1358 621q0 -97 -24.5 -189.5t-77 -176t-126.5 -147t-180.5 -100.5t-232.5 -37t-233 37t-181.5 100.5t-127 147t-77 176t-24.5 189.5q0 122 40.5 235.5t117.5 207t202.5 150t282.5 56.5q156 0 281.5 -56.5t202 -150t117 -207t40.5 -235.5zM1096 621q0 69 -14.5 132.5
t-45.5 119.5t-75 97t-106.5 65t-137.5 24q-93 0 -167 -36t-120 -98t-70 -139.5t-24 -164.5q0 -116 40.5 -213t129 -160.5t211.5 -63.5q93 0 167 36.5t119 98t69 139t24 163.5zM897 1378h-199l-249 273h262z" />
    <glyph glyph-name="Oacutesmall" unicode="&#xf7f3;" horiz-adv-x="1431" 
d="M1358 621q0 -97 -24.5 -189.5t-77 -176t-126.5 -147t-180.5 -100.5t-232.5 -37t-233 37t-181.5 100.5t-127 147t-77 176t-24.5 189.5q0 122 40.5 235.5t117.5 207t202.5 150t282.5 56.5q156 0 281.5 -56.5t202 -150t117 -207t40.5 -235.5zM1096 621q0 69 -14.5 132.5
t-45.5 119.5t-75 97t-106.5 65t-137.5 24q-93 0 -167 -36t-120 -98t-70 -139.5t-24 -164.5q0 -116 40.5 -213t129 -160.5t211.5 -63.5q93 0 167 36.5t119 98t69 139t24 163.5zM985 1655l-250 -273h-198l184 273h264z" />
    <glyph glyph-name="Ocircumflexsmall" unicode="&#xf7f4;" horiz-adv-x="1431" 
d="M1358 621q0 -97 -24.5 -189.5t-77 -176t-126.5 -147t-180.5 -100.5t-232.5 -37t-233 37t-181.5 100.5t-127 147t-77 176t-24.5 189.5q0 122 40.5 235.5t117.5 207t202.5 150t282.5 56.5q156 0 281.5 -56.5t202 -150t117 -207t40.5 -235.5zM1096 621q0 69 -14.5 132.5
t-45.5 119.5t-75 97t-106.5 65t-137.5 24q-93 0 -167 -36t-120 -98t-70 -139.5t-24 -164.5q0 -116 40.5 -213t129 -160.5t211.5 -63.5q93 0 167 36.5t119 98t69 139t24 163.5zM1044 1382h-194l-133 150l-135 -150h-195l186 273h287z" />
    <glyph glyph-name="Otildesmall" unicode="&#xf7f5;" horiz-adv-x="1431" 
d="M1358 621q0 -97 -24.5 -189.5t-77 -176t-126.5 -147t-180.5 -100.5t-232.5 -37t-233 37t-181.5 100.5t-127 147t-77 176t-24.5 189.5q0 122 40.5 235.5t117.5 207t202.5 150t282.5 56.5q156 0 281.5 -56.5t202 -150t117 -207t40.5 -235.5zM1096 621q0 69 -14.5 132.5
t-45.5 119.5t-75 97t-106.5 65t-137.5 24q-93 0 -167 -36t-120 -98t-70 -139.5t-24 -164.5q0 -116 40.5 -213t129 -160.5t211.5 -63.5q93 0 167 36.5t119 98t69 139t24 163.5zM1038 1636q0 -33 -4 -49q-7 -96 -58.5 -147t-139.5 -51q-49 0 -127 38.5t-109 38.5
q-32 0 -48.5 -20t-16.5 -51h-146q0 111 51.5 179t155.5 68q53 0 129.5 -37.5t105.5 -37.5q33 0 49.5 20t16.5 49h141z" />
    <glyph glyph-name="Odieresissmall" unicode="&#xf7f6;" horiz-adv-x="1431" 
d="M1358 621q0 -97 -24.5 -189.5t-77 -176t-126.5 -147t-180.5 -100.5t-232.5 -37t-233 37t-181.5 100.5t-127 147t-77 176t-24.5 189.5q0 122 40.5 235.5t117.5 207t202.5 150t282.5 56.5q156 0 281.5 -56.5t202 -150t117 -207t40.5 -235.5zM1096 621q0 69 -14.5 132.5
t-45.5 119.5t-75 97t-106.5 65t-137.5 24q-93 0 -167 -36t-120 -98t-70 -139.5t-24 -164.5q0 -116 40.5 -213t129 -160.5t211.5 -63.5q93 0 167 36.5t119 98t69 139t24 163.5zM647 1518q0 -54 -37.5 -90.5t-91.5 -36.5t-91.5 36.5t-37.5 90.5t37.5 90.5t91.5 36.5
t91.5 -36.5t37.5 -90.5zM1042 1518q0 -54 -37.5 -90.5t-91.5 -36.5t-91.5 36.5t-37.5 90.5t37.5 90.5t91.5 36.5t91.5 -36.5t37.5 -90.5z" />
    <glyph glyph-name="Oslashsmall" unicode="&#xf7f8;" horiz-adv-x="1435" 
d="M717 -29q-124 0 -226 35.5t-159 81.5l-119 -125l-137 133l121 127q-46 63 -84.5 166t-38.5 232q0 122 40.5 235.5t117.5 207t202.5 150t282.5 56.5q130 0 229 -35.5t158 -83.5l123 127l139 -131l-127 -131q119 -174 119 -395q0 -97 -24.5 -189.5t-77 -176t-126.5 -147
t-180.5 -100.5t-232.5 -37zM717 1059q-93 0 -167 -36t-120 -98t-70 -139.5t-24 -164.5q0 -69 14 -130.5t29 -84.5l565 579q-91 74 -227 74zM1055 834l-561 -578q35 -30 94.5 -51t128.5 -21q93 1 167 37.5t119.5 98t69 138.5t23.5 163q0 129 -41 213z" />
    <glyph glyph-name="Ugravesmall" unicode="&#xf7f9;" horiz-adv-x="1316" 
d="M1194 522q0 -130 -27 -225t-108 -174q-152 -152 -402 -152q-249 0 -403 154q-80 80 -105.5 177t-25.5 222v717h254v-711q0 -61 3 -97t19.5 -84.5t49.5 -82.5q80 -80 210 -80q138 0 211 82q36 43 50 88q20 64 20 176v709h254v-719zM840 1382h-199l-250 273h262z" />
    <glyph glyph-name="Uacutesmall" unicode="&#xf7fa;" horiz-adv-x="1316" 
d="M1194 522q0 -130 -27 -225t-108 -174q-152 -152 -402 -152q-249 0 -403 154q-80 80 -105.5 177t-25.5 222v717h254v-711q0 -61 3 -97t19.5 -84.5t49.5 -82.5q80 -80 210 -80q138 0 211 82q36 43 50 88q20 64 20 176v709h254v-719zM928 1655l-250 -273h-199l185 273h264z
" />
    <glyph glyph-name="Ucircumflexsmall" unicode="&#xf7fb;" horiz-adv-x="1316" 
d="M1194 522q0 -130 -27 -225t-108 -174q-152 -152 -402 -152q-249 0 -403 154q-80 80 -105.5 177t-25.5 222v717h254v-711q0 -61 3 -97t19.5 -84.5t49.5 -82.5q80 -80 210 -80q138 0 211 82q36 43 50 88q20 64 20 176v709h254v-719zM987 1382h-194l-134 150l-135 -150h-194
l186 273h287z" />
    <glyph glyph-name="Udieresissmall" unicode="&#xf7fc;" horiz-adv-x="1316" 
d="M1194 522q0 -130 -27 -225t-108 -174q-152 -152 -402 -152q-249 0 -403 154q-80 80 -105.5 177t-25.5 222v717h254v-711q0 -61 3 -97t19.5 -84.5t49.5 -82.5q80 -80 210 -80q138 0 211 82q36 43 50 88q20 64 20 176v709h254v-719zM590 1522q0 -54 -37.5 -90.5
t-91.5 -36.5t-91.5 36.5t-37.5 90.5t37.5 90.5t91.5 36.5t91.5 -36.5t37.5 -90.5zM985 1522q0 -54 -37.5 -90.5t-91.5 -36.5t-91.5 36.5t-37.5 90.5t37.5 90.5t91.5 36.5t91.5 -36.5t37.5 -90.5z" />
    <glyph glyph-name="Yacutesmall" unicode="&#xf7fd;" horiz-adv-x="1155" 
d="M1155 1241l-450 -721v-520h-254v520l-451 721h289l293 -489l297 489h276zM846 1655l-250 -273h-199l185 273h264z" />
    <glyph glyph-name="Thornsmall" unicode="&#xf7fe;" horiz-adv-x="1146" 
d="M1122 666q0 -157 -88 -258q-127 -144 -418 -144h-227v-264h-254v1241h254v-188h170q160 0 258 -17.5t172 -79.5q133 -114 133 -290zM868 662q0 80 -47 124q-38 38 -101.5 51t-158.5 13h-172v-381h195q49 0 86.5 4t76.5 16.5t64 33t41 56t16 83.5z" />
    <glyph glyph-name="Ydieresissmall" unicode="&#xf7ff;" horiz-adv-x="1155" 
d="M1155 1241l-450 -721v-520h-254v520l-451 721h289l293 -489l297 489h276zM512 1522q0 -54 -37.5 -90.5t-91.5 -36.5t-91.5 36.5t-37.5 90.5t37.5 90.5t91.5 36.5t91.5 -36.5t37.5 -90.5zM907 1522q0 -54 -37.5 -90.5t-91.5 -36.5t-91.5 36.5t-37.5 90.5t37.5 90.5
t91.5 36.5t91.5 -36.5t37.5 -90.5z" />
    <glyph glyph-name="apple" unicode="&#xf8ff;" horiz-adv-x="1835" 
d="M1749 791q0 -135 -41 -261t-117.5 -227t-178 -177t-229 -117.5t-265.5 -41.5q-114 0 -222.5 29.5t-200 83t-168 129.5t-129.5 166t-82.5 197t-29.5 219q0 169 65.5 322t176.5 263t265 175t325 65q229 0 420.5 -110.5t301 -300t109.5 -414.5zM1589 791q0 135 -53 258.5
t-143 213.5t-214.5 143.5t-260.5 53.5q-180 0 -335 -90t-246 -244t-91 -333q0 -210 122 -383t316 -244v469h-217v141h217v62q0 107 20 174t76 123q92 92 256 92q56 0 106 -10.5t70.5 -19.5t28.5 -15l-49 -125q-75 26 -137 26q-101 0 -156 -55q-30 -30 -40.5 -74t-10.5 -116
v-62h348v-141h-348v-508q46 -4 70 -4q135 0 259 53.5t214.5 143t144 213.5t53.5 258z" />
    <glyph glyph-name="figuredash" horiz-adv-x="0" 
 />
    <glyph glyph-name="dollar.taboldstyle" horiz-adv-x="1112" 
d="M1014 352q0 -153 -106 -254.5t-279 -122.5v-163h-162v163q-73 7 -138.5 32t-113.5 60.5t-80 67.5t-57 66l149 137q36 -50 99.5 -94t140.5 -58v326q-39 10 -69.5 19.5t-69.5 26.5t-69 36.5t-60 49t-49.5 64.5t-31.5 83t-12 104q0 149 101.5 252.5t259.5 120.5v162h162
v-162q69 -6 131 -27.5t102 -48t72.5 -56.5t47 -49t19.5 -30l-145 -135q-104 117 -225 135v-336q44 -10 74.5 -18.5t73.5 -24.5t73 -34t63 -46.5t53 -62t33 -80.5t13 -103zM467 758v303q-137 -37 -137 -160q0 -35 12 -60.5t35.5 -41.5t42 -24t47.5 -17zM791 340
q0 34 -12 58.5t-39 40t-47.5 23.5t-61.5 19v-299q31 4 55 12t50 24.5t40.5 47.5t14.5 74z" />
    <glyph glyph-name="cent.taboldstyle" horiz-adv-x="1118" 
d="M1014 147q-8 -12 -17.5 -25.5t-40.5 -44.5t-66.5 -55t-94 -45.5t-123.5 -27.5v-160h-162v160q-102 11 -182 55t-129 109.5t-74 145t-25 167.5q0 87 25.5 165t74.5 142.5t128.5 108.5t181.5 57v158h162v-156q183 -16 303 -147q22 -22 37 -47l-156 -127q-28 33 -57 55
q-52 42 -127 57v-534q113 21 188 118zM510 164v522q-81 -26 -124.5 -96.5t-43.5 -165.5q0 -97 42.5 -165.5t125.5 -94.5z" />
    <glyph glyph-name="sterling.taboldstyle" horiz-adv-x="1118" 
d="M1038 1055l-153 -129q-105 137 -256 137q-93 0 -141 -56.5t-48 -132.5q0 -20 2 -39t6.5 -38t7 -28.5t9 -28t6.5 -19.5h322v-201h-281q4 -20 4 -49q0 -174 -98 -264h592v-207h-908v186q179 77 179 265q0 34 -7 69h-172v201h127q-1 4 -6 19t-6.5 20t-5 19t-5 23t-3.5 22.5
t-3 27.5t-1 29q0 166 118 277.5t297 111.5q120 0 217.5 -46t163.5 -118q32 -35 43 -51z" />
    <glyph glyph-name="yen.taboldstyle" horiz-adv-x="1118" 
d="M1083 1241l-292 -520h231v-201h-342v-112h330v-197h-330v-211h-242v211h-329v197h329v112h-342v201h230l-293 520h266l264 -522l264 522h256z" />
    <glyph glyph-name="Euro.taboldstyle" horiz-adv-x="1118" 
d="M1090 186q-140 -215 -418 -215q-92 0 -171.5 29t-132.5 72.5t-93.5 100t-61.5 106.5t-31 96h-153v184h145q-4 28 -4 55q0 22 4 54h-145v186h155q10 59 33.5 115.5t64 112t93.5 96.5t128 66.5t161 25.5q238 0 372 -160q17 -20 41 -55l-155 -121q-52 68 -108.5 99.5
t-139.5 31.5q-56 0 -101 -21.5t-73.5 -57t-44.5 -67t-27 -65.5h369v-186h-389q-5 -35 -5 -54q0 -20 5 -55h389v-184h-369q6 -26 22.5 -56.5t45 -64.5t77 -56t107.5 -22q155 0 254 133z" />
    <glyph glyph-name="US" horiz-adv-x="1024" 
 />
    <glyph glyph-name="florin.taboldstyle" 
d="M1237 1372l-68 -186q-70 26 -131 26q-54 0 -98 -30q-31 -23 -48 -60.5t-30 -101.5l-20 -90h297v-199h-338l-168 -790q-44 -203 -160 -281q-98 -70 -246 -70q-123 0 -219 45l68 187q78 -27 131 -27q60 0 102 31q33 23 49.5 60.5t30.5 101.5l158 743h-197v199h238l30 137
q44 203 158 281q103 73 242 73q115 0 219 -49z" />
    <glyph glyph-name="one.taboldstyle" 
d="M1169 0h-976v213h362v917l-311 -194l-119 178l440 275h244v-1176h360v-213z" />
    <glyph glyph-name="two.taboldstyle" 
d="M1100 997q0 -94 -37 -172t-96 -131t-131 -98.5t-145 -85.5t-134 -80.5t-101.5 -94.5t-45.5 -118h684v-217h-949q0 65 2 98q3 129 35 223t121 183q56 56 138 109.5t149.5 90.5t130 79t98 95t35.5 119q0 98 -68 155.5t-170 57.5q-195 0 -342 -174l-151 142q12 16 19.5 25.5
t35 37.5t53.5 48t69.5 47t88.5 43.5t107 29t127 12.5q210 0 343.5 -114t133.5 -310z" />
    <glyph glyph-name="three.taboldstyle" 
d="M1100 381q0 -186 -143 -299t-371 -113q-88 0 -168 19t-132 44t-98 59.5t-66.5 56t-37.5 42.5l152 144q12 -15 32.5 -34t62.5 -49.5t104.5 -50.5t131.5 -20q129 0 204 54t75 159q0 85 -55 137q-35 32 -90 49t-97.5 20t-105.5 3h-86v215h67q46 0 77.5 1.5t74.5 7.5t71.5 19
t55 34t40 55.5t13.5 79.5q0 79 -56.5 137.5t-166.5 58.5q-183 0 -320 -151l-149 143q18 22 33.5 38.5t62 53.5t94.5 61.5t125.5 45t161.5 20.5q199 0 331 -108t132 -279q0 -60 -17 -112t-41 -86t-56 -61t-57 -40.5t-48 -21.5q24 -6 52.5 -18t67 -39t68.5 -62t51 -91t21 -122
z" />
    <glyph glyph-name="four.taboldstyle" 
d="M1180 297h-211v-297h-248v297h-651v203l637 889h262v-887h211v-205zM721 502v567l-410 -567h410z" />
    <glyph glyph-name="five.taboldstyle" 
d="M1120 459q0 -223 -146.5 -356.5t-398.5 -133.5q-85 0 -162.5 18.5t-124 40t-91 55t-56 45t-26.5 28.5l141 157q144 -133 313 -133q135 0 216 70.5t81 204.5q0 121 -73 182t-181 61q-52 0 -96.5 -13.5t-71.5 -30.5t-49 -39.5t-29 -34t-12 -21.5l-196 78l80 752h794v-209
h-608l-41 -373q108 94 291 94q194 0 320 -118t126 -324z" />
    <glyph glyph-name="six.taboldstyle" 
d="M1161 465q0 -214 -141 -355t-371 -141q-123 0 -220 42t-157 109.5t-99.5 160.5t-55 188t-15.5 199q0 67 6.5 133.5t24 142.5t45 142.5t73 129t103.5 107t141.5 71.5t182.5 27q67 0 128 -11.5t103.5 -26t83 -40t61.5 -41.5t44.5 -42t27 -31t13.5 -19l-154 -139
q-14 18 -32.5 35.5t-55.5 44.5t-90.5 44t-114.5 17q-78 0 -140 -30t-100.5 -77t-63.5 -109.5t-35 -121t-11 -118.5v-23q14 21 40 46.5t71 58t114 54t146 21.5q198 0 323 -122t125 -326zM387 434q0 -117 71.5 -189.5t192.5 -72.5q117 0 187.5 75t70.5 193q0 117 -68 189.5
t-184 72.5q-122 0 -196 -75t-74 -193z" />
    <glyph glyph-name="seven.taboldstyle" 
d="M1133 1184q-286 -594 -574 -1184h-283l586 1174h-747v215h1018v-205z" />
    <glyph glyph-name="eight.taboldstyle" 
d="M1155 379q0 -128 -72 -223t-191 -142t-267 -47q-150 0 -269 46.5t-191.5 141t-72.5 222.5q0 62 20.5 116.5t50 90.5t66.5 64.5t67 43t54 19.5q-30 11 -61.5 31.5t-69.5 57.5t-62 96.5t-24 131.5q0 184 139 288.5t351 104.5q138 0 248 -43.5t176.5 -133.5t66.5 -214
q0 -71 -23.5 -130.5t-61 -96.5t-70 -58.5t-62.5 -31.5q23 -6 52.5 -19.5t66.5 -41.5t67 -63.5t51 -91t21 -118.5zM623 1225q-105 0 -177.5 -53.5t-72.5 -157.5q0 -102 72.5 -155.5t177.5 -53.5q107 0 179 53t72 156t-72.5 157t-178.5 54zM899 383q0 111 -81 171t-195 60
q-113 0 -195 -60t-82 -169q0 -104 81.5 -162.5t195.5 -58.5t195 57.5t81 161.5z" />
    <glyph glyph-name="nine.taboldstyle" 
d="M86 926q0 214 141 354.5t371 140.5q123 0 220 -41.5t157 -109t99.5 -160.5t55 -188t15.5 -199q0 -67 -6.5 -133.5t-24 -143t-45 -143t-73 -129t-103.5 -107t-141.5 -71.5t-182.5 -27q-92 0 -172.5 21.5t-126 45.5t-88 62.5t-51 50t-22.5 31.5l153 139q14 -18 32.5 -35.5
t55.5 -44.5t90.5 -44t114.5 -17q78 0 140 30t100.5 77.5t63.5 110t35 121t11 118.5v22q-14 -21 -40 -46.5t-71 -58t-113.5 -54t-145.5 -21.5q-198 0 -323.5 122.5t-125.5 326.5zM860 956q0 117 -71.5 190t-192.5 73q-117 0 -187.5 -75t-70.5 -194q0 -117 68 -189.5
t184 -72.5q122 0 196 75t74 193z" />
    <glyph glyph-name="zero.taboldstyle" 
d="M1169 694q0 -214 -61.5 -376t-186 -255.5t-298.5 -93.5t-298.5 93.5t-185.5 255.5t-61 376q0 215 61.5 377.5t186.5 256t299 93.5t298 -93.5t185 -256t61 -377.5zM907 694q0 514 -282 514q-52 0 -94.5 -18.5t-71.5 -48t-51 -73t-34.5 -87.5t-20.5 -97.5t-10.5 -97.5
t-2.5 -92q0 -57 4 -108t13.5 -112.5t30 -110.5t50.5 -91t77.5 -65t107.5 -23q72 0 125.5 34.5t83 86t47.5 124t23 134t5 131.5z" />
    <glyph glyph-name="Grave" horiz-adv-x="0" 
 />
    <glyph glyph-name="Circumflex" horiz-adv-x="0" 
 />
    <glyph glyph-name="Tilde" horiz-adv-x="0" 
 />
    <glyph glyph-name="Dieresis" horiz-adv-x="0" 
 />
    <glyph glyph-name="Macron" horiz-adv-x="0" 
 />
    <glyph glyph-name="Acute" horiz-adv-x="0" 
 />
    <glyph glyph-name="Cedilla" horiz-adv-x="0" 
 />
    <glyph glyph-name="Breve" horiz-adv-x="0" 
 />
    <glyph glyph-name="Dotaccent" horiz-adv-x="0" 
 />
    <glyph glyph-name="Ring" horiz-adv-x="0" 
 />
    <glyph glyph-name="Hungarumlaut" horiz-adv-x="0" 
 />
    <glyph glyph-name="Ogonek" horiz-adv-x="0" 
 />
    <glyph glyph-name="Caron" horiz-adv-x="0" 
 />
    <glyph glyph-name="commaaccent.cap" horiz-adv-x="1024" 
 />
    <glyph glyph-name="commaaccent" horiz-adv-x="0" 
 />
    <glyph glyph-name="one.fitted" 
d="M1169 0h-976v213h362v917l-311 -194l-119 178l440 275h244v-1176h360v-213z" />
    <glyph glyph-name="two.fitted" 
d="M1100 997q0 -94 -37 -172t-96 -131t-131 -98.5t-145 -85.5t-134 -80.5t-101.5 -94.5t-45.5 -118h684v-217h-949q0 65 2 98q3 129 35 223t121 183q56 56 138 109.5t149.5 90.5t130 79t98 95t35.5 119q0 98 -68 155.5t-170 57.5q-195 0 -342 -174l-151 142q12 16 19.5 25.5
t35 37.5t53.5 48t69.5 47t88.5 43.5t107 29t127 12.5q210 0 343.5 -114t133.5 -310z" />
    <glyph glyph-name="three.fitted" 
d="M1100 381q0 -186 -143 -299t-371 -113q-88 0 -168 19t-132 44t-98 59.5t-66.5 56t-37.5 42.5l152 144q12 -15 32.5 -34t62.5 -49.5t104.5 -50.5t131.5 -20q129 0 204 54t75 159q0 85 -55 137q-35 32 -90 49t-97.5 20t-105.5 3h-86v215h67q46 0 77.5 1.5t74.5 7.5t71.5 19
t55 34t40 55.5t13.5 79.5q0 79 -56.5 137.5t-166.5 58.5q-183 0 -320 -151l-149 143q18 22 33.5 38.5t62 53.5t94.5 61.5t125.5 45t161.5 20.5q199 0 331 -108t132 -279q0 -60 -17 -112t-41 -86t-56 -61t-57 -40.5t-48 -21.5q24 -6 52.5 -18t67 -39t68.5 -62t51 -91t21 -122
z" />
    <glyph glyph-name="four.fitted" 
d="M1180 297h-211v-297h-248v297h-651v203l637 889h262v-887h211v-205zM721 502v567l-410 -567h410z" />
    <glyph glyph-name="five.fitted" 
d="M1120 459q0 -223 -146.5 -356.5t-398.5 -133.5q-85 0 -162.5 18.5t-124 40t-91 55t-56 45t-26.5 28.5l141 157q144 -133 313 -133q135 0 216 70.5t81 204.5q0 121 -73 182t-181 61q-52 0 -96.5 -13.5t-71.5 -30.5t-49 -39.5t-29 -34t-12 -21.5l-196 78l80 752h794v-209
h-608l-41 -373q108 94 291 94q194 0 320 -118t126 -324z" />
    <glyph glyph-name="six.fitted" 
d="M1161 465q0 -214 -141 -355t-371 -141q-123 0 -220 42t-157 109.5t-99.5 160.5t-55 188t-15.5 199q0 67 6.5 133.5t24 142.5t45 142.5t73 129t103.5 107t141.5 71.5t182.5 27q67 0 128 -11.5t103.5 -26t83 -40t61.5 -41.5t44.5 -42t27 -31t13.5 -19l-154 -139
q-14 18 -32.5 35.5t-55.5 44.5t-90.5 44t-114.5 17q-78 0 -140 -30t-100.5 -77t-63.5 -109.5t-35 -121t-11 -118.5v-23q14 21 40 46.5t71 58t114 54t146 21.5q198 0 323 -122t125 -326zM387 434q0 -117 71.5 -189.5t192.5 -72.5q117 0 187.5 75t70.5 193q0 117 -68 189.5
t-184 72.5q-122 0 -196 -75t-74 -193z" />
    <glyph glyph-name="seven.fitted" 
d="M1133 1184q-286 -594 -574 -1184h-283l586 1174h-747v215h1018v-205z" />
    <glyph glyph-name="eight.fitted" 
d="M1155 379q0 -128 -72 -223t-191 -142t-267 -47q-150 0 -269 46.5t-191.5 141t-72.5 222.5q0 62 20.5 116.5t50 90.5t66.5 64.5t67 43t54 19.5q-30 11 -61.5 31.5t-69.5 57.5t-62 96.5t-24 131.5q0 184 139 288.5t351 104.5q138 0 248 -43.5t176.5 -133.5t66.5 -214
q0 -71 -23.5 -130.5t-61 -96.5t-70 -58.5t-62.5 -31.5q23 -6 52.5 -19.5t66.5 -41.5t67 -63.5t51 -91t21 -118.5zM623 1225q-105 0 -177.5 -53.5t-72.5 -157.5q0 -102 72.5 -155.5t177.5 -53.5q107 0 179 53t72 156t-72.5 157t-178.5 54zM899 383q0 111 -81 171t-195 60
q-113 0 -195 -60t-82 -169q0 -104 81.5 -162.5t195.5 -58.5t195 57.5t81 161.5z" />
    <glyph glyph-name="zero.fitted" 
d="M1169 694q0 -214 -61.5 -376t-186 -255.5t-298.5 -93.5t-298.5 93.5t-185.5 255.5t-61 376q0 215 61.5 377.5t186.5 256t299 93.5t298 -93.5t185 -256t61 -377.5zM907 694q0 514 -282 514q-52 0 -94.5 -18.5t-71.5 -48t-51 -73t-34.5 -87.5t-20.5 -97.5t-10.5 -97.5
t-2.5 -92q0 -57 4 -108t13.5 -112.5t30 -110.5t50.5 -91t77.5 -65t107.5 -23q72 0 125.5 34.5t83 86t47.5 124t23 134t5 131.5z" />
    <glyph glyph-name="nine.fitted" 
d="M86 926q0 214 141 354.5t371 140.5q123 0 220 -41.5t157 -109t99.5 -160.5t55 -188t15.5 -199q0 -67 -6.5 -133.5t-24 -143t-45 -143t-73 -129t-103.5 -107t-141.5 -71.5t-182.5 -27q-92 0 -172.5 21.5t-126 45.5t-88 62.5t-51 50t-22.5 31.5l153 139q14 -18 32.5 -35.5
t55.5 -44.5t90.5 -44t114.5 -17q78 0 140 30t100.5 77.5t63.5 110t35 121t11 118.5v22q-14 -21 -40 -46.5t-71 -58t-113.5 -54t-145.5 -21.5q-198 0 -323.5 122.5t-125.5 326.5zM860 956q0 117 -71.5 190t-192.5 73q-117 0 -187.5 -75t-70.5 -194q0 -117 68 -189.5
t184 -72.5q122 0 196 75t74 193z" />
    <glyph glyph-name="peseta" horiz-adv-x="0" 
 />
    <glyph glyph-name="lira" horiz-adv-x="0" 
 />
    <glyph glyph-name="franc" horiz-adv-x="0" 
 />
    <glyph glyph-name="germandbls.small" horiz-adv-x="1181" 
d="M1128 393q0 -86 -26.5 -156.5t-71.5 -118t-105.5 -80t-126 -47t-136.5 -14.5q-132 0 -218 43l62 185q54 -27 131 -27q103 0 174.5 57t71.5 166q0 90 -58 148q-25 24 -59 39t-76 21t-69.5 7.5t-71.5 1.5h-62v201h54q167 0 231 72q47 50 47 133q0 88 -64 143.5t-165 55.5
q-111 0 -172 -64q-38 -40 -50 -91.5t-12 -139.5v-928h-245v926q0 130 26.5 222t95.5 157q125 116 351 116q215 0 344 -99.5t129 -272.5q0 -71 -24.5 -130.5t-61 -95t-70.5 -55.5t-61 -25q24 -3 56 -14t74.5 -37.5t76.5 -64t57.5 -99t23.5 -135.5z" />
    </font>
</defs>
</svg>
