<?xml version="1.0" standalone="no"?>
<!DOCTYPE svg PUBLIC "-//W3C//DTD SVG 1.1//EN" "http://www.w3.org/Graphics/SVG/1.1/DTD/svg11.dtd" >
<svg xmlns="http://www.w3.org/2000/svg" xmlns:xlink="http://www.w3.org/1999/xlink" version="1.1">
<metadata>
Created by FontForge 20170731 at Tue Nov  3 05:39:39 2020
 By Aleksey,,,
Copyright (c) (c) The Foundry, London, 2005. All rights reserved.
</metadata>
<defs>
<font id="FoundryContext-Bold" horiz-adv-x="1261" >
  <font-face 
    font-family="Foundry Context Bold"
    font-weight="700"
    font-stretch="normal"
    units-per-em="2048"
    panose-1="2 0 0 0 0 0 0 0 0 0"
    ascent="1638"
    descent="-410"
    x-height="985"
    cap-height="1389"
    bbox="-365 -457 2505 1890"
    underline-thickness="116"
    underline-position="-679"
    unicode-range="U+0020-FB04"
  />
<missing-glyph horiz-adv-x="1351" 
d="M117 -381h1151v1770h-1151v-1770zM420 -135v1278h545v-1278h-545z" />
    <glyph glyph-name="ff" unicode="ff" horiz-adv-x="1613" 
d="M928 756h-430v-756h-287v756h-211v229h211v27q0 92 22 164.5t84 134.5q112 112 320 112q79 0 145.5 -20.5t91.5 -36.5l-79 -199q-67 27 -125 27q-84 0 -128 -46t-44 -136v-27h430v27q0 91 23 165t85 136q110 110 320 110q69 0 136 -17.5t93 -30.5t41 -23l-80 -199
q-1 1 -12 6t-19 8.5t-23.5 9t-30 9t-35 6t-40.5 2.5q-62 0 -106 -29q-66 -45 -66 -155v-25h338v-229h-338v-756h-286v756z" />
    <glyph glyph-name="fi" unicode="fi" horiz-adv-x="1329" 
d="M836 985v-229h-338v-756h-287v756h-211v229h211v27q0 92 22 164.5t84 134.5q112 112 320 112q79 0 145.5 -20.5t91.5 -36.5l-79 -199q-67 27 -125 27q-84 0 -128 -46t-44 -136v-27h338zM1233 1257q-2 -67 -46.5 -111t-115.5 -44q-70 0 -116 44.5t-46 110.5q0 65 46 110.5
t116 45.5t116 -45.5t46 -110.5zM1214 0h-286v985h286v-985z" />
    <glyph glyph-name="fl" unicode="fl" horiz-adv-x="1331" 
d="M1214 0h-286v1389h286v-1389zM836 985v-229h-338v-756h-287v756h-211v229h211v27q0 92 22 164.5t84 134.5q112 112 320 112q79 0 145.5 -20.5t91.5 -36.5l-79 -199q-67 27 -125 27q-84 0 -128 -46t-44 -136v-27h338z" />
    <glyph glyph-name="ffi" unicode="ffi" horiz-adv-x="2048" 
d="M928 756h-430v-756h-287v756h-211v229h211v27q0 92 22 164.5t84 134.5q112 112 320 112q79 0 145.5 -20.5t91.5 -36.5l-79 -199q-67 27 -125 27q-84 0 -128 -46t-44 -136v-27h430v27q0 92 22 164.5t84 134.5q112 112 320 112q79 0 145.5 -20.5t91.5 -36.5l-80 -199
q-67 27 -125 27q-84 0 -128 -46t-44 -136v-27h338v-229h-338v-756h-286v756zM1950 1257q-2 -67 -46.5 -111t-115.5 -44q-70 0 -116 44.5t-46 110.5q0 65 46 110.5t116 45.5t116 -45.5t46 -110.5zM1931 0h-286v985h286v-985z" />
    <glyph glyph-name="ffl" unicode="ffl" horiz-adv-x="2050" 
d="M928 756h-430v-756h-287v756h-211v229h211v27q0 92 22 164.5t84 134.5q112 112 320 112q79 0 145.5 -20.5t91.5 -36.5l-79 -199q-67 27 -125 27q-84 0 -128 -46t-44 -136v-27h430v27q0 92 22 164.5t84 134.5q112 112 320 112q79 0 145.5 -20.5t91.5 -36.5l-80 -199
q-67 27 -125 27q-84 0 -128 -46t-44 -136v-27h338v-229h-338v-756h-286v756zM1931 0h-286v1389h286v-1389z" />
    <glyph glyph-name="fj" unicode="fj" horiz-adv-x="1329" 
d="M836 985v-229h-338v-756h-287v756h-211v229h211v27q0 92 22 164.5t84 134.5q112 112 320 112q79 0 145.5 -20.5t91.5 -36.5l-79 -199q-67 27 -125 27q-84 0 -128 -46t-44 -136v-27h338zM1233 1257q0 -66 -45.5 -110.5t-116.5 -44.5q-70 0 -116 44.5t-46 110.5t45.5 111
t116.5 45q70 0 116 -45t46 -111zM1214 86q0 -55 -2 -91t-10 -84.5t-23 -84.5t-43.5 -74.5t-68.5 -70.5q-115 -91 -289 -91q-84 0 -153.5 19t-108.5 51l102 199q59 -33 136 -33q97 0 139 65q35 55 35 197v897h286v-899z" />
    <glyph glyph-name=".notdef" horiz-adv-x="1351" 
d="M117 -381h1151v1770h-1151v-1770zM420 -135v1278h545v-1278h-545z" />
    <glyph glyph-name=".notdef" horiz-adv-x="1351" 
d="M117 -381h1151v1770h-1151v-1770zM420 -135v1278h545v-1278h-545z" />
    <glyph glyph-name=".null" horiz-adv-x="0" 
 />
    <glyph glyph-name="nonmarkingreturn" horiz-adv-x="682" 
 />
    <glyph glyph-name="space" unicode=" " horiz-adv-x="546" 
 />
    <glyph glyph-name="exclam" unicode="!" horiz-adv-x="616" 
d="M457 1389l-6 -971h-287l-6 971h299zM477 145q0 -71 -48 -118t-122 -47q-73 0 -121.5 47t-48.5 118q0 72 48.5 120t121.5 48q75 0 122.5 -47.5t47.5 -120.5z" />
    <glyph glyph-name="quotedbl" unicode="&#x22;" horiz-adv-x="964" 
d="M428 1389l-61 -619h-189l-61 619h311zM848 1389l-62 -619h-188l-61 619h311z" />
    <glyph glyph-name="numbersign" unicode="#" 
d="M1182 930h-203l-51 -211h157v-197h-204l-66 -264h-213l66 264h-215l-66 -264h-213l66 264h-158v197h205l51 211h-160v196h205l63 263h213l-63 -263h215l66 263h213l-66 -263h158v-196zM766 930h-215l-51 -211h215z" />
    <glyph glyph-name="dollar" unicode="$" 
d="M1161 395q0 -174 -125 -286t-323 -136v-186h-181v186q-86 10 -162.5 36t-123 54.5t-85 62.5t-53 52t-23.5 31l-1 2l178 172q8 -11 24 -27.5t49.5 -45t85.5 -53.5t111 -36v342q-45 11 -80 21t-81 29t-79.5 40.5t-68.5 55.5t-57.5 74t-36.5 96t-14 122q0 170 116 282
t301 134v185h181v-185q85 -9 159.5 -34t120 -52.5t81.5 -60t49 -49t18 -25.5l-172 -166q-47 51 -86 77q-75 49 -168 64v-356q52 -12 88 -21.5t86.5 -28t85.5 -39t72.5 -52.5t60.5 -70t38 -92t15 -117zM532 852v319q-62 -13 -103.5 -55t-41.5 -112q0 -118 145 -152zM887 381
q0 61 -46.5 95.5t-125.5 55.5v-313q74 8 123 48t49 114z" />
    <glyph glyph-name="percent" unicode="%" horiz-adv-x="1812" 
d="M692 1020q0 -171 -82 -280t-229 -109t-228 109t-81 280t81 280t228 109t229 -109t82 -280zM506 1020q0 240 -123 240q-39 0 -65.5 -23.5t-38.5 -63t-16.5 -76t-4.5 -77.5q0 -240 121 -240q39 0 66 23.5t39.5 63t17 76t4.5 77.5zM1741 373q0 -171 -82 -280t-229 -109
t-228.5 109t-81.5 280t82.5 280t229.5 109t228 -109t81 -280zM1554 373q0 239 -122 239q-39 0 -65.5 -23.5t-38.5 -63t-16.5 -75.5t-4.5 -77q0 -240 123 -240q124 0 124 240zM1391 1348l-824 -1422l-151 88l823 1422z" />
    <glyph glyph-name="ampersand" unicode="&#x26;" horiz-adv-x="1372" 
d="M1372 0h-317l-113 127q-166 -158 -403 -158q-79 0 -150 15t-132.5 47t-106 78.5t-70 114.5t-25.5 151q0 77 23.5 143t68 117t95 89t116.5 73q-46 54 -70.5 87t-45.5 85.5t-21 107.5q0 157 116 250.5t290 93.5q98 0 181.5 -34.5t138 -108t54.5 -172.5q0 -53 -15 -101
t-38.5 -85t-59.5 -73t-69 -61t-76 -53l195 -219q18 29 31.5 88t15.5 94h246q-1 -109 -36.5 -217t-84.5 -172zM750 1096q0 53 -34.5 82.5t-88.5 29.5q-59 0 -98.5 -28.5t-39.5 -81.5q0 -30 9.5 -58t31 -56t32.5 -40t36 -37q6 4 28 17.5t34 22t31.5 26t30.5 33.5t19.5 40
t8.5 50zM784 309l-270 309q-84 -50 -129 -101.5t-45 -129.5q0 -80 57.5 -130t149.5 -50q135 0 237 102z" />
    <glyph glyph-name="quotesingle" unicode="'" horiz-adv-x="544" 
d="M428 1389l-61 -619h-189l-61 619h311z" />
    <glyph glyph-name="parenleft" unicode="(" horiz-adv-x="755" 
d="M750 -229l-191 -181q-221 171 -350 406t-129 510q0 272 129 509t350 410l191 -178q-175 -153 -278 -339.5t-103 -401.5q0 -405 381 -735z" />
    <glyph glyph-name="parenright" unicode=")" horiz-adv-x="755" 
d="M6 -229l191 -181q221 171 350 406t129 510q0 272 -129 509t-350 410l-191 -178q175 -153 278 -339.5t103 -401.5q0 -405 -381 -735z" />
    <glyph glyph-name="asterisk" unicode="*" horiz-adv-x="880" 
d="M831 1049l-233 -78l147 -195l-167 -119l-136 207l-137 -207l-172 119l148 195l-238 78l74 188l225 -86l-4 238h203l-4 -238l225 86z" />
    <glyph glyph-name="plus" unicode="+" 
d="M1174 391h-418v-411h-250v411h-418v250h418v412h250v-412h418v-250z" />
    <glyph glyph-name="comma" unicode="," horiz-adv-x="561" 
d="M494 287l-238 -561h-188l96 561h330z" />
    <glyph glyph-name="hyphen" unicode="-" horiz-adv-x="954" 
d="M825 391h-696v250h696v-250z" />
    <glyph glyph-name="period" unicode="." horiz-adv-x="565" 
d="M453 141q0 -71 -48 -118.5t-122 -47.5q-73 0 -121.5 47.5t-48.5 118.5q0 72 48.5 120t121.5 48q75 0 122.5 -47.5t47.5 -120.5z" />
    <glyph glyph-name="slash" unicode="/" horiz-adv-x="915" 
d="M823 1389l-590 -1846l-239 76l590 1845z" />
    <glyph glyph-name="zero" unicode="0" 
d="M1190 694q0 -212 -62.5 -374t-190.5 -256.5t-306 -94.5q-108 0 -198.5 35t-157 99t-112.5 154t-68.5 200.5t-22.5 236.5q0 213 62.5 375t190.5 257t306 95q135 0 242 -54.5t176 -152t105 -229.5t36 -291zM889 694q0 44 -2 85t-9 91t-18 91.5t-31 82.5t-46 69t-64.5 45.5
t-85.5 17.5q-55 0 -98 -22.5t-70.5 -62.5t-46.5 -86.5t-28.5 -104.5t-13 -106t-3.5 -100q0 -477 256 -477q65 0 114 32.5t76 81t43.5 116.5t21.5 125.5t5 121.5z" />
    <glyph glyph-name="one" unicode="1" 
d="M1190 0h-1004v248h357v844l-293 -185l-137 207l440 275h283v-1141h354v-248z" />
    <glyph glyph-name="two" unicode="2" 
d="M1126 995q0 -73 -22 -136t-59.5 -110t-86 -88.5t-102.5 -74t-108.5 -63t-104.5 -60.5t-89.5 -60.5t-65 -69t-29.5 -81.5h659v-252h-973q0 77 1.5 118.5t9.5 105t24.5 106.5t48 95t78.5 99q55 55 134.5 107t145 88t126 76t95 89t34.5 109q0 85 -62.5 135t-150.5 50
q-191 0 -334 -164l-172 164q12 17 28 36t63.5 59.5t101 70t139.5 53.5t180 24q215 0 353 -116t138 -310z" />
    <glyph glyph-name="three" unicode="3" 
d="M1120 375q0 -181 -149 -293.5t-379 -112.5q-106 0 -199 24t-155 62t-99 70t-61 63l170 166q7 -10 29 -29t62.5 -47t102 -47.5t127.5 -19.5q120 0 189 47.5t69 140.5q0 78 -55 123q-76 64 -268 64h-80v241h55q44 0 72.5 1.5t70.5 6.5t69 16.5t53.5 30.5t39.5 50.5t13 73.5
q0 74 -56.5 124t-150.5 50q-177 0 -309 -142l-168 166q192 217 489 217q130 0 237.5 -46t173.5 -136.5t66 -208.5q0 -73 -24 -134t-61 -98.5t-69 -58.5t-61 -32q24 -6 52 -18t66 -38.5t67.5 -61t50 -91t20.5 -123.5z" />
    <glyph glyph-name="four" unicode="4" 
d="M1200 279h-209v-279h-284v279h-646v233l623 877h307v-871h209v-239zM707 518v512l-367 -512h367z" />
    <glyph glyph-name="five" unicode="5" 
d="M1143 467q0 -224 -150 -361t-409 -137q-84 0 -160.5 16.5t-126 38.5t-91 49.5t-59 44t-26.5 27.5l155 185q138 -119 302 -119q123 0 198.5 63.5t75.5 184.5q0 109 -66 164t-165 55q-50 0 -92 -13t-67 -32t-42.5 -37.5t-23.5 -31.5l-7 -13l-229 88l80 750h813v-244h-600
l-35 -322q100 86 280 86q92 0 172 -28.5t141 -82.5t96.5 -139.5t35.5 -191.5z" />
    <glyph glyph-name="six" unicode="6" 
d="M1186 473q0 -140 -63 -254t-184 -182t-280 -68q-127 0 -226.5 43t-161 111.5t-101 162.5t-55 187t-15.5 195q0 98 14 192.5t54.5 199t103 182t169.5 128.5t245 51q93 0 175.5 -20.5t131 -45.5t91 -60.5t54.5 -50.5t23 -30l-172 -163q-12 15 -30.5 32t-53.5 42t-87.5 41
t-110.5 16q-73 0 -132 -28t-94.5 -71t-59.5 -98t-33 -105.5t-9 -97.5v-26q18 23 46 47.5t72 52.5t107 46t131 18q197 0 324 -119t127 -328zM420 440q0 -106 65.5 -170.5t173.5 -64.5q106 0 171 65t65 172q0 106 -64 171t-169 65q-108 0 -175 -65.5t-67 -172.5z" />
    <glyph glyph-name="seven" unicode="7" 
d="M1151 1147l-569 -1147h-330l584 1139h-723v250h1038v-242z" />
    <glyph glyph-name="eight" unicode="8" 
d="M1178 381q0 -130 -74 -225.5t-196 -142t-275 -46.5t-275.5 46t-197 141t-74.5 225q0 60 20 113.5t49.5 89.5t66 64.5t66.5 43t54 19.5q-29 11 -61 31.5t-69 57.5t-61 96.5t-24 131.5q0 123 68 214t181 136t255 45t255 -43.5t182 -134t69 -215.5q0 -71 -23.5 -131t-60 -97
t-69 -59t-62.5 -32q22 -5 51 -18t66 -40t67 -62t51 -90t21 -118zM864 1004q0 94 -67.5 145t-165.5 51q-97 0 -164.5 -50.5t-67.5 -145.5q0 -91 67.5 -140t164.5 -49q98 0 165.5 48.5t67.5 140.5zM881 389q0 99 -73 154t-177 55q-101 0 -175.5 -55t-74.5 -154q0 -95 74 -148
t176 -53t176 53t74 148z" />
    <glyph glyph-name="nine" unicode="9" 
d="M76 918q0 104 37 196t103.5 160t166.5 107.5t219 39.5q92 0 169.5 -22t134 -60.5t101 -92.5t73 -115t47.5 -131.5t26.5 -138t7.5 -138.5q0 -68 -7 -135t-25.5 -143t-46.5 -143t-74.5 -129t-105.5 -106.5t-143 -71t-184 -26.5q-93 0 -175.5 20.5t-131 45.5t-91 60.5
t-54.5 50.5t-23 30l172 164q12 -15 30.5 -32t54 -42t88 -41t110.5 -16q73 0 132 28t94.5 70.5t59.5 97.5t33 105.5t9 97.5v27q-18 -23 -46.5 -48t-72.5 -52.5t-107 -45.5t-131 -18q-197 0 -323.5 119t-126.5 328zM842 950q0 106 -66 171t-174 65q-106 0 -170.5 -65.5
t-64.5 -172.5q0 -106 63.5 -170.5t169.5 -64.5q108 0 175 65t67 172z" />
    <glyph glyph-name="colon" unicode=":" horiz-adv-x="565" 
d="M453 141q0 -71 -48 -118.5t-122 -47.5q-73 0 -121.5 47.5t-48.5 118.5q0 72 48.5 120t121.5 48q75 0 122.5 -47.5t47.5 -120.5zM453 840q0 -71 -48 -118.5t-122 -47.5q-73 0 -121.5 47.5t-48.5 118.5q0 72 48.5 120t121.5 48q75 0 122.5 -48t47.5 -120z" />
    <glyph glyph-name="semicolon" unicode=";" horiz-adv-x="598" 
d="M494 842q-2 -72 -50 -120t-125 -48q-76 0 -126 48.5t-50 119.5t50 119.5t126 48.5t125.5 -48.5t49.5 -119.5zM489 287l-237 -561h-189l97 561h329z" />
    <glyph glyph-name="less" unicode="&#x3c;" 
d="M1174 -4l-1086 393v254l1086 397v-264l-762 -260l762 -256v-264z" />
    <glyph glyph-name="equal" unicode="=" 
d="M1174 606h-1086v250h1086v-250zM1174 176h-1086v250h1086v-250z" />
    <glyph glyph-name="greater" unicode="&#x3e;" 
d="M88 -4l1086 393v254l-1086 397v-264l762 -260l-762 -256v-264z" />
    <glyph glyph-name="question" unicode="?" horiz-adv-x="1081" 
d="M1026 1024q0 -169 -176 -303q-34 -25 -79 -56t-61 -43t-35.5 -33.5t-24.5 -43.5t-5 -58v-69h-274v59q0 136 39 205t172 156q35 22 54.5 36.5t42.5 38t33.5 51.5t10.5 62q0 64 -45 102.5t-137 38.5q-158 0 -291 -166l-191 162q193 254 498 254q206 0 337.5 -106
t131.5 -287zM676 145q0 -71 -48 -118t-122 -47q-73 0 -121.5 47t-48.5 118q0 72 48.5 120t121.5 48q74 0 122 -47.5t48 -120.5z" />
    <glyph glyph-name="at" unicode="@" horiz-adv-x="1978" 
d="M1874 764q0 -268 -148 -449q-60 -75 -148 -121.5t-192 -46.5q-84 0 -139.5 42t-66.5 112q-30 -35 -68.5 -65t-112 -58t-155.5 -28q-86 0 -158 34.5t-120 112t-48 186.5q0 136 60.5 256.5t178.5 198.5t269 78q130 0 215 -96l16 65h220l-111 -489q-14 -63 -14 -90
q0 -60 51 -60q65 0 127 62q125 125 125 344q0 217 -160.5 344t-417.5 127q-165 0 -305 -53t-235.5 -145.5t-149 -219.5t-53.5 -273q0 -263 181 -432.5t484 -169.5q368 0 611 199l135 -139q-296 -260 -750 -260q-196 0 -362.5 60.5t-282.5 166.5t-181 255.5t-65 322.5
q0 184 69.5 346.5t193 282t303 188.5t389.5 69q171 0 319.5 -44.5t258.5 -126.5t173.5 -207.5t63.5 -278.5zM1169 666q0 78 -41 116.5t-102 38.5q-78 0 -141.5 -51t-96 -125t-32.5 -149q0 -73 37.5 -109.5t99.5 -36.5q120 0 198 97t78 219z" />
    <glyph glyph-name="A" unicode="A" horiz-adv-x="1476" 
d="M1464 0h-323l-111 268h-594l-110 -268h-314l570 1389h315zM942 516l-209 551l-209 -551h418z" />
    <glyph glyph-name="B" unicode="B" horiz-adv-x="1402" 
d="M1323 406q0 -167 -92 -265q-80 -85 -215.5 -113t-337.5 -28h-537v1389h539q77 0 116 -1t104 -6.5t105 -16.5t85.5 -33t78.5 -54q97 -94 97 -227q0 -50 -11 -94.5t-26.5 -75.5t-39 -57.5t-43 -42.5t-43.5 -29t-35.5 -18t-23.5 -9q29 -6 59 -16.5t71.5 -35.5t72.5 -58
t53.5 -88t22.5 -121zM961 987q0 32 -8.5 56.5t-21 40.5t-35 27.5t-41 17t-49 8.5t-49.5 3.5t-52 0.5h-263v-316h250q53 0 87.5 2.5t72 11.5t59.5 26t36 47.5t14 74.5zM1012 422q0 26 -6 47t-14 36.5t-24.5 27.5t-30 20t-38 13t-41 8t-46.5 4.5t-46.5 1.5h-48.5h-275v-328
h273q42 0 65 0.5t59.5 4t57 9.5t45.5 18.5t38.5 30.5t22.5 45t9 62z" />
    <glyph glyph-name="C" unicode="C" horiz-adv-x="1447" 
d="M1395 205q-7 -9 -26 -28.5t-72 -58t-116.5 -70.5t-163 -56.5t-206.5 -24.5q-175 0 -315.5 56.5t-230.5 155t-137.5 230t-47.5 283.5q0 150 48.5 281.5t139.5 231.5t232 158t315 58q103 0 195.5 -22.5t150 -50t108.5 -67t69 -59.5t34 -40l-182 -176q-8 10 -20 22t-47 39
t-73.5 47.5t-99.5 36.5t-125 16q-106 0 -190.5 -38.5t-137 -104.5t-79.5 -149.5t-27 -178.5q0 -206 119.5 -339.5t314.5 -133.5q67 0 131 15.5t105.5 34.5t82 47t54 40.5t27.5 26.5z" />
    <glyph glyph-name="D" unicode="D" horiz-adv-x="1511" 
d="M1432 700q0 -159 -55 -293t-160 -227q-48 -43 -102.5 -75.5t-114 -51.5t-108 -30.5t-112.5 -16t-98.5 -5.5t-93.5 -1h-447v1389h447q83 0 138 -2t130.5 -11t131.5 -25.5t117.5 -47.5t111.5 -76q106 -94 160.5 -229.5t54.5 -297.5zM1120 700q0 221 -123 344
q-59 59 -138.5 77t-203.5 18h-211v-885h179q67 0 103 2t91 11t98.5 31.5t81.5 59.5q123 117 123 342z" />
    <glyph glyph-name="E" unicode="E" horiz-adv-x="1277" 
d="M1198 0h-1057v1389h1028v-254h-725v-310h674v-250h-674v-319h754v-256z" />
    <glyph glyph-name="F" unicode="F" horiz-adv-x="1181" 
d="M1145 1135h-701v-330h648v-250h-648v-555h-303v1389h1004v-254z" />
    <glyph glyph-name="G" unicode="G" horiz-adv-x="1548" 
d="M1440 0h-232l-4 143q-7 -9 -23 -25t-55.5 -43.5t-87 -50.5t-121 -40t-153.5 -17q-160 0 -291 57t-216 156t-131 231t-46 283q0 149 49 280.5t140 231t232.5 157.5t315.5 58q103 0 196.5 -22.5t152 -51t109 -67t69.5 -58.5t32 -38l-182 -176q-14 16 -34 33.5t-67.5 50.5
t-118 54t-149.5 21q-106 0 -190 -38.5t-136.5 -104.5t-80 -149.5t-27.5 -178.5q0 -133 48 -239.5t146 -171t232 -64.5q165 0 266 90.5t103 216.5v17h-393v237h647v-782z" />
    <glyph glyph-name="H" unicode="H" horiz-adv-x="1501" 
d="M1360 0h-303v575h-613v-575h-303v1389h303v-560h613v560h303v-1389z" />
    <glyph glyph-name="I" unicode="I" horiz-adv-x="585" 
d="M444 0h-303v1389h303v-1389z" />
    <glyph glyph-name="J" unicode="J" horiz-adv-x="1093" 
d="M965 504q0 -50 -1 -80.5t-7.5 -79t-18 -83t-35 -75.5t-57.5 -75q-68 -68 -173 -105t-227 -37q-79 0 -150 18.5t-117 43t-86 58t-58 54.5t-31 41l189 172q107 -135 249 -135q103 0 158 49q28 25 43 68t17 74.5t2 83.5v893h303v-885z" />
    <glyph glyph-name="K" unicode="K" horiz-adv-x="1390" 
d="M1391 0h-381l-566 610v-610h-303v1389h303v-582l566 582h360l-659 -670z" />
    <glyph glyph-name="L" unicode="L" horiz-adv-x="1148" 
d="M1137 0h-996v1389h303v-1133h693v-256z" />
    <glyph glyph-name="M" unicode="M" horiz-adv-x="1839" 
d="M1698 0h-281v1071l-364 -1071h-271l-364 1071v-1071h-277v1389h432l349 -1016l350 1016h426v-1389z" />
    <glyph glyph-name="N" unicode="N" horiz-adv-x="1501" 
d="M1360 0h-301l-627 909v-909h-291v1389h305l623 -906v906h291v-1389z" />
    <glyph glyph-name="O" unicode="O" horiz-adv-x="1622" 
d="M1542 694q0 -109 -28 -212.5t-87.5 -197t-144 -164t-206 -112t-265.5 -41.5t-265.5 41.5t-206 112t-144 164t-87.5 197t-28 212.5t28 212.5t87.5 197t144 164t206 112t265.5 41.5t265.5 -41.5t206 -112t144 -164t87.5 -197t28 -212.5zM1229 694q0 95 -26 179t-76 151
t-131.5 106t-184.5 39t-184.5 -39t-132 -106t-77 -151t-26.5 -179q0 -96 26.5 -180t77 -150t132 -104.5t184.5 -38.5t184.5 38.5t131.5 104.5t76 150t26 180z" />
    <glyph glyph-name="P" unicode="P" horiz-adv-x="1306" 
d="M1270 950q0 -185 -109 -297q-149 -157 -471 -157h-246v-496h-303v1389h482q90 0 144.5 -2.5t121.5 -12t119.5 -31.5t97.5 -57q84 -64 124 -152.5t40 -183.5zM967 946q0 53 -20.5 91t-50.5 58.5t-78 32t-88 14.5t-95 3h-191v-402h215q54 0 97 5t83.5 18.5t67.5 35.5
t43.5 58.5t16.5 85.5z" />
    <glyph glyph-name="Q" unicode="Q" horiz-adv-x="1622" 
d="M1542 694q0 -154 -55 -289.5t-137 -222.5l182 -180l-174 -168l-205 205q-148 -72 -342 -72q-144 0 -265.5 41.5t-206 112t-144 164t-87.5 197t-28 212.5t28 212.5t87.5 197t144 164t206 112t265.5 41.5t265.5 -41.5t206 -112t144 -164t87.5 -197t28 -212.5zM1229 694
q0 95 -26 179t-76 151t-131.5 106t-184.5 39t-184.5 -39t-132 -106t-77 -151t-26.5 -179q0 -96 26.5 -180t77 -150.5t132 -105.5t184.5 -39q85 0 143 23q-121 121 -182 180l174 170l199 -201q11 13 27 43t36.5 104.5t20.5 155.5z" />
    <glyph glyph-name="R" unicode="R" horiz-adv-x="1388" 
d="M1362 0h-350l-373 524h-195v-524h-303v1389h547q79 0 130 -3t118.5 -15t122.5 -40.5t100 -73.5q121 -121 121 -294q0 -89 -34.5 -166t-94.5 -133q-79 -71 -195 -105zM973 961q0 73 -45 118q-22 22 -50 35.5t-65 18.5t-63 6.5t-72 1.5h-234v-369h207q41 0 67 0.5t63.5 4.5
t61.5 11.5t51 21t42.5 33.5t26 50t10.5 68z" />
    <glyph glyph-name="S" unicode="S" horiz-adv-x="1366" 
d="M1262 403q0 -204 -167.5 -320t-435.5 -116q-112 0 -213.5 21t-164 47t-118 62t-74.5 53t-34 34l168 203q180 -168 436 -168q138 0 216.5 42.5t78.5 127.5q0 45 -29.5 76.5t-79 50.5t-114 32.5t-136 27.5t-143 32t-136 49t-114 74.5t-79 113.5t-29.5 161
q0 182 152.5 298.5t406.5 116.5q111 0 210 -19.5t159.5 -44.5t114 -60.5t73 -54t37.5 -38.5l-174 -188q-12 12 -23.5 22.5t-53.5 39t-85.5 47.5t-114 35t-145.5 16q-120 0 -186 -41t-66 -115q0 -45 29.5 -75.5t79.5 -48t114.5 -29.5t136.5 -25t143.5 -30t136 -48.5
t114.5 -76t79.5 -117t29.5 -167.5z" />
    <glyph glyph-name="T" unicode="T" horiz-adv-x="1243" 
d="M1233 1135h-459v-1135h-303v1135h-459v254h1221v-254z" />
    <glyph glyph-name="U" unicode="U" horiz-adv-x="1488" 
d="M1360 584q0 -144 -33 -251t-123 -196q-86 -85 -206 -126.5t-255 -41.5t-255.5 43t-208.5 131t-119 195.5t-31 247.5v803h303v-762q0 -54 1.5 -84.5t8.5 -77.5t25 -83.5t47 -66.5q87 -90 231 -90q147 0 230 86q52 54 67 127t15 183v768h303v-805z" />
    <glyph glyph-name="V" unicode="V" horiz-adv-x="1435" 
d="M1425 1389l-551 -1389h-311l-551 1389h334l377 -1031l385 1031h317z" />
    <glyph glyph-name="W" unicode="W" horiz-adv-x="2107" 
d="M2083 1389l-422 -1389h-303l-301 987l-299 -987h-307l-426 1389h319l283 -971l291 971h278l299 -971l277 971h311z" />
    <glyph glyph-name="X" unicode="X" horiz-adv-x="1345" 
d="M1327 0h-352l-305 473l-312 -473h-340l490 723l-449 666h349l272 -431l283 431h321l-442 -664z" />
    <glyph glyph-name="Y" unicode="Y" horiz-adv-x="1329" 
d="M1317 1389l-502 -818v-571h-303v571l-500 818h344l312 -547l319 547h330z" />
    <glyph glyph-name="Z" unicode="Z" horiz-adv-x="1335" 
d="M1255 0h-1175v244l762 891h-733v254h1118v-242l-760 -891h788v-256z" />
    <glyph glyph-name="bracketleft" unicode="[" horiz-adv-x="681" 
d="M651 -381h-534v1770h534v-246h-231v-1278h231v-246z" />
    <glyph glyph-name="backslash" unicode="\" horiz-adv-x="819" 
d="M-4 1389l590 -1846l239 76l-589 1845z" />
    <glyph glyph-name="bracketright" unicode="]" horiz-adv-x="681" 
d="M31 -381h534v1770h-534v-246h231v-1278h-231v-246z" />
    <glyph glyph-name="asciicircum" unicode="^" 
d="M1169 338h-272l-268 735l-264 -735h-273l408 1051h260z" />
    <glyph glyph-name="underscore" unicode="_" horiz-adv-x="1175" 
d="M1176 -381h-1176v250h1176v-250z" />
    <glyph glyph-name="grave" unicode="`" horiz-adv-x="708" 
d="M584 1112h-226l-254 277h291z" />
    <glyph glyph-name="a" unicode="a" horiz-adv-x="1097" 
d="M995 0h-256l-6 106q-17 -19 -40 -37.5t-62 -42t-95 -37.5t-120 -14q-93 0 -169.5 32t-127.5 104.5t-51 175.5q0 126 79 205q71 71 163.5 97.5t205.5 26.5h203v21q0 166 -197 166q-52 0 -103 -15.5t-88 -39t-56.5 -38.5t-30.5 -26l-135 166q14 15 28.5 29t55.5 42.5
t85.5 48.5t114.5 36t146 16q232 0 344 -115q71 -71 91.5 -160t20.5 -239v-508zM719 383v51h-148q-45 0 -78 -4t-71 -16.5t-59 -42t-21 -74.5q0 -58 40 -89.5t105 -31.5q106 0 170 57q62 56 62 150z" />
    <glyph glyph-name="b" unicode="b" horiz-adv-x="1269" 
d="M1202 492q0 -98 -31 -189.5t-90 -166.5t-153.5 -120t-210.5 -45q-61 0 -116.5 14t-90 32t-64 41.5t-40.5 35.5t-17 21l-8 -115h-264v1389h286v-515q129 148 342 148q64 0 126.5 -18t123 -59t106 -100.5t73.5 -150.5t28 -202zM907 492q0 133 -68 216t-186 83
q-114 0 -185 -84.5t-71 -214.5q0 -129 70 -211t186 -82t185 82t69 211z" />
    <glyph glyph-name="c" unicode="c" horiz-adv-x="1105" 
d="M1059 178q-6 -10 -19.5 -27.5t-52 -51.5t-86 -61t-125 -48t-164.5 -21q-132 0 -237 42t-171.5 115t-101 167.5t-34.5 202.5q0 104 34 196.5t100 167t173 118.5t241 44q83 0 158 -19.5t121.5 -44.5t84.5 -57t52.5 -49t20.5 -27l-168 -151q-117 117 -256 117
q-127 0 -197 -86.5t-70 -210.5q0 -125 69 -209t196 -84q158 0 264 125z" />
    <glyph glyph-name="d" unicode="d" horiz-adv-x="1269" 
d="M1153 0h-266l-6 125q-5 -8 -16.5 -21t-43 -38t-69 -44.5t-97.5 -35t-127 -15.5q-64 0 -125.5 16t-123 55.5t-107.5 98.5t-75 151.5t-29 207.5q0 77 18.5 151t58.5 141.5t96 118.5t136 81t174 30q198 0 315 -137v504h287v-1389zM872 498q0 130 -70 211.5t-186 81.5
q-117 0 -185.5 -83t-68.5 -210q0 -136 68 -217.5t184 -81.5q115 0 186.5 82.5t71.5 216.5z" />
    <glyph glyph-name="e" unicode="e" horiz-adv-x="1146" 
d="M1081 408h-721q0 -36 13.5 -72t41 -70.5t79 -56t118.5 -21.5q166 0 287 121l154 -147q-171 -193 -451 -193q-136 0 -241.5 43.5t-167.5 118t-93.5 166t-31.5 195.5q0 80 19.5 155t61.5 143.5t102.5 120t149 81.5t195.5 30q209 0 336 -127q49 -49 80 -105.5t45.5 -122.5
t19 -123t4.5 -136zM803 600q0 17 -4.5 39.5t-19 54.5t-36.5 57.5t-63 43.5t-94 18q-51 0 -92.5 -18.5t-65 -44.5t-39.5 -57.5t-21.5 -54.5t-5.5 -38h441z" />
    <glyph glyph-name="f" unicode="f" horiz-adv-x="894" 
d="M909 1352l-80 -199l-12 6t-18 8.5t-23.5 9t-30 9t-35 6t-40.5 2.5q-64 0 -107 -29q-65 -45 -65 -155v-25h338v-229h-338v-756h-287v756h-211v229h211v27q0 91 23 165t85 136q110 110 320 110q69 0 136 -17.5t93 -30.5t41 -23z" />
    <glyph glyph-name="g" unicode="g" horiz-adv-x="1245" 
d="M1130 141q0 -57 -1 -90.5t-7 -82t-17.5 -83t-34 -74t-54.5 -73.5q-66 -70 -175.5 -109t-252.5 -39q-91 0 -171.5 16.5t-129 37t-91 50t-55.5 42.5t-26 28l153 175q119 -119 297 -119q164 0 232 86q47 56 47 168v84q-134 -144 -336 -144q-61 0 -120.5 16.5t-118 54.5
t-103 94.5t-71.5 144t-27 194.5q0 72 17.5 143t55.5 136.5t92 115t132 79.5t170 30q55 0 106 -14t84 -31.5t63.5 -43t43 -40t24.5 -29.5l4 121h270v-844zM362 514q0 -126 64 -204.5t174 -78.5q107 0 177.5 79t70.5 206q0 125 -67 205t-175 80q-117 0 -180.5 -83t-63.5 -204z
" />
    <glyph glyph-name="h" unicode="h" horiz-adv-x="1183" 
d="M117 0v1389h286v-500q121 133 312 133q83 0 148 -23.5t122 -80.5t75.5 -133t18.5 -179v-606h-286v578q0 92 -39 146t-142 54q-92 0 -149 -57q-28 -28 -42 -73.5t-16 -81.5t-2 -101v-465h-286z" />
    <glyph glyph-name="i" unicode="i" horiz-adv-x="516" 
d="M420 1257q-2 -67 -46.5 -111t-115.5 -44q-70 0 -116 44.5t-46 110.5q0 65 46 110.5t116 45.5t116 -45.5t46 -110.5zM401 0h-286v985h286v-985z" />
    <glyph glyph-name="j" unicode="j" horiz-adv-x="567" 
d="M463 1257q0 -66 -45.5 -110.5t-116.5 -44.5q-70 0 -116 44.5t-46 110.5t45.5 111t116.5 45q70 0 116 -45t46 -111zM444 86q0 -55 -2 -91t-10 -84.5t-23 -84.5t-43.5 -74.5t-68.5 -70.5q-115 -91 -289 -91q-84 0 -153.5 19t-108.5 51l102 199q59 -33 136 -33q97 0 139 65
q35 55 35 197v897h286v-899z" />
    <glyph glyph-name="k" unicode="k" horiz-adv-x="1140" 
d="M1143 0h-352l-388 451v-451h-286v1389h286v-822l388 418h339l-450 -467z" />
    <glyph glyph-name="l" unicode="l" horiz-adv-x="520" 
d="M403 0h-286v1389h286v-1389z" />
    <glyph glyph-name="m" unicode="m" horiz-adv-x="1712" 
d="M1608 0h-287v561q0 50 -1.5 76t-12.5 59.5t-33 51.5q-38 30 -98 30q-71 0 -117 -43q-25 -23 -37.5 -58.5t-14 -60t-1.5 -67.5v-549h-287v557q0 53 -1.5 80t-13 60t-34.5 51q-33 30 -99 30q-70 0 -116 -43q-24 -23 -36 -58t-14 -60.5t-2 -67.5v-549h-286v985h270l4 -111
q111 148 291 148q56 0 104 -15t76.5 -33.5t51 -44t30 -38.5t12.5 -23q9 13 16.5 22.5t37.5 37t62 45.5t87 33.5t115 15.5q146 0 239 -96q59 -63 77 -146t18 -198v-582z" />
    <glyph glyph-name="n" unicode="n" horiz-adv-x="1183" 
d="M1079 0h-286v557q0 69 -11 113t-47 71q-43 37 -123 37q-92 0 -149 -57q-28 -28 -42 -73.5t-16 -81.5t-2 -101v-465h-286v985h270q0 -7 0.5 -19.5t1.5 -38t1.5 -42t0.5 -15.5q6 8 16 19.5t41 37t65.5 45t89.5 35t114 15.5q164 0 268 -104q56 -56 75 -133.5t19 -178.5v-606
z" />
    <glyph glyph-name="o" unicode="o" horiz-adv-x="1236" 
d="M1169 496q0 -77 -19.5 -151t-63 -142.5t-106 -120t-156 -82.5t-206.5 -31t-206 31t-156 82.5t-106 120t-62.5 142.5t-19.5 151t19.5 150t62.5 142t105.5 120.5t156 82.5t206.5 31t206.5 -31t156 -82.5t106 -120t63 -142t19.5 -150.5zM874 498q0 132 -67 213.5t-189 81.5
q-119 0 -184 -78q-72 -85 -72 -217q0 -136 74 -219q68 -78 182 -78q117 0 185 78q71 80 71 219z" />
    <glyph glyph-name="p" unicode="p" horiz-adv-x="1269" 
d="M1202 489q0 -97 -31 -188.5t-90 -165.5t-153.5 -119t-210.5 -45q-208 0 -314 129v-481h-286v1366h270l4 -129q38 46 71 72q120 94 283 94q81 0 158.5 -30t146 -91t110.5 -167.5t42 -244.5zM907 489q0 135 -68 218.5t-186 83.5q-115 0 -185.5 -84.5t-70.5 -214.5
q0 -129 69.5 -211t186.5 -82t185.5 82t68.5 208z" />
    <glyph glyph-name="q" unicode="q" horiz-adv-x="1269" 
d="M1153 -381h-287v487q-9 -10 -19.5 -20.5t-42.5 -33.5t-67.5 -39t-92.5 -29t-120 -13q-66 0 -129 18t-122.5 58.5t-104.5 99.5t-72.5 149t-27.5 200q0 97 30.5 189t88.5 168t152.5 122.5t211.5 46.5q61 0 116 -15t89 -34t64 -45.5t40 -38.5t19 -25l4 121h270v-1366z
M872 494q0 129 -70.5 213t-185.5 84q-117 0 -185.5 -84.5t-68.5 -212.5q0 -132 67.5 -213.5t184.5 -81.5q116 0 187 82.5t71 212.5z" />
    <glyph glyph-name="r" unicode="r" horiz-adv-x="790" 
d="M784 743q-40 5 -67 5q-135 0 -211 -66q-65 -57 -84 -124t-19 -161v-397h-286v985h270l4 -170q53 89 152 148t202 59q27 0 39 -2v-277z" />
    <glyph glyph-name="s" unicode="s" horiz-adv-x="1036" 
d="M971 303q0 -106 -62.5 -184t-166.5 -116t-236 -38q-287 0 -461 156l129 178q152 -119 332 -119q96 0 138 31.5t42 69.5q0 32 -26.5 53t-70 30t-98.5 19t-113 18.5t-113 30t-98.5 52t-70 85.5t-26.5 129q0 146 120.5 235t317.5 89q84 0 158 -15t117 -32t85 -46.5t52.5 -40
t29.5 -30.5l-137 -156q-11 11 -29 24.5t-54.5 34.5t-91.5 34.5t-116 13.5q-81 0 -125.5 -26.5t-44.5 -73.5q0 -27 21 -45t57 -27.5t82.5 -16t98 -14.5t102.5 -19t97.5 -32.5t82.5 -52.5t57 -82t21 -117z" />
    <glyph glyph-name="t" unicode="t" horiz-adv-x="905" 
d="M877 31q-16 -9 -42.5 -20.5t-95 -26.5t-141.5 -15q-188 0 -287 78q-64 50 -91 122t-27 183v404h-211v229h211v299h286v-299h344v-229h-344v-322q0 -40 1 -62t9 -53.5t23 -52.5q45 -57 150 -57q66 0 139 29z" />
    <glyph glyph-name="u" unicode="u" horiz-adv-x="1181" 
d="M1065 0h-264l-8 123q-4 -7 -14.5 -20t-39 -37.5t-62.5 -44.5t-89 -35t-115 -15q-169 0 -264 95q-65 65 -85 147t-20 205v567h287v-555q0 -123 47 -170q50 -47 133 -47q91 0 148 57q31 31 42.5 70.5t14.5 101.5q2 29 2 93v450h287v-985z" />
    <glyph glyph-name="v" unicode="v" horiz-adv-x="1136" 
d="M1130 985l-423 -985h-275l-428 985h315l256 -639l252 639h303z" />
    <glyph glyph-name="w" unicode="w" horiz-adv-x="1697" 
d="M1673 985l-336 -985h-278l-211 621l-211 -621h-277l-337 985h299l196 -631l217 631h230l221 -631l200 631h287z" />
    <glyph glyph-name="x" unicode="x" horiz-adv-x="1130" 
d="M1112 0h-326l-231 315l-227 -315h-310l385 498l-372 487h319l219 -299l224 299h307l-377 -483z" />
    <glyph glyph-name="y" unicode="y" horiz-adv-x="1118" 
d="M1116 985l-442 -1071q-21 -51 -41.5 -90t-56.5 -85.5t-78 -77t-105.5 -51t-138.5 -20.5q-131 0 -209 58l84 200q44 -22 98 -22q58 0 93.5 23.5t62.5 70.5q9 15 41 90l-420 975h305l256 -653l256 653h295z" />
    <glyph glyph-name="z" unicode="z" horiz-adv-x="1028" 
d="M973 0h-918v221l537 535h-516v229h876v-219l-530 -533h551v-233z" />
    <glyph glyph-name="braceleft" unicode="{" horiz-adv-x="700" 
d="M-6 643q78 0 121 43q35 33 35 111v264q0 61 10 100q23 109 96 166q54 37 124.5 49.5t170.5 12.5h119v-246h-76q-75 0 -111 -33q-30 -30 -30 -149v-193q0 -132 -39 -182q-43 -57 -144 -70q104 -14 144 -67q39 -48 39 -158v-43q0 -172 2 -252q3 -73 28 -98q23 -23 53 -28
t99 -5h35v-246h-119q-100 0 -170 12t-125 50q-30 23 -47 49q-44 55 -57 147q-2 23 -2 72v289q0 36 -6.5 61t-28.5 47q-43 43 -121 43v254z" />
    <glyph glyph-name="bar" unicode="|" horiz-adv-x="585" 
d="M444 -381h-303v2019h303v-2019z" />
    <glyph glyph-name="braceright" unicode="}" horiz-adv-x="700" 
d="M707 643q-78 0 -121 43q-35 33 -35 111v264q0 61 -10 100q-23 108 -97 166q-54 37 -124 49.5t-170 12.5h-119v-246h75q75 0 111 -33q31 -31 31 -149v-193q0 -132 39 -182q43 -57 143 -70q-103 -13 -143 -67q-39 -48 -39 -158v-43q0 -172 -2 -252q-3 -72 -29 -98
q-23 -23 -53 -28t-98 -5h-35v-246h119q100 0 169.5 12t124.5 50q32 25 48 49q44 55 57 147q2 23 2 72v289q0 36 6.5 61t28.5 47q43 43 121 43v254z" />
    <glyph glyph-name="asciitilde" unicode="~" 
d="M1176 561q-139 -219 -338 -219q-73 0 -140 21t-124 42t-105 21q-95 0 -182 -111l-199 150q141 223 336 223q68 0 132.5 -21t122 -42t109.5 -21q54 0 98.5 25t88.5 82z" />
    <glyph glyph-name="exclamdown" unicode="&#xa1;" horiz-adv-x="616" 
d="M457 -381l-6 971h-287l-6 -971h299zM477 862q0 71 -48 118.5t-122 47.5q-73 0 -121.5 -47.5t-48.5 -118.5q0 -72 48.5 -120t121.5 -48q75 0 122.5 48t47.5 120z" />
    <glyph glyph-name="cent" unicode="&#xa2;" 
d="M1153 178l-1 -2q-68 -96 -188 -154q-93 -45 -202 -55v-180h-172v182q-116 10 -209 57.5t-151.5 120.5t-89.5 163t-31 190q0 133 52.5 244t163.5 188t265 94v180h172v-178q71 -5 137 -27.5t106 -47.5t76.5 -58t47.5 -46.5t20 -25.5q-122 -98 -180 -147l-8 9q-8 9 -16 16.5
t-21 19t-29.5 22t-36 20.5t-44.5 18t-52 12v-590q45 6 85 24t67 40.5t39.5 36t21.5 24.5zM590 209v577q-91 -24 -142 -102t-51 -186t50.5 -185.5t142.5 -103.5z" />
    <glyph glyph-name="sterling" unicode="&#xa3;" 
d="M1188 1188l-180 -152q-15 20 -35.5 39.5t-55.5 45.5t-84 42.5t-102 16.5q-106 0 -159.5 -61t-53.5 -146q0 -73 25 -164h370v-229h-321q6 -24 6 -50q0 -87 -30.5 -160.5t-80.5 -121.5h674v-248h-1042v227q98 37 151.5 109t53.5 172q0 14 -1.5 27.5t-4 27t-3.5 17.5h-196
v229h145q-28 90 -28 184q0 181 134.5 304.5t338.5 123.5q89 0 170 -23t130 -50.5t94.5 -68t58 -56.5t26.5 -35z" />
    <glyph glyph-name="currency" unicode="&#xa4;" horiz-adv-x="1269" 
d="M1200 1155l-184 -182q50 -74 71 -136t21 -135q0 -146 -90 -274l176 -182l-104 -105l-181 181q-148 -93 -282 -93q-140 0 -271 93l-182 -183l-104 107l180 182q-49 73 -68.5 133.5t-19.5 136.5q0 144 92 275l-182 182l104 105l184 -183q73 52 135.5 73t139.5 21t139.5 -21
t136.5 -73l183 185zM942 705q0 129 -90.5 218t-222.5 89q-123 0 -213 -91.5t-90 -218.5q0 -129 90.5 -220t218.5 -91q129 0 218 91.5t89 222.5z" />
    <glyph glyph-name="yen" unicode="&#xa5;" 
d="M1225 1389l-312 -580h248v-229h-385v-136h371v-229h-371v-215h-287v215h-370v229h370v136h-385v229h246l-311 580h321l277 -580l274 580h314z" />
    <glyph glyph-name="brokenbar" unicode="&#xa6;" horiz-adv-x="585" 
d="M444 903h-303v735h303v-735zM444 -381h-303v733h303v-733z" />
    <glyph glyph-name="section" unicode="&#xa7;" horiz-adv-x="1224" 
d="M1135 4q0 -99 -42.5 -178.5t-116.5 -130.5t-172.5 -78t-213.5 -27q-107 0 -201 24t-149.5 53.5t-102.5 70t-60 56.5t-22 30l172 166q141 -164 365 -164q118 0 196 42.5t78 121.5q0 41 -33 68.5t-87 40.5t-123.5 26.5t-141.5 25.5t-141.5 39.5t-123.5 66t-87 107.5
t-33 162q0 146 107 242q-109 92 -109 252q0 181 137.5 291t362.5 110q104 0 195.5 -22.5t147 -52t100 -66t60 -55.5t21.5 -29l-174 -162q-11 14 -31.5 32.5t-64 49t-111.5 50.5t-145 20q-99 0 -165.5 -40t-66.5 -110q0 -39 26.5 -65.5t71 -42t102.5 -26.5t122 -22.5
t128.5 -26.5t122.5 -43t102.5 -67t71 -102.5t26.5 -146.5q0 -149 -101 -240q103 -87 103 -250zM866 469q0 41 -26 69.5t-76 45.5t-100 28t-123.5 25t-120.5 27q-55 -42 -55 -115q0 -34 19 -59.5t48.5 -40.5t77 -28t91.5 -21t106.5 -20t107.5 -24q49 37 49 113h2z" />
    <glyph glyph-name="dieresis" unicode="&#xa8;" horiz-adv-x="794" 
d="M332 1249q0 -58 -40 -97.5t-99 -39.5t-100.5 39.5t-41.5 97.5t41.5 97.5t100.5 39.5t99 -39.5t40 -97.5zM743 1249q0 -58 -40 -97.5t-99 -39.5t-100 39.5t-41 97.5t40 97.5t99 39.5t100 -39.5t41 -97.5z" />
    <glyph glyph-name="copyright" unicode="&#xa9;" horiz-adv-x="1658" 
d="M1554 694q0 -197 -97 -364.5t-264 -265t-364 -97.5t-364 97.5t-264 265t-97 364.5t97 364.5t264 265t364 97.5t364 -97.5t264 -265t97 -364.5zM1372 694q0 147 -73 273.5t-198 201t-272 74.5q-146 0 -270.5 -74t-197 -200.5t-72.5 -274.5q0 -147 72 -273t196.5 -200
t271.5 -74q146 0 271 73.5t198.5 199.5t73.5 274zM1190 475q-134 -192 -352 -192q-99 0 -175.5 36t-121.5 96t-67.5 130.5t-22.5 146.5q0 60 13.5 117t44 111t74.5 94.5t110 65t145 24.5q115 0 197 -49t147 -140l-131 -104q-3 3 -15 19t-18 23t-17.5 18.5t-23.5 19.5
q-59 41 -139 41q-98 0 -147.5 -67.5t-49.5 -172.5q0 -104 50 -171.5t147 -67.5q107 0 184 77q5 5 37 41z" />
    <glyph glyph-name="ordfeminine" unicode="&#xaa;" horiz-adv-x="704" 
d="M604 850h-145l-4 51q-55 -63 -162 -63q-79 0 -135 42.5t-56 123.5q0 67 43 110q64 64 211 64h93v12h-3q-3 74 -98 74q-85 0 -145 -60l-82 90q8 9 21.5 20.5t42 30.5t74 31.5t97.5 12.5q125 0 187 -62q39 -39 50 -86t11 -125v-266zM449 1059v16h-80q-111 0 -111 -65
q0 -28 20.5 -44t49.5 -16q55 0 88 29q33 26 33 80z" />
    <glyph glyph-name="guillemotleft" unicode="&#xab;" horiz-adv-x="1028" 
d="M539 197l-150 -101l-323 430l323 430l150 -102l-213 -328zM911 197l-149 -101l-324 430l324 430l149 -102l-213 -328z" />
    <glyph glyph-name="logicalnot" unicode="&#xac;" 
d="M1174 172h-248v434h-838v250h1086v-684z" />
    <glyph glyph-name="registered" unicode="&#xae;" horiz-adv-x="950" 
d="M895 1001q0 -173 -123.5 -296t-296.5 -123t-296.5 123t-123.5 296t123.5 296.5t296.5 123.5t296.5 -123.5t123.5 -296.5zM475 1303q-125 0 -213 -88t-88 -214t87.5 -214.5t213.5 -88.5q125 0 214 88.5t89 214.5t-89 214t-214 88zM674 805h-119l-88 153h-39v-153h-106v412
h153q86 0 119 -27q51 -39 51 -105q0 -37 -21 -67.5t-55 -40.5zM543 1083q0 26 -19 37q-14 8 -61 8h-35v-88h35q17 0 28 1t24.5 5t20.5 13t7 24z" />
    <glyph glyph-name="macron" unicode="&#xaf;" horiz-adv-x="708" 
d="M670 1165h-631v185h631v-185z" />
    <glyph glyph-name="degree" unicode="&#xb0;" horiz-adv-x="770" 
d="M715 1092q0 -136 -96.5 -233t-233.5 -97t-233.5 97t-96.5 233t96.5 232.5t233.5 96.5t233.5 -96.5t96.5 -232.5zM551 1092q0 69 -48.5 118.5t-117.5 49.5q-70 0 -119 -49.5t-49 -118.5q0 -70 48.5 -119t119.5 -49q69 0 117.5 49t48.5 119z" />
    <glyph glyph-name="plusminus" unicode="&#xb1;" 
d="M1174 0h-1086v250h1086v-250zM1174 698h-418v-358h-250v358h-418v250h418v359h250v-359h418v-250z" />
    <glyph glyph-name="twosuperior" unicode="&#xb2;" horiz-adv-x="792" 
d="M659 1174q0 -46 -15.5 -84.5t-46 -69t-57.5 -50t-67 -42.5q-11 -6 -42 -23t-44 -25t-33 -22.5t-29 -28t-12 -28.5h342v-154h-534v58q2 77 19.5 131.5t68.5 105.5q19 19 43.5 37t43 29t49 29t46.5 28q48 29 70 53.5t22 57.5q0 38 -28 62t-68 24q-53 0 -93 -24t-85 -71
l-107 101q44 47 70 65q90 76 217 76q116 0 193 -64t77 -171z" />
    <glyph glyph-name="threesuperior" unicode="&#xb3;" horiz-adv-x="786" 
d="M668 868q0 -109 -82.5 -173t-208.5 -64q-191 0 -289 131l109 100q37 -37 61 -51q56 -33 107 -33q60 0 91 23.5t31 64.5q0 21 -6.5 36.5t-20 24.5t-26 14.5t-32.5 7.5t-31.5 2.5t-30.5 0.5h-59v144h53q30 0 48.5 2t42.5 9.5t36 26t12 48.5q0 32 -27 56t-71 24
q-85 0 -162 -80l-104 100q54 58 84 76q76 51 190 51q109 0 185.5 -59t76.5 -158q0 -65 -33 -111t-67 -55q15 -4 33 -13.5t39.5 -27t36 -48.5t14.5 -69z" />
    <glyph glyph-name="acute" unicode="&#xb4;" horiz-adv-x="794" 
d="M211 1112h225l254 277h-291z" />
    <glyph glyph-name="mu" unicode="&#xb5;" horiz-adv-x="1193" 
d="M1077 0h-266l-6 123q-20 -45 -95.5 -96.5t-179.5 -51.5q-84 0 -137 35v-391h-276v1366h286v-555q0 -122 48 -170q50 -47 133 -47q90 0 147 57q31 31 42.5 69.5t14.5 100.5q3 43 3 95v450h286v-985z" />
    <glyph glyph-name="paragraph" unicode="&#xb6;" horiz-adv-x="1327" 
d="M1186 -238h-236v1377h-141v-1377h-236v736q-134 3 -236.5 41t-176.5 125q-105 126 -105 286q0 95 40 184.5t122 153.5q37 29 82 49t83.5 30t96.5 15t94.5 6t102.5 1h510v-1627z" />
    <glyph glyph-name="periodcentered" unicode="&#xb7;" horiz-adv-x="565" 
d="M453 530q0 -71 -48 -118t-122 -47q-73 0 -121.5 47t-48.5 118q0 72 48.5 120t121.5 48q75 0 122.5 -48t47.5 -120z" />
    <glyph glyph-name="cedilla" unicode="&#xb8;" horiz-adv-x="690" 
d="M573 -250q0 -87 -67.5 -135.5t-167.5 -48.5q-52 0 -99 15.5t-68.5 30t-35.5 28.5l76 94q1 -1 6 -5t8 -6t9.5 -6.5t12 -7t13 -6.5t15 -6.5t16 -5t18 -3.5t19.5 -1q39 0 59.5 17.5t20.5 45.5q0 66 -72 66q-41 0 -74 -33l-102 63l90 142l137 -8q-22 -33 -47 -68q8 4 31 4
q92 0 147 -44t55 -122z" />
    <glyph glyph-name="onesuperior" unicode="&#xb9;" horiz-adv-x="798" 
d="M702 643h-552v150h188v403l-145 -88l-87 129l246 152h166v-596h184v-150z" />
    <glyph glyph-name="ordmasculine" unicode="&#xba;" horiz-adv-x="692" 
d="M344 1389q94 0 163 -42t100.5 -103.5t31.5 -131.5q0 -51 -18.5 -99.5t-54 -88.5t-93 -64t-129.5 -24q-94 0 -162.5 41.5t-99.5 103t-31 131.5t30.5 131t99 103.5t163.5 42.5zM344 1255q-62 0 -95.5 -38.5t-33.5 -104.5t33.5 -104.5t95.5 -38.5t96.5 38.5t34.5 104.5
t-34.5 104.5t-96.5 38.5z" />
    <glyph glyph-name="guillemotright" unicode="&#xbb;" horiz-adv-x="1028" 
d="M489 197l150 -101l324 430l-324 430l-150 -102l213 -328zM117 197l149 -101l324 430l-324 430l-149 -102l213 -328z" />
    <glyph glyph-name="onequarter" unicode="&#xbc;" horiz-adv-x="1873" 
d="M1505 1348l-823 -1422l-152 88l824 1422zM702 643h-552v150h188v403l-145 -88l-87 129l246 152h166v-596h184v-150zM1782 145h-109v-145h-168v145h-340v131l330 469h178v-456h109v-144zM1505 289v237l-168 -237h168z" />
    <glyph glyph-name="onehalf" unicode="&#xbd;" horiz-adv-x="1878" 
d="M1450 1348l-823 -1422l-152 88l823 1422zM702 643h-552v150h188v403l-145 -88l-87 129l246 152h166v-596h184v-150zM1745 526q0 -46 -15.5 -84.5t-46 -68.5t-57 -49t-67.5 -43q-11 -6 -42 -23t-44 -25t-33 -22.5t-29 -28t-12 -28.5h342v-154h-535v57q2 77 19.5 132
t68.5 106q24 24 51.5 43t73.5 46t58 34q48 30 70 53.5t22 56.5q0 38 -28 62t-68 24q-54 0 -94 -24t-85 -70l-106 101q45 49 69 65q90 76 218 76q116 0 193 -64t77 -172z" />
    <glyph glyph-name="threequarters" unicode="&#xbe;" horiz-adv-x="1777" 
d="M1409 1348l-823 -1422l-152 88l823 1422zM1686 145h-109v-145h-168v145h-340v131l330 469h178v-456h109v-144zM1409 289v237l-168 -237h168zM668 868q0 -109 -82.5 -173t-208.5 -64q-191 0 -289 131l109 100q37 -37 61 -51q56 -33 107 -33q60 0 91 23.5t31 64.5
q0 21 -6.5 36.5t-20 24.5t-26 14.5t-32.5 7.5t-31.5 2.5t-30.5 0.5h-59v144h53q30 0 48.5 2t42.5 9.5t36 26t12 48.5q0 32 -27 56t-71 24q-85 0 -162 -80l-104 100q54 58 84 76q76 51 190 51q109 0 185.5 -59t76.5 -158q0 -65 -33 -111t-67 -55q15 -4 33 -13.5t39.5 -27
t36 -48.5t14.5 -69z" />
    <glyph glyph-name="questiondown" unicode="&#xbf;" horiz-adv-x="1081" 
d="M59 -16q0 168 177 303q34 25 79 55.5t61 42.5t35 33.5t24 43.5t5 58v70h275v-60q0 -93 -15 -147.5t-59.5 -103.5t-136.5 -109q-35 -23 -54.5 -37t-43 -37.5t-34 -51.5t-10.5 -62q0 -64 45.5 -103t137.5 -39q158 0 291 166l190 -162q-193 -254 -498 -254
q-206 0 -337.5 106.5t-131.5 287.5zM410 862q0 71 48 118.5t122 47.5q73 0 121.5 -47.5t48.5 -118.5q0 -72 -48.5 -120t-121.5 -48q-74 0 -122 48t-48 120z" />
    <glyph glyph-name="Agrave" unicode="&#xc0;" horiz-adv-x="1476" 
d="M1464 0h-323l-111 268h-594l-110 -268h-314l570 1389h315zM942 516l-209 551l-209 -551h418zM930 1526h-226l-254 277h291z" />
    <glyph glyph-name="Aacute" unicode="&#xc1;" horiz-adv-x="1476" 
d="M1464 0h-323l-111 268h-594l-110 -268h-314l570 1389h315zM942 516l-209 551l-209 -551h418zM547 1526h225l254 277h-291z" />
    <glyph glyph-name="Acircumflex" unicode="&#xc2;" horiz-adv-x="1476" 
d="M1464 0h-323l-111 268h-594l-110 -268h-314l570 1389h315zM942 516l-209 551l-209 -551h418zM1077 1526h-219l-121 133l-120 -133h-220l189 277h303z" />
    <glyph glyph-name="Atilde" unicode="&#xc3;" horiz-adv-x="1476" 
d="M1464 0h-323l-111 268h-594l-110 -268h-314l570 1389h315zM942 516l-209 551l-209 -551h418zM1069 1796v-28q0 -112 -57.5 -176t-153.5 -64q-41 0 -85 19.5t-82.5 39t-65.5 19.5q-26 0 -43 -19t-17 -53h-161v19q3 121 60.5 185.5t154.5 64.5q55 0 130.5 -37t102.5 -37
q28 0 43.5 17.5t15.5 49.5h158z" />
    <glyph glyph-name="Adieresis" unicode="&#xc4;" horiz-adv-x="1476" 
d="M1464 0h-323l-111 268h-594l-110 -268h-314l570 1389h315zM942 516l-209 551l-209 -551h418zM672 1659q0 -58 -40 -97.5t-99 -39.5t-100.5 39.5t-41.5 97.5t41.5 97.5t100.5 39.5t99 -39.5t40 -97.5zM1083 1659q0 -58 -40 -97.5t-99 -39.5t-100 39.5t-41 97.5t40 97.5
t99 39.5t100 -39.5t41 -97.5z" />
    <glyph glyph-name="Aring" unicode="&#xc5;" horiz-adv-x="1476" 
d="M1464 0h-323l-111 268h-594l-110 -268h-314l570 1389h315zM942 516l-209 551l-209 -551h418zM956 1671q0 -92 -64.5 -155.5t-156.5 -63.5t-156.5 63.5t-64.5 155.5t64.5 155.5t156.5 63.5t156.5 -63.5t64.5 -155.5zM825 1671q0 37 -26.5 63.5t-63.5 26.5t-62.5 -26.5
t-25.5 -63.5t25.5 -63.5t62.5 -26.5t63.5 26.5t26.5 63.5z" />
    <glyph glyph-name="AE" unicode="&#xc6;" horiz-adv-x="2107" 
d="M2028 0h-981v303h-515l-190 -303h-348l893 1389h1116v-254h-660v-310h613v-250h-613v-319h685v-256zM1047 547v608l-371 -608h371z" />
    <glyph glyph-name="Ccedilla" unicode="&#xc7;" horiz-adv-x="1447" 
d="M805 -33l-31 -55q8 4 31 4q92 0 146.5 -44t54.5 -122q0 -87 -67.5 -135.5t-168.5 -48.5q-52 0 -98.5 15.5t-67 29.5t-35.5 29l74 94q63 -47 119 -47q39 0 59.5 17.5t20.5 45.5q0 30 -18.5 48t-55.5 18t-70 -33l-102 61l72 133q-265 39 -426.5 229t-161.5 486
q0 150 48.5 281.5t139.5 231.5t232 158t315 58q103 0 195.5 -22.5t150 -50t108.5 -67t69 -59.5t34 -40l-182 -176q-8 10 -20 22t-47 39t-73.5 47.5t-99.5 36.5t-125 16q-106 0 -190.5 -38.5t-137 -104.5t-79.5 -149.5t-27 -178.5q0 -206 119.5 -339.5t314.5 -133.5
q67 0 131 15.5t105.5 34.5t82 47t54 40.5t27.5 26.5l170 -182q-7 -9 -26 -28.5t-72 -58t-115.5 -70.5t-161.5 -56.5t-205 -24.5h-10z" />
    <glyph glyph-name="Egrave" unicode="&#xc8;" horiz-adv-x="1277" 
d="M1198 0h-1057v1389h1028v-254h-725v-310h674v-250h-674v-319h754v-256zM867 1526h-226l-254 277h291z" />
    <glyph glyph-name="Eacute" unicode="&#xc9;" horiz-adv-x="1277" 
d="M1198 0h-1057v1389h1028v-254h-725v-310h674v-250h-674v-319h754v-256zM481 1526h225l254 277h-291z" />
    <glyph glyph-name="Ecircumflex" unicode="&#xca;" horiz-adv-x="1277" 
d="M1198 0h-1057v1389h1028v-254h-725v-310h674v-250h-674v-319h754v-256zM1009 1526h-219l-121 133l-120 -133h-220l189 277h303z" />
    <glyph glyph-name="Edieresis" unicode="&#xcb;" horiz-adv-x="1277" 
d="M1198 0h-1057v1389h1028v-254h-725v-310h674v-250h-674v-319h754v-256zM606 1659q0 -58 -40 -97.5t-99 -39.5t-100.5 39.5t-41.5 97.5t41.5 97.5t100.5 39.5t99 -39.5t40 -97.5zM1017 1659q0 -58 -40 -97.5t-99 -39.5t-100 39.5t-41 97.5t40 97.5t99 39.5t100 -39.5
t41 -97.5z" />
    <glyph glyph-name="Igrave" unicode="&#xcc;" horiz-adv-x="585" 
d="M444 0h-303v1389h303v-1389zM463 1526h-226l-254 277h291z" />
    <glyph glyph-name="Iacute" unicode="&#xcd;" horiz-adv-x="585" 
d="M444 0h-303v1389h303v-1389zM123 1526h225l254 277h-291z" />
    <glyph glyph-name="Icircumflex" unicode="&#xce;" horiz-adv-x="585" 
d="M444 0h-303v1389h303v-1389zM633 1526h-219l-121 133l-120 -133h-220l189 277h303z" />
    <glyph glyph-name="Idieresis" unicode="&#xcf;" horiz-adv-x="585" 
d="M444 0h-303v1389h303v-1389zM228 1665q0 -58 -40 -97.5t-99 -39.5t-100.5 39.5t-41.5 97.5t41.5 97.5t100.5 39.5t99 -39.5t40 -97.5zM639 1665q0 -58 -40 -97.5t-99 -39.5t-100 39.5t-41 97.5t40 97.5t99 39.5t100 -39.5t41 -97.5z" />
    <glyph glyph-name="Eth" unicode="&#xd0;" horiz-adv-x="1589" 
d="M219 823v566h447q83 0 137.5 -2t130.5 -11t132 -25.5t117 -47.5t111 -76q106 -94 160.5 -229.5t54.5 -297.5q0 -159 -55 -293t-160 -227q-48 -43 -102.5 -75.5t-113.5 -51.5t-107.5 -30.5t-112.5 -16t-98.5 -5.5t-93.5 -1h-447v578h-213v245h213zM522 578v-324h178
q53 0 81 0.5t76 6t80 16t69.5 31t68.5 50.5q123 117 123 342q0 221 -123 344q-59 59 -138.5 77t-203.5 18h-211v-316h363v-245h-363z" />
    <glyph glyph-name="Ntilde" unicode="&#xd1;" horiz-adv-x="1501" 
d="M1360 0h-301l-627 909v-909h-291v1389h305l623 -906v906h291v-1389zM1089 1796v-28q0 -112 -57.5 -176t-153.5 -64q-41 0 -85 19.5t-82.5 39t-65.5 19.5q-26 0 -43 -19t-17 -53h-161v19q3 121 60.5 185.5t154.5 64.5q55 0 130.5 -37t102.5 -37q28 0 43.5 17.5t15.5 49.5
h158z" />
    <glyph glyph-name="Ograve" unicode="&#xd2;" horiz-adv-x="1622" 
d="M1542 694q0 -109 -28 -212.5t-87.5 -197t-144 -164t-206 -112t-265.5 -41.5t-265.5 41.5t-206 112t-144 164t-87.5 197t-28 212.5t28 212.5t87.5 197t144 164t206 112t265.5 41.5t265.5 -41.5t206 -112t144 -164t87.5 -197t28 -212.5zM1229 694q0 95 -26 179t-76 151
t-131.5 106t-184.5 39t-184.5 -39t-132 -106t-77 -151t-26.5 -179q0 -96 26.5 -180t77 -150t132 -104.5t184.5 -38.5t184.5 38.5t131.5 104.5t76 150t26 180zM1008 1526h-226l-254 277h291z" />
    <glyph glyph-name="Oacute" unicode="&#xd3;" horiz-adv-x="1622" 
d="M1542 694q0 -109 -28 -212.5t-87.5 -197t-144 -164t-206 -112t-265.5 -41.5t-265.5 41.5t-206 112t-144 164t-87.5 197t-28 212.5t28 212.5t87.5 197t144 164t206 112t265.5 41.5t265.5 -41.5t206 -112t144 -164t87.5 -197t28 -212.5zM1229 694q0 95 -26 179t-76 151
t-131.5 106t-184.5 39t-184.5 -39t-132 -106t-77 -151t-26.5 -179q0 -96 26.5 -180t77 -150t132 -104.5t184.5 -38.5t184.5 38.5t131.5 104.5t76 150t26 180zM612 1526h225l254 277h-291z" />
    <glyph glyph-name="Ocircumflex" unicode="&#xd4;" horiz-adv-x="1622" 
d="M1542 694q0 -109 -28 -212.5t-87.5 -197t-144 -164t-206 -112t-265.5 -41.5t-265.5 41.5t-206 112t-144 164t-87.5 197t-28 212.5t28 212.5t87.5 197t144 164t206 112t265.5 41.5t265.5 -41.5t206 -112t144 -164t87.5 -197t28 -212.5zM1229 694q0 95 -26 179t-76 151
t-131.5 106t-184.5 39t-184.5 -39t-132 -106t-77 -151t-26.5 -179q0 -96 26.5 -180t77 -150t132 -104.5t184.5 -38.5t184.5 38.5t131.5 104.5t76 150t26 180zM1151 1526h-219l-121 133l-120 -133h-220l189 277h303z" />
    <glyph glyph-name="Otilde" unicode="&#xd5;" horiz-adv-x="1622" 
d="M1542 694q0 -109 -28 -212.5t-87.5 -197t-144 -164t-206 -112t-265.5 -41.5t-265.5 41.5t-206 112t-144 164t-87.5 197t-28 212.5t28 212.5t87.5 197t144 164t206 112t265.5 41.5t265.5 -41.5t206 -112t144 -164t87.5 -197t28 -212.5zM1229 694q0 95 -26 179t-76 151
t-131.5 106t-184.5 39t-184.5 -39t-132 -106t-77 -151t-26.5 -179q0 -96 26.5 -180t77 -150t132 -104.5t184.5 -38.5t184.5 38.5t131.5 104.5t76 150t26 180zM1143 1796v-28q0 -112 -57.5 -176t-153.5 -64q-41 0 -85 19.5t-82.5 39t-65.5 19.5q-26 0 -43 -19t-17 -53h-161
v19q3 121 60.5 185.5t154.5 64.5q55 0 130.5 -37t102.5 -37q28 0 43.5 17.5t15.5 49.5h158z" />
    <glyph glyph-name="Odieresis" unicode="&#xd6;" horiz-adv-x="1622" 
d="M1542 694q0 -109 -28 -212.5t-87.5 -197t-144 -164t-206 -112t-265.5 -41.5t-265.5 41.5t-206 112t-144 164t-87.5 197t-28 212.5t28 212.5t87.5 197t144 164t206 112t265.5 41.5t265.5 -41.5t206 -112t144 -164t87.5 -197t28 -212.5zM1229 694q0 95 -26 179t-76 151
t-131.5 106t-184.5 39t-184.5 -39t-132 -106t-77 -151t-26.5 -179q0 -96 26.5 -180t77 -150t132 -104.5t184.5 -38.5t184.5 38.5t131.5 104.5t76 150t26 180zM746 1659q0 -58 -40 -97.5t-99 -39.5t-100.5 39.5t-41.5 97.5t41.5 97.5t100.5 39.5t99 -39.5t40 -97.5z
M1157 1659q0 -58 -40 -97.5t-99 -39.5t-100 39.5t-41 97.5t40 97.5t99 39.5t100 -39.5t41 -97.5z" />
    <glyph glyph-name="multiply" unicode="&#xd7;" 
d="M1157 170l-176 -178l-350 348l-348 -348l-177 176l347 348l-347 348l177 176l350 -348l348 348l176 -176l-346 -348z" />
    <glyph glyph-name="Oslash" unicode="&#xd8;" horiz-adv-x="1626" 
d="M1546 1284l-143 -147q139 -189 139 -443q0 -109 -28 -212.5t-87.5 -197t-144 -164t-206 -112t-265.5 -41.5q-263 0 -438 129l-133 -135l-150 143l135 136q-145 195 -145 454q0 109 28 212.5t87.5 197t144 164t206 112t265.5 41.5q256 0 449 -135l139 139zM1063 1087
q-98 82 -252 82q-103 0 -184.5 -39t-132 -106t-77 -151t-26.5 -179q0 -136 49 -237zM1229 694q0 132 -43 226l-617 -625q96 -76 242 -76q83 0 152 25.5t117.5 69.5t82.5 104.5t50 130t16 145.5z" />
    <glyph glyph-name="Ugrave" unicode="&#xd9;" horiz-adv-x="1488" 
d="M1360 584q0 -144 -33 -251t-123 -196q-86 -85 -206 -126.5t-255 -41.5t-255.5 43t-208.5 131t-119 195.5t-31 247.5v803h303v-762q0 -54 1.5 -84.5t8.5 -77.5t25 -83.5t47 -66.5q87 -90 231 -90q147 0 230 86q52 54 67 127t15 183v768h303v-805zM940 1526h-226l-254 277
h291z" />
    <glyph glyph-name="Uacute" unicode="&#xda;" horiz-adv-x="1488" 
d="M1360 584q0 -144 -33 -251t-123 -196q-86 -85 -206 -126.5t-255 -41.5t-255.5 43t-208.5 131t-119 195.5t-31 247.5v803h303v-762q0 -54 1.5 -84.5t8.5 -77.5t25 -83.5t47 -66.5q87 -90 231 -90q147 0 230 86q52 54 67 127t15 183v768h303v-805zM547 1526h225l254 277
h-291z" />
    <glyph glyph-name="Ucircumflex" unicode="&#xdb;" horiz-adv-x="1488" 
d="M1360 584q0 -144 -33 -251t-123 -196q-86 -85 -206 -126.5t-255 -41.5t-255.5 43t-208.5 131t-119 195.5t-31 247.5v803h303v-762q0 -54 1.5 -84.5t8.5 -77.5t25 -83.5t47 -66.5q87 -90 231 -90q147 0 230 86q52 54 67 127t15 183v768h303v-805zM1085 1526h-219l-121 133
l-120 -133h-220l189 277h303z" />
    <glyph glyph-name="Udieresis" unicode="&#xdc;" horiz-adv-x="1488" 
d="M1360 584q0 -144 -33 -251t-123 -196q-86 -85 -206 -126.5t-255 -41.5t-255.5 43t-208.5 131t-119 195.5t-31 247.5v803h303v-762q0 -54 1.5 -84.5t8.5 -77.5t25 -83.5t47 -66.5q87 -90 231 -90q147 0 230 86q52 54 67 127t15 183v768h303v-805zM678 1659
q0 -58 -40 -97.5t-99 -39.5t-100.5 39.5t-41.5 97.5t41.5 97.5t100.5 39.5t99 -39.5t40 -97.5zM1089 1659q0 -58 -40 -97.5t-99 -39.5t-100 39.5t-41 97.5t40 97.5t99 39.5t100 -39.5t41 -97.5z" />
    <glyph glyph-name="Yacute" unicode="&#xdd;" horiz-adv-x="1329" 
d="M1317 1389l-502 -818v-571h-303v571l-500 818h344l312 -547l319 547h330zM467 1526h225l254 277h-291z" />
    <glyph glyph-name="Thorn" unicode="&#xde;" horiz-adv-x="1306" 
d="M1270 721q0 -185 -109 -297q-150 -158 -471 -158h-246v-266h-303v1389h303v-230h179q183 0 290.5 -18t192.5 -84q84 -64 124 -152.5t40 -183.5zM967 717q0 53 -20.5 91t-50.5 58.5t-78 32t-87.5 14t-95.5 2.5h-191v-401h215q54 0 97 5t83.5 18.5t67.5 35.5t43.5 58.5
t16.5 85.5z" />
    <glyph glyph-name="germandbls" unicode="&#xdf;" horiz-adv-x="1198" 
d="M1161 393q0 -88 -28 -159t-73.5 -117t-108 -77t-128 -44.5t-135.5 -13.5q-137 0 -209 36l62 213q60 -20 110 -20q96 0 159.5 50t63.5 147q0 81 -53 131q-67 61 -250 61h-59v227h49q151 0 211 70q41 48 41 123q0 80 -57.5 129t-151.5 49q-104 0 -158 -57
q-33 -35 -44 -85.5t-11 -125.5v-930h-287v928q0 262 134 383q124 112 360 112q223 0 356 -97.5t133 -274.5q0 -60 -18.5 -111.5t-45.5 -84.5t-60 -57.5t-60.5 -35.5t-48.5 -14q24 -2 57.5 -13t78.5 -38.5t82 -65t63 -100.5t26 -138z" />
    <glyph glyph-name="agrave" unicode="&#xe0;" horiz-adv-x="1097" 
d="M995 0h-256l-6 106q-17 -19 -40 -37.5t-62 -42t-95 -37.5t-120 -14q-93 0 -169.5 32t-127.5 104.5t-51 175.5q0 126 79 205q71 71 163.5 97.5t205.5 26.5h203v21q0 166 -197 166q-52 0 -103 -15.5t-88 -39t-56.5 -38.5t-30.5 -26l-135 166q14 15 28.5 29t55.5 42.5
t85.5 48.5t114.5 36t146 16q232 0 344 -115q71 -71 91.5 -160t20.5 -239v-508zM719 383v51h-148q-45 0 -78 -4t-71 -16.5t-59 -42t-21 -74.5q0 -58 40 -89.5t105 -31.5q106 0 170 57q62 56 62 150zM746 1112h-226l-254 277h291z" />
    <glyph glyph-name="aacute" unicode="&#xe1;" horiz-adv-x="1097" 
d="M995 0h-256l-6 106q-17 -19 -40 -37.5t-62 -42t-95 -37.5t-120 -14q-93 0 -169.5 32t-127.5 104.5t-51 175.5q0 126 79 205q71 71 163.5 97.5t205.5 26.5h203v21q0 166 -197 166q-52 0 -103 -15.5t-88 -39t-56.5 -38.5t-30.5 -26l-135 166q14 15 28.5 29t55.5 42.5
t85.5 48.5t114.5 36t146 16q232 0 344 -115q71 -71 91.5 -160t20.5 -239v-508zM719 383v51h-148q-45 0 -78 -4t-71 -16.5t-59 -42t-21 -74.5q0 -58 40 -89.5t105 -31.5q106 0 170 57q62 56 62 150zM358 1112h225l254 277h-291z" />
    <glyph glyph-name="acircumflex" unicode="&#xe2;" horiz-adv-x="1097" 
d="M995 0h-256l-6 106q-17 -19 -40 -37.5t-62 -42t-95 -37.5t-120 -14q-93 0 -169.5 32t-127.5 104.5t-51 175.5q0 126 79 205q71 71 163.5 97.5t205.5 26.5h203v21q0 166 -197 166q-52 0 -103 -15.5t-88 -39t-56.5 -38.5t-30.5 -26l-135 166q14 15 28.5 29t55.5 42.5
t85.5 48.5t114.5 36t146 16q232 0 344 -115q71 -71 91.5 -160t20.5 -239v-508zM719 383v51h-148q-45 0 -78 -4t-71 -16.5t-59 -42t-21 -74.5q0 -58 40 -89.5t105 -31.5q106 0 170 57q62 56 62 150zM889 1112h-219l-121 133l-120 -133h-220l189 277h303z" />
    <glyph glyph-name="atilde" unicode="&#xe3;" horiz-adv-x="1097" 
d="M995 0h-256l-6 106q-17 -19 -40 -37.5t-62 -42t-95 -37.5t-120 -14q-93 0 -169.5 32t-127.5 104.5t-51 175.5q0 126 79 205q71 71 163.5 97.5t205.5 26.5h203v21q0 166 -197 166q-52 0 -103 -15.5t-88 -39t-56.5 -38.5t-30.5 -26l-135 166q14 15 28.5 29t55.5 42.5
t85.5 48.5t114.5 36t146 16q232 0 344 -115q71 -71 91.5 -160t20.5 -239v-508zM719 383v51h-148q-45 0 -78 -4t-71 -16.5t-59 -42t-21 -74.5q0 -58 40 -89.5t105 -31.5q106 0 170 57q62 56 62 150zM881 1382v-28q0 -112 -57.5 -176t-153.5 -64q-41 0 -85 19.5t-82.5 39
t-65.5 19.5q-26 0 -43 -19t-17 -53h-161v19q3 121 60.5 185.5t154.5 64.5q55 0 130.5 -37t102.5 -37q28 0 43.5 17.5t15.5 49.5h158z" />
    <glyph glyph-name="adieresis" unicode="&#xe4;" horiz-adv-x="1097" 
d="M995 0h-256l-6 106q-17 -19 -40 -37.5t-62 -42t-95 -37.5t-120 -14q-93 0 -169.5 32t-127.5 104.5t-51 175.5q0 126 79 205q71 71 163.5 97.5t205.5 26.5h203v21q0 166 -197 166q-52 0 -103 -15.5t-88 -39t-56.5 -38.5t-30.5 -26l-135 166q14 15 28.5 29t55.5 42.5
t85.5 48.5t114.5 36t146 16q232 0 344 -115q71 -71 91.5 -160t20.5 -239v-508zM719 383v51h-148q-45 0 -78 -4t-71 -16.5t-59 -42t-21 -74.5q0 -58 40 -89.5t105 -31.5q106 0 170 57q62 56 62 150zM484 1249q0 -58 -40 -97.5t-99 -39.5t-100.5 39.5t-41.5 97.5t41.5 97.5
t100.5 39.5t99 -39.5t40 -97.5zM895 1249q0 -58 -40 -97.5t-99 -39.5t-100 39.5t-41 97.5t40 97.5t99 39.5t100 -39.5t41 -97.5z" />
    <glyph glyph-name="aring" unicode="&#xe5;" horiz-adv-x="1097" 
d="M995 0h-256l-6 106q-17 -19 -40 -37.5t-62 -42t-95 -37.5t-120 -14q-93 0 -169.5 32t-127.5 104.5t-51 175.5q0 126 79 205q71 71 163.5 97.5t205.5 26.5h203v21q0 166 -197 166q-52 0 -103 -15.5t-88 -39t-56.5 -38.5t-30.5 -26l-135 166q14 15 28.5 29t55.5 42.5
t85.5 48.5t114.5 36t146 16q232 0 344 -115q71 -71 91.5 -160t20.5 -239v-508zM719 383v51h-148q-45 0 -78 -4t-71 -16.5t-59 -42t-21 -74.5q0 -58 40 -89.5t105 -31.5q106 0 170 57q62 56 62 150zM768 1282q0 -92 -64.5 -155.5t-156.5 -63.5t-156.5 63.5t-64.5 155.5
t64.5 155.5t156.5 63.5t156.5 -63.5t64.5 -155.5zM637 1282q0 37 -26.5 63.5t-63.5 26.5t-62.5 -26.5t-25.5 -63.5t25.5 -63.5t62.5 -26.5t63.5 26.5t26.5 63.5z" />
    <glyph glyph-name="ae" unicode="&#xe6;" horiz-adv-x="1783" 
d="M717 379q2 16 2 51h-164q-213 0 -213 -135q0 -58 39.5 -89.5t103.5 -31.5q104 0 170 59q62 53 62 146zM834 143q-141 -176 -400 -176q-158 0 -262 82t-104 236q0 128 79 204q129 123 385 123h187v25q0 166 -199 166q-140 0 -276 -119l-135 166q39 39 60 55
q152 117 368 117q245 0 331 -131q17 18 44.5 37.5t72 42t110 37t138.5 14.5q209 0 336 -127q49 -49 80 -105.5t45.5 -122.5t19 -123t4.5 -136h-721q0 -36 13.5 -72t41 -70.5t79 -56t118.5 -21.5q166 0 287 121l154 -147q-171 -193 -451 -193q-76 0 -141 14t-107 33t-77 45
t-51 44.5t-29 37.5zM1440 600q0 17 -4.5 39.5t-19 54.5t-36.5 57.5t-63 43.5t-94 18q-51 0 -92.5 -18.5t-65 -44.5t-39.5 -57.5t-21.5 -54.5t-5.5 -38h441z" />
    <glyph glyph-name="ccedilla" unicode="&#xe7;" horiz-adv-x="1105" 
d="M432 -154l76 131q-198 25 -319 166t-121 353q0 104 34 196.5t100 167t173 118.5t241 44q83 0 158 -19.5t121.5 -44.5t84.5 -57t52.5 -49t20.5 -27l-168 -151q-117 117 -256 117q-127 0 -197 -86.5t-70 -210.5q0 -125 69 -209t196 -84q158 0 264 125l168 -148
q-6 -10 -18.5 -26.5t-48 -48.5t-79 -58.5t-115.5 -49t-153 -26.5l-33 -57q8 4 31 4q92 0 147.5 -44t55.5 -122q0 -87 -67.5 -135.5t-168.5 -48.5q-52 0 -98.5 15.5t-67.5 29.5t-36 29l75 94q1 -1 6 -5t8 -6t9.5 -6.5t12 -7t13 -6.5t15 -6.5t16 -5t18 -3.5t19.5 -1
q39 0 59.5 17.5t20.5 45.5q0 66 -72 66q-40 0 -73 -33z" />
    <glyph glyph-name="egrave" unicode="&#xe8;" horiz-adv-x="1146" 
d="M1081 408h-721q0 -36 13.5 -72t41 -70.5t79 -56t118.5 -21.5q166 0 287 121l154 -147q-171 -193 -451 -193q-136 0 -241.5 43.5t-167.5 118t-93.5 166t-31.5 195.5q0 80 19.5 155t61.5 143.5t102.5 120t149 81.5t195.5 30q209 0 336 -127q49 -49 80 -105.5t45.5 -122.5
t19 -123t4.5 -136zM803 600q0 17 -4.5 39.5t-19 54.5t-36.5 57.5t-63 43.5t-94 18q-51 0 -92.5 -18.5t-65 -44.5t-39.5 -57.5t-21.5 -54.5t-5.5 -38h441zM801 1112h-226l-254 277h291z" />
    <glyph glyph-name="eacute" unicode="&#xe9;" horiz-adv-x="1146" 
d="M1081 408h-721q0 -36 13.5 -72t41 -70.5t79 -56t118.5 -21.5q166 0 287 121l154 -147q-171 -193 -451 -193q-136 0 -241.5 43.5t-167.5 118t-93.5 166t-31.5 195.5q0 80 19.5 155t61.5 143.5t102.5 120t149 81.5t195.5 30q209 0 336 -127q49 -49 80 -105.5t45.5 -122.5
t19 -123t4.5 -136zM803 600q0 17 -4.5 39.5t-19 54.5t-36.5 57.5t-63 43.5t-94 18q-51 0 -92.5 -18.5t-65 -44.5t-39.5 -57.5t-21.5 -54.5t-5.5 -38h441zM348 1112h225l254 277h-291z" />
    <glyph glyph-name="ecircumflex" unicode="&#xea;" horiz-adv-x="1146" 
d="M1081 408h-721q0 -36 13.5 -72t41 -70.5t79 -56t118.5 -21.5q166 0 287 121l154 -147q-171 -193 -451 -193q-136 0 -241.5 43.5t-167.5 118t-93.5 166t-31.5 195.5q0 80 19.5 155t61.5 143.5t102.5 120t149 81.5t195.5 30q209 0 336 -127q49 -49 80 -105.5t45.5 -122.5
t19 -123t4.5 -136zM803 600q0 17 -4.5 39.5t-19 54.5t-36.5 57.5t-63 43.5t-94 18q-51 0 -92.5 -18.5t-65 -44.5t-39.5 -57.5t-21.5 -54.5t-5.5 -38h441zM913 1112h-219l-121 133l-120 -133h-220l189 277h303z" />
    <glyph glyph-name="edieresis" unicode="&#xeb;" horiz-adv-x="1146" 
d="M1081 408h-721q0 -36 13.5 -72t41 -70.5t79 -56t118.5 -21.5q166 0 287 121l154 -147q-171 -193 -451 -193q-136 0 -241.5 43.5t-167.5 118t-93.5 166t-31.5 195.5q0 80 19.5 155t61.5 143.5t102.5 120t149 81.5t195.5 30q209 0 336 -127q49 -49 80 -105.5t45.5 -122.5
t19 -123t4.5 -136zM803 600q0 17 -4.5 39.5t-19 54.5t-36.5 57.5t-63 43.5t-94 18q-51 0 -92.5 -18.5t-65 -44.5t-39.5 -57.5t-21.5 -54.5t-5.5 -38h441zM510 1249q0 -58 -40 -97.5t-99 -39.5t-100.5 39.5t-41.5 97.5t41.5 97.5t100.5 39.5t99 -39.5t40 -97.5zM921 1249
q0 -58 -40 -97.5t-99 -39.5t-100 39.5t-41 97.5t40 97.5t99 39.5t100 -39.5t41 -97.5z" />
    <glyph glyph-name="igrave" unicode="&#xec;" horiz-adv-x="516" 
d="M401 0h-286v985h286v-985zM479 1112h-225l-254 277h291z" />
    <glyph glyph-name="iacute" unicode="&#xed;" horiz-adv-x="516" 
d="M401 0h-286v985h286v-985zM59 1112h226l254 277h-291z" />
    <glyph glyph-name="icircumflex" unicode="&#xee;" horiz-adv-x="516" 
d="M401 0h-286v985h286v-985zM598 1112h-219l-121 133l-121 -133h-219l188 277h304z" />
    <glyph glyph-name="idieresis" unicode="&#xef;" horiz-adv-x="516" 
d="M401 0h-286v985h286v-985zM193 1249q0 -58 -40.5 -97.5t-99.5 -39.5t-100 39.5t-41 97.5t41 97.5t100 39.5t99.5 -39.5t40.5 -97.5zM604 1249q0 -58 -40 -97.5t-99 -39.5t-100 39.5t-41 97.5t40 97.5t99 39.5t100 -39.5t41 -97.5z" />
    <glyph glyph-name="eth" unicode="&#xf0;" horiz-adv-x="1187" 
d="M1114 506q0 -106 -31.5 -200t-93.5 -170.5t-164.5 -121.5t-232.5 -45q-125 0 -224.5 37t-163 102.5t-97 153t-33.5 189.5q0 111 41 201.5t109.5 148t155.5 88.5t181 31q46 0 121 -25q-80 93 -195 188l-135 -129l-147 129l127 125l-158 129l178 172q12 -9 51.5 -37.5
t71 -52t43.5 -33.5l127 123l148 -131l-119 -118q71 -63 125 -117t116.5 -131.5t103 -151t68 -166.5t27.5 -188zM821 451q0 104 -60 173.5t-169 69.5q-110 0 -168.5 -66t-58.5 -173q0 -109 59 -178.5t168 -69.5t169 70.5t60 173.5z" />
    <glyph glyph-name="ntilde" unicode="&#xf1;" horiz-adv-x="1183" 
d="M1079 0h-286v557q0 69 -11 113t-47 71q-43 37 -123 37q-92 0 -149 -57q-28 -28 -42 -73.5t-16 -81.5t-2 -101v-465h-286v985h270q0 -7 0.5 -19.5t1.5 -38t1.5 -42t0.5 -15.5q6 8 16 19.5t41 37t65.5 45t89.5 35t114 15.5q164 0 268 -104q56 -56 75 -133.5t19 -178.5v-606
zM924 1382v-28q0 -112 -57.5 -176t-153.5 -64q-41 0 -85 19.5t-82.5 39t-65.5 19.5q-26 0 -43 -19t-17 -53h-161v19q3 121 60.5 185.5t154.5 64.5q55 0 130.5 -37t102.5 -37q28 0 43.5 17.5t15.5 49.5h158z" />
    <glyph glyph-name="ograve" unicode="&#xf2;" horiz-adv-x="1236" 
d="M1169 496q0 -77 -19.5 -151t-63 -142.5t-106 -120t-156 -82.5t-206.5 -31t-206 31t-156 82.5t-106 120t-62.5 142.5t-19.5 151t19.5 150t62.5 142t105.5 120.5t156 82.5t206.5 31t206.5 -31t156 -82.5t106 -120t63 -142t19.5 -150.5zM874 498q0 132 -67 213.5t-189 81.5
q-119 0 -184 -78q-72 -85 -72 -217q0 -136 74 -219q68 -78 182 -78q117 0 185 78q71 80 71 219zM846 1112h-226l-254 277h291z" />
    <glyph glyph-name="oacute" unicode="&#xf3;" horiz-adv-x="1236" 
d="M1169 496q0 -77 -19.5 -151t-63 -142.5t-106 -120t-156 -82.5t-206.5 -31t-206 31t-156 82.5t-106 120t-62.5 142.5t-19.5 151t19.5 150t62.5 142t105.5 120.5t156 82.5t206.5 31t206.5 -31t156 -82.5t106 -120t63 -142t19.5 -150.5zM874 498q0 132 -67 213.5t-189 81.5
q-119 0 -184 -78q-72 -85 -72 -217q0 -136 74 -219q68 -78 182 -78q117 0 185 78q71 80 71 219zM393 1112h225l254 277h-291z" />
    <glyph glyph-name="ocircumflex" unicode="&#xf4;" horiz-adv-x="1236" 
d="M1169 496q0 -77 -19.5 -151t-63 -142.5t-106 -120t-156 -82.5t-206.5 -31t-206 31t-156 82.5t-106 120t-62.5 142.5t-19.5 151t19.5 150t62.5 142t105.5 120.5t156 82.5t206.5 31t206.5 -31t156 -82.5t106 -120t63 -142t19.5 -150.5zM874 498q0 132 -67 213.5t-189 81.5
q-119 0 -184 -78q-72 -85 -72 -217q0 -136 74 -219q68 -78 182 -78q117 0 185 78q71 80 71 219zM958 1112h-219l-121 133l-120 -133h-220l189 277h303z" />
    <glyph glyph-name="otilde" unicode="&#xf5;" horiz-adv-x="1236" 
d="M1169 496q0 -77 -19.5 -151t-63 -142.5t-106 -120t-156 -82.5t-206.5 -31t-206 31t-156 82.5t-106 120t-62.5 142.5t-19.5 151t19.5 150t62.5 142t105.5 120.5t156 82.5t206.5 31t206.5 -31t156 -82.5t106 -120t63 -142t19.5 -150.5zM874 498q0 132 -67 213.5t-189 81.5
q-119 0 -184 -78q-72 -85 -72 -217q0 -136 74 -219q68 -78 182 -78q117 0 185 78q71 80 71 219zM950 1382v-28q0 -112 -57.5 -176t-153.5 -64q-41 0 -85 19.5t-82.5 39t-65.5 19.5q-26 0 -43 -19t-17 -53h-161v19q3 121 60.5 185.5t154.5 64.5q55 0 130.5 -37t102.5 -37
q28 0 43.5 17.5t15.5 49.5h158z" />
    <glyph glyph-name="odieresis" unicode="&#xf6;" horiz-adv-x="1236" 
d="M1169 496q0 -77 -19.5 -151t-63 -142.5t-106 -120t-156 -82.5t-206.5 -31t-206 31t-156 82.5t-106 120t-62.5 142.5t-19.5 151t19.5 150t62.5 142t105.5 120.5t156 82.5t206.5 31t206.5 -31t156 -82.5t106 -120t63 -142t19.5 -150.5zM874 498q0 132 -67 213.5t-189 81.5
q-119 0 -184 -78q-72 -85 -72 -217q0 -136 74 -219q68 -78 182 -78q117 0 185 78q71 80 71 219zM553 1249q0 -58 -40 -97.5t-99 -39.5t-100.5 39.5t-41.5 97.5t41.5 97.5t100.5 39.5t99 -39.5t40 -97.5zM964 1249q0 -58 -40 -97.5t-99 -39.5t-100 39.5t-41 97.5t40 97.5
t99 39.5t100 -39.5t41 -97.5z" />
    <glyph glyph-name="divide" unicode="&#xf7;" 
d="M1174 391h-1086v250h1086v-250zM807 117q0 -71 -48 -118.5t-122 -47.5q-73 0 -121.5 47.5t-48.5 118.5q0 72 48.5 120t121.5 48q75 0 122.5 -47.5t47.5 -120.5zM807 911q0 -71 -48 -118.5t-122 -47.5q-73 0 -121.5 47.5t-48.5 118.5q0 72 48.5 120t121.5 48
q75 0 122.5 -47.5t47.5 -120.5z" />
    <glyph glyph-name="oslash" unicode="&#xf8;" horiz-adv-x="1245" 
d="M379 385l383 367q-55 41 -141 41q-120 0 -185 -78q-71 -84 -71 -217q0 -78 14 -113zM950 932l97 94l131 -125l-101 -94q36 -50 65 -131.5t29 -179.5q0 -77 -19.5 -151t-62.5 -142.5t-106 -120t-156 -82.5t-206 -31q-119 0 -205 29.5t-123 60.5l-96 -94l-129 123l98 92
q-40 57 -68 139t-28 177q0 77 19.5 150.5t63 142t106 120t156 82.5t206.5 31q185 0 329 -90zM864 604l-381 -364q15 -13 51.5 -26t86.5 -13q116 0 184 78q72 81 72 219q0 67 -13 106z" />
    <glyph glyph-name="ugrave" unicode="&#xf9;" horiz-adv-x="1181" 
d="M1065 0h-264l-8 123q-4 -7 -14.5 -20t-39 -37.5t-62.5 -44.5t-89 -35t-115 -15q-169 0 -264 95q-65 65 -85 147t-20 205v567h287v-555q0 -123 47 -170q50 -47 133 -47q91 0 148 57q31 31 42.5 70.5t14.5 101.5q2 29 2 93v450h287v-985zM815 1112h-226l-254 277h291z" />
    <glyph glyph-name="uacute" unicode="&#xfa;" horiz-adv-x="1181" 
d="M1065 0h-264l-8 123q-4 -7 -14.5 -20t-39 -37.5t-62.5 -44.5t-89 -35t-115 -15q-169 0 -264 95q-65 65 -85 147t-20 205v567h287v-555q0 -123 47 -170q50 -47 133 -47q91 0 148 57q31 31 42.5 70.5t14.5 101.5q2 29 2 93v450h287v-985zM361 1112h225l254 277h-291z" />
    <glyph glyph-name="ucircumflex" unicode="&#xfb;" horiz-adv-x="1181" 
d="M1065 0h-264l-8 123q-4 -7 -14.5 -20t-39 -37.5t-62.5 -44.5t-89 -35t-115 -15q-169 0 -264 95q-65 65 -85 147t-20 205v567h287v-555q0 -123 47 -170q50 -47 133 -47q91 0 148 57q31 31 42.5 70.5t14.5 101.5q2 29 2 93v450h287v-985zM927 1112h-219l-121 133l-120 -133
h-220l189 277h303z" />
    <glyph glyph-name="udieresis" unicode="&#xfc;" horiz-adv-x="1181" 
d="M1065 0h-264l-8 123q-4 -7 -14.5 -20t-39 -37.5t-62.5 -44.5t-89 -35t-115 -15q-169 0 -264 95q-65 65 -85 147t-20 205v567h287v-555q0 -123 47 -170q50 -47 133 -47q91 0 148 57q31 31 42.5 70.5t14.5 101.5q2 29 2 93v450h287v-985zM522 1249q0 -58 -40 -97.5
t-99 -39.5t-100.5 39.5t-41.5 97.5t41.5 97.5t100.5 39.5t99 -39.5t40 -97.5zM933 1249q0 -58 -40 -97.5t-99 -39.5t-100 39.5t-41 97.5t40 97.5t99 39.5t100 -39.5t41 -97.5z" />
    <glyph glyph-name="yacute" unicode="&#xfd;" horiz-adv-x="1118" 
d="M1116 985l-442 -1071q-21 -51 -41.5 -90t-56.5 -85.5t-78 -77t-105.5 -51t-138.5 -20.5q-131 0 -209 58l84 200q44 -22 98 -22q58 0 93.5 23.5t62.5 70.5q9 15 41 90l-420 975h305l256 -653l256 653h295zM393 1112h225l254 277h-291z" />
    <glyph glyph-name="thorn" unicode="&#xfe;" horiz-adv-x="1269" 
d="M1202 489q0 -97 -31 -188.5t-90 -165.5t-153.5 -119t-210.5 -45q-208 0 -314 129v-481h-286v1770h286v-521q7 9 18 21.5t42 38t67 45t94 34.5t121 15q81 0 158.5 -30t146 -91t110.5 -167.5t42 -244.5zM907 489q0 135 -68 218.5t-186 83.5q-115 0 -185.5 -84.5
t-70.5 -214.5q0 -129 69.5 -211t186.5 -82t185.5 82t68.5 208z" />
    <glyph glyph-name="ydieresis" unicode="&#xff;" horiz-adv-x="1118" 
d="M1116 985l-442 -1071q-21 -51 -41.5 -90t-56.5 -85.5t-78 -77t-105.5 -51t-138.5 -20.5q-131 0 -209 58l84 200q44 -22 98 -22q58 0 93.5 23.5t62.5 70.5q9 15 41 90l-420 975h305l256 -653l256 653h295zM494 1249q0 -58 -40 -97.5t-99 -39.5t-100.5 39.5t-41.5 97.5
t41.5 97.5t100.5 39.5t99 -39.5t40 -97.5zM905 1249q0 -58 -40 -97.5t-99 -39.5t-100 39.5t-41 97.5t40 97.5t99 39.5t100 -39.5t41 -97.5z" />
    <glyph glyph-name="dotlessi" unicode="&#x131;" horiz-adv-x="520" 
d="M403 0h-286v985h286v-985z" />
    <glyph glyph-name="Lslash" unicode="&#x141;" horiz-adv-x="1232" 
d="M1221 256v-256h-996v442l-90 -84l-158 162l248 223v646h303v-406l156 145l160 -163l-316 -293v-416h693z" />
    <glyph glyph-name="lslash" unicode="&#x142;" horiz-adv-x="776" 
d="M784 897l-252 -233v-664h-286v446l-99 -92l-153 162l252 227v646h286v-426l99 96z" />
    <glyph glyph-name="OE" unicode="&#x152;" horiz-adv-x="2310" 
d="M1229 694q0 95 -26 179t-76 151t-131.5 106t-184.5 39t-184.5 -39t-132 -106t-77 -151t-26.5 -179q0 -96 26.5 -180t77 -150t132 -104.5t184.5 -38.5t184.5 38.5t131.5 104.5t76 150t26 180zM1260 0v152q-69 -78 -181 -131.5t-268 -53.5q-144 0 -265.5 41.5t-206 112
t-144 164t-87.5 197t-28 212.5t28 212.5t87.5 197t144 164t206 112t265.5 41.5q90 0 169.5 -20t134.5 -52.5t88 -58.5t57 -53v152h942v-254h-670v-310h618v-250h-618v-319h698v-256h-970z" />
    <glyph glyph-name="oe" unicode="&#x153;" horiz-adv-x="1918" 
d="M840 494q0 125 -62.5 211t-177.5 86t-176.5 -85.5t-61.5 -211.5t63 -210.5t179 -84.5q115 0 175.5 84.5t60.5 210.5zM983 119q-140 -150 -381 -150q-110 0 -200.5 31t-151.5 82.5t-103 120t-60.5 141.5t-18.5 150t19 151t61 143t103 120.5t151.5 82.5t199.5 31
q232 0 379 -158q53 64 148.5 111t238.5 47q209 0 336 -127q49 -49 80 -105.5t45.5 -122.5t19 -123t4.5 -136h-720q0 -36 13 -72t40.5 -70.5t79 -56t118.5 -21.5q166 0 287 121l154 -147q-171 -193 -451 -193q-253 0 -391 150zM1575 600q0 17 -4.5 39.5t-19 54.5t-36.5 57.5
t-63 43.5t-94 18q-51 0 -92.5 -18.5t-65 -44.5t-39 -57.5t-21 -54.5t-5.5 -38h440z" />
    <glyph glyph-name="Scaron" unicode="&#x160;" horiz-adv-x="1366" 
d="M1264 403q0 -136 -78.5 -236t-213.5 -150t-310 -50q-112 0 -213.5 21t-164.5 47t-118.5 62t-74.5 53.5t-34 33.5l168 203q17 -16 32.5 -29t59.5 -41t88.5 -47.5t114 -35t142.5 -15.5q138 0 216 42.5t78 127.5q0 45 -29.5 76.5t-79 50.5t-114 32.5t-136 27.5t-143 32
t-136 49t-114 74.5t-79 113.5t-29.5 161q0 182 152.5 298.5t406.5 116.5q111 0 210 -19.5t159.5 -44.5t114 -60.5t73 -54t37.5 -38.5l-174 -188q-12 12 -23.5 22.5t-53.5 39t-85.5 47.5t-114 35t-145.5 16q-120 0 -186 -41t-66 -115q0 -45 29.5 -75.5t79.5 -48t114.5 -29.5
t136.5 -25t143.5 -30t136 -48.5t114.5 -76t79.5 -117t29.5 -167.5zM326 1804h219l121 -133l120 133h220l-189 -276h-303z" />
    <glyph glyph-name="scaron" unicode="&#x161;" horiz-adv-x="1036" 
d="M971 303q0 -106 -62.5 -184t-166.5 -116t-236 -38q-287 0 -461 156l129 178q152 -119 332 -119q96 0 138 31.5t42 69.5q0 32 -26.5 53t-70 30t-98.5 19t-113 18.5t-113 30t-98.5 52t-70 85.5t-26.5 129q0 146 120.5 235t317.5 89q84 0 158 -15t117 -32t85 -46.5t52.5 -40
t29.5 -30.5l-137 -156q-11 11 -29 24.5t-54.5 34.5t-91.5 34.5t-116 13.5q-81 0 -125.5 -26.5t-44.5 -73.5q0 -27 21 -45t57 -27.5t82.5 -16t98 -14.5t102.5 -19t97.5 -32.5t82.5 -52.5t57 -82t21 -117zM176 1391h219l121 -134l121 134h219l-188 -277h-303z" />
    <glyph glyph-name="Ydieresis" unicode="&#x178;" horiz-adv-x="1329" 
d="M1317 1389l-502 -818v-571h-303v571l-500 818h344l312 -547l319 547h330zM600 1665q0 -58 -40 -97.5t-99 -39.5t-100.5 39.5t-41.5 97.5t41.5 97.5t100.5 39.5t99 -39.5t40 -97.5zM1011 1665q0 -58 -40 -97.5t-99 -39.5t-100 39.5t-41 97.5t40 97.5t99 39.5t100 -39.5
t41 -97.5z" />
    <glyph glyph-name="Zcaron" unicode="&#x17d;" horiz-adv-x="1335" 
d="M1255 0h-1175v244l762 891h-733v254h1118v-242l-760 -891h788v-256zM327 1805h219l121 -134l121 134h219l-188 -277h-303z" />
    <glyph glyph-name="zcaron" unicode="&#x17e;" horiz-adv-x="1028" 
d="M973 0h-918v221l537 535h-516v229h876v-219l-530 -533h551v-233zM174 1391h219l121 -134l121 134h219l-188 -277h-303z" />
    <glyph glyph-name="florin" unicode="&#x192;" 
d="M1249 1378l-71 -215q-56 21 -121 21q-51 0 -92 -23q-32 -18 -48.5 -49.5t-29.5 -89.5l-19 -86h291v-229h-340l-164 -775q-41 -197 -178 -280q-106 -62 -256 -62q-118 0 -213 39l72 215q60 -20 121 -20q55 0 94 22q59 32 80 140q67 333 151 721h-190v229h239l31 139
q45 200 176 281q104 63 254 63q113 0 213 -41z" />
    <glyph glyph-name="circumflex" unicode="&#x2c6;" horiz-adv-x="708" 
d="M696 1112h-219l-121 133l-120 -133h-220l189 277h303z" />
    <glyph glyph-name="caron" unicode="&#x2c7;" horiz-adv-x="708" 
d="M14 1391h219l121 -134l121 134h219l-188 -277h-303z" />
    <glyph glyph-name="breve" unicode="&#x2d8;" horiz-adv-x="708" 
d="M498 1389h182q0 -138 -86 -212.5t-240 -74.5t-239.5 74.5t-85.5 212.5h180q5 -55 41 -92t104 -37t104.5 37t39.5 92z" />
    <glyph glyph-name="dotaccent" unicode="&#x2d9;" horiz-adv-x="708" 
d="M494 1249q0 -58 -39.5 -97.5t-98.5 -39.5t-101 39.5t-42 97.5t41 97.5t100 39.5t99.5 -39.5t40.5 -97.5z" />
    <glyph glyph-name="ring" unicode="&#x2da;" horiz-adv-x="708" 
d="M575 1282q0 -92 -64.5 -155.5t-156.5 -63.5t-156.5 63.5t-64.5 155.5t64.5 155.5t156.5 63.5t156.5 -63.5t64.5 -155.5zM444 1282q0 37 -26.5 63.5t-63.5 26.5t-62.5 -26.5t-25.5 -63.5t25.5 -63.5t62.5 -26.5t63.5 26.5t26.5 63.5z" />
    <glyph glyph-name="ogonek" unicode="&#x2db;" horiz-adv-x="743" 
d="M588 2h-326q-117 -92 -117 -211q0 -44 14.5 -79t37.5 -57.5t55 -37.5t65.5 -21t69.5 -6q123 0 211 76q-10 13 -86 109q-40 -31 -82 -31q-27 0 -46 18t-19 48q0 26 14.5 51.5t40.5 46.5t49.5 37t54.5 30t41 18t23 9z" />
    <glyph glyph-name="tilde" unicode="&#x2dc;" horiz-adv-x="708" 
d="M688 1382v-28q0 -112 -57.5 -176t-153.5 -64q-41 0 -85 19.5t-82.5 39t-65.5 19.5q-26 0 -43 -19t-17 -53h-161v19q3 121 60.5 185.5t154.5 64.5q55 0 130.5 -37t102.5 -37q28 0 43.5 17.5t15.5 49.5h158z" />
    <glyph glyph-name="hungarumlaut" unicode="&#x2dd;" horiz-adv-x="708" 
d="M780 1389q-43 -46 -128 -139.5t-128 -139.5h-213q32 46 95.5 139.5t95.5 139.5h278zM399 1389q-43 -46 -128 -139.5t-128 -139.5h-211q63 94 189 279h278z" />
    <glyph glyph-name="Omega" unicode="&#x3a9;" horiz-adv-x="1626" 
d="M1552 0h-618v242q28 7 60 22t75 51t76 84t56.5 127t23.5 174q0 77 -15.5 146t-48.5 128.5t-80.5 102.5t-116 67.5t-151.5 24.5q-103 0 -183.5 -37t-130 -102t-75 -148.5t-25.5 -181.5q0 -94 23 -173t56 -127t75 -84t74.5 -52t60.5 -22v-242h-616v242h239q-18 14 -38 33
t-55 64.5t-61.5 97t-46.5 130.5t-20 164q0 107 27.5 207t86.5 188t142.5 153.5t203 103.5t261.5 38q176 0 316.5 -58t227.5 -155.5t133 -219.5t46 -257q0 -85 -20.5 -164t-46 -129t-63 -97.5t-55.5 -64.5t-38 -34h241v-242z" />
    <glyph glyph-name="pi" unicode="&#x3c0;" horiz-adv-x="1249" 
d="M1194 985v-229h-145v-389q0 -30 1 -46t7.5 -34.5t19.5 -30.5q28 -25 115 -25v-231h-66q-101 0 -168 15.5t-118 66.5q-27 27 -43.5 59t-23 72.5t-8 66.5t-1.5 74v402h-264v-756h-287v756h-158v229h1139z" />
    <glyph glyph-name="endash" unicode="&#x2013;" horiz-adv-x="1257" 
d="M1165 391h-1073v250h1073v-250z" />
    <glyph glyph-name="emdash" unicode="&#x2014;" horiz-adv-x="1937" 
d="M1808 391h-1679v250h1679v-250z" />
    <glyph glyph-name="quoteleft" unicode="&#x2018;" horiz-adv-x="585" 
d="M80 827l237 562h189l-96 -562h-330z" />
    <glyph glyph-name="quoteright" unicode="&#x2019;" horiz-adv-x="585" 
d="M506 1389l-238 -562h-188l96 562h330z" />
    <glyph glyph-name="quotesinglbase" unicode="&#x201a;" horiz-adv-x="561" 
d="M494 287l-238 -561h-188l96 561h330z" />
    <glyph glyph-name="quotedblleft" unicode="&#x201c;" horiz-adv-x="974" 
d="M494 827l237 562h189l-97 -562h-329zM55 827l238 562h188l-96 -562h-330z" />
    <glyph glyph-name="quotedblright" unicode="&#x201d;" horiz-adv-x="974" 
d="M481 1389l-237 -562h-189l97 562h329zM920 1389l-238 -562h-188l96 562h330z" />
    <glyph glyph-name="quotedblbase" unicode="&#x201e;" horiz-adv-x="999" 
d="M494 287l-238 -561h-188l96 561h330zM932 287l-238 -561h-188l96 561h330z" />
    <glyph glyph-name="dagger" unicode="&#x2020;" horiz-adv-x="1263" 
d="M1176 741h-402v-979h-282v979h-404v244h404v404h282v-404h402v-244z" />
    <glyph glyph-name="daggerdbl" unicode="&#x2021;" 
d="M1174 272h-402v-510h-283v510h-403v244h403v225h-403v244h403v404h283v-404h402v-244h-402v-225h402v-244z" />
    <glyph glyph-name="bullet" unicode="&#x2022;" horiz-adv-x="774" 
d="M633 520q0 -102 -72 -174t-174 -72t-174 72t-72 174t72 174t174 72t174 -72t72 -174z" />
    <glyph glyph-name="ellipsis" unicode="&#x2026;" horiz-adv-x="1904" 
d="M453 141q0 -71 -48 -118.5t-122 -47.5q-73 0 -121.5 47.5t-48.5 118.5q0 72 48.5 120t121.5 48q75 0 122.5 -47.5t47.5 -120.5zM1122 141q0 -71 -48 -118.5t-122 -47.5q-73 0 -121.5 47.5t-48.5 118.5q0 72 48.5 120t121.5 48q74 0 122 -47.5t48 -120.5zM1792 141
q0 -71 -48 -118.5t-122 -47.5q-73 0 -121.5 47.5t-48.5 118.5q0 72 48.5 120t121.5 48q74 0 122 -47.5t48 -120.5z" />
    <glyph glyph-name="perthousand" unicode="&#x2030;" horiz-adv-x="2576" 
d="M692 1020q0 -171 -82 -280t-229 -109t-228 109t-81 280t81 280t228 109t229 -109t82 -280zM506 1020q0 240 -123 240q-39 0 -65.5 -23.5t-38.5 -63t-16.5 -76t-4.5 -77.5q0 -240 121 -240q39 0 66 23.5t39.5 63t17 76t4.5 77.5zM1741 373q0 -171 -82 -280t-229 -109
t-228.5 109t-81.5 280t82.5 280t229.5 109t228 -109t81 -280zM1554 373q0 239 -122 239q-39 0 -65.5 -23.5t-38.5 -63t-16.5 -75.5t-4.5 -77q0 -240 123 -240q124 0 124 240zM1391 1348l-824 -1422l-151 88l823 1422zM2505 373q0 -171 -82.5 -280t-229.5 -109t-228 109
t-81 280t82 280t229 109t228.5 -109t81.5 -280zM2318 373q0 239 -123 239q-124 0 -124 -239q0 -240 122 -240q39 0 65.5 23.5t38.5 63t16.5 76t4.5 77.5z" />
    <glyph glyph-name="guilsinglleft" unicode="&#x2039;" horiz-adv-x="657" 
d="M539 197l-150 -101l-323 430l323 430l150 -102l-213 -328z" />
    <glyph glyph-name="guilsinglright" unicode="&#x203a;" horiz-adv-x="657" 
d="M117 197l149 -101l324 430l-324 430l-149 -102l213 -328z" />
    <glyph glyph-name="fraction" unicode="&#x2044;" horiz-adv-x="245" 
d="M610 1348l-823 -1422l-152 88l824 1422z" />
    <glyph glyph-name="zerosuperior" unicode="&#x2070;" horiz-adv-x="763" 
d="M692 1020q0 -171 -82 -280t-229 -109t-228 109t-81 280t81 280t228 109t229 -109t82 -280zM506 1020q0 240 -123 240q-39 0 -65.5 -23.5t-38.5 -63t-16.5 -76t-4.5 -77.5q0 -240 121 -240q39 0 66 23.5t39.5 63t17 76t4.5 77.5z" />
    <glyph glyph-name="foursuperior" unicode="&#x2074;" horiz-adv-x="792" 
d="M700 788h-108v-145h-168v145h-340v132l330 469h178v-457h108v-144zM424 932v237l-168 -237h168z" />
    <glyph glyph-name="fivesuperior" unicode="&#x2075;" horiz-adv-x="753" 
d="M649 899q0 -123 -81.5 -197.5t-221.5 -74.5q-162 0 -262 106q17 19 94 111q79 -72 166 -72q59 0 94 30t35 87q0 55 -30 82.5t-78 27.5q-78 0 -119 -73l-140 53l46 410h452v-146h-315l-17 -137q46 35 134 35q105 0 174 -64t69 -178z" />
    <glyph glyph-name="sixsuperior" unicode="&#x2076;" horiz-adv-x="739" 
d="M668 903q0 -116 -80 -194t-209 -78q-70 0 -124.5 23.5t-88 61t-55.5 88t-30.5 100t-8.5 102.5t7.5 103.5t30 106.5t57 97.5t93.5 68.5t135 27q103 0 169.5 -36.5t92.5 -80.5l-102 -98q-36 36 -71 53t-83 17q-54 0 -91 -32t-51.5 -74t-14.5 -87q17 30 64.5 54t111.5 24
q107 0 177.5 -65.5t70.5 -180.5zM492 889q0 52 -31 83.5t-82 31.5q-52 0 -83.5 -32t-31.5 -85t30.5 -83t84.5 -30q50 0 81.5 31.5t31.5 83.5z" />
    <glyph glyph-name="sevensuperior" unicode="&#x2077;" horiz-adv-x="794" 
d="M678 1249l-303 -606h-201l309 592h-377v154h572v-140z" />
    <glyph glyph-name="eightsuperior" unicode="&#x2078;" horiz-adv-x="739" 
d="M668 858q0 -108 -85 -167.5t-212 -59.5q-128 0 -213.5 59.5t-85.5 167.5q0 64 38 110t83 60q-39 14 -70 57.5t-31 104.5q0 103 80.5 161t198.5 58q116 0 196 -58t80 -161q0 -60 -31 -105t-69 -55q45 -14 83 -60t38 -112zM481 1180q-1 45 -31.5 70.5t-78.5 25.5
q-47 0 -79 -26t-32 -70q0 -43 31.5 -66.5t79.5 -23.5t79 23.5t31 66.5zM489 862q0 46 -34.5 72.5t-85.5 26.5q-50 0 -84.5 -27t-34.5 -72q0 -44 34.5 -70t84.5 -26q52 0 86 25.5t34 70.5z" />
    <glyph glyph-name="ninesuperior" unicode="&#x2079;" horiz-adv-x="739" 
d="M72 1137q0 117 79.5 194.5t208.5 77.5q70 0 125 -23.5t88.5 -61t55.5 -88t30.5 -100t8.5 -102.5q0 -43 -6 -85t-19 -89.5t-37.5 -87t-59 -72t-86.5 -51t-116 -18.5q-103 0 -169.5 36.5t-92.5 80.5l102 98q36 -36 71 -53t83 -17q54 0 91.5 32t52 74t14.5 87
q-17 -30 -65 -54t-112 -24q-107 0 -177 65.5t-70 180.5zM248 1151q0 -52 30.5 -83.5t81.5 -31.5q52 0 83.5 32t31.5 85t-30.5 83t-84.5 30q-50 0 -81 -31.5t-31 -83.5z" />
    <glyph glyph-name="parenleftsuperior" unicode="&#x207d;" horiz-adv-x="516" 
d="M391 459q-156 104 -237.5 248t-81.5 311t89 317t238 240q17 -21 51 -61t52 -60q-232 -190 -232 -436q0 -238 232 -432q-37 -41 -111 -127z" />
    <glyph glyph-name="parenrightsuperior" unicode="&#x207e;" horiz-adv-x="516" 
d="M125 459q156 104 237.5 248t81.5 311t-89 317t-238 240q-18 -21 -52 -61l-51 -60q232 -190 232 -436q0 -238 -232 -432q37 -41 111 -127z" />
    <glyph glyph-name="zeroinferior" unicode="&#x2080;" horiz-adv-x="763" 
d="M692 373q0 -171 -82 -280t-229 -109t-228 109t-81 280t81 280t228 109t229 -109t82 -280zM506 373q0 239 -123 239q-39 0 -65.5 -23.5t-38.5 -63t-16.5 -75.5t-4.5 -77q0 -240 121 -240q39 0 66 23.5t39.5 63t17 76t4.5 77.5z" />
    <glyph glyph-name="oneinferior" unicode="&#x2081;" horiz-adv-x="798" 
d="M702 0h-552v150h188v403l-145 -88l-87 129l246 151h166v-595h184v-150z" />
    <glyph glyph-name="twoinferior" unicode="&#x2082;" horiz-adv-x="792" 
d="M659 526q0 -46 -15.5 -84.5t-46 -68.5t-57 -49t-67.5 -43q-11 -6 -42 -23t-44 -25t-33 -22.5t-29 -28t-12 -28.5h342v-154h-534v57q2 77 19.5 132t68.5 106q19 19 43.5 37t43 29t49 29t46.5 28q48 30 70 53.5t22 56.5q0 38 -28 62t-68 24q-54 0 -93.5 -23.5t-84.5 -70.5
l-107 101q44 47 70 65q90 76 217 76q116 0 193 -64t77 -172z" />
    <glyph glyph-name="threeinferior" unicode="&#x2083;" horiz-adv-x="786" 
d="M668 219q0 -109 -82.5 -173t-208.5 -64q-191 0 -289 131l109 100q37 -37 61 -51q56 -33 107 -33q60 0 91 23.5t31 64.5q0 21 -6.5 36.5t-20 24.5t-26 14.5t-32.5 7.5t-31.5 2.5t-30.5 0.5h-59v143h53q30 0 48.5 2t42.5 9.5t36 26t12 48.5q0 32 -27 56t-71 24
q-85 0 -162 -80l-104 101q54 58 84 76q76 51 190 51q109 0 185.5 -59t76.5 -158q0 -65 -33 -111t-67 -55q15 -4 33 -13.5t39.5 -27t36 -48.5t14.5 -69z" />
    <glyph glyph-name="fourinferior" unicode="&#x2084;" horiz-adv-x="792" 
d="M700 145h-108v-145h-168v145h-340v131l330 469h178v-456h108v-144zM424 289v237l-168 -237h168z" />
    <glyph glyph-name="fiveinferior" unicode="&#x2085;" horiz-adv-x="753" 
d="M649 256q0 -123 -81.5 -197.5t-221.5 -74.5q-162 0 -262 106q16 18 94 111q79 -72 166 -72q59 0 94 30t35 87q0 55 -30 82.5t-78 27.5q-78 0 -119 -73l-140 53l46 409h452v-145h-315l-17 -137q46 35 134 35q105 0 174 -64t69 -178z" />
    <glyph glyph-name="sixinferior" unicode="&#x2086;" horiz-adv-x="739" 
d="M668 256q0 -116 -80 -194t-209 -78q-70 0 -124.5 23.5t-88 60.5t-55.5 87.5t-30.5 100t-8.5 102.5t7.5 103.5t30 106.5t56.5 97.5t93.5 69t135.5 27.5q103 0 169.5 -36.5t92.5 -80.5l-102 -98q-36 36 -70.5 52.5t-83.5 16.5q-54 0 -91 -32t-51.5 -73.5t-14.5 -86.5
q17 30 64.5 54t111.5 24q107 0 177.5 -65.5t70.5 -180.5zM492 242q0 52 -31 83t-82 31q-52 0 -83.5 -31.5t-31.5 -84.5t30.5 -83t84.5 -30q50 0 81.5 31.5t31.5 83.5z" />
    <glyph glyph-name="seveninferior" unicode="&#x2087;" horiz-adv-x="792" 
d="M676 606l-303 -606h-201l309 592h-377v153h572v-139z" />
    <glyph glyph-name="eightinferior" unicode="&#x2088;" horiz-adv-x="739" 
d="M668 211q0 -108 -85 -167.5t-212 -59.5q-128 0 -213.5 59.5t-85.5 167.5q0 64 38 110t83 60q-39 14 -70 57.5t-31 104.5q0 103 80.5 161t198.5 58q116 0 196 -58t80 -161q0 -60 -31 -105t-69 -55q45 -14 83 -60t38 -112zM481 532q-1 45 -31.5 71t-78.5 26
q-47 0 -79 -26.5t-32 -70.5q0 -43 31.5 -66.5t79.5 -23.5t79 23.5t31 66.5zM489 215q0 46 -34 72t-86 26q-50 0 -84.5 -26.5t-34.5 -71.5q0 -44 34.5 -70t84.5 -26q52 0 86 25.5t34 70.5z" />
    <glyph glyph-name="nineinferior" unicode="&#x2089;" horiz-adv-x="739" 
d="M72 489q0 117 79.5 195t208.5 78q70 0 125 -23.5t88.5 -61t55.5 -88t30.5 -100t8.5 -102.5q0 -43 -6 -85t-19 -89.5t-37.5 -87t-59 -72t-86.5 -51t-116 -18.5q-103 0 -169.5 36t-92.5 80l102 99q36 -36 71 -53t83 -17q54 0 91.5 32t52 74t14.5 87q-17 -30 -65 -54
t-112 -24q-107 0 -177 65t-70 180zM248 504q0 -52 30.5 -83.5t81.5 -31.5q52 0 83.5 32t31.5 85t-30.5 82.5t-84.5 29.5q-50 0 -81 -31t-31 -83z" />
    <glyph glyph-name="Euro" unicode="&#x20ac;" 
d="M463 748h397v223h-373q19 87 88.5 149t178.5 62q160 0 268 -135l184 147q-72 104 -189.5 165.5t-275.5 61.5q-116 0 -213 -35t-165 -96.5t-112.5 -142.5t-62.5 -176h-180v-223h158q-2 -16 -2 -62q0 -45 2 -61h-158v-222h180q16 -85 59 -161.5t111 -139t169 -99t221 -36.5
q158 0 278.5 62.5t192.5 165.5l-185 147q-108 -135 -274 -135q-110 0 -183 58t-92 138h375v222h-397q-2 16 -2 61q0 46 2 62z" />
    <glyph glyph-name="trademark" unicode="&#x2122;" horiz-adv-x="1675" 
d="M1571 610h-172v551l-168 -551h-148l-168 551v-551h-174v779h252l166 -541l164 541h248v-779zM653 1227h-225v-617h-186v617h-226v162h637v-162z" />
    <glyph glyph-name="onethird" unicode="&#x2153;" horiz-adv-x="1867" 
d="M702 643h-552v150h188v403l-145 -88l-87 129l246 152h166v-596h184v-150zM1450 1348l-823 -1422l-152 88l823 1422zM1749 219q0 -109 -82.5 -173t-208.5 -64q-191 0 -289 131l109 100q37 -37 61 -51q56 -33 107 -33q60 0 91.5 23.5t31.5 64.5q0 30 -14 49t-41 26.5t-45 9
t-48 1.5h-59v143h53q30 0 48.5 2t42.5 9.5t36 26t12 48.5q0 32 -27 56t-71 24q-85 0 -162 -80l-104 101q54 58 84 76q76 51 190 51q109 0 185.5 -59t76.5 -158q0 -65 -33 -111t-67 -55q15 -4 33 -13.5t39.5 -27t36 -48.5t14.5 -69z" />
    <glyph glyph-name="twothirds" unicode="&#x2154;" horiz-adv-x="1832" 
d="M1415 1348l-823 -1422l-152 88l824 1422zM659 1174q0 -46 -15.5 -84.5t-46 -69t-57.5 -50t-67 -42.5q-11 -6 -42 -23t-44 -25t-33 -22.5t-29 -28t-12 -28.5h342v-154h-534v58q2 77 19.5 131.5t68.5 105.5q19 19 43.5 37t43 29t49 29t46.5 28q48 29 70 53.5t22 57.5
q0 38 -28 62t-68 24q-53 0 -93 -24t-85 -71l-107 101q44 47 70 65q90 76 217 76q116 0 193 -64t77 -171zM1714 219q0 -109 -82.5 -173t-208.5 -64q-190 0 -288 131l108 100q36 -36 62 -51q56 -33 106 -33q60 0 91.5 23.5t31.5 64.5q0 30 -14 49t-41 26.5t-45 9t-48 1.5h-59
v143h53q24 0 38.5 1t36.5 5.5t34 13t21.5 25.5t9.5 41q0 32 -27.5 56t-71.5 24q-48 0 -85.5 -20t-75.5 -60l-105 101q54 58 84 76q76 51 191 51q109 0 185.5 -59t76.5 -158q0 -65 -33.5 -111t-67.5 -55q15 -4 33 -13.5t39.5 -27t36 -48.5t14.5 -69z" />
    <glyph glyph-name="oneeighth" unicode="&#x215b;" horiz-adv-x="1826" 
d="M702 643h-552v150h188v403l-145 -88l-87 129l246 152h166v-596h184v-150zM1460 1348l-823 -1422l-152 88l824 1422zM1755 211q0 -108 -85 -167.5t-212 -59.5q-128 0 -213.5 59.5t-85.5 167.5q0 64 38 110t83 60q-38 14 -69 57.5t-31 104.5q0 103 80 161t198 58
q117 0 197 -58t80 -161q0 -59 -31.5 -104.5t-69.5 -55.5q45 -14 83 -60t38 -112zM1569 532q-1 45 -32 71t-79 26q-47 0 -78.5 -26t-31.5 -71q0 -43 31 -66.5t79 -23.5t79.5 23.5t31.5 66.5zM1577 215q0 46 -34.5 72t-86.5 26q-50 0 -84.5 -26.5t-34.5 -71.5q0 -44 34.5 -70
t84.5 -26q52 0 86.5 25.5t34.5 70.5z" />
    <glyph glyph-name="threeeighths" unicode="&#x215c;" horiz-adv-x="1751" 
d="M1382 1348l-823 -1422l-151 88l823 1422zM668 868q0 -109 -82.5 -173t-208.5 -64q-191 0 -289 131l109 100q37 -37 61 -51q56 -33 107 -33q60 0 91 23.5t31 64.5q0 21 -6.5 36.5t-20 24.5t-26 14.5t-32.5 7.5t-31.5 2.5t-30.5 0.5h-59v144h53q30 0 48.5 2t42.5 9.5t36 26
t12 48.5q0 32 -27 56t-71 24q-85 0 -162 -80l-104 100q54 58 84 76q76 51 190 51q109 0 185.5 -59t76.5 -158q0 -65 -33 -111t-67 -55q15 -4 33 -13.5t39.5 -27t36 -48.5t14.5 -69zM1679 211q0 -108 -85 -167.5t-212 -59.5q-128 0 -213.5 59.5t-85.5 167.5q0 64 38 110
t83 60q-38 14 -69 57.5t-31 104.5q0 103 80 161t198 58q117 0 197 -58t80 -161q0 -60 -31 -105t-69 -55q45 -14 82.5 -60t37.5 -112zM1493 532q-1 45 -32 71t-79 26q-47 0 -78.5 -26t-31.5 -71q0 -43 31 -66.5t79 -23.5t79.5 23.5t31.5 66.5zM1501 215q0 46 -34.5 72
t-86.5 26q-50 0 -84 -26.5t-34 -71.5q0 -44 34.5 -70t83.5 -26q52 0 86.5 25.5t34.5 70.5z" />
    <glyph glyph-name="fiveeighths" unicode="&#x215d;" horiz-adv-x="1724" 
d="M1356 1348l-824 -1422l-151 88l823 1422zM649 899q0 -123 -81.5 -197.5t-221.5 -74.5q-162 0 -262 106q17 19 94 111q79 -72 166 -72q59 0 94 30t35 87q0 55 -30 82.5t-78 27.5q-78 0 -119 -73l-140 53l46 410h452v-146h-315l-17 -137q46 35 134 35q105 0 174 -64
t69 -178zM1653 211q0 -108 -85 -167.5t-212 -59.5q-128 0 -213.5 59.5t-85.5 167.5q0 64 38 110t83 60q-39 14 -70 57.5t-31 104.5q0 103 80.5 161t198.5 58q116 0 196 -58t80 -161q0 -60 -31 -105t-69 -55q45 -14 83 -60t38 -112zM1466 532q-1 45 -31.5 71t-78.5 26
q-47 0 -79 -26.5t-32 -70.5q0 -43 31.5 -66.5t79.5 -23.5t79 23.5t31 66.5zM1475 215q0 46 -34.5 72t-86.5 26q-50 0 -84.5 -26.5t-34.5 -71.5q0 -44 34.5 -70t84.5 -26q52 0 86.5 25.5t34.5 70.5z" />
    <glyph glyph-name="seveneighths" unicode="&#x215e;" horiz-adv-x="1650" 
d="M1282 1348l-823 -1422l-152 88l823 1422zM678 1249l-303 -606h-201l309 592h-377v154h572v-140zM1579 211q0 -108 -85 -167.5t-212 -59.5q-128 0 -213.5 59.5t-85.5 167.5q0 64 38 110t83 60q-38 14 -69 57.5t-31 104.5q0 103 80 161t198 58q117 0 197 -58t80 -161
q0 -59 -31.5 -104.5t-69.5 -55.5q45 -14 83 -60t38 -112zM1393 532q-1 45 -32 71t-79 26q-47 0 -79 -26.5t-32 -70.5q0 -43 31.5 -66.5t79.5 -23.5t79.5 23.5t31.5 66.5zM1401 215q0 46 -34.5 72t-86.5 26q-50 0 -84.5 -26.5t-34.5 -71.5q0 -44 34.5 -70t84.5 -26
q52 0 86.5 25.5t34.5 70.5z" />
    <glyph glyph-name="partialdiff" unicode="&#x2202;" horiz-adv-x="1253" 
d="M96 473q0 -140 63 -254t184 -182t280 -68q127 0 226.5 43t161 111.5t101 162.5t55 187t15.5 195q0 98 -14 192.5t-54.5 199t-103 182t-169.5 128.5t-245 51q-93 0 -175.5 -20.5t-131 -45.5t-91 -60.5t-54.5 -50.5t-23 -30l172 -163q12 15 30.5 32t53.5 42t87.5 41
t110.5 16q73 0 132 -28t94.5 -71t59.5 -98t33 -105.5t9 -97.5v-26q-18 23 -46 47.5t-72 52.5t-107 46t-131 18q-197 0 -324 -119t-127 -328zM862 440q0 -106 -65.5 -170.5t-173.5 -64.5q-106 0 -171 65t-65 172q0 106 64 171t170 65q108 0 174.5 -65.5t66.5 -172.5z" />
    <glyph glyph-name="Delta" unicode="&#x2206;" horiz-adv-x="1310" 
d="M1319 0h-1325l526 1389h258zM940 244l-291 809l-282 -809h573z" />
    <glyph glyph-name="product" unicode="&#x220f;" horiz-adv-x="1468" 
d="M1438 1135h-156v-1135h-303v1135h-490v-1135h-303v1135h-155v254h1407v-254z" />
    <glyph glyph-name="summation" unicode="&#x2211;" horiz-adv-x="1269" 
d="M1214 0h-1153v256l451 463l-418 416v254h1094v-254h-719l422 -416l-453 -463h776v-256z" />
    <glyph glyph-name="minus" unicode="&#x2212;" 
d="M1174 391h-1086v250h1086v-250z" />
    <glyph glyph-name="radical" unicode="&#x221a;" horiz-adv-x="1249" 
d="M1217 1341l-424 -1341h-254l-242 608h-221v248h387l192 -516l322 1081z" />
    <glyph glyph-name="infinity" unicode="&#x221e;" horiz-adv-x="1466" 
d="M1360 698q0 -90 -34.5 -169.5t-109 -133t-176.5 -53.5q-180 0 -299 193q-30 -50 -68 -90t-101.5 -71.5t-135.5 -31.5q-78 0 -142 28.5t-105 77.5t-63 112.5t-22 133.5q0 92 37 171t113.5 130.5t177.5 51.5q96 0 172 -54q75 -50 131 -129q25 38 50 66.5t61.5 57.5t85 45
t104.5 16q100 0 175.5 -51.5t112 -130.5t36.5 -169zM1178 700q0 73 -40.5 120.5t-113.5 47.5q-70 0 -127 -69q-51 -63 -63 -99q47 -79 65 -102q65 -82 127 -82q72 0 112 53.5t40 130.5zM641 707q-4 15 -74 88q-68 77 -139 77q-66 0 -101.5 -55t-35.5 -129q0 -72 39 -123
t106 -51q70 0 139 90q40 50 66 103z" />
    <glyph glyph-name="integral" unicode="&#x222b;" 
d="M1133 1386l-70 -215l-9 3l-18 4.5t-23.5 5.5t-31 4.5t-35.5 1.5q-96 0 -137 -47q-16 -18 -24.5 -47t-9.5 -51.5t-1 -65.5v-963q0 -238 -149 -346q-111 -80 -289 -80q-114 0 -209 35l70 217q72 -18 116 -18q87 0 129 39q29 28 37 70t8 114v948q0 240 146 346
q111 80 291 80q114 0 209 -35z" />
    <glyph glyph-name="approxequal" unicode="&#x2248;" 
d="M1176 776q-139 -219 -338 -219q-73 0 -140 21t-124 42t-105 21q-95 0 -182 -111l-199 150q141 223 336 223q68 0 132.5 -21t122 -42t109.5 -21q54 0 98.5 25t88.5 82zM1176 348q-139 -219 -338 -219q-73 0 -140 21t-124 42t-105 21q-95 0 -182 -111l-199 150
q141 223 336 223q68 0 132.5 -21t122 -42t109.5 -21q54 0 98.5 25t88.5 82z" />
    <glyph glyph-name="notequal" unicode="&#x2260;" 
d="M1174 176h-662l-172 -244l-154 105l99 139h-197v250h369l125 180h-494v250h664l172 246l153 -107l-98 -139h195v-250h-365l-127 -180h492v-250z" />
    <glyph glyph-name="lessequal" unicode="&#x2264;" 
d="M1174 322l-1086 393v254l1086 397v-264l-762 -260l762 -256v-264zM1174 0h-1086v250h1086v-250z" />
    <glyph glyph-name="greaterequal" unicode="&#x2265;" 
d="M88 322l1086 393v254l-1086 397v-264l762 -260l-762 -256v-264zM88 0h1086v250h-1086v-250z" />
    <glyph glyph-name="lozenge" unicode="&#x25ca;" horiz-adv-x="1249" 
d="M1227 696l-469 -696h-264l-469 696l469 693h264zM627 1176l-310 -480l310 -481l309 481z" />
    <glyph glyph-name="Lslashsmall" unicode="&#xf6f9;" horiz-adv-x="1110" 
d="M1110 0h-887v379l-92 -84l-154 162l246 217v567h295v-344l139 131l154 -158l-293 -270v-350h592v-250z" />
    <glyph glyph-name="Scaronsmall" unicode="&#xf6fd;" horiz-adv-x="1208" 
d="M1116 369q0 -126 -71.5 -217t-191.5 -136t-273 -45q-167 0 -292 45t-200 111q-29 24 -45 43l160 190q86 -76 176 -110.5t199 -34.5q61 0 112.5 13.5t87 46t35.5 79.5q0 35 -25.5 60t-68 40t-98 26.5t-116.5 24t-122.5 29t-117 45t-98 67.5t-68 102t-25.5 143
q0 166 137.5 272.5t361.5 106.5q139 0 267 -36.5t219 -117.5q9 -7 45 -43l-166 -184q-79 71 -166 108t-199 37q-100 0 -152 -35t-52 -90q0 -36 25.5 -61t69 -39.5t99.5 -25t118 -22t123.5 -27t117.5 -44t99.5 -68t69 -104.5t25.5 -149zM264 1655h219l121 -133l121 133h219
l-188 -277h-303z" />
    <glyph glyph-name="Zcaronsmall" unicode="&#xf6ff;" horiz-adv-x="1183" 
d="M1114 0h-1046v229l645 764h-621v248h1000v-229l-643 -762h665v-250zM252 1655h219l121 -133l121 133h219l-189 -277h-303z" />
    <glyph glyph-name="ampersandsmall" unicode="&#xf726;" horiz-adv-x="1228" 
d="M1227 0h-297l-99 109q-60 -61 -153 -99.5t-199 -38.5q-89 0 -166 22t-138.5 65.5t-96.5 116.5t-35 167q0 237 264 375q-63 64 -91 117t-28 120q0 145 105.5 230.5t261.5 85.5q89 0 165 -31.5t126.5 -99.5t50.5 -160q0 -61 -20 -113t-56 -91.5t-73 -67.5t-84 -54l165 -188
q42 81 48 174h223q0 -109 -33 -202.5t-80 -155.5zM659 975q0 43 -28.5 70.5t-75.5 27.5q-52 0 -85.5 -27t-33.5 -75q0 -43 23.5 -81t68.5 -83q38 23 62 41t46.5 52.5t22.5 74.5zM684 272l-244 279q-72 -47 -107.5 -89t-35.5 -110q0 -70 52.5 -117t135.5 -47q122 0 199 84z
" />
    <glyph glyph-name="zerooldstyle" unicode="&#xf730;" horiz-adv-x="1130" 
d="M1071 621q0 -139 -33.5 -257.5t-96 -206t-159.5 -137t-217 -49.5q-161 0 -277 86.5t-172.5 231.5t-56.5 332t57 332t173 231t276 86q161 0 277 -86t172.5 -231t56.5 -332zM774 621q0 407 -207 407q-45 0 -80 -19t-57.5 -53t-37.5 -73.5t-22.5 -88.5t-10.5 -89t-3 -84
q0 -408 207 -408q45 0 80 19t57.5 53t37.5 73t22.5 88.5t10.5 90t3 84.5z" />
    <glyph glyph-name="oneoldstyle" unicode="&#xf731;" horiz-adv-x="1130" 
d="M1067 0h-901v240h305v696l-238 -154l-137 207l396 252h270v-1001h305v-240z" />
    <glyph glyph-name="twooldstyle" unicode="&#xf732;" horiz-adv-x="1130" 
d="M1010 881q0 -64 -19.5 -120.5t-47 -96.5t-73.5 -79.5t-84 -64t-92 -55.5q-16 -9 -60.5 -33.5t-60.5 -34t-47 -31t-44 -36.5t-26.5 -38t-17.5 -48h566v-244h-871v92q3 127 32 217.5t111 175.5q25 25 53 47.5t64 46.5t57 36.5t67.5 39.5t60.5 35q79 48 117 91.5t38 103.5
q0 65 -48.5 105t-117.5 40q-89 0 -155 -38t-138 -113l-165 161q56 68 108 111q147 119 352 119q191 0 316 -105t125 -284z" />
    <glyph glyph-name="threeoldstyle" unicode="&#xf733;" horiz-adv-x="1130" 
d="M1026 362q0 -181 -133.5 -286t-337.5 -105q-308 0 -467 215l170 158q45 -53 115 -95t162 -42q101 0 154.5 40.5t53.5 114.5q0 83 -86 117q-48 31 -161 31h-99v233h70q33 0 55.5 1t55.5 5.5t55 14.5t43.5 25.5t32 42t10.5 61.5q0 57 -45 99t-121 42q-142 0 -268 -133
l-164 162q76 84 133 119q141 88 309 88q115 0 211.5 -42.5t156.5 -125.5t60 -191q0 -112 -59 -191t-111 -91q18 -4 40.5 -14t52.5 -32t54 -50t41 -73t17 -98z" />
    <glyph glyph-name="fouroldstyle" unicode="&#xf734;" horiz-adv-x="1130" 
d="M1071 244h-180v-244h-279v244h-561v217l551 780h289v-764h180v-233zM612 477v391l-278 -391h278z" />
    <glyph glyph-name="fiveoldstyle" unicode="&#xf735;" horiz-adv-x="1130" 
d="M1026 424q0 -204 -133.5 -328.5t-362.5 -124.5t-380 131q-10 9 -44 43l150 177q60 -57 123 -86t145 -29q100 0 162 52t62 149q0 94 -53 141t-134 47q-74 0 -118.5 -29.5t-77.5 -89.5q-32 12 -106.5 40t-113.5 44l72 680h731v-233h-518l-27 -248q37 32 99.5 47.5
t126.5 15.5q171 0 284 -105t113 -294z" />
    <glyph glyph-name="sixoldstyle" unicode="&#xf736;" horiz-adv-x="1130" 
d="M1063 426q0 -126 -56 -229t-164 -164.5t-249 -61.5q-113 0 -202.5 39t-144 101t-90 146.5t-49.5 167.5t-14 173q0 59 6 118t22 127t41 127.5t66.5 115.5t94 96t127.5 64t165 24t167 -19.5t128.5 -50.5t84 -61t51.5 -60l-164 -157q-54 59 -113 86.5t-139 27.5
q-69 0 -122 -32t-82.5 -83t-44 -105t-15.5 -109q36 54 116.5 89t173.5 35q178 0 292 -107.5t114 -297.5zM782 401q0 90 -51 143.5t-137 53.5q-88 0 -140.5 -55t-52.5 -146q0 -89 51.5 -141.5t139.5 -52.5q85 0 137.5 54t52.5 144z" />
    <glyph glyph-name="sevenoldstyle" unicode="&#xf737;" horiz-adv-x="1130" 
d="M1028 1016l-496 -1016h-317l508 997h-623v244h928v-225z" />
    <glyph glyph-name="eightoldstyle" unicode="&#xf738;" horiz-adv-x="1130" 
d="M1053 348q0 -120 -68 -207t-177 -128.5t-243 -41.5q-135 0 -243.5 41.5t-176 128.5t-67.5 207q0 58 20.5 109.5t52.5 86t66 57t66 32.5q-63 24 -116.5 97.5t-53.5 178.5q0 114 62.5 197.5t163.5 123.5t226 40t226 -40t164 -123.5t63 -197.5q0 -104 -54 -179.5t-116 -92.5
q75 -25 140 -101.5t65 -187.5zM754 891q0 78 -54 121t-135 43t-134.5 -43t-53.5 -121q0 -75 53.5 -115.5t134.5 -40.5t135 40.5t54 115.5zM766 354q0 82 -58 127t-145 45q-84 0 -142.5 -45t-58.5 -127q0 -76 58.5 -121t142.5 -45q87 0 145 43t58 123z" />
    <glyph glyph-name="nineoldstyle" unicode="&#xf739;" horiz-adv-x="1130" 
d="M68 815q0 126 56 229t164 164.5t249 61.5q113 0 202 -39t143.5 -101t90.5 -146.5t49.5 -167.5t13.5 -173q0 -59 -6 -118t-22 -127t-41 -127.5t-66.5 -115.5t-94 -96t-127.5 -64t-165 -24t-167 19.5t-128 50.5t-83.5 61t-51.5 60l164 157q54 -59 113 -86.5t139 -27.5
q69 0 122 32t82.5 83t44 105.5t15.5 109.5q-36 -54 -117 -89.5t-174 -35.5q-177 0 -291 107.5t-114 297.5zM348 840q0 -89 51.5 -143t137.5 -54q87 0 139.5 55t52.5 146q0 89 -51 141.5t-139 52.5q-85 0 -138 -54t-53 -144z" />
    <glyph glyph-name="Asmall" unicode="&#xf761;" horiz-adv-x="1312" 
d="M997 0l-98 244h-496l-98 -244h-303l506 1241h295l508 -1241h-314zM651 903l-162 -424h324z" />
    <glyph glyph-name="Bsmall" unicode="&#xf762;" horiz-adv-x="1249" 
d="M1182 369q0 -161 -101 -256q-74 -68 -190 -90.5t-281 -22.5h-481v1241h481q83 0 127 -2t109.5 -10.5t113 -31t84.5 -58.5q89 -89 89 -211q0 -103 -48.5 -179.5t-128.5 -99.5q104 -18 165 -96.5t61 -183.5zM836 874q0 31 -9 54t-27 36.5t-36.5 22t-47 12t-48 4.5t-50.5 1
h-198v-263h201q110 0 162.5 27.5t52.5 105.5zM881 381q0 37 -14.5 62.5t-35 39t-56 21t-63.5 9t-71 1.5h-221v-274h233q95 0 138 14q90 27 90 127z" />
    <glyph glyph-name="Csmall" unicode="&#xf763;" horiz-adv-x="1290" 
d="M1247 195q-86 -103 -225.5 -163.5t-302.5 -60.5q-156 0 -281 50.5t-205 138.5t-122.5 205t-42.5 253q0 134 43.5 251.5t124.5 207t206.5 141.5t280.5 52q277 0 453 -168q25 -25 53 -60q-59 -55 -174 -170q-40 40 -60 54q-111 100 -264 100q-174 0 -267 -113.5t-93 -289.5
q0 -179 99.5 -292.5t260.5 -113.5q186 0 354 154q47 -52 162 -176z" />
    <glyph glyph-name="Dsmall" unicode="&#xf764;" horiz-adv-x="1347" 
d="M1280 627q0 -141 -48.5 -262t-141.5 -203q-59 -53 -128.5 -87t-145.5 -49.5t-139 -20.5t-145 -5h-403v1241h403q92 0 152 -3.5t139 -16.5t145 -44t122 -81q190 -172 190 -469zM975 627q0 190 -103 293q-28 28 -63 45t-80 24t-75.5 8.5t-82.5 1.5h-147v-753h133
q56 0 88.5 2t77 9.5t80 26t67.5 48.5q51 50 78 128t27 167z" />
    <glyph glyph-name="Esmall" unicode="&#xf765;" horiz-adv-x="1140" 
d="M1073 0h-944v1241h920v-248h-625v-245h580v-244h-580v-254h649v-250z" />
    <glyph glyph-name="Fsmall" unicode="&#xf766;" horiz-adv-x="1048" 
d="M1024 993h-600v-264h555v-246h-555v-483h-295v1241h895v-248z" />
    <glyph glyph-name="Gsmall" unicode="&#xf767;" horiz-adv-x="1374" 
d="M1278 0h-229l-5 113q-36 -55 -141 -98.5t-225 -43.5q-144 0 -260.5 51t-192.5 139t-116.5 205.5t-40.5 251.5t43.5 251.5t124.5 207t206.5 141.5t280.5 52q92 0 175 -20t135 -46t98.5 -62.5t65 -56.5t34.5 -41l-174 -170q-145 152 -326 152q-88 0 -157.5 -33t-112.5 -90
t-65.5 -129t-22.5 -153q0 -183 94.5 -293.5t255.5 -110.5q136 0 216 68.5t85 175.5v16h-326v232h580v-709z" />
    <glyph glyph-name="Hsmall" unicode="&#xf768;" horiz-adv-x="1343" 
d="M920 0v504h-496v-504h-295v1241h295v-487h496v487h294v-1241h-294z" />
    <glyph glyph-name="Ismall" unicode="&#xf769;" horiz-adv-x="552" 
d="M424 0h-295v1241h295v-1241z" />
    <glyph glyph-name="Jsmall" unicode="&#xf76a;" horiz-adv-x="974" 
d="M852 451q0 -52 -2.5 -88.5t-12.5 -86.5t-33.5 -94t-60.5 -82q-62 -62 -154.5 -95.5t-199.5 -33.5q-253 0 -397 201q25 24 54.5 51.5t65.5 60.5t56 52q73 -115 225 -115q164 0 164 217v803h295v-790z" />
    <glyph glyph-name="Ksmall" unicode="&#xf76b;" horiz-adv-x="1259" 
d="M1266 0h-361l-481 541v-541h-295v1241h295v-516l483 516h340l-559 -594z" />
    <glyph glyph-name="Lsmall" unicode="&#xf76c;" horiz-adv-x="1015" 
d="M1016 0h-887v1241h295v-991h592v-250z" />
    <glyph glyph-name="Msmall" unicode="&#xf76d;" horiz-adv-x="1646" 
d="M1518 0h-271v885l-303 -885h-246l-303 885v-885h-266v1241h406l288 -852l295 852h400v-1241z" />
    <glyph glyph-name="Nsmall" unicode="&#xf76e;" horiz-adv-x="1343" 
d="M1214 0h-284l-518 758v-758h-283v1241h285l518 -756v756h282v-1241z" />
    <glyph glyph-name="Osmall" unicode="&#xf76f;" horiz-adv-x="1439" 
d="M1372 621q0 -97 -25 -189.5t-78.5 -176t-129 -147t-183.5 -100.5t-235 -37q-128 0 -236.5 37t-184 100.5t-129 147t-78.5 176t-25 189.5q0 122 41 235.5t119.5 207t206 150t286.5 56.5q127 0 235 -37t183.5 -100t129 -146.5t78.5 -176t25 -189.5zM1067 621q0 109 -37 199
t-117 148t-192 58t-192.5 -58t-118 -148t-37.5 -199q0 -81 22 -152.5t64 -128.5t109.5 -90t152.5 -33t152 33t108.5 90t63.5 128.5t22 152.5z" />
    <glyph glyph-name="Psmall" unicode="&#xf770;" horiz-adv-x="1161" 
d="M1137 842q0 -169 -99 -271q-134 -139 -420 -139h-194v-432h-295v1241h432q78 0 125.5 -2t107.5 -10.5t107 -28t88 -51.5q75 -59 111.5 -139.5t36.5 -167.5zM846 840q0 77 -51 116q-62 50 -220 50h-151v-336h162q58 0 99.5 6.5t80.5 23t59.5 52t20.5 88.5z" />
    <glyph glyph-name="Qsmall" unicode="&#xf771;" horiz-adv-x="1439" 
d="M1372 618q0 -259 -164 -446l154 -156l-166 -159l-180 178q-122 -64 -295 -64q-128 0 -236.5 37t-184 99.5t-129 146t-78.5 175.5t-25 189t25 189.5t78.5 176.5t129 147.5t184 101t236.5 37.5q127 0 235.5 -37.5t183.5 -101t128.5 -147.5t78.5 -176.5t25 -189.5zM1067 618
q0 110 -37 200.5t-117 149t-192 58.5t-192.5 -58.5t-118 -149t-37.5 -200.5q0 -109 37.5 -198t118 -146t192.5 -57q60 0 102 14l-157 154l168 164l172 -170q61 94 61 239z" />
    <glyph glyph-name="Rsmall" unicode="&#xf772;" horiz-adv-x="1249" 
d="M1233 0h-336l-322 455h-151v-455h-295v1241h489q68 0 113.5 -3t105.5 -14t110 -37t91 -67q111 -111 111 -268q0 -130 -73 -223.5t-197 -134.5zM852 852q0 33 -10 59t-29.5 42t-41.5 27t-51.5 16.5t-54.5 7.5t-55 2h-186v-314h164q45 0 76.5 2t70 11t61.5 25.5t39.5 47.5
t16.5 74z" />
    <glyph glyph-name="Ssmall" unicode="&#xf773;" horiz-adv-x="1208" 
d="M1116 369q0 -126 -71.5 -217t-191.5 -136t-273 -45q-167 0 -292 45t-200 111q-29 24 -45 43l160 190q86 -76 176 -110.5t199 -34.5q61 0 112.5 13.5t87 46t35.5 79.5q0 35 -25.5 60t-68 40t-98 26.5t-116.5 24t-122.5 29t-117 45t-98 67.5t-68 102t-25.5 143
q0 166 137.5 272.5t361.5 106.5q139 0 267 -36.5t219 -117.5q9 -7 45 -43l-166 -184q-79 71 -166 108t-199 37q-100 0 -152 -35t-52 -90q0 -36 25.5 -61t69 -39.5t99.5 -25t118 -22t123.5 -27t117.5 -44t99.5 -68t69 -104.5t25.5 -149z" />
    <glyph glyph-name="Tsmall" unicode="&#xf774;" horiz-adv-x="1085" 
d="M1085 993h-395v-993h-295v993h-395v248h1085v-248z" />
    <glyph glyph-name="Usmall" unicode="&#xf775;" horiz-adv-x="1331" 
d="M920 1241h294v-717q0 -128 -29.5 -224.5t-109.5 -176.5q-77 -76 -184 -114t-227 -38q-258 0 -414 156q-79 79 -106 175.5t-27 221.5v717h295v-696q0 -44 1 -68.5t6.5 -62.5t19.5 -67.5t36 -53.5q74 -74 191 -74q121 0 188 70q30 31 45 77.5t18 84t3 98.5v692z" />
    <glyph glyph-name="Vsmall" unicode="&#xf776;" horiz-adv-x="1277" 
d="M780 0h-288l-492 1241h322l317 -870l326 870h307z" />
    <glyph glyph-name="Wsmall" unicode="&#xf777;" horiz-adv-x="1871" 
d="M1860 1241l-381 -1241h-295l-246 815l-246 -815h-297l-383 1241h310l239 -809l246 809h268l248 -809l233 809h304z" />
    <glyph glyph-name="Xsmall" unicode="&#xf778;" horiz-adv-x="1187" 
d="M1188 0h-334l-260 408l-268 -408h-326l436 645l-397 596h332l231 -369l236 369h313l-393 -594z" />
    <glyph glyph-name="Ysmall" unicode="&#xf779;" horiz-adv-x="1189" 
d="M741 510v-510h-295v510l-444 731h332l262 -461l268 461h326z" />
    <glyph glyph-name="Zsmall" unicode="&#xf77a;" horiz-adv-x="1183" 
d="M1114 0h-1046v229l645 764h-621v248h1000v-229l-643 -762h665v-250z" />
    <glyph glyph-name="Agravesmall" unicode="&#xf7e0;" horiz-adv-x="1312" 
d="M997 0l-98 244h-496l-98 -244h-303l506 1241h295l508 -1241h-314zM651 903l-162 -424h324zM848 1378h-225l-254 277h290z" />
    <glyph glyph-name="Aacutesmall" unicode="&#xf7e1;" horiz-adv-x="1312" 
d="M997 0l-98 244h-496l-98 -244h-303l506 1241h295l508 -1241h-314zM651 903l-162 -424h324zM465 1378h225l254 277h-291z" />
    <glyph glyph-name="Acircumflexsmall" unicode="&#xf7e2;" horiz-adv-x="1312" 
d="M997 0l-98 244h-496l-98 -244h-303l506 1241h295l508 -1241h-314zM651 903l-162 -424h324zM991 1378h-219l-121 133l-121 -133h-219l189 277h303z" />
    <glyph glyph-name="Atildesmall" unicode="&#xf7e3;" horiz-adv-x="1312" 
d="M997 0l-98 244h-496l-98 -244h-303l506 1241h295l508 -1241h-314zM651 903l-162 -424h324zM983 1649v-29q0 -112 -57.5 -176t-153.5 -64q-41 0 -85 19.5t-82.5 39t-65.5 19.5q-26 0 -43 -19t-17 -53h-162v19q3 121 60.5 185.5t154.5 64.5q55 0 131 -37t103 -37
q28 0 43.5 18t15.5 50h158z" />
    <glyph glyph-name="Adieresissmall" unicode="&#xf7e4;" horiz-adv-x="1312" 
d="M997 0l-98 244h-496l-98 -244h-303l506 1241h295l508 -1241h-314zM651 903l-162 -424h324zM586 1518q0 -58 -40.5 -98t-99.5 -40t-100 40t-41 98t41 97.5t100 39.5t99.5 -39.5t40.5 -97.5zM997 1518q0 -58 -40 -98t-99 -40t-100 40t-41 98t40 97.5t99 39.5t100 -39.5
t41 -97.5z" />
    <glyph glyph-name="Aringsmall" unicode="&#xf7e5;" horiz-adv-x="1312" 
d="M997 0l-98 244h-496l-98 -244h-303l506 1241h295l508 -1241h-314zM651 903l-162 -424h324zM872 1573q0 -92 -64.5 -155.5t-156.5 -63.5t-156.5 63.5t-64.5 155.5t64.5 155.5t156.5 63.5t156.5 -63.5t64.5 -155.5zM741 1573q0 37 -26.5 63.5t-63.5 26.5t-62.5 -26.5
t-25.5 -63.5t25.5 -63.5t62.5 -26.5t63.5 26.5t26.5 63.5z" />
    <glyph glyph-name="AEsmall" unicode="&#xf7e6;" horiz-adv-x="1939" 
d="M1870 0h-895v268h-434l-166 -268h-334l788 1241h1018v-248h-577v-245h536v-244h-536v-254h600v-250zM975 510v500l-297 -500h297z" />
    <glyph glyph-name="Ccedillasmall" unicode="&#xf7e7;" horiz-adv-x="1290" 
d="M735 -29l-41 -57q8 4 31 4q92 0 147.5 -44t55.5 -122q0 -87 -67.5 -135.5t-168.5 -48.5q-52 0 -99 15.5t-68.5 30t-35.5 28.5l76 94q1 -1 6 -5t8 -6t9.5 -6.5t12 -7t13 -6.5t15 -6.5t16 -5t18 -3.5t19.5 -1q39 0 59.5 17.5t20.5 45.5q0 66 -72 66q-41 0 -74 -33l-102 63
l84 132q-239 33 -384.5 203t-145.5 435q0 134 43.5 251.5t124.5 207t206.5 141.5t280.5 52q277 0 453 -168q25 -25 53 -60l-174 -170q-40 40 -60 54q-111 100 -264 100q-174 0 -267 -113.5t-93 -289.5q0 -179 99.5 -292.5t260.5 -113.5q186 0 354 154l162 -176
q-85 -102 -220.5 -161.5t-291.5 -62.5z" />
    <glyph glyph-name="Egravesmall" unicode="&#xf7e8;" horiz-adv-x="1140" 
d="M1073 0h-944v1241h920v-248h-625v-245h580v-244h-580v-254h649v-250zM795 1378h-226l-254 277h291z" />
    <glyph glyph-name="Eacutesmall" unicode="&#xf7e9;" horiz-adv-x="1140" 
d="M1073 0h-944v1241h920v-248h-625v-245h580v-244h-580v-254h649v-250zM408 1378h225l254 277h-291z" />
    <glyph glyph-name="Ecircumflexsmall" unicode="&#xf7ea;" horiz-adv-x="1140" 
d="M1073 0h-944v1241h920v-248h-625v-245h580v-244h-580v-254h649v-250zM938 1378h-219l-121 133l-121 -133h-219l188 277h304z" />
    <glyph glyph-name="Edieresissmall" unicode="&#xf7eb;" horiz-adv-x="1140" 
d="M1073 0h-944v1241h920v-248h-625v-245h580v-244h-580v-254h649v-250zM535 1518q0 -58 -40.5 -98t-99.5 -40t-100 40t-41 98t41 97.5t100 39.5t99.5 -39.5t40.5 -97.5zM946 1518q0 -58 -40 -98t-99 -40t-100 40t-41 98t40 97.5t99 39.5t100 -39.5t41 -97.5z" />
    <glyph glyph-name="Igravesmall" unicode="&#xf7ec;" horiz-adv-x="552" 
d="M424 0h-295v1241h295v-1241zM446 1378h-225l-254 277h291z" />
    <glyph glyph-name="Iacutesmall" unicode="&#xf7ed;" horiz-adv-x="552" 
d="M424 0h-295v1241h295v-1241zM106 1378h226l254 277h-291z" />
    <glyph glyph-name="Icircumflexsmall" unicode="&#xf7ee;" horiz-adv-x="552" 
d="M424 0h-295v1241h295v-1241zM616 1378h-219l-121 133l-120 -133h-219l188 277h303z" />
    <glyph glyph-name="Idieresissmall" unicode="&#xf7ef;" horiz-adv-x="552" 
d="M424 0h-295v1241h295v-1241zM211 1518q0 -58 -40 -98t-99 -40t-100.5 40t-41.5 98t41.5 97.5t100.5 39.5t99 -39.5t40 -97.5zM623 1518q0 -58 -40.5 -98t-99.5 -40t-100 40t-41 98t40 97.5t99 39.5t100.5 -39.5t41.5 -97.5z" />
    <glyph glyph-name="Ethsmall" unicode="&#xf7f0;" horiz-adv-x="1429" 
d="M211 739v502h403q92 0 151.5 -3.5t139 -16.5t145 -44t121.5 -81q94 -85 142.5 -205.5t48.5 -263.5q0 -141 -49 -262t-142 -203q-59 -53 -128 -87t-145.5 -49.5t-139 -20.5t-144.5 -5h-403v516h-186v223h186zM506 516v-270h133q56 0 88.5 2t77 9.5t80 26t67.5 48.5
q51 50 78 128t27 167q0 190 -103 293q-28 28 -63 45t-80 24t-75.5 8.5t-82.5 1.5h-147v-260h297v-223h-297z" />
    <glyph glyph-name="Ntildesmall" unicode="&#xf7f1;" horiz-adv-x="1343" 
d="M1214 0h-284l-518 758v-758h-283v1241h285l518 -756v756h282v-1241zM1004 1649v-29q0 -112 -57.5 -176t-153.5 -64q-52 0 -128.5 39t-105.5 39q-26 0 -42.5 -19t-16.5 -53h-162v19q3 121 60.5 185.5t154.5 64.5q55 0 130.5 -37t102.5 -37q28 0 44 18t16 50h158z" />
    <glyph glyph-name="Ogravesmall" unicode="&#xf7f2;" horiz-adv-x="1439" 
d="M1372 621q0 -97 -25 -189.5t-78.5 -176t-129 -147t-183.5 -100.5t-235 -37q-128 0 -236.5 37t-184 100.5t-129 147t-78.5 176t-25 189.5q0 122 41 235.5t119.5 207t206 150t286.5 56.5q127 0 235 -37t183.5 -100t129 -146.5t78.5 -176t25 -189.5zM1067 621q0 109 -37 199
t-117 148t-192 58t-192.5 -58t-118 -148t-37.5 -199q0 -81 22 -152.5t64 -128.5t109.5 -90t152.5 -33t152 33t108.5 90t63.5 128.5t22 152.5zM915 1378h-225l-254 277h291z" />
    <glyph glyph-name="Oacutesmall" unicode="&#xf7f3;" horiz-adv-x="1439" 
d="M1372 621q0 -97 -25 -189.5t-78.5 -176t-129 -147t-183.5 -100.5t-235 -37q-128 0 -236.5 37t-184 100.5t-129 147t-78.5 176t-25 189.5q0 122 41 235.5t119.5 207t206 150t286.5 56.5q127 0 235 -37t183.5 -100t129 -146.5t78.5 -176t25 -189.5zM1067 621q0 109 -37 199
t-117 148t-192 58t-192.5 -58t-118 -148t-37.5 -199q0 -81 22 -152.5t64 -128.5t109.5 -90t152.5 -33t152 33t108.5 90t63.5 128.5t22 152.5zM524 1378h226l254 277h-291z" />
    <glyph glyph-name="Ocircumflexsmall" unicode="&#xf7f4;" horiz-adv-x="1439" 
d="M1372 621q0 -97 -25 -189.5t-78.5 -176t-129 -147t-183.5 -100.5t-235 -37q-128 0 -236.5 37t-184 100.5t-129 147t-78.5 176t-25 189.5q0 122 41 235.5t119.5 207t206 150t286.5 56.5q127 0 235 -37t183.5 -100t129 -146.5t78.5 -176t25 -189.5zM1067 621q0 109 -37 199
t-117 148t-192 58t-192.5 -58t-118 -148t-37.5 -199q0 -81 22 -152.5t64 -128.5t109.5 -90t152.5 -33t152 33t108.5 90t63.5 128.5t22 152.5zM1061 1378h-219l-121 133l-121 -133h-219l188 277h303z" />
    <glyph glyph-name="Otildesmall" unicode="&#xf7f5;" horiz-adv-x="1439" 
d="M1372 621q0 -97 -25 -189.5t-78.5 -176t-129 -147t-183.5 -100.5t-235 -37q-128 0 -236.5 37t-184 100.5t-129 147t-78.5 176t-25 189.5q0 122 41 235.5t119.5 207t206 150t286.5 56.5q127 0 235 -37t183.5 -100t129 -146.5t78.5 -176t25 -189.5zM1067 621q0 109 -37 199
t-117 148t-192 58t-192.5 -58t-118 -148t-37.5 -199q0 -81 22 -152.5t64 -128.5t109.5 -90t152.5 -33t152 33t108.5 90t63.5 128.5t22 152.5zM1053 1649v-29q0 -112 -57.5 -176t-153.5 -64q-52 0 -128.5 39t-105.5 39q-26 0 -42.5 -19t-16.5 -53h-162v19q3 121 60.5 185.5
t154.5 64.5q55 0 131 -37t103 -37q28 0 43.5 18t15.5 50h158z" />
    <glyph glyph-name="Odieresissmall" unicode="&#xf7f6;" horiz-adv-x="1439" 
d="M1372 621q0 -97 -25 -189.5t-78.5 -176t-129 -147t-183.5 -100.5t-235 -37q-128 0 -236.5 37t-184 100.5t-129 147t-78.5 176t-25 189.5q0 122 41 235.5t119.5 207t206 150t286.5 56.5q127 0 235 -37t183.5 -100t129 -146.5t78.5 -176t25 -189.5zM1067 621q0 109 -37 199
t-117 148t-192 58t-192.5 -58t-118 -148t-37.5 -199q0 -81 22 -152.5t64 -128.5t109.5 -90t152.5 -33t152 33t108.5 90t63.5 128.5t22 152.5zM655 1513q0 -58 -40 -97.5t-99 -39.5t-100 39.5t-41 97.5t41 98t100 40t99 -40t40 -98zM1067 1513q0 -58 -40 -97.5t-99 -39.5
t-100.5 39.5t-41.5 97.5t40.5 98t99.5 40t100 -40t41 -98z" />
    <glyph glyph-name="Oslashsmall" unicode="&#xf7f8;" horiz-adv-x="1445" 
d="M1380 1137l-125 -127q117 -170 117 -389q0 -97 -25 -189.5t-78.5 -176t-129 -147t-183.5 -100.5t-235 -37q-130 0 -229.5 35t-155.5 76l-117 -119l-145 141l116 121q-48 66 -85 169t-37 227q0 122 41 235.5t119.5 207t206 150t286.5 56.5q234 0 391 -117l121 125z
M924 961q-81 65 -203 65q-112 0 -192.5 -58t-118 -148t-37.5 -199q0 -124 33 -187q256 262 518 527zM1067 621q0 116 -29 176q-100 -100 -285 -288.5t-229 -232.5q31 -25 84 -42t113 -17q85 1 152 34t108.5 89.5t63.5 128t22 152.5z" />
    <glyph glyph-name="Ugravesmall" unicode="&#xf7f9;" horiz-adv-x="1331" 
d="M920 1241h294v-717q0 -128 -29.5 -224.5t-109.5 -176.5q-77 -76 -184 -114t-227 -38q-258 0 -414 156q-79 79 -106 175.5t-27 221.5v717h295v-696q0 -44 1 -68.5t6.5 -62.5t19.5 -67.5t36 -53.5q74 -74 191 -74q121 0 188 70q30 31 45 77.5t18 84t3 98.5v692zM862 1378
h-225l-254 277h291z" />
    <glyph glyph-name="Uacutesmall" unicode="&#xf7fa;" horiz-adv-x="1331" 
d="M920 1241h294v-717q0 -128 -29.5 -224.5t-109.5 -176.5q-77 -76 -184 -114t-227 -38q-258 0 -414 156q-79 79 -106 175.5t-27 221.5v717h295v-696q0 -44 1 -68.5t6.5 -62.5t19.5 -67.5t36 -53.5q74 -74 191 -74q121 0 188 70q30 31 45 77.5t18 84t3 98.5v692zM469 1378
h225l254 277h-291z" />
    <glyph glyph-name="Ucircumflexsmall" unicode="&#xf7fb;" horiz-adv-x="1331" 
d="M920 1241h294v-717q0 -128 -29.5 -224.5t-109.5 -176.5q-77 -76 -184 -114t-227 -38q-258 0 -414 156q-79 79 -106 175.5t-27 221.5v717h295v-696q0 -44 1 -68.5t6.5 -62.5t19.5 -67.5t36 -53.5q74 -74 191 -74q121 0 188 70q30 31 45 77.5t18 84t3 98.5v692zM1006 1378
h-220l-120 133l-121 -133h-219l188 277h303z" />
    <glyph glyph-name="Udieresissmall" unicode="&#xf7fc;" horiz-adv-x="1331" 
d="M920 1241h294v-717q0 -128 -29.5 -224.5t-109.5 -176.5q-77 -76 -184 -114t-227 -38q-258 0 -414 156q-79 79 -106 175.5t-27 221.5v717h295v-696q0 -44 1 -68.5t6.5 -62.5t19.5 -67.5t36 -53.5q74 -74 191 -74q121 0 188 70q30 31 45 77.5t18 84t3 98.5v692zM600 1518
q0 -58 -40 -98t-99 -40t-100.5 40t-41.5 98t41.5 97.5t100.5 39.5t99 -39.5t40 -97.5zM1012 1518q0 -58 -40.5 -98t-99.5 -40t-100 40t-41 98t40 97.5t99 39.5t100.5 -39.5t41.5 -97.5z" />
    <glyph glyph-name="Yacutesmall" unicode="&#xf7fd;" horiz-adv-x="1189" 
d="M741 510v-510h-295v510l-444 731h332l262 -461l268 461h326zM397 1378h226l254 277h-291z" />
    <glyph glyph-name="Thornsmall" unicode="&#xf7fe;" horiz-adv-x="1161" 
d="M1137 651q0 -168 -99 -270q-134 -139 -420 -139h-194v-242h-295v1241h295v-190h137q156 0 253.5 -16.5t174.5 -76.5q75 -59 111.5 -139.5t36.5 -167.5zM846 649q0 78 -51 117q-60 49 -220 49h-151v-336h162q58 0 99.5 6.5t80.5 23t59.5 52t20.5 88.5z" />
    <glyph glyph-name="Ydieresissmall" unicode="&#xf7ff;" horiz-adv-x="1189" 
d="M741 510v-510h-295v510l-444 731h332l262 -461l268 461h326zM530 1518q0 -58 -40 -98t-99 -40t-100 40t-41 98t41 97.5t100 39.5t99 -39.5t40 -97.5zM942 1518q0 -58 -40 -98t-99 -40t-100 40t-41 98t40 97.5t99 39.5t100 -39.5t41 -97.5z" />
    <glyph glyph-name="apple" unicode="&#xf8ff;" horiz-adv-x="1822" 
d="M1743 791q0 -169 -65 -321.5t-175.5 -262.5t-265 -175t-326.5 -65q-228 0 -419.5 110.5t-301.5 300t-110 413.5q0 169 65 322t176 263t265 175t325 65q172 0 326.5 -65t265 -175.5t175.5 -263t65 -321.5zM1583 791q0 180 -90 334t-245 244.5t-337 90.5q-180 0 -335 -90
t-245.5 -244t-90.5 -333q0 -210 122 -383t316 -244v469h-217v141h217v62q0 107 20 174t76 123q92 92 256 92q56 0 106 -10.5t70.5 -19.5t28.5 -15q-8 -20 -24.5 -62t-24.5 -63q-75 26 -137 26q-101 0 -156 -55q-30 -30 -40.5 -74t-10.5 -116v-62h348v-141h-348v-508
q46 -4 69 -4q180 0 335 90t246 244.5t91 333.5z" />
    <glyph glyph-name="figuredash" horiz-adv-x="0" 
 />
    <glyph glyph-name="OEsmall" horiz-adv-x="2048" 
d="M1104 0v111q-146 -140 -387 -140q-127 0 -234.5 37t-182.5 100.5t-128.5 147t-78.5 176t-25 189.5q0 122 41 235.5t119 207t205 150t284 56.5q238 0 387 -142v113h852v-250h-584v-243h539v-244h-539v-254h608v-250h-876zM725 1020q-171 0 -263.5 -114.5t-92.5 -284.5
q0 -81 22.5 -151.5t65 -126t112 -88t156.5 -32.5q88 0 158 32.5t113.5 88t66 126t22.5 151.5q0 109 -39 198t-122 145t-199 56z" />
    <glyph glyph-name="dollar.taboldstyle" horiz-adv-x="1130" 
d="M1034 358q0 -158 -111 -261.5t-286 -121.5v-163h-156v163q-244 23 -399 220q27 26 84 80.5t84 80.5q30 -40 93 -83.5t138 -55.5v272q-59 15 -103 30.5t-98 47t-88.5 71.5t-58.5 105t-24 146q0 154 104 257t268 122v162h156v-162q73 -6 137.5 -28t105 -46.5t74.5 -55
t47 -46.5t21 -29l-166 -160q-52 55 -102 83.5t-115 37.5v-287q46 -10 76.5 -18.5t76 -24.5t76 -34t64.5 -47t54.5 -63.5t34 -84t13.5 -107.5zM481 772v256l-11 -2q-10 -3 -13.5 -4t-15 -5t-17 -7t-15.5 -9.5t-15.5 -12.5t-13 -16t-11 -20.5t-6.5 -24.5t-3 -30q0 -31 9.5 -53
t32 -36.5t36 -20t43.5 -15.5zM782 342q0 25 -9 44t-20 30.5t-33.5 21.5t-37 14t-43.5 11v-252q29 3 51 9t44.5 19.5t35 39.5t12.5 63z" />
    <glyph glyph-name="cent.taboldstyle" horiz-adv-x="1130" 
d="M1030 147q-127 -181 -352 -198v-160h-160v160q-204 21 -313 156t-109 319q0 183 108.5 316t313.5 157v158h160v-156q188 -14 313 -149q9 -10 37 -48l-178 -147q-35 38 -64 59q-40 34 -108 48v-478q58 11 97.5 39t78.5 76q20 -17 56 -48t65.5 -56t54.5 -48zM518 193v460
q-69 -23 -106 -85t-37 -146t36.5 -144.5t106.5 -84.5z" />
    <glyph glyph-name="sterling.taboldstyle" horiz-adv-x="1130" 
d="M1061 1047q-25 -22 -84.5 -72.5t-91.5 -77.5q-102 133 -242 133q-89 0 -131.5 -50t-42.5 -118q0 -31 4.5 -56.5t12 -49.5t8.5 -27h315v-215h-270q0 -3 1 -16t1 -21q0 -153 -86 -239h575v-238h-930v215q176 67 176 242q0 29 -4 57h-172v215h125q-1 5 -7 25t-9.5 33.5
t-6.5 39t-3 52.5q0 166 122 278.5t304 112.5q119 0 220.5 -45.5t172.5 -124.5q30 -33 43 -53z" />
    <glyph glyph-name="yen.taboldstyle" horiz-adv-x="1130" 
d="M1102 1241l-268 -504h202v-205h-327v-126h315v-205h-315v-201h-291v201h-314v205h314v126h-326v205h201l-268 504h307l235 -506l238 506h297z" />
    <glyph glyph-name="Euro.taboldstyle" horiz-adv-x="1130" 
d="M1114 188q-147 -217 -430 -217q-104 0 -193 35t-150.5 93t-101.5 128.5t-55 147.5h-155v188h147q-4 24 -4 49q0 23 4 47h-147v191h157q31 178 162.5 299t329.5 121q234 0 375 -156q27 -27 49 -63l-178 -142q-51 65 -106 95t-128 30q-83 0 -141.5 -54.5t-79.5 -129.5h336
v-191h-359q-4 -24 -4 -47q0 -25 4 -49h359v-188h-334q12 -62 72.5 -116t152.5 -54q142 0 242 127q136 -112 176 -144z" />
    <glyph glyph-name="florin.taboldstyle" 
d="M1249 1378l-71 -215q-56 21 -121 21q-51 0 -92 -23q-32 -18 -48.5 -49.5t-29.5 -89.5l-19 -86h291v-229h-340l-164 -775q-41 -197 -178 -280q-106 -62 -256 -62q-118 0 -213 39l72 215q60 -20 121 -20q55 0 94 22q59 32 80 140q67 333 151 721h-190v229h239l31 139
q45 200 176 281q104 63 254 63q113 0 213 -41z" />
    <glyph glyph-name="one.taboldstyle" 
d="M1190 0h-1004v248h357v844l-293 -185l-137 207l440 275h283v-1141h354v-248z" />
    <glyph glyph-name="two.taboldstyle" 
d="M1126 995q0 -73 -22 -136t-59.5 -110t-86 -88.5t-102.5 -74t-108.5 -63t-104.5 -60.5t-89.5 -60.5t-65 -69t-29.5 -81.5h659v-252h-973q0 77 1.5 118.5t9.5 105t24.5 106.5t48 95t78.5 99q55 55 134.5 107t145 88t126 76t95 89t34.5 109q0 85 -62.5 135t-150.5 50
q-191 0 -334 -164l-172 164q12 17 28 36t63.5 59.5t101 70t139.5 53.5t180 24q215 0 353 -116t138 -310z" />
    <glyph glyph-name="three.taboldstyle" 
d="M1120 375q0 -181 -149 -293.5t-379 -112.5q-106 0 -199 24t-155 62t-99 70t-61 63l170 166q7 -10 29 -29t62.5 -47t102 -47.5t127.5 -19.5q120 0 189 47.5t69 140.5q0 78 -55 123q-76 64 -268 64h-80v241h55q44 0 72.5 1.5t70.5 6.5t69 16.5t53.5 30.5t39.5 50.5t13 73.5
q0 74 -56.5 124t-150.5 50q-177 0 -309 -142l-168 166q192 217 489 217q130 0 237.5 -46t173.5 -136.5t66 -208.5q0 -73 -24 -134t-61 -98.5t-69 -58.5t-61 -32q24 -6 52 -18t66 -38.5t67.5 -61t50 -91t20.5 -123.5z" />
    <glyph glyph-name="four.taboldstyle" 
d="M1200 279h-209v-279h-284v279h-646v233l623 877h307v-871h209v-239zM707 518v512l-367 -512h367z" />
    <glyph glyph-name="five.taboldstyle" 
d="M1143 467q0 -224 -150 -361t-409 -137q-84 0 -160.5 16.5t-126 38.5t-91 49.5t-59 44t-26.5 27.5l155 185q138 -119 302 -119q123 0 198.5 63.5t75.5 184.5q0 109 -66 164t-165 55q-50 0 -92 -13t-67 -32t-42.5 -37.5t-23.5 -31.5l-7 -13l-229 88l80 750h813v-244h-600
l-35 -322q100 86 280 86q92 0 172 -28.5t141 -82.5t96.5 -139.5t35.5 -191.5z" />
    <glyph glyph-name="six.taboldstyle" 
d="M1186 473q0 -140 -63 -254t-184 -182t-280 -68q-127 0 -226.5 43t-161 111.5t-101 162.5t-55 187t-15.5 195q0 98 14 192.5t54.5 199t103 182t169.5 128.5t245 51q93 0 175.5 -20.5t131 -45.5t91 -60.5t54.5 -50.5t23 -30l-172 -163q-12 15 -30.5 32t-53.5 42t-87.5 41
t-110.5 16q-73 0 -132 -28t-94.5 -71t-59.5 -98t-33 -105.5t-9 -97.5v-26q18 23 46 47.5t72 52.5t107 46t131 18q197 0 324 -119t127 -328zM420 440q0 -106 65.5 -170.5t173.5 -64.5q106 0 171 65t65 172q0 106 -64 171t-169 65q-108 0 -175 -65.5t-67 -172.5z" />
    <glyph glyph-name="seven.taboldstyle" 
d="M1151 1147l-569 -1147h-330l584 1139h-723v250h1038v-242z" />
    <glyph glyph-name="eight.taboldstyle" 
d="M1178 381q0 -130 -74 -225.5t-196 -142t-275 -46.5t-275.5 46t-197 141t-74.5 225q0 60 20 113.5t49.5 89.5t66 64.5t66.5 43t54 19.5q-29 11 -61 31.5t-69 57.5t-61 96.5t-24 131.5q0 123 68 214t181 136t255 45t255 -43.5t182 -134t69 -215.5q0 -71 -23.5 -131t-60 -97
t-69 -59t-62.5 -32q22 -5 51 -18t66 -40t67 -62t51 -90t21 -118zM864 1004q0 94 -67.5 145t-165.5 51q-97 0 -164.5 -50.5t-67.5 -145.5q0 -91 67.5 -140t164.5 -49q98 0 165.5 48.5t67.5 140.5zM881 389q0 99 -73 154t-177 55q-101 0 -175.5 -55t-74.5 -154q0 -95 74 -148
t176 -53t176 53t74 148z" />
    <glyph glyph-name="nine.taboldstyle" 
d="M76 918q0 104 37 196t103.5 160t166.5 107.5t219 39.5q92 0 169.5 -22t134 -60.5t101 -92.5t73 -115t47.5 -131.5t26.5 -138t7.5 -138.5q0 -68 -7 -135t-25.5 -143t-46.5 -143t-74.5 -129t-105.5 -106.5t-143 -71t-184 -26.5q-93 0 -175.5 20.5t-131 45.5t-91 60.5
t-54.5 50.5t-23 30l172 164q12 -15 30.5 -32t54 -42t88 -41t110.5 -16q73 0 132 28t94.5 70.5t59.5 97.5t33 105.5t9 97.5v27q-18 -23 -46.5 -48t-72.5 -52.5t-107 -45.5t-131 -18q-197 0 -323.5 119t-126.5 328zM842 950q0 106 -66 171t-174 65q-106 0 -170.5 -65.5
t-64.5 -172.5q0 -106 63.5 -170.5t169.5 -64.5q108 0 175 65t67 172z" />
    <glyph glyph-name="zero.taboldstyle" 
d="M1190 694q0 -212 -62.5 -374t-190.5 -256.5t-306 -94.5q-108 0 -198.5 35t-157 99t-112.5 154t-68.5 200.5t-22.5 236.5q0 213 62.5 375t190.5 257t306 95q135 0 242 -54.5t176 -152t105 -229.5t36 -291zM889 694q0 44 -2 85t-9 91t-18 91.5t-31 82.5t-46 69t-64.5 45.5
t-85.5 17.5q-55 0 -98 -22.5t-70.5 -62.5t-46.5 -86.5t-28.5 -104.5t-13 -106t-3.5 -100q0 -477 256 -477q65 0 114 32.5t76 81t43.5 116.5t21.5 125.5t5 121.5z" />
    <glyph glyph-name="Grave" horiz-adv-x="0" 
 />
    <glyph glyph-name="Circumflex" horiz-adv-x="0" 
 />
    <glyph glyph-name="Tilde" horiz-adv-x="0" 
 />
    <glyph glyph-name="Dieresis" horiz-adv-x="0" 
 />
    <glyph glyph-name="Macron" horiz-adv-x="0" 
 />
    <glyph glyph-name="Acute" horiz-adv-x="0" 
 />
    <glyph glyph-name="Cedilla" horiz-adv-x="0" 
 />
    <glyph glyph-name="Breve" horiz-adv-x="0" 
 />
    <glyph glyph-name="Dotaccent" horiz-adv-x="0" 
 />
    <glyph glyph-name="Ring" horiz-adv-x="0" 
 />
    <glyph glyph-name="Hungarumlaut" horiz-adv-x="0" 
 />
    <glyph glyph-name="Ogonek" horiz-adv-x="0" 
 />
    <glyph glyph-name="Caron" horiz-adv-x="0" 
 />
    <glyph glyph-name="commaaccent.cap" horiz-adv-x="1024" 
 />
    <glyph glyph-name="commaaccent" horiz-adv-x="0" 
 />
    <glyph glyph-name="one.fitted" 
d="M1190 0h-1004v248h357v844l-293 -185l-137 207l440 275h283v-1141h354v-248z" />
    <glyph glyph-name="two.fitted" 
d="M1126 995q0 -73 -22 -136t-59.5 -110t-86 -88.5t-102.5 -74t-108.5 -63t-104.5 -60.5t-89.5 -60.5t-65 -69t-29.5 -81.5h659v-252h-973q0 77 1.5 118.5t9.5 105t24.5 106.5t48 95t78.5 99q55 55 134.5 107t145 88t126 76t95 89t34.5 109q0 85 -62.5 135t-150.5 50
q-191 0 -334 -164l-172 164q12 17 28 36t63.5 59.5t101 70t139.5 53.5t180 24q215 0 353 -116t138 -310z" />
    <glyph glyph-name="three.fitted" 
d="M1120 375q0 -181 -149 -293.5t-379 -112.5q-106 0 -199 24t-155 62t-99 70t-61 63l170 166q7 -10 29 -29t62.5 -47t102 -47.5t127.5 -19.5q120 0 189 47.5t69 140.5q0 78 -55 123q-76 64 -268 64h-80v241h55q44 0 72.5 1.5t70.5 6.5t69 16.5t53.5 30.5t39.5 50.5t13 73.5
q0 74 -56.5 124t-150.5 50q-177 0 -309 -142l-168 166q192 217 489 217q130 0 237.5 -46t173.5 -136.5t66 -208.5q0 -73 -24 -134t-61 -98.5t-69 -58.5t-61 -32q24 -6 52 -18t66 -38.5t67.5 -61t50 -91t20.5 -123.5z" />
    <glyph glyph-name="four.fitted" 
d="M1200 279h-209v-279h-284v279h-646v233l623 877h307v-871h209v-239zM707 518v512l-367 -512h367z" />
    <glyph glyph-name="five.fitted" 
d="M1143 467q0 -224 -150 -361t-409 -137q-84 0 -160.5 16.5t-126 38.5t-91 49.5t-59 44t-26.5 27.5l155 185q138 -119 302 -119q123 0 198.5 63.5t75.5 184.5q0 109 -66 164t-165 55q-50 0 -92 -13t-67 -32t-42.5 -37.5t-23.5 -31.5l-7 -13l-229 88l80 750h813v-244h-600
l-35 -322q100 86 280 86q92 0 172 -28.5t141 -82.5t96.5 -139.5t35.5 -191.5z" />
    <glyph glyph-name="six.fitted" 
d="M1186 473q0 -140 -63 -254t-184 -182t-280 -68q-127 0 -226.5 43t-161 111.5t-101 162.5t-55 187t-15.5 195q0 98 14 192.5t54.5 199t103 182t169.5 128.5t245 51q93 0 175.5 -20.5t131 -45.5t91 -60.5t54.5 -50.5t23 -30l-172 -163q-12 15 -30.5 32t-53.5 42t-87.5 41
t-110.5 16q-73 0 -132 -28t-94.5 -71t-59.5 -98t-33 -105.5t-9 -97.5v-26q18 23 46 47.5t72 52.5t107 46t131 18q197 0 324 -119t127 -328zM420 440q0 -106 65.5 -170.5t173.5 -64.5q106 0 171 65t65 172q0 106 -64 171t-169 65q-108 0 -175 -65.5t-67 -172.5z" />
    <glyph glyph-name="seven.fitted" 
d="M1151 1147l-569 -1147h-330l584 1139h-723v250h1038v-242z" />
    <glyph glyph-name="eight.fitted" 
d="M1178 381q0 -130 -74 -225.5t-196 -142t-275 -46.5t-275.5 46t-197 141t-74.5 225q0 60 20 113.5t49.5 89.5t66 64.5t66.5 43t54 19.5q-29 11 -61 31.5t-69 57.5t-61 96.5t-24 131.5q0 123 68 214t181 136t255 45t255 -43.5t182 -134t69 -215.5q0 -71 -23.5 -131t-60 -97
t-69 -59t-62.5 -32q22 -5 51 -18t66 -40t67 -62t51 -90t21 -118zM864 1004q0 94 -67.5 145t-165.5 51q-97 0 -164.5 -50.5t-67.5 -145.5q0 -91 67.5 -140t164.5 -49q98 0 165.5 48.5t67.5 140.5zM881 389q0 99 -73 154t-177 55q-101 0 -175.5 -55t-74.5 -154q0 -95 74 -148
t176 -53t176 53t74 148z" />
    <glyph glyph-name="zero.fitted" 
d="M1190 694q0 -212 -62.5 -374t-190.5 -256.5t-306 -94.5q-108 0 -198.5 35t-157 99t-112.5 154t-68.5 200.5t-22.5 236.5q0 213 62.5 375t190.5 257t306 95q135 0 242 -54.5t176 -152t105 -229.5t36 -291zM889 694q0 44 -2 85t-9 91t-18 91.5t-31 82.5t-46 69t-64.5 45.5
t-85.5 17.5q-55 0 -98 -22.5t-70.5 -62.5t-46.5 -86.5t-28.5 -104.5t-13 -106t-3.5 -100q0 -477 256 -477q65 0 114 32.5t76 81t43.5 116.5t21.5 125.5t5 121.5z" />
    <glyph glyph-name="nine.fitted" 
d="M76 918q0 104 37 196t103.5 160t166.5 107.5t219 39.5q92 0 169.5 -22t134 -60.5t101 -92.5t73 -115t47.5 -131.5t26.5 -138t7.5 -138.5q0 -68 -7 -135t-25.5 -143t-46.5 -143t-74.5 -129t-105.5 -106.5t-143 -71t-184 -26.5q-93 0 -175.5 20.5t-131 45.5t-91 60.5
t-54.5 50.5t-23 30l172 164q12 -15 30.5 -32t54 -42t88 -41t110.5 -16q73 0 132 28t94.5 70.5t59.5 97.5t33 105.5t9 97.5v27q-18 -23 -46.5 -48t-72.5 -52.5t-107 -45.5t-131 -18q-197 0 -323.5 119t-126.5 328zM842 950q0 106 -66 171t-174 65q-106 0 -170.5 -65.5
t-64.5 -172.5q0 -106 63.5 -170.5t169.5 -64.5q108 0 175 65t67 172z" />
    <glyph glyph-name="peseta" horiz-adv-x="0" 
 />
    <glyph glyph-name="lira" horiz-adv-x="0" 
 />
    <glyph glyph-name="franc" horiz-adv-x="0" 
 />
    <glyph glyph-name="germandbls.small" horiz-adv-x="1198" 
d="M1161 393q0 -88 -28 -159t-73.5 -117t-108 -77t-128 -44.5t-135.5 -13.5q-137 0 -209 36l62 213q60 -20 110 -20q96 0 159.5 50t63.5 147q0 81 -53 131q-67 61 -250 61h-59v227h49q151 0 211 70q41 48 41 123q0 80 -57.5 129t-151.5 49q-104 0 -158 -57
q-33 -35 -44 -85.5t-11 -125.5v-930h-287v928q0 262 134 383q124 112 360 112q223 0 356 -97.5t133 -274.5q0 -60 -18.5 -111.5t-45.5 -84.5t-60 -57.5t-60.5 -35.5t-48.5 -14q24 -2 57.5 -13t78.5 -38.5t82 -65t63 -100.5t26 -138z" />
    <glyph glyph-name="US" horiz-adv-x="1024" 
 />
    </font>
</defs>
</svg>
