<?xml version="1.0" encoding="UTF-8"?>
<svg xmlns="http://www.w3.org/2000/svg" xmlns:xlink="http://www.w3.org/1999/xlink" width="80px" height="80px" viewBox="0 0 80 80" version="1.1">
  <title>Group 3 Copy 2</title>
  <defs>
    <polygon id="path-1" points="0 -0.000296296296 79.9385679 -0.000296296296 79.9385679 79.9382716 0 79.9382716"></polygon>
    <linearGradient x1="50%" y1="0%" x2="50%" y2="100%" id="linearGradient-3">
      <stop stop-color="#95ADC2" offset="0%"></stop>
      <stop stop-color="#C0DFDF" offset="100%"></stop>
    </linearGradient>
  </defs>
  <g id="Page-1" stroke="none" stroke-width="1" fill="none" fill-rule="evenodd">
    <g id="Liwa_approach" transform="translate(-950.000000, -1185.000000)">
      <g id="Group-3" transform="translate(917.000000, 1155.000000)">
        <g id="Group-3-Copy-2" transform="translate(33.000000, 30.000000)">
          <mask id="mask-2" fill="white">
            <use xlink:href="#path-1"></use>
          </mask>
          <g id="Clip-2"></g>
          <path d="M63.7963457,60.216 C61.5523951,66.6969877 58.2664691,72.5290864 54.166716,77.3764938 C62.7346173,74.1300741 69.8891852,68.0164938 74.4758519,60.216 L63.7963457,60.216 Z M41.4506667,60.216 L41.4506667,79.9384691 C43.8654815,79.8505679 46.2319012,79.5394568 48.518321,79.0426667 C48.5568395,79.0001975 48.598321,78.958716 48.6417778,78.9192099 C53.7756049,74.0243951 57.9336296,67.6194568 60.6477037,60.216 L41.4506667,60.216 Z M19.289679,60.216 C22.0047407,67.6194568 26.1627654,74.0243951 31.2965926,78.9192099 C31.3400494,78.958716 31.3815309,79.0001975 31.4200494,79.0426667 C31.4299259,79.0535309 31.4407901,79.0634074 31.4506667,79.0742716 C33.7341235,79.5690864 36.0778272,79.8515556 38.4877037,79.9384691 L38.4877037,60.216 L19.289679,60.216 Z M5.49412346,60.216 C10.0827654,68.0145185 17.2027654,74.1310617 25.7716543,77.3764938 C21.6719012,72.5290864 18.3859753,66.6969877 16.1420247,60.216 L5.49412346,60.216 Z M67.0990617,41.4505679 C66.9736296,46.9666173 66.1509136,52.2900741 64.7217778,57.253037 L76.0491852,57.253037 C78.355358,52.4401975 79.7341235,47.098963 79.9385679,41.4505679 L67.0990617,41.4505679 Z M41.4506667,41.4505679 L41.4506667,57.253037 L61.635358,57.253037 C63.1375802,52.3197037 64.0027654,46.9982222 64.1360988,41.4505679 L41.4506667,41.4505679 Z M15.8022716,41.4505679 C15.9365926,46.9982222 16.8007901,52.3197037 18.3020247,57.253037 L38.4877037,57.253037 L38.4877037,41.4505679 L15.8022716,41.4505679 Z M-0.000197530864,41.4505679 C0.205234568,47.098963 1.58103704,52.4401975 3.88918519,57.253037 L15.2156049,57.253037 C13.7874568,52.2900741 12.9657284,46.9666173 12.8393086,41.4505679 L-0.000197530864,41.4505679 Z M64.6911605,22.6851358 C66.1242469,27.658963 66.9716543,32.9626667 67.0990617,38.4876049 L79.9385679,38.4876049 C79.7341235,32.8392099 78.355358,27.498963 76.0491852,22.6851358 L64.6911605,22.6851358 Z M41.4506667,22.6851358 L41.4506667,38.4876049 L64.1360988,38.4876049 C64.0007901,32.9399506 63.1079506,27.6224198 61.6047407,22.6851358 L41.4506667,22.6851358 Z M18.3336296,22.6851358 C16.8304198,27.6224198 15.9375802,32.9399506 15.8022716,38.4876049 L38.4877037,38.4876049 L38.4877037,22.6851358 L18.3336296,22.6851358 Z M3.88918519,22.6851358 C1.58103704,27.498963 0.205234568,32.8392099 -0.000197530864,38.4876049 L12.8393086,38.4876049 C12.966716,32.9626667 13.8131358,27.658963 15.2472099,22.6851358 L3.88918519,22.6851358 Z M54.166716,2.56167901 C58.2654815,7.41204938 61.5523951,13.2352593 63.7963457,19.7221728 L74.4758519,19.7221728 C69.8891852,11.918716 62.7346173,5.81007407 54.166716,2.56167901 L54.166716,2.56167901 Z M25.7716543,2.56167901 C17.2027654,5.81007407 10.0827654,11.9206914 5.49412346,19.7221728 L16.1420247,19.7221728 C18.3859753,13.2352593 21.6728889,7.41204938 25.7716543,2.56167901 L25.7716543,2.56167901 Z M41.4506667,-0.000296296296 L41.4506667,19.7221728 L60.6170864,19.7221728 C57.9030123,12.3226667 53.769679,5.87525926 48.6417778,0.987358025 C48.5993086,0.958716049 48.5578272,0.928098765 48.518321,0.894518519 C46.2319012,0.398716049 43.8654815,0.0876049383 41.4506667,-0.000296296296 L41.4506667,-0.000296296296 Z M38.4877037,-0.000296296296 C36.0541235,0.0885925926 33.692642,0.391802469 31.3884444,0.894518519 C31.3598025,0.927111111 31.3281975,0.957728395 31.2965926,0.987358025 C26.1686914,5.87525926 22.035358,12.3226667 19.321284,19.7221728 L38.4877037,19.7221728 L38.4877037,-0.000296296296 Z" id="Fill-1" fill="url(#linearGradient-3)" mask="url(#mask-2)"></path>
        </g>
      </g>
    </g>
  </g>
</svg>
