<?xml version="1.0" standalone="no"?>
<!DOCTYPE svg PUBLIC "-//W3C//DTD SVG 20010904//EN"
 "http://www.w3.org/TR/2001/REC-SVG-20010904/DTD/svg10.dtd">
<svg version="1.0" xmlns="http://www.w3.org/2000/svg"
 width="1240.000000pt" height="1240.000000pt" viewBox="0 0 1240.000000 1240.000000"
 preserveAspectRatio="xMidYMid meet">
<metadata>
Created by potrace 1.11, written by Peter Selinger 2001-2013
</metadata>
<g transform="translate(0.000000,1240.000000) scale(0.100000,-0.100000)"
fill="#000000" stroke="none">
<path d="M5804 12389 c-3 -5 -3 -9 0 -9 2 0 1 -13 -4 -29 -4 -15 -4 -34 1 -42
4 -7 4 -19 -2 -25 -7 -8 -7 -14 0 -18 6 -4 7 -15 1 -30 -4 -12 -4 -29 0 -36 5
-8 4 -22 -1 -32 -6 -12 -6 -18 0 -18 6 0 8 -6 6 -12 -10 -30 -13 -68 -5 -68 5
0 7 -7 4 -15 -9 -23 -10 -116 -2 -121 5 -3 5 -10 2 -16 -10 -15 -11 -79 -3
-110 5 -17 4 -28 -2 -28 -6 0 -6 -7 0 -19 6 -10 8 -21 4 -24 -6 -6 -12 -1457
-16 -3969 -1 -654 -6 -1188 -10 -1188 -5 0 -5 -5 -2 -10 4 -6 6 -97 6 -203 0
-106 -3 -1020 -7 -2032 -3 -1012 -7 -2219 -8 -2682 0 -464 -4 -843 -8 -843 -4
0 -21 20 -39 45 -18 25 -35 45 -39 45 -3 0 -14 13 -23 30 -10 16 -24 36 -32
44 -8 8 -42 48 -75 90 -66 83 -84 106 -115 142 -11 13 -29 36 -40 50 -11 15
-27 34 -35 43 -9 9 -29 35 -45 56 -17 22 -32 42 -35 45 -4 3 -53 64 -110 135
-57 72 -115 141 -127 155 -13 14 -23 28 -23 32 0 4 -11 19 -25 33 -14 14 -24
25 -21 25 2 0 -8 13 -22 28 -15 16 -36 39 -46 52 -20 24 -20 70 -20 3183 0
2852 -1 3157 -15 3151 -9 -3 -41 -15 -71 -26 -30 -10 -64 -23 -75 -28 -11 -5
-38 -16 -60 -23 -116 -41 -171 -63 -176 -70 -3 -5 -10 -8 -15 -8 -15 1 -78
-21 -93 -33 -8 -6 -17 -10 -20 -10 -3 1 -16 -2 -29 -7 -13 -5 -29 -9 -36 -9
-7 0 -16 -3 -20 -7 -3 -4 -21 -12 -39 -18 -17 -7 -117 -44 -222 -84 -104 -40
-194 -73 -200 -74 -5 -1 -12 -4 -15 -7 -7 -7 -102 -41 -117 -42 -7 -1 -13 -5
-13 -10 0 -4 -7 -8 -15 -8 -8 0 -54 -15 -102 -34 -113 -44 -127 -49 -133 -50
-6 -2 -132 -50 -175 -67 -16 -7 -32 -13 -35 -14 -3 -1 -18 -7 -33 -13 -16 -7
-33 -12 -38 -12 -5 0 -17 -4 -27 -10 -9 -5 -55 -24 -102 -41 -47 -17 -99 -38
-117 -45 -17 -8 -37 -14 -45 -14 -8 0 -18 -4 -24 -8 -5 -5 -29 -16 -54 -25
-25 -9 -58 -22 -75 -28 -16 -7 -33 -13 -37 -14 -5 -2 -10 -4 -13 -5 -3 -1 -8
-3 -12 -4 -5 -1 -25 -10 -47 -19 -21 -9 -41 -17 -44 -17 -6 0 -315 -116 -352
-132 -14 -6 -29 -13 -35 -14 -5 -1 -35 -12 -65 -24 -30 -12 -59 -23 -65 -24
-5 -2 -23 -9 -40 -16 -16 -6 -46 -18 -65 -25 l-35 -12 -3 -1362 c-2 -1081 1
-1365 10 -1375 7 -7 41 -44 75 -83 34 -38 74 -83 90 -100 15 -17 42 -47 58
-65 82 -93 182 -205 200 -224 11 -12 45 -50 75 -84 30 -35 79 -88 107 -118 29
-31 53 -57 53 -59 0 -2 15 -21 34 -41 19 -20 44 -48 56 -62 25 -29 129 -144
180 -200 19 -21 55 -62 80 -90 25 -29 56 -64 70 -79 14 -15 54 -60 90 -100 36
-40 76 -86 90 -101 14 -15 54 -60 90 -100 95 -107 150 -169 190 -212 19 -20
46 -50 59 -65 12 -16 54 -62 91 -103 37 -41 83 -92 101 -114 19 -21 51 -56 71
-78 21 -22 38 -41 38 -43 0 -2 15 -19 33 -37 33 -36 67 -73 177 -198 36 -41
76 -85 90 -100 14 -14 50 -55 80 -90 30 -35 64 -73 75 -85 32 -34 236 -260
278 -309 43 -49 144 -161 165 -183 13 -12 21 -23 19 -23 -2 0 14 -19 37 -43
23 -23 68 -74 101 -111 33 -38 71 -81 85 -96 14 -15 59 -65 100 -111 41 -46
85 -94 98 -107 12 -13 22 -25 22 -27 0 -2 15 -19 33 -37 17 -19 57 -62 87 -97
30 -34 66 -75 80 -90 14 -15 59 -65 100 -111 41 -46 80 -88 85 -94 37 -40 174
-196 191 -219 24 -29 48 -35 61 -13 4 7 42 51 83 96 41 46 83 92 93 104 10 12
35 39 55 62 20 22 66 74 102 114 36 40 74 83 85 95 11 11 54 59 95 105 41 47
79 90 85 96 18 19 133 148 152 170 10 12 52 59 93 105 41 45 93 102 115 127
22 25 50 56 62 69 74 83 147 165 162 181 9 11 36 42 61 69 25 27 73 82 108
121 35 39 73 82 85 95 12 13 49 54 82 91 33 38 79 89 102 114 24 25 56 62 73
82 16 20 47 54 67 76 21 22 63 69 93 103 30 35 71 80 90 101 19 21 60 66 92
101 31 35 67 76 80 90 12 14 55 61 93 104 39 44 84 95 102 113 18 19 47 53 65
75 18 22 43 50 54 61 18 18 117 128 229 255 17 19 44 49 60 67 17 17 59 65 95
105 36 40 87 97 114 127 26 30 60 68 75 85 14 16 37 42 51 57 14 15 52 58 85
95 33 37 71 80 85 96 66 73 147 164 170 189 14 15 50 56 80 90 30 33 66 74 80
89 125 141 172 192 213 237 26 28 57 64 70 80 l22 28 1 1771 c1 973 2 1773 3
1777 0 4 20 -1 44 -11 52 -22 80 -34 87 -35 3 -1 10 -4 15 -7 6 -4 28 -12 50
-19 22 -7 56 -20 75 -28 19 -9 37 -16 40 -17 3 -1 19 -7 35 -14 17 -7 35 -14
40 -15 6 -1 27 -10 49 -19 21 -9 40 -17 42 -17 1 0 15 -5 31 -12 15 -6 30 -12
33 -13 6 -2 48 -18 100 -39 90 -36 221 -86 225 -86 3 0 5 586 5 1303 l0 1302
-63 29 c-34 16 -125 59 -202 94 -77 36 -141 69 -143 74 -2 4 -10 8 -18 8 -7 0
-39 13 -71 29 -109 54 -232 111 -241 111 -5 0 -15 7 -22 15 -7 9 -15 13 -17
11 -3 -2 -35 10 -71 29 -37 18 -112 54 -167 80 -55 26 -143 67 -195 92 -52 25
-133 64 -180 86 -47 21 -132 62 -190 90 -58 28 -107 51 -110 52 -3 0 -48 22
-102 47 -53 25 -106 49 -117 53 -12 3 -21 11 -21 16 0 5 -6 9 -14 9 -7 0 -54
20 -105 45 -50 25 -93 45 -95 45 -2 0 -75 34 -162 76 -88 42 -197 94 -244 116
-47 22 -121 58 -166 79 -44 21 -86 39 -92 39 -7 0 -12 5 -12 10 0 6 -5 10 -10
10 -6 0 -54 21 -108 46 -53 26 -133 63 -177 84 -44 21 -127 60 -185 87 -58 28
-139 66 -180 86 -41 19 -136 64 -210 100 -74 35 -160 76 -190 90 -94 43 -271
127 -355 168 -45 21 -86 39 -93 39 -7 0 -12 5 -12 10 0 6 -5 10 -10 10 -10 0
-79 32 -268 123 -51 24 -95 41 -98 36z"/>
</g>
</svg>
